<?xml version="1.0" encoding="UTF-8" standalone="no"?><svg xmlns="http://www.w3.org/2000/svg" xmlns:xlink="http://www.w3.org/1999/xlink" clip-rule="evenodd" stroke-miterlimit="10" viewBox="0 0 720 540"><desc>SVG generated by Keynote</desc><defs></defs><g transform="matrix(1.00, 0.00, -0.00, -1.00, 0.0, 540.0)"><path d="M 0.0 540.0 L 720.0 540.0 L 720.0 0.0 L 0.0 0.0 Z M 0.0 540.0 " fill="#FFFFFF"></path><path d="M 0.0 0.0 L 0.0 99.0 L 160.9 99.0 L 281.2 0.0 L 0.0 0.0 Z M 0.0 -0.0 " fill="#EEE0A1"></path><path d="M -0.2 0.0 L 160.5 99.0 L 720.0 99.0 L 720.0 0.0 L -0.2 0.0 Z M -0.2 -0.0 " fill="#FA8716" fill-opacity="0.80"></path><text xml:space="preserve" font-family="Arial-BoldMT,Arial" font-weight="bold" font-size="28.0" fill="#000000" transform="matrix(1.00, 0.00, -0.00, -1.00, 34.6, 424.6)">W</text><text xml:space="preserve" font-family="Arial-BoldMT,Arial" font-weight="bold" font-size="28.0" fill="#000000" transform="matrix(1.00, 0.00, -0.00, -1.00, 61.0, 424.6)">h</text><text xml:space="preserve" font-family="Arial-BoldMT,Arial" font-weight="bold" font-size="28.0" fill="#000000" transform="matrix(1.00, 0.00, -0.00, -1.00, 78.1, 424.6)">a</text><text xml:space="preserve" font-family="Arial-BoldMT,Arial" font-weight="bold" font-size="28.0" fill="#000000" transform="matrix(1.00, 0.00, -0.00, -1.00, 93.7, 424.6)">t</text><text xml:space="preserve" font-family="Arial-BoldMT,Arial" font-weight="bold" font-size="28.0" fill="#000000" transform="matrix(1.00, 0.00, -0.00, -1.00, 103.0, 424.6)"> </text><text xml:space="preserve" font-family="Arial-BoldMT,Arial" font-weight="bold" font-size="28.0" fill="#000000" transform="matrix(1.00, 0.00, -0.00, -1.00, 110.8, 424.6)">&amp;</text><text xml:space="preserve" font-family="Arial-BoldMT,Arial" font-weight="bold" font-size="28.0" fill="#000000" transform="matrix(1.00, 0.00, -0.00, -1.00, 131.0, 424.6)"> </text><text xml:space="preserve" font-family="Arial-BoldMT,Arial" font-weight="bold" font-size="28.0" fill="#000000" transform="matrix(1.00, 0.00, -0.00, -1.00, 138.8, 424.6)">W</text><text xml:space="preserve" font-family="Arial-BoldMT,Arial" font-weight="bold" font-size="28.0" fill="#000000" transform="matrix(1.00, 0.00, -0.00, -1.00, 165.2, 424.6)">h</text><text xml:space="preserve" font-family="Arial-BoldMT,Arial" font-weight="bold" font-size="28.0" fill="#000000" transform="matrix(1.00, 0.00, -0.00, -1.00, 182.3, 424.6)">e</text><text xml:space="preserve" font-family="Arial-BoldMT,Arial" font-weight="bold" font-size="28.0" fill="#000000" transform="matrix(1.00, 0.00, -0.00, -1.00, 197.9, 424.6)">r</text><text xml:space="preserve" font-family="Arial-BoldMT,Arial" font-weight="bold" font-size="28.0" fill="#000000" transform="matrix(1.00, 0.00, -0.00, -1.00, 208.8, 424.6)">e</text><text xml:space="preserve" font-family="Arial-BoldMT,Arial" font-weight="bold" font-size="28.0" fill="#000000" transform="matrix(1.00, 0.00, -0.00, -1.00, 224.4, 424.6)"> </text><text xml:space="preserve" font-family="ArialMT,Arial" font-size="24.0" fill="#000000" transform="matrix(1.00, 0.00, -0.00, -1.00, 34.6, 361.6)">L</text><text xml:space="preserve" font-family="ArialMT,Arial" font-size="24.0" fill="#000000" transform="matrix(1.00, 0.00, -0.00, -1.00, 48.0, 361.6)">i</text><text xml:space="preserve" font-family="ArialMT,Arial" font-size="24.0" fill="#000000" transform="matrix(1.00, 0.00, -0.00, -1.00, 53.3, 361.6)">c</text><text xml:space="preserve" font-family="ArialMT,Arial" font-size="24.0" fill="#000000" transform="matrix(1.00, 0.00, -0.00, -1.00, 65.3, 361.6)">e</text><text xml:space="preserve" font-family="ArialMT,Arial" font-size="24.0" fill="#000000" transform="matrix(1.00, 0.00, -0.00, -1.00, 78.6, 361.6)">n</text><text xml:space="preserve" font-family="ArialMT,Arial" font-size="24.0" fill="#000000" transform="matrix(1.00, 0.00, -0.00, -1.00, 92.0, 361.6)">s</text><text xml:space="preserve" font-family="ArialMT,Arial" font-size="24.0" fill="#000000" transform="matrix(1.00, 0.00, -0.00, -1.00, 104.0, 361.6)">e</text><text xml:space="preserve" font-family="ArialMT,Arial" font-size="24.0" fill="#000000" transform="matrix(1.00, 0.00, -0.00, -1.00, 117.3, 361.6)">s</text><text xml:space="preserve" font-family="ArialMT,Arial" font-size="24.0" fill="#000000" transform="matrix(1.00, 0.00, -0.00, -1.00, 129.3, 361.6)"> </text><text xml:space="preserve" font-family="ArialMT,Arial" font-size="24.0" fill="#000000" transform="matrix(1.00, 0.00, -0.00, -1.00, 136.0, 361.6)">g</text><text xml:space="preserve" font-family="ArialMT,Arial" font-size="24.0" fill="#000000" transform="matrix(1.00, 0.00, -0.00, -1.00, 149.4, 361.6)">r</text><text xml:space="preserve" font-family="ArialMT,Arial" font-size="24.0" fill="#000000" transform="matrix(1.00, 0.00, -0.00, -1.00, 157.4, 361.6)">a</text><text xml:space="preserve" font-family="ArialMT,Arial" font-size="24.0" fill="#000000" transform="matrix(1.00, 0.00, -0.00, -1.00, 170.7, 361.6)">n</text><text xml:space="preserve" font-family="ArialMT,Arial" font-size="24.0" fill="#000000" transform="matrix(1.00, 0.00, -0.00, -1.00, 184.1, 361.6)">t</text><text xml:space="preserve" font-family="ArialMT,Arial" font-size="24.0" fill="#000000" transform="matrix(1.00, 0.00, -0.00, -1.00, 190.7, 361.6)">e</text><text xml:space="preserve" font-family="ArialMT,Arial" font-size="24.0" fill="#000000" transform="matrix(1.00, 0.00, -0.00, -1.00, 204.1, 361.6)">d</text><text xml:space="preserve" font-family="ArialMT,Arial" font-size="24.0" fill="#000000" transform="matrix(1.00, 0.00, -0.00, -1.00, 217.4, 361.6)"> </text><text xml:space="preserve" font-family="ArialMT,Arial" font-size="24.0" fill="#000000" transform="matrix(1.00, 0.00, -0.00, -1.00, 224.1, 361.6)">b</text><text xml:space="preserve" font-family="ArialMT,Arial" font-size="24.0" fill="#000000" transform="matrix(1.00, 0.00, -0.00, -1.00, 237.4, 361.6)">y</text><text xml:space="preserve" font-family="ArialMT,Arial" font-size="24.0" fill="#000000" transform="matrix(1.00, 0.00, -0.00, -1.00, 249.4, 361.6)"> </text><text xml:space="preserve" font-family="ArialMT,Arial" font-size="24.0" fill="#000000" transform="matrix(1.00, 0.00, -0.00, -1.00, 256.1, 361.6)">t</text><text xml:space="preserve" font-family="ArialMT,Arial" font-size="24.0" fill="#000000" transform="matrix(1.00, 0.00, -0.00, -1.00, 262.8, 361.6)">h</text><text xml:space="preserve" font-family="ArialMT,Arial" font-size="24.0" fill="#000000" transform="matrix(1.00, 0.00, -0.00, -1.00, 276.1, 361.6)">e</text><text xml:space="preserve" font-family="ArialMT,Arial" font-size="24.0" fill="#000000" transform="matrix(1.00, 0.00, -0.00, -1.00, 289.5, 361.6)"> </text><text xml:space="preserve" font-family="ArialMT,Arial" font-size="24.0" fill="#000000" transform="matrix(1.00, 0.00, -0.00, -1.00, 296.1, 361.6)"> </text><text xml:space="preserve" font-family="ArialMT,Arial" font-size="24.0" fill="#000000" transform="matrix(1.00, 0.00, -0.00, -1.00, 34.6, 325.6)">o</text><text xml:space="preserve" font-family="ArialMT,Arial" font-size="24.0" fill="#000000" transform="matrix(1.00, 0.00, -0.00, -1.00, 48.0, 325.6)">w</text><text xml:space="preserve" font-family="ArialMT,Arial" font-size="24.0" fill="#000000" transform="matrix(1.00, 0.00, -0.00, -1.00, 65.3, 325.6)">n</text><text xml:space="preserve" font-family="ArialMT,Arial" font-size="24.0" fill="#000000" transform="matrix(1.00, 0.00, -0.00, -1.00, 78.6, 325.6)">e</text><text xml:space="preserve" font-family="ArialMT,Arial" font-size="24.0" fill="#000000" transform="matrix(1.00, 0.00, -0.00, -1.00, 92.0, 325.6)">r</text><text xml:space="preserve" font-family="ArialMT,Arial" font-size="24.0" fill="#000000" transform="matrix(1.00, 0.00, -0.00, -1.00, 100.0, 325.6)">s</text><text xml:space="preserve" font-family="ArialMT,Arial" font-size="24.0" fill="#000000" transform="matrix(1.00, 0.00, -0.00, -1.00, 112.0, 325.6)"> </text><text xml:space="preserve" font-family="ArialMT,Arial" font-size="24.0" fill="#000000" transform="matrix(1.00, 0.00, -0.00, -1.00, 118.6, 325.6)">o</text><text xml:space="preserve" font-family="ArialMT,Arial" font-size="24.0" fill="#000000" transform="matrix(1.00, 0.00, -0.00, -1.00, 132.0, 325.6)">f</text><text xml:space="preserve" font-family="ArialMT,Arial" font-size="24.0" fill="#000000" transform="matrix(1.00, 0.00, -0.00, -1.00, 138.7, 325.6)"> </text><text xml:space="preserve" font-family="ArialMT,Arial" font-size="24.0" fill="#000000" transform="matrix(1.00, 0.00, -0.00, -1.00, 145.3, 325.6)">t</text><text xml:space="preserve" font-family="ArialMT,Arial" font-size="24.0" fill="#000000" transform="matrix(1.00, 0.00, -0.00, -1.00, 152.0, 325.6)">h</text><text xml:space="preserve" font-family="ArialMT,Arial" font-size="24.0" fill="#000000" transform="matrix(1.00, 0.00, -0.00, -1.00, 165.3, 325.6)">e</text><text xml:space="preserve" font-family="ArialMT,Arial" font-size="24.0" fill="#000000" transform="matrix(1.00, 0.00, -0.00, -1.00, 178.7, 325.6)"> </text><text xml:space="preserve" font-family="ArialMT,Arial" font-size="24.0" fill="#000000" transform="matrix(1.00, 0.00, -0.00, -1.00, 185.4, 325.6)">w</text><text xml:space="preserve" font-family="ArialMT,Arial" font-size="24.0" fill="#000000" transform="matrix(1.00, 0.00, -0.00, -1.00, 202.7, 325.6)">o</text><text xml:space="preserve" font-family="ArialMT,Arial" font-size="24.0" fill="#000000" transform="matrix(1.00, 0.00, -0.00, -1.00, 216.0, 325.6)">r</text><text xml:space="preserve" font-family="ArialMT,Arial" font-size="24.0" fill="#000000" transform="matrix(1.00, 0.00, -0.00, -1.00, 224.0, 325.6)">k</text><text xml:space="preserve" font-family="ArialMT,Arial" font-size="24.0" fill="#000000" transform="matrix(1.00, 0.00, -0.00, -1.00, 236.0, 325.6)"> </text><text xml:space="preserve" font-family="ArialMT,Arial" font-size="24.0" fill="#000000" transform="matrix(1.00, 0.00, -0.00, -1.00, 242.7, 325.6)">f</text><text xml:space="preserve" font-family="ArialMT,Arial" font-size="24.0" fill="#000000" transform="matrix(1.00, 0.00, -0.00, -1.00, 249.4, 325.6)">o</text><text xml:space="preserve" font-family="ArialMT,Arial" font-size="24.0" fill="#000000" transform="matrix(1.00, 0.00, -0.00, -1.00, 262.7, 325.6)">r</text><text xml:space="preserve" font-family="ArialMT,Arial" font-size="24.0" fill="#000000" transform="matrix(1.00, 0.00, -0.00, -1.00, 270.7, 325.6)"> </text><text xml:space="preserve" font-family="Arial-BoldMT,Arial" font-weight="bold" font-size="24.0" fill="#000000" transform="matrix(1.00, 0.00, -0.00, -1.00, 277.4, 325.6)"> </text><text xml:space="preserve" font-family="ArialMT,Arial" font-size="24.0" fill="#000000" transform="matrix(1.00, 0.00, -0.00, -1.00, 34.6, 297.8)">o</text><text xml:space="preserve" font-family="ArialMT,Arial" font-size="24.0" fill="#000000" transform="matrix(1.00, 0.00, -0.00, -1.00, 48.0, 297.8)">t</text><text xml:space="preserve" font-family="ArialMT,Arial" font-size="24.0" fill="#000000" transform="matrix(1.00, 0.00, -0.00, -1.00, 54.6, 297.8)">h</text><text xml:space="preserve" font-family="ArialMT,Arial" font-size="24.0" fill="#000000" transform="matrix(1.00, 0.00, -0.00, -1.00, 68.0, 297.8)">e</text><text xml:space="preserve" font-family="ArialMT,Arial" font-size="24.0" fill="#000000" transform="matrix(1.00, 0.00, -0.00, -1.00, 81.3, 297.8)">r</text><text xml:space="preserve" font-family="ArialMT,Arial" font-size="24.0" fill="#000000" transform="matrix(1.00, 0.00, -0.00, -1.00, 89.3, 297.8)">s</text><text xml:space="preserve" font-family="ArialMT,Arial" font-size="24.0" fill="#000000" transform="matrix(1.00, 0.00, -0.00, -1.00, 101.3, 297.8)"> </text><text xml:space="preserve" font-family="ArialMT,Arial" font-size="24.0" fill="#000000" transform="matrix(1.00, 0.00, -0.00, -1.00, 108.0, 297.8)">t</text><text xml:space="preserve" font-family="ArialMT,Arial" font-size="24.0" fill="#000000" transform="matrix(1.00, 0.00, -0.00, -1.00, 114.6, 297.8)">o</text><text xml:space="preserve" font-family="ArialMT,Arial" font-size="24.0" fill="#000000" transform="matrix(1.00, 0.00, -0.00, -1.00, 128.0, 297.8)"> </text><text xml:space="preserve" font-family="ArialMT,Arial" font-size="24.0" fill="#000000" transform="matrix(1.00, 0.00, -0.00, -1.00, 134.7, 297.8)">u</text><text xml:space="preserve" font-family="ArialMT,Arial" font-size="24.0" fill="#000000" transform="matrix(1.00, 0.00, -0.00, -1.00, 148.0, 297.8)">s</text><text xml:space="preserve" font-family="ArialMT,Arial" font-size="24.0" fill="#000000" transform="matrix(1.00, 0.00, -0.00, -1.00, 160.0, 297.8)">e</text><text xml:space="preserve" font-family="ArialMT,Arial" font-size="24.0" fill="#000000" transform="matrix(1.00, 0.00, -0.00, -1.00, 173.4, 297.8)">,</text><text xml:space="preserve" font-family="ArialMT,Arial" font-size="24.0" fill="#000000" transform="matrix(1.00, 0.00, -0.00, -1.00, 180.0, 297.8)"> </text><text xml:space="preserve" font-family="ArialMT,Arial" font-size="24.0" fill="#000000" transform="matrix(1.00, 0.00, -0.00, -1.00, 186.7, 297.8)">m</text><text xml:space="preserve" font-family="ArialMT,Arial" font-size="24.0" fill="#000000" transform="matrix(1.00, 0.00, -0.00, -1.00, 206.7, 297.8)">o</text><text xml:space="preserve" font-family="ArialMT,Arial" font-size="24.0" fill="#000000" transform="matrix(1.00, 0.00, -0.00, -1.00, 220.0, 297.8)">d</text><text xml:space="preserve" font-family="ArialMT,Arial" font-size="24.0" fill="#000000" transform="matrix(1.00, 0.00, -0.00, -1.00, 233.4, 297.8)">i</text><text xml:space="preserve" font-family="ArialMT,Arial" font-size="24.0" fill="#000000" transform="matrix(1.00, 0.00, -0.00, -1.00, 238.7, 297.8)">f</text><text xml:space="preserve" font-family="ArialMT,Arial" font-size="24.0" fill="#000000" transform="matrix(1.00, 0.00, -0.00, -1.00, 245.4, 297.8)">y</text><text xml:space="preserve" font-family="ArialMT,Arial" font-size="24.0" fill="#000000" transform="matrix(1.00, 0.00, -0.00, -1.00, 255.6, 297.8)">,</text><text xml:space="preserve" font-family="ArialMT,Arial" font-size="24.0" fill="#000000" transform="matrix(1.00, 0.00, -0.00, -1.00, 262.3, 297.8)"> </text><text xml:space="preserve" font-family="ArialMT,Arial" font-size="24.0" fill="#000000" transform="matrix(1.00, 0.00, -0.00, -1.00, 268.9, 297.8)"> </text><text xml:space="preserve" font-family="ArialMT,Arial" font-size="24.0" fill="#000000" transform="matrix(1.00, 0.00, -0.00, -1.00, 34.6, 269.9)">a</text><text xml:space="preserve" font-family="ArialMT,Arial" font-size="24.0" fill="#000000" transform="matrix(1.00, 0.00, -0.00, -1.00, 48.0, 269.9)">n</text><text xml:space="preserve" font-family="ArialMT,Arial" font-size="24.0" fill="#000000" transform="matrix(1.00, 0.00, -0.00, -1.00, 61.3, 269.9)">d</text><text xml:space="preserve" font-family="Arial-BoldMT,Arial" font-weight="bold" font-size="24.0" fill="#000000" transform="matrix(1.00, 0.00, -0.00, -1.00, 74.6, 269.9)"> </text><text xml:space="preserve" font-family="ArialMT,Arial" font-size="24.0" fill="#000000" transform="matrix(1.00, 0.00, -0.00, -1.00, 81.3, 269.9)">a</text><text xml:space="preserve" font-family="ArialMT,Arial" font-size="24.0" fill="#000000" transform="matrix(1.00, 0.00, -0.00, -1.00, 94.7, 269.9)">d</text><text xml:space="preserve" font-family="ArialMT,Arial" font-size="24.0" fill="#000000" transform="matrix(1.00, 0.00, -0.00, -1.00, 108.0, 269.9)">a</text><text xml:space="preserve" font-family="ArialMT,Arial" font-size="24.0" fill="#000000" transform="matrix(1.00, 0.00, -0.00, -1.00, 121.4, 269.9)">p</text><text xml:space="preserve" font-family="ArialMT,Arial" font-size="24.0" fill="#000000" transform="matrix(1.00, 0.00, -0.00, -1.00, 134.7, 269.9)">t</text><text xml:space="preserve" font-family="ArialMT,Arial" font-size="24.0" fill="#000000" transform="matrix(1.00, 0.00, -0.00, -1.00, 141.4, 269.9)"> </text><text xml:space="preserve" font-family="ArialMT,Arial" font-size="24.0" fill="#000000" transform="matrix(1.00, 0.00, -0.00, -1.00, 148.0, 269.9)">t</text><text xml:space="preserve" font-family="ArialMT,Arial" font-size="24.0" fill="#000000" transform="matrix(1.00, 0.00, -0.00, -1.00, 154.7, 269.9)">h</text><text xml:space="preserve" font-family="ArialMT,Arial" font-size="24.0" fill="#000000" transform="matrix(1.00, 0.00, -0.00, -1.00, 168.1, 269.9)">e</text><text xml:space="preserve" font-family="ArialMT,Arial" font-size="24.0" fill="#000000" transform="matrix(1.00, 0.00, -0.00, -1.00, 181.4, 269.9)">i</text><text xml:space="preserve" font-family="ArialMT,Arial" font-size="24.0" fill="#000000" transform="matrix(1.00, 0.00, -0.00, -1.00, 186.8, 269.9)">r</text><text xml:space="preserve" font-family="ArialMT,Arial" font-size="24.0" fill="#000000" transform="matrix(1.00, 0.00, -0.00, -1.00, 194.7, 269.9)"> </text><text xml:space="preserve" font-family="ArialMT,Arial" font-size="24.0" fill="#000000" transform="matrix(1.00, 0.00, -0.00, -1.00, 201.4, 269.9)">w</text><text xml:space="preserve" font-family="ArialMT,Arial" font-size="24.0" fill="#000000" transform="matrix(1.00, 0.00, -0.00, -1.00, 218.7, 269.9)">o</text><text xml:space="preserve" font-family="ArialMT,Arial" font-size="24.0" fill="#000000" transform="matrix(1.00, 0.00, -0.00, -1.00, 232.1, 269.9)">r</text><text xml:space="preserve" font-family="ArialMT,Arial" font-size="24.0" fill="#000000" transform="matrix(1.00, 0.00, -0.00, -1.00, 240.1, 269.9)">k</text><text xml:space="preserve" font-family="ArialMT,Arial" font-size="24.0" fill="#000000" transform="matrix(1.00, 0.00, -0.00, -1.00, 252.1, 269.9)">.</text><text xml:space="preserve" font-family="Arial-BoldMT,Arial" font-weight="bold" font-size="24.0" fill="#3F3F3F" transform="matrix(1.00, 0.00, -0.00, -1.00, 258.7, 269.9)"> </text><text xml:space="preserve" font-family="LucidaGrande,Lucida Grande" font-size="24.0" fill="#EEE0A1" transform="matrix(1.00, 0.00, -0.00, -1.00, 34.6, 246.7)">▪</text><text xml:space="preserve" font-family="ArialMT,Arial" font-size="24.0" fill="#AB4101" transform="matrix(1.00, 0.00, -0.00, -1.00, 48.3, 247.1)">c</text><text xml:space="preserve" font-family="ArialMT,Arial" font-size="24.0" fill="#AB4101" transform="matrix(1.00, 0.00, -0.00, -1.00, 60.3, 247.1)">r</text><text xml:space="preserve" font-family="ArialMT,Arial" font-size="24.0" fill="#AB4101" transform="matrix(1.00, 0.00, -0.00, -1.00, 68.3, 247.1)">e</text><text xml:space="preserve" font-family="ArialMT,Arial" font-size="24.0" fill="#AB4101" transform="matrix(1.00, 0.00, -0.00, -1.00, 81.6, 247.1)">a</text><text xml:space="preserve" font-family="ArialMT,Arial" font-size="24.0" fill="#AB4101" transform="matrix(1.00, 0.00, -0.00, -1.00, 95.0, 247.1)">t</text><text xml:space="preserve" font-family="ArialMT,Arial" font-size="24.0" fill="#AB4101" transform="matrix(1.00, 0.00, -0.00, -1.00, 101.6, 247.1)">i</text><text xml:space="preserve" font-family="ArialMT,Arial" font-size="24.0" fill="#AB4101" transform="matrix(1.00, 0.00, -0.00, -1.00, 107.0, 247.1)">v</text><text xml:space="preserve" font-family="ArialMT,Arial" font-size="24.0" fill="#AB4101" transform="matrix(1.00, 0.00, -0.00, -1.00, 119.0, 247.1)">e</text><text xml:space="preserve" font-family="ArialMT,Arial" font-size="24.0" fill="#AB4101" transform="matrix(1.00, 0.00, -0.00, -1.00, 132.3, 247.1)">c</text><text xml:space="preserve" font-family="ArialMT,Arial" font-size="24.0" fill="#AB4101" transform="matrix(1.00, 0.00, -0.00, -1.00, 144.3, 247.1)">o</text><text xml:space="preserve" font-family="ArialMT,Arial" font-size="24.0" fill="#AB4101" transform="matrix(1.00, 0.00, -0.00, -1.00, 157.7, 247.1)">m</text><text xml:space="preserve" font-family="ArialMT,Arial" font-size="24.0" fill="#AB4101" transform="matrix(1.00, 0.00, -0.00, -1.00, 177.7, 247.1)">m</text><text xml:space="preserve" font-family="ArialMT,Arial" font-size="24.0" fill="#AB4101" transform="matrix(1.00, 0.00, -0.00, -1.00, 197.7, 247.1)">o</text><text xml:space="preserve" font-family="ArialMT,Arial" font-size="24.0" fill="#AB4101" transform="matrix(1.00, 0.00, -0.00, -1.00, 211.0, 247.1)">n</text><text xml:space="preserve" font-family="ArialMT,Arial" font-size="24.0" fill="#AB4101" transform="matrix(1.00, 0.00, -0.00, -1.00, 224.4, 247.1)">s</text><text xml:space="preserve" font-family="ArialMT,Arial" font-size="24.0" fill="#AB4101" transform="matrix(1.00, 0.00, -0.00, -1.00, 236.4, 247.1)">.</text><text xml:space="preserve" font-family="ArialMT,Arial" font-size="24.0" fill="#AB4101" transform="matrix(1.00, 0.00, -0.00, -1.00, 243.0, 247.1)">o</text><text xml:space="preserve" font-family="ArialMT,Arial" font-size="24.0" fill="#AB4101" transform="matrix(1.00, 0.00, -0.00, -1.00, 256.4, 247.1)">r</text><text xml:space="preserve" font-family="ArialMT,Arial" font-size="24.0" fill="#AB4101" transform="matrix(1.00, 0.00, -0.00, -1.00, 264.4, 247.1)">g</text><text xml:space="preserve" font-family="ArialMT,Arial" font-size="24.0" fill="#E0C54C" transform="matrix(1.00, 0.00, -0.00, -1.00, 277.7, 247.1)"> </text><g><clipPath id="clip0x7f99519d0620"><path d="M 47.3 242.7 L 277.7 242.7 L 277.7 246.4 L 47.3 246.4 Z M 47.3 242.7 "></path></clipPath><g clip-path="url(#clip0x7f99519d0620)"><path d="M 17.3 208.8 L 246.7 208.8 " fill="none" stroke="#AB4101" stroke-width="1.76" transform="matrix(1.00, 0.00, 0.00, -1.00, 31.0, 453.3)"></path></g></g><text xml:space="preserve" font-family="ArialMT,Arial" font-size="24.0" fill="#3F3F3F" transform="matrix(1.00, 0.00, -0.00, -1.00, 34.6, 185.1)">M</text><text xml:space="preserve" font-family="ArialMT,Arial" font-size="24.0" fill="#3F3F3F" transform="matrix(1.00, 0.00, -0.00, -1.00, 54.6, 185.1)">C</text><text xml:space="preserve" font-family="ArialMT,Arial" font-size="24.0" fill="#3F3F3F" transform="matrix(1.00, 0.00, -0.00, -1.00, 71.9, 185.1)">:</text><text xml:space="preserve" font-family="ArialMT,Arial" font-size="24.0" fill="#3F3F3F" transform="matrix(1.00, 0.00, -0.00, -1.00, 78.6, 185.1)"> </text><text xml:space="preserve" font-family="ArialMT,Arial" font-size="24.0" fill="#3F3F3F" transform="matrix(1.00, 0.00, -0.00, -1.00, 85.3, 185.1)">F</text><text xml:space="preserve" font-family="ArialMT,Arial" font-size="24.0" fill="#3F3F3F" transform="matrix(1.00, 0.00, -0.00, -1.00, 99.9, 185.1)">r</text><text xml:space="preserve" font-family="ArialMT,Arial" font-size="24.0" fill="#3F3F3F" transform="matrix(1.00, 0.00, -0.00, -1.00, 107.9, 185.1)">e</text><text xml:space="preserve" font-family="ArialMT,Arial" font-size="24.0" fill="#3F3F3F" transform="matrix(1.00, 0.00, -0.00, -1.00, 121.3, 185.1)">e</text><text xml:space="preserve" font-family="ArialMT,Arial" font-size="24.0" fill="#3F3F3F" transform="matrix(1.00, 0.00, -0.00, -1.00, 134.6, 185.1)"> </text><text xml:space="preserve" font-family="ArialMT,Arial" font-size="24.0" fill="#3F3F3F" transform="matrix(1.00, 0.00, -0.00, -1.00, 141.3, 185.1)">M</text><text xml:space="preserve" font-family="ArialMT,Arial" font-size="24.0" fill="#3F3F3F" transform="matrix(1.00, 0.00, -0.00, -1.00, 161.3, 185.1)">e</text><text xml:space="preserve" font-family="ArialMT,Arial" font-size="24.0" fill="#3F3F3F" transform="matrix(1.00, 0.00, -0.00, -1.00, 174.6, 185.1)">d</text><text xml:space="preserve" font-family="ArialMT,Arial" font-size="24.0" fill="#3F3F3F" transform="matrix(1.00, 0.00, -0.00, -1.00, 188.0, 185.1)">i</text><text xml:space="preserve" font-family="ArialMT,Arial" font-size="24.0" fill="#3F3F3F" transform="matrix(1.00, 0.00, -0.00, -1.00, 193.3, 185.1)">a</text><text xml:space="preserve" font-family="ArialMT,Arial" font-size="24.0" fill="#3F3F3F" transform="matrix(1.00, 0.00, -0.00, -1.00, 206.7, 185.1)"> </text><text xml:space="preserve" font-family="ArialMT,Arial" font-size="24.0" fill="#3F3F3F" transform="matrix(1.00, 0.00, -0.00, -1.00, 213.3, 185.1)">L</text><text xml:space="preserve" font-family="ArialMT,Arial" font-size="24.0" fill="#3F3F3F" transform="matrix(1.00, 0.00, -0.00, -1.00, 226.7, 185.1)">i</text><text xml:space="preserve" font-family="ArialMT,Arial" font-size="24.0" fill="#3F3F3F" transform="matrix(1.00, 0.00, -0.00, -1.00, 232.0, 185.1)">b</text><text xml:space="preserve" font-family="ArialMT,Arial" font-size="24.0" fill="#3F3F3F" transform="matrix(1.00, 0.00, -0.00, -1.00, 245.4, 185.1)">r</text><text xml:space="preserve" font-family="ArialMT,Arial" font-size="24.0" fill="#3F3F3F" transform="matrix(1.00, 0.00, -0.00, -1.00, 253.4, 185.1)">a</text><text xml:space="preserve" font-family="ArialMT,Arial" font-size="24.0" fill="#3F3F3F" transform="matrix(1.00, 0.00, -0.00, -1.00, 266.7, 185.1)">r</text><text xml:space="preserve" font-family="ArialMT,Arial" font-size="24.0" fill="#3F3F3F" transform="matrix(1.00, 0.00, -0.00, -1.00, 274.7, 185.1)">y</text><text xml:space="preserve" font-family="ArialMT,Arial" font-size="24.0" fill="#E0C54C" transform="matrix(1.00, 0.00, -0.00, -1.00, 286.7, 185.1)"> </text><text xml:space="preserve" font-family="LucidaGrande,Lucida Grande" font-size="24.0" fill="#EEE0A1" transform="matrix(1.00, 0.00, -0.00, -1.00, 34.6, 153.7)">▪</text><text xml:space="preserve" font-family="ArialMT,Arial" font-size="24.0" fill="#AB4101" transform="matrix(1.00, 0.00, -0.00, -1.00, 48.3, 154.1)">m</text><text xml:space="preserve" font-family="ArialMT,Arial" font-size="24.0" fill="#AB4101" transform="matrix(1.00, 0.00, -0.00, -1.00, 68.3, 154.1)">e</text><text xml:space="preserve" font-family="ArialMT,Arial" font-size="24.0" fill="#AB4101" transform="matrix(1.00, 0.00, -0.00, -1.00, 81.6, 154.1)">d</text><text xml:space="preserve" font-family="ArialMT,Arial" font-size="24.0" fill="#AB4101" transform="matrix(1.00, 0.00, -0.00, -1.00, 95.0, 154.1)">i</text><text xml:space="preserve" font-family="ArialMT,Arial" font-size="24.0" fill="#AB4101" transform="matrix(1.00, 0.00, -0.00, -1.00, 100.3, 154.1)">a</text><text xml:space="preserve" font-family="ArialMT,Arial" font-size="24.0" fill="#AB4101" transform="matrix(1.00, 0.00, -0.00, -1.00, 113.7, 154.1)">c</text><text xml:space="preserve" font-family="ArialMT,Arial" font-size="24.0" fill="#AB4101" transform="matrix(1.00, 0.00, -0.00, -1.00, 125.7, 154.1)">o</text><text xml:space="preserve" font-family="ArialMT,Arial" font-size="24.0" fill="#AB4101" transform="matrix(1.00, 0.00, -0.00, -1.00, 139.0, 154.1)">m</text><text xml:space="preserve" font-family="ArialMT,Arial" font-size="24.0" fill="#AB4101" transform="matrix(1.00, 0.00, -0.00, -1.00, 159.0, 154.1)">m</text><text xml:space="preserve" font-family="ArialMT,Arial" font-size="24.0" fill="#AB4101" transform="matrix(1.00, 0.00, -0.00, -1.00, 179.0, 154.1)">o</text><text xml:space="preserve" font-family="ArialMT,Arial" font-size="24.0" fill="#AB4101" transform="matrix(1.00, 0.00, -0.00, -1.00, 192.4, 154.1)">n</text><text xml:space="preserve" font-family="ArialMT,Arial" font-size="24.0" fill="#AB4101" transform="matrix(1.00, 0.00, -0.00, -1.00, 205.7, 154.1)">s</text><text xml:space="preserve" font-family="ArialMT,Arial" font-size="24.0" fill="#AB4101" transform="matrix(1.00, 0.00, -0.00, -1.00, 217.7, 154.1)">.</text><text xml:space="preserve" font-family="ArialMT,Arial" font-size="24.0" fill="#AB4101" transform="matrix(1.00, 0.00, -0.00, -1.00, 224.4, 154.1)">p</text><text xml:space="preserve" font-family="ArialMT,Arial" font-size="24.0" fill="#AB4101" transform="matrix(1.00, 0.00, -0.00, -1.00, 237.7, 154.1)">s</text><text xml:space="preserve" font-family="ArialMT,Arial" font-size="24.0" fill="#AB4101" transform="matrix(1.00, 0.00, -0.00, -1.00, 249.7, 154.1)">u</text><text xml:space="preserve" font-family="ArialMT,Arial" font-size="24.0" fill="#AB4101" transform="matrix(1.00, 0.00, -0.00, -1.00, 263.1, 154.1)">.</text><text xml:space="preserve" font-family="ArialMT,Arial" font-size="24.0" fill="#AB4101" transform="matrix(1.00, 0.00, -0.00, -1.00, 269.7, 154.1)">e</text><text xml:space="preserve" font-family="ArialMT,Arial" font-size="24.0" fill="#AB4101" transform="matrix(1.00, 0.00, -0.00, -1.00, 283.1, 154.1)">d</text><text xml:space="preserve" font-family="ArialMT,Arial" font-size="24.0" fill="#AB4101" transform="matrix(1.00, 0.00, -0.00, -1.00, 296.4, 154.1)">u</text><text xml:space="preserve" font-family="ArialMT,Arial" font-size="24.0" fill="#AB4101" transform="matrix(1.00, 0.00, -0.00, -1.00, 309.8, 154.1)">/</text><text xml:space="preserve" font-family="ArialMT,Arial" font-size="24.0" fill="#AB4101" transform="matrix(1.00, 0.00, -0.00, -1.00, 316.5, 154.1)">f</text><text xml:space="preserve" font-family="ArialMT,Arial" font-size="24.0" fill="#AB4101" transform="matrix(1.00, 0.00, -0.00, -1.00, 323.1, 154.1)">r</text><text xml:space="preserve" font-family="ArialMT,Arial" font-size="24.0" fill="#AB4101" transform="matrix(1.00, 0.00, -0.00, -1.00, 331.1, 154.1)">e</text><text xml:space="preserve" font-family="ArialMT,Arial" font-size="24.0" fill="#AB4101" transform="matrix(1.00, 0.00, -0.00, -1.00, 344.5, 154.1)">e</text><text xml:space="preserve" font-family="ArialMT,Arial" font-size="24.0" fill="#AB4101" transform="matrix(1.00, 0.00, -0.00, -1.00, 357.8, 154.1)">m</text><text xml:space="preserve" font-family="ArialMT,Arial" font-size="24.0" fill="#AB4101" transform="matrix(1.00, 0.00, -0.00, -1.00, 377.8, 154.1)">e</text><text xml:space="preserve" font-family="ArialMT,Arial" font-size="24.0" fill="#AB4101" transform="matrix(1.00, 0.00, -0.00, -1.00, 391.2, 154.1)">d</text><text xml:space="preserve" font-family="ArialMT,Arial" font-size="24.0" fill="#AB4101" transform="matrix(1.00, 0.00, -0.00, -1.00, 404.5, 154.1)">i</text><text xml:space="preserve" font-family="ArialMT,Arial" font-size="24.0" fill="#AB4101" transform="matrix(1.00, 0.00, -0.00, -1.00, 409.9, 154.1)">a</text><g><clipPath id="clip0x7f99519dcf70"><path d="M 47.3 149.7 L 423.1 149.7 L 423.1 153.4 L 47.3 153.4 Z M 47.3 149.7 "></path></clipPath><g clip-path="url(#clip0x7f99519dcf70)"><path d="M 17.3 301.8 L 392.1 301.8 " fill="none" stroke="#AB4101" stroke-width="1.76" transform="matrix(1.00, 0.00, 0.00, -1.00, 31.0, 453.3)"></path></g></g><image xlink:href="../../FA1230C4-8323-4432-AABD-26FF6436F6C7/assets/00FBE244E60DACE09ED6F914493C9320.png" width="349.00" height="30.00" transform="matrix(1.00, 0.00, -0.00, -1.00, 33.0, 506.0)"></image><text xml:space="preserve" font-family="Arial-BoldMT,Arial" font-weight="bold" font-size="28.0" fill="#FAC01E" transform="matrix(1.00, 0.00, -0.00, -1.00, 34.6, 482.8)">C</text><text xml:space="preserve" font-family="Arial-BoldMT,Arial" font-weight="bold" font-size="28.0" fill="#FAC01E" transform="matrix(1.00, 0.00, -0.00, -1.00, 54.8, 482.8)">O</text><text xml:space="preserve" font-family="Arial-BoldMT,Arial" font-weight="bold" font-size="28.0" fill="#FAC01E" transform="matrix(1.00, 0.00, -0.00, -1.00, 76.6, 482.8)">P</text><text xml:space="preserve" font-family="Arial-BoldMT,Arial" font-weight="bold" font-size="28.0" fill="#FAC01E" transform="matrix(1.00, 0.00, -0.00, -1.00, 95.3, 482.8)">Y</text><text xml:space="preserve" font-family="Arial-BoldMT,Arial" font-weight="bold" font-size="28.0" fill="#FAC01E" transform="matrix(1.00, 0.00, -0.00, -1.00, 114.0, 482.8)">R</text><text xml:space="preserve" font-family="Arial-BoldMT,Arial" font-weight="bold" font-size="28.0" fill="#FAC01E" transform="matrix(1.00, 0.00, -0.00, -1.00, 134.2, 482.8)">I</text><text xml:space="preserve" font-family="Arial-BoldMT,Arial" font-weight="bold" font-size="28.0" fill="#FAC01E" transform="matrix(1.00, 0.00, -0.00, -1.00, 142.0, 482.8)">G</text><text xml:space="preserve" font-family="Arial-BoldMT,Arial" font-weight="bold" font-size="28.0" fill="#FAC01E" transform="matrix(1.00, 0.00, -0.00, -1.00, 163.7, 482.8)">H</text><text xml:space="preserve" font-family="Arial-BoldMT,Arial" font-weight="bold" font-size="28.0" fill="#FAC01E" transform="matrix(1.00, 0.00, -0.00, -1.00, 184.0, 482.8)">T</text><text xml:space="preserve" font-family="Arial-BoldMT,Arial" font-weight="bold" font-size="28.0" fill="#FAC01E" transform="matrix(1.00, 0.00, -0.00, -1.00, 201.0, 482.8)"> </text><text xml:space="preserve" font-family="Arial-BoldMT,Arial" font-weight="bold" font-size="28.0" fill="#FAC01E" transform="matrix(1.00, 0.00, -0.00, -1.00, 208.8, 482.8)">C</text><text xml:space="preserve" font-family="Arial-BoldMT,Arial" font-weight="bold" font-size="28.0" fill="#FAC01E" transform="matrix(1.00, 0.00, -0.00, -1.00, 229.0, 482.8)">O</text><text xml:space="preserve" font-family="Arial-BoldMT,Arial" font-weight="bold" font-size="28.0" fill="#FAC01E" transform="matrix(1.00, 0.00, -0.00, -1.00, 250.8, 482.8)">N</text><text xml:space="preserve" font-family="Arial-BoldMT,Arial" font-weight="bold" font-size="28.0" fill="#FAC01E" transform="matrix(1.00, 0.00, -0.00, -1.00, 271.0, 482.8)">C</text><text xml:space="preserve" font-family="Arial-BoldMT,Arial" font-weight="bold" font-size="28.0" fill="#FAC01E" transform="matrix(1.00, 0.00, -0.00, -1.00, 291.3, 482.8)">E</text><text xml:space="preserve" font-family="Arial-BoldMT,Arial" font-weight="bold" font-size="28.0" fill="#FAC01E" transform="matrix(1.00, 0.00, -0.00, -1.00, 310.0, 482.8)">R</text><text xml:space="preserve" font-family="Arial-BoldMT,Arial" font-weight="bold" font-size="28.0" fill="#FAC01E" transform="matrix(1.00, 0.00, -0.00, -1.00, 330.2, 482.8)">N</text><text xml:space="preserve" font-family="Arial-BoldMT,Arial" font-weight="bold" font-size="28.0" fill="#FAC01E" transform="matrix(1.00, 0.00, -0.00, -1.00, 350.4, 482.8)">S</text><text xml:space="preserve" font-family="Arial-BoldMT,Arial" font-weight="bold" font-size="28.0" fill="#FAC01E" transform="matrix(1.00, 0.00, -0.00, -1.00, 369.1, 482.8)">:</text><text xml:space="preserve" font-family="Arial-BoldMT,Arial" font-weight="bold" font-size="28.0" fill="#FAC01E" transform="matrix(1.00, 0.00, -0.00, -1.00, 378.4, 482.8)"> </text><image xlink:href="../../FA1230C4-8323-4432-AABD-26FF6436F6C7/assets/C2C44E4034C83DA49204BE37195BCDAD.png" width="303.00" height="30.00" transform="matrix(1.00, 0.00, -0.00, -1.00, 385.0, 506.0)"></image><text xml:space="preserve" font-family="Arial-BoldMT,Arial" font-weight="bold" font-size="28.0" fill="#000000" transform="matrix(1.00, 0.00, -0.00, -1.00, 386.2, 482.8)">C</text><text xml:space="preserve" font-family="Arial-BoldMT,Arial" font-weight="bold" font-size="28.0" fill="#000000" transform="matrix(1.00, 0.00, -0.00, -1.00, 406.4, 482.8)">R</text><text xml:space="preserve" font-family="Arial-BoldMT,Arial" font-weight="bold" font-size="28.0" fill="#000000" transform="matrix(1.00, 0.00, -0.00, -1.00, 426.6, 482.8)">E</text><text xml:space="preserve" font-family="Arial-BoldMT,Arial" font-weight="bold" font-size="28.0" fill="#000000" transform="matrix(1.00, 0.00, -0.00, -1.00, 445.3, 482.8)">A</text><text xml:space="preserve" font-family="Arial-BoldMT,Arial" font-weight="bold" font-size="28.0" fill="#000000" transform="matrix(1.00, 0.00, -0.00, -1.00, 463.4, 482.8)">T</text><text xml:space="preserve" font-family="Arial-BoldMT,Arial" font-weight="bold" font-size="28.0" fill="#000000" transform="matrix(1.00, 0.00, -0.00, -1.00, 480.5, 482.8)">I</text><text xml:space="preserve" font-family="Arial-BoldMT,Arial" font-weight="bold" font-size="28.0" fill="#000000" transform="matrix(1.00, 0.00, -0.00, -1.00, 488.3, 482.8)">V</text><text xml:space="preserve" font-family="Arial-BoldMT,Arial" font-weight="bold" font-size="28.0" fill="#000000" transform="matrix(1.00, 0.00, -0.00, -1.00, 507.0, 482.8)">E</text><text xml:space="preserve" font-family="Arial-BoldMT,Arial" font-weight="bold" font-size="28.0" fill="#000000" transform="matrix(1.00, 0.00, -0.00, -1.00, 525.7, 482.8)"> </text><text xml:space="preserve" font-family="Arial-BoldMT,Arial" font-weight="bold" font-size="28.0" fill="#000000" transform="matrix(1.00, 0.00, -0.00, -1.00, 533.4, 482.8)">C</text><text xml:space="preserve" font-family="Arial-BoldMT,Arial" font-weight="bold" font-size="28.0" fill="#000000" transform="matrix(1.00, 0.00, -0.00, -1.00, 553.7, 482.8)">O</text><text xml:space="preserve" font-family="Arial-BoldMT,Arial" font-weight="bold" font-size="28.0" fill="#000000" transform="matrix(1.00, 0.00, -0.00, -1.00, 575.4, 482.8)">M</text><text xml:space="preserve" font-family="Arial-BoldMT,Arial" font-weight="bold" font-size="28.0" fill="#000000" transform="matrix(1.00, 0.00, -0.00, -1.00, 598.8, 482.8)">M</text><text xml:space="preserve" font-family="Arial-BoldMT,Arial" font-weight="bold" font-size="28.0" fill="#000000" transform="matrix(1.00, 0.00, -0.00, -1.00, 622.1, 482.8)">O</text><text xml:space="preserve" font-family="Arial-BoldMT,Arial" font-weight="bold" font-size="28.0" fill="#000000" transform="matrix(1.00, 0.00, -0.00, -1.00, 643.9, 482.8)">N</text><text xml:space="preserve" font-family="Arial-BoldMT,Arial" font-weight="bold" font-size="28.0" fill="#000000" transform="matrix(1.00, 0.00, -0.00, -1.00, 664.1, 482.8)">S</text><image xlink:href="../../FA1230C4-8323-4432-AABD-26FF6436F6C7/assets/CFC0280FA7FFBD2F3D618BA3BFBB4CD4.png" width="500.00" height="262.00" transform="matrix(0.62, 0.00, -0.00, -0.62, 373.6, 394.0)"></image></g></svg>