<?xml version="1.0" encoding="UTF-8" standalone="no"?><svg xmlns="http://www.w3.org/2000/svg" xmlns:xlink="http://www.w3.org/1999/xlink" clip-rule="evenodd" stroke-miterlimit="10" viewBox="0 0 186 16"><desc>SVG generated by Keynote</desc><defs></defs><g transform="matrix(1.00, 0.00, -0.00, -1.00, 0.0, 16.0)"><text xml:space="preserve" font-family="Arial-ItalicMT,Arial" font-style="italic" font-size="12.0" fill="#7F7F7F" transform="matrix(1.00, 0.00, -0.00, -1.00, 1.3, 4.4)">O</text><text xml:space="preserve" font-family="Arial-ItalicMT,Arial" font-style="italic" font-size="12.0" fill="#7F7F7F" transform="matrix(1.00, 0.00, -0.00, -1.00, 10.6, 4.4)">n</text><text xml:space="preserve" font-family="Arial-ItalicMT,Arial" font-style="italic" font-size="12.0" fill="#7F7F7F" transform="matrix(1.00, 0.00, -0.00, -1.00, 17.3, 4.4)">s</text><text xml:space="preserve" font-family="Arial-ItalicMT,Arial" font-style="italic" font-size="12.0" fill="#7F7F7F" transform="matrix(1.00, 0.00, -0.00, -1.00, 23.3, 4.4)">l</text><text xml:space="preserve" font-family="Arial-ItalicMT,Arial" font-style="italic" font-size="12.0" fill="#7F7F7F" transform="matrix(1.00, 0.00, -0.00, -1.00, 26.0, 4.4)">a</text><text xml:space="preserve" font-family="Arial-ItalicMT,Arial" font-style="italic" font-size="12.0" fill="#7F7F7F" transform="matrix(1.00, 0.00, -0.00, -1.00, 32.6, 4.4)">u</text><text xml:space="preserve" font-family="Arial-ItalicMT,Arial" font-style="italic" font-size="12.0" fill="#7F7F7F" transform="matrix(1.00, 0.00, -0.00, -1.00, 39.3, 4.4)">g</text><text xml:space="preserve" font-family="Arial-ItalicMT,Arial" font-style="italic" font-size="12.0" fill="#7F7F7F" transform="matrix(1.00, 0.00, -0.00, -1.00, 46.0, 4.4)">h</text><text xml:space="preserve" font-family="Arial-ItalicMT,Arial" font-style="italic" font-size="12.0" fill="#7F7F7F" transform="matrix(1.00, 0.00, -0.00, -1.00, 52.7, 4.4)">t</text><text xml:space="preserve" font-family="Arial-ItalicMT,Arial" font-style="italic" font-size="12.0" fill="#7F7F7F" transform="matrix(1.00, 0.00, -0.00, -1.00, 56.0, 4.4)">(</text><text xml:space="preserve" font-family="Arial-ItalicMT,Arial" font-style="italic" font-size="12.0" fill="#7F7F7F" transform="matrix(1.00, 0.00, -0.00, -1.00, 60.0, 4.4)">e</text><text xml:space="preserve" font-family="Arial-ItalicMT,Arial" font-style="italic" font-size="12.0" fill="#7F7F7F" transform="matrix(1.00, 0.00, -0.00, -1.00, 66.7, 4.4)">r</text><text xml:space="preserve" font-family="Arial-ItalicMT,Arial" font-style="italic" font-size="12.0" fill="#7F7F7F" transform="matrix(1.00, 0.00, -0.00, -1.00, 70.7, 4.4)">)</text><text xml:space="preserve" font-family="ArialMT,Arial" font-size="12.0" fill="#7F7F7F" transform="matrix(1.00, 0.00, -0.00, -1.00, 74.6, 4.4)">.</text><text xml:space="preserve" font-family="ArialMT,Arial" font-size="12.0" fill="#7F7F7F" transform="matrix(1.00, 0.00, -0.00, -1.00, 78.0, 4.4)"> </text><text xml:space="preserve" font-family="ArialMT,Arial" font-size="12.0" fill="#7F7F7F" transform="matrix(1.00, 0.00, -0.00, -1.00, 81.3, 4.4)">G</text><text xml:space="preserve" font-family="ArialMT,Arial" font-size="12.0" fill="#7F7F7F" transform="matrix(1.00, 0.00, -0.00, -1.00, 90.6, 4.4)">r</text><text xml:space="preserve" font-family="ArialMT,Arial" font-size="12.0" fill="#7F7F7F" transform="matrix(1.00, 0.00, -0.00, -1.00, 94.6, 4.4)">e</text><text xml:space="preserve" font-family="ArialMT,Arial" font-size="12.0" fill="#7F7F7F" transform="matrix(1.00, 0.00, -0.00, -1.00, 101.3, 4.4)">e</text><text xml:space="preserve" font-family="ArialMT,Arial" font-size="12.0" fill="#7F7F7F" transform="matrix(1.00, 0.00, -0.00, -1.00, 108.0, 4.4)">n</text><text xml:space="preserve" font-family="ArialMT,Arial" font-size="12.0" fill="#7F7F7F" transform="matrix(1.00, 0.00, -0.00, -1.00, 114.7, 4.4)">p</text><text xml:space="preserve" font-family="ArialMT,Arial" font-size="12.0" fill="#7F7F7F" transform="matrix(1.00, 0.00, -0.00, -1.00, 121.3, 4.4)">e</text><text xml:space="preserve" font-family="ArialMT,Arial" font-size="12.0" fill="#7F7F7F" transform="matrix(1.00, 0.00, -0.00, -1.00, 128.0, 4.4)">a</text><text xml:space="preserve" font-family="ArialMT,Arial" font-size="12.0" fill="#7F7F7F" transform="matrix(1.00, 0.00, -0.00, -1.00, 134.7, 4.4)">c</text><text xml:space="preserve" font-family="ArialMT,Arial" font-size="12.0" fill="#7F7F7F" transform="matrix(1.00, 0.00, -0.00, -1.00, 140.7, 4.4)">e</text><text xml:space="preserve" font-family="ArialMT,Arial" font-size="12.0" fill="#7F7F7F" transform="matrix(1.00, 0.00, -0.00, -1.00, 147.4, 4.4)">,</text><text xml:space="preserve" font-family="ArialMT,Arial" font-size="12.0" fill="#7F7F7F" transform="matrix(1.00, 0.00, -0.00, -1.00, 150.7, 4.4)"> </text><text xml:space="preserve" font-family="ArialMT,Arial" font-size="12.0" fill="#7F7F7F" transform="matrix(1.00, 0.00, -0.00, -1.00, 154.0, 4.4)">2</text><text xml:space="preserve" font-family="ArialMT,Arial" font-size="12.0" fill="#7F7F7F" transform="matrix(1.00, 0.00, -0.00, -1.00, 160.7, 4.4)">0</text><text xml:space="preserve" font-family="ArialMT,Arial" font-size="12.0" fill="#7F7F7F" transform="matrix(1.00, 0.00, -0.00, -1.00, 167.4, 4.4)">0</text><text xml:space="preserve" font-family="ArialMT,Arial" font-size="12.0" fill="#7F7F7F" transform="matrix(1.00, 0.00, -0.00, -1.00, 174.1, 4.4)">8</text><text xml:space="preserve" font-family="ArialMT,Arial" font-size="12.0" fill="#7F7F7F" transform="matrix(1.00, 0.00, -0.00, -1.00, 180.7, 4.4)"> </text><text xml:space="preserve" font-family="ArialMT,Arial" font-size="12.0" fill="#7F7F7F" transform="matrix(1.00, 0.00, -0.00, -1.00, 184.1, 4.4)"> </text></g></svg>