<?xml version="1.0" encoding="UTF-8" standalone="no"?><svg xmlns="http://www.w3.org/2000/svg" xmlns:xlink="http://www.w3.org/1999/xlink" clip-rule="evenodd" stroke-miterlimit="10" viewBox="0 0 418 40"><desc>SVG generated by Keynote</desc><defs></defs><g transform="matrix(1.00, 0.00, -0.00, -1.00, 0.0, 40.0)"><text xml:space="preserve" font-family="FranklinGothic-Book,Franklin Gothic Book" font-size="18.0" fill="#000000" transform="matrix(1.00, 0.00, -0.00, -1.00, 2.3, 26.3)">T</text><text xml:space="preserve" font-family="FranklinGothic-Book,Franklin Gothic Book" font-size="18.0" fill="#000000" transform="matrix(1.00, 0.00, -0.00, -1.00, 11.1, 26.3)">h</text><text xml:space="preserve" font-family="FranklinGothic-Book,Franklin Gothic Book" font-size="18.0" fill="#000000" transform="matrix(1.00, 0.00, -0.00, -1.00, 20.8, 26.3)">i</text><text xml:space="preserve" font-family="FranklinGothic-Book,Franklin Gothic Book" font-size="18.0" fill="#000000" transform="matrix(1.00, 0.00, -0.00, -1.00, 24.9, 26.3)">s</text><text xml:space="preserve" font-family="FranklinGothic-Book,Franklin Gothic Book" font-size="18.0" fill="#000000" transform="matrix(1.00, 0.00, -0.00, -1.00, 33.3, 26.3)"> </text><text xml:space="preserve" font-family="FranklinGothic-Book,Franklin Gothic Book" font-size="18.0" fill="#000000" transform="matrix(1.00, 0.00, -0.00, -1.00, 37.8, 26.3)">A</text><text xml:space="preserve" font-family="FranklinGothic-Book,Franklin Gothic Book" font-size="18.0" fill="#000000" transform="matrix(1.00, 0.00, -0.00, -1.00, 47.4, 26.3)">m</text><text xml:space="preserve" font-family="FranklinGothic-Book,Franklin Gothic Book" font-size="18.0" fill="#000000" transform="matrix(1.00, 0.00, -0.00, -1.00, 62.1, 26.3)">e</text><text xml:space="preserve" font-family="FranklinGothic-Book,Franklin Gothic Book" font-size="18.0" fill="#000000" transform="matrix(1.00, 0.00, -0.00, -1.00, 71.4, 26.3)">r</text><text xml:space="preserve" font-family="FranklinGothic-Book,Franklin Gothic Book" font-size="18.0" fill="#000000" transform="matrix(1.00, 0.00, -0.00, -1.00, 77.4, 26.3)">i</text><text xml:space="preserve" font-family="FranklinGothic-Book,Franklin Gothic Book" font-size="18.0" fill="#000000" transform="matrix(1.00, 0.00, -0.00, -1.00, 81.5, 26.3)">c</text><text xml:space="preserve" font-family="FranklinGothic-Book,Franklin Gothic Book" font-size="18.0" fill="#000000" transform="matrix(1.00, 0.00, -0.00, -1.00, 89.9, 26.3)">a</text><text xml:space="preserve" font-family="FranklinGothic-Book,Franklin Gothic Book" font-size="18.0" fill="#000000" transform="matrix(1.00, 0.00, -0.00, -1.00, 99.4, 26.3)">n</text><text xml:space="preserve" font-family="FranklinGothic-Book,Franklin Gothic Book" font-size="18.0" fill="#000000" transform="matrix(1.00, 0.00, -0.00, -1.00, 109.2, 26.3)"> </text><text xml:space="preserve" font-family="FranklinGothic-Book,Franklin Gothic Book" font-size="18.0" fill="#000000" transform="matrix(1.00, 0.00, -0.00, -1.00, 113.7, 26.3)">L</text><text xml:space="preserve" font-family="FranklinGothic-Book,Franklin Gothic Book" font-size="18.0" fill="#000000" transform="matrix(1.00, 0.00, -0.00, -1.00, 122.5, 26.3)">i</text><text xml:space="preserve" font-family="FranklinGothic-Book,Franklin Gothic Book" font-size="18.0" fill="#000000" transform="matrix(1.00, 0.00, -0.00, -1.00, 126.6, 26.3)">f</text><text xml:space="preserve" font-family="FranklinGothic-Book,Franklin Gothic Book" font-size="18.0" fill="#000000" transform="matrix(1.00, 0.00, -0.00, -1.00, 131.6, 26.3)">e</text><text xml:space="preserve" font-family="FranklinGothic-Book,Franklin Gothic Book" font-size="18.0" fill="#000000" transform="matrix(1.00, 0.00, -0.00, -1.00, 140.9, 26.3)"> </text><text xml:space="preserve" font-family="FranklinGothic-Book,Franklin Gothic Book" font-size="18.0" fill="#000000" transform="matrix(1.00, 0.00, -0.00, -1.00, 145.4, 26.3)">–</text><text xml:space="preserve" font-family="FranklinGothic-Book,Franklin Gothic Book" font-size="18.0" fill="#000000" transform="matrix(1.00, 0.00, -0.00, -1.00, 156.0, 26.3)"> </text><text xml:space="preserve" font-family="FranklinGothic-Book,Franklin Gothic Book" font-size="18.0" fill="#000000" transform="matrix(1.00, 0.00, -0.00, -1.00, 160.5, 26.3)">4</text><text xml:space="preserve" font-family="FranklinGothic-Book,Franklin Gothic Book" font-size="18.0" fill="#000000" transform="matrix(1.00, 0.00, -0.00, -1.00, 171.0, 26.3)">8</text><text xml:space="preserve" font-family="FranklinGothic-Book,Franklin Gothic Book" font-size="18.0" fill="#000000" transform="matrix(1.00, 0.00, -0.00, -1.00, 180.9, 26.3)">7</text><text xml:space="preserve" font-family="FranklinGothic-Book,Franklin Gothic Book" font-size="18.0" fill="#000000" transform="matrix(1.00, 0.00, -0.00, -1.00, 190.1, 26.3)">:</text><text xml:space="preserve" font-family="FranklinGothic-Book,Franklin Gothic Book" font-size="18.0" fill="#000000" transform="matrix(1.00, 0.00, -0.00, -1.00, 194.6, 26.3)"> </text><text xml:space="preserve" font-family="FranklinGothic-Book,Franklin Gothic Book" font-size="18.0" fill="#000000" transform="matrix(1.00, 0.00, -0.00, -1.00, 199.1, 26.3)">H</text><text xml:space="preserve" font-family="FranklinGothic-Book,Franklin Gothic Book" font-size="18.0" fill="#000000" transform="matrix(1.00, 0.00, -0.00, -1.00, 210.6, 26.3)">a</text><text xml:space="preserve" font-family="FranklinGothic-Book,Franklin Gothic Book" font-size="18.0" fill="#000000" transform="matrix(1.00, 0.00, -0.00, -1.00, 220.1, 26.3)">r</text><text xml:space="preserve" font-family="FranklinGothic-Book,Franklin Gothic Book" font-size="18.0" fill="#000000" transform="matrix(1.00, 0.00, -0.00, -1.00, 226.0, 26.3)">p</text><text xml:space="preserve" font-family="FranklinGothic-Book,Franklin Gothic Book" font-size="18.0" fill="#000000" transform="matrix(1.00, 0.00, -0.00, -1.00, 235.6, 26.3)">e</text><text xml:space="preserve" font-family="FranklinGothic-Book,Franklin Gothic Book" font-size="18.0" fill="#000000" transform="matrix(1.00, 0.00, -0.00, -1.00, 245.0, 26.3)">r</text><text xml:space="preserve" font-family="FranklinGothic-Book,Franklin Gothic Book" font-size="18.0" fill="#000000" transform="matrix(1.00, 0.00, -0.00, -1.00, 250.9, 26.3)"> </text><text xml:space="preserve" font-family="FranklinGothic-Book,Franklin Gothic Book" font-size="18.0" fill="#000000" transform="matrix(1.00, 0.00, -0.00, -1.00, 255.4, 26.3)">H</text><text xml:space="preserve" font-family="FranklinGothic-Book,Franklin Gothic Book" font-size="18.0" fill="#000000" transform="matrix(1.00, 0.00, -0.00, -1.00, 266.9, 26.3)">i</text><text xml:space="preserve" font-family="FranklinGothic-Book,Franklin Gothic Book" font-size="18.0" fill="#000000" transform="matrix(1.00, 0.00, -0.00, -1.00, 271.1, 26.3)">g</text><text xml:space="preserve" font-family="FranklinGothic-Book,Franklin Gothic Book" font-size="18.0" fill="#000000" transform="matrix(1.00, 0.00, -0.00, -1.00, 279.9, 26.3)">h</text><text xml:space="preserve" font-family="FranklinGothic-Book,Franklin Gothic Book" font-size="18.0" fill="#000000" transform="matrix(1.00, 0.00, -0.00, -1.00, 289.7, 26.3)"> </text><text xml:space="preserve" font-family="FranklinGothic-Book,Franklin Gothic Book" font-size="18.0" fill="#000000" transform="matrix(1.00, 0.00, -0.00, -1.00, 294.2, 26.3)">S</text><text xml:space="preserve" font-family="FranklinGothic-Book,Franklin Gothic Book" font-size="18.0" fill="#000000" transform="matrix(1.00, 0.00, -0.00, -1.00, 304.4, 26.3)">c</text><text xml:space="preserve" font-family="FranklinGothic-Book,Franklin Gothic Book" font-size="18.0" fill="#000000" transform="matrix(1.00, 0.00, -0.00, -1.00, 312.8, 26.3)">h</text><text xml:space="preserve" font-family="FranklinGothic-Book,Franklin Gothic Book" font-size="18.0" fill="#000000" transform="matrix(1.00, 0.00, -0.00, -1.00, 322.5, 26.3)">o</text><text xml:space="preserve" font-family="FranklinGothic-Book,Franklin Gothic Book" font-size="18.0" fill="#000000" transform="matrix(1.00, 0.00, -0.00, -1.00, 331.9, 26.3)">o</text><text xml:space="preserve" font-family="FranklinGothic-Book,Franklin Gothic Book" font-size="18.0" fill="#000000" transform="matrix(1.00, 0.00, -0.00, -1.00, 341.2, 26.3)">l</text><text xml:space="preserve" font-family="FranklinGothic-Book,Franklin Gothic Book" font-size="18.0" fill="#000000" transform="matrix(1.00, 0.00, -0.00, -1.00, 345.3, 26.3)"> </text><text xml:space="preserve" font-family="FranklinGothic-Book,Franklin Gothic Book" font-size="18.0" fill="#000000" transform="matrix(1.00, 0.00, -0.00, -1.00, 349.8, 26.3)">P</text><text xml:space="preserve" font-family="FranklinGothic-Book,Franklin Gothic Book" font-size="18.0" fill="#000000" transform="matrix(1.00, 0.00, -0.00, -1.00, 359.8, 26.3)">a</text><text xml:space="preserve" font-family="FranklinGothic-Book,Franklin Gothic Book" font-size="18.0" fill="#000000" transform="matrix(1.00, 0.00, -0.00, -1.00, 369.3, 26.3)">r</text><text xml:space="preserve" font-family="FranklinGothic-Book,Franklin Gothic Book" font-size="18.0" fill="#000000" transform="matrix(1.00, 0.00, -0.00, -1.00, 375.8, 26.3)">t</text><text xml:space="preserve" font-family="FranklinGothic-Book,Franklin Gothic Book" font-size="18.0" fill="#000000" transform="matrix(1.00, 0.00, -0.00, -1.00, 381.4, 26.3)"> </text><text xml:space="preserve" font-family="FranklinGothic-Book,Franklin Gothic Book" font-size="18.0" fill="#000000" transform="matrix(1.00, 0.00, -0.00, -1.00, 385.9, 26.3)">O</text><text xml:space="preserve" font-family="FranklinGothic-Book,Franklin Gothic Book" font-size="18.0" fill="#000000" transform="matrix(1.00, 0.00, -0.00, -1.00, 397.2, 26.3)">n</text><text xml:space="preserve" font-family="FranklinGothic-Book,Franklin Gothic Book" font-size="18.0" fill="#000000" transform="matrix(1.00, 0.00, -0.00, -1.00, 407.0, 26.3)">e</text><text xml:space="preserve" font-family="FranklinGothic-Book,Franklin Gothic Book" font-size="18.0" fill="#000000" transform="matrix(1.00, 0.00, -0.00, -1.00, 416.3, 26.3)"> </text><text xml:space="preserve" font-family="FranklinGothic-Book,Franklin Gothic Book" font-size="18.0" fill="#000000" transform="matrix(1.00, 0.00, -0.00, -1.00, 2.3, 6.3)">O</text><text xml:space="preserve" font-family="FranklinGothic-Book,Franklin Gothic Book" font-size="18.0" fill="#000000" transform="matrix(1.00, 0.00, -0.00, -1.00, 13.7, 6.3)">r</text><text xml:space="preserve" font-family="FranklinGothic-Book,Franklin Gothic Book" font-size="18.0" fill="#000000" transform="matrix(1.00, 0.00, -0.00, -1.00, 19.6, 6.3)">i</text><text xml:space="preserve" font-family="FranklinGothic-Book,Franklin Gothic Book" font-size="18.0" fill="#000000" transform="matrix(1.00, 0.00, -0.00, -1.00, 23.8, 6.3)">g</text><text xml:space="preserve" font-family="FranklinGothic-Book,Franklin Gothic Book" font-size="18.0" fill="#000000" transform="matrix(1.00, 0.00, -0.00, -1.00, 32.6, 6.3)">i</text><text xml:space="preserve" font-family="FranklinGothic-Book,Franklin Gothic Book" font-size="18.0" fill="#000000" transform="matrix(1.00, 0.00, -0.00, -1.00, 36.7, 6.3)">n</text><text xml:space="preserve" font-family="FranklinGothic-Book,Franklin Gothic Book" font-size="18.0" fill="#000000" transform="matrix(1.00, 0.00, -0.00, -1.00, 46.5, 6.3)">a</text><text xml:space="preserve" font-family="FranklinGothic-Book,Franklin Gothic Book" font-size="18.0" fill="#000000" transform="matrix(1.00, 0.00, -0.00, -1.00, 56.0, 6.3)">l</text><text xml:space="preserve" font-family="FranklinGothic-Book,Franklin Gothic Book" font-size="18.0" fill="#000000" transform="matrix(1.00, 0.00, -0.00, -1.00, 60.2, 6.3)">l</text><text xml:space="preserve" font-family="FranklinGothic-Book,Franklin Gothic Book" font-size="18.0" fill="#000000" transform="matrix(1.00, 0.00, -0.00, -1.00, 64.3, 6.3)">y</text><text xml:space="preserve" font-family="FranklinGothic-Book,Franklin Gothic Book" font-size="18.0" fill="#000000" transform="matrix(1.00, 0.00, -0.00, -1.00, 71.8, 6.3)"> </text><text xml:space="preserve" font-family="FranklinGothic-Book,Franklin Gothic Book" font-size="18.0" fill="#000000" transform="matrix(1.00, 0.00, -0.00, -1.00, 76.3, 6.3)">a</text><text xml:space="preserve" font-family="FranklinGothic-Book,Franklin Gothic Book" font-size="18.0" fill="#000000" transform="matrix(1.00, 0.00, -0.00, -1.00, 85.8, 6.3)">i</text><text xml:space="preserve" font-family="FranklinGothic-Book,Franklin Gothic Book" font-size="18.0" fill="#000000" transform="matrix(1.00, 0.00, -0.00, -1.00, 89.9, 6.3)">r</text><text xml:space="preserve" font-family="FranklinGothic-Book,Franklin Gothic Book" font-size="18.0" fill="#000000" transform="matrix(1.00, 0.00, -0.00, -1.00, 95.8, 6.3)">e</text><text xml:space="preserve" font-family="FranklinGothic-Book,Franklin Gothic Book" font-size="18.0" fill="#000000" transform="matrix(1.00, 0.00, -0.00, -1.00, 105.2, 6.3)">d</text><text xml:space="preserve" font-family="FranklinGothic-Book,Franklin Gothic Book" font-size="18.0" fill="#000000" transform="matrix(1.00, 0.00, -0.00, -1.00, 114.9, 6.3)"> </text><text xml:space="preserve" font-family="FranklinGothic-Book,Franklin Gothic Book" font-size="18.0" fill="#000000" transform="matrix(1.00, 0.00, -0.00, -1.00, 119.4, 6.3)">2</text><text xml:space="preserve" font-family="FranklinGothic-Book,Franklin Gothic Book" font-size="18.0" fill="#000000" transform="matrix(1.00, 0.00, -0.00, -1.00, 130.0, 6.3)">.</text><text xml:space="preserve" font-family="FranklinGothic-Book,Franklin Gothic Book" font-size="18.0" fill="#000000" transform="matrix(1.00, 0.00, -0.00, -1.00, 133.8, 6.3)">1</text><text xml:space="preserve" font-family="FranklinGothic-Book,Franklin Gothic Book" font-size="18.0" fill="#000000" transform="matrix(1.00, 0.00, -0.00, -1.00, 144.1, 6.3)">5</text><text xml:space="preserve" font-family="FranklinGothic-Book,Franklin Gothic Book" font-size="18.0" fill="#000000" transform="matrix(1.00, 0.00, -0.00, -1.00, 154.6, 6.3)">.</text><text xml:space="preserve" font-family="FranklinGothic-Book,Franklin Gothic Book" font-size="18.0" fill="#000000" transform="matrix(1.00, 0.00, -0.00, -1.00, 159.1, 6.3)">2</text><text xml:space="preserve" font-family="FranklinGothic-Book,Franklin Gothic Book" font-size="18.0" fill="#000000" transform="matrix(1.00, 0.00, -0.00, -1.00, 169.7, 6.3)">0</text><text xml:space="preserve" font-family="FranklinGothic-Book,Franklin Gothic Book" font-size="18.0" fill="#000000" transform="matrix(1.00, 0.00, -0.00, -1.00, 179.6, 6.3)">1</text><text xml:space="preserve" font-family="FranklinGothic-Book,Franklin Gothic Book" font-size="18.0" fill="#000000" transform="matrix(1.00, 0.00, -0.00, -1.00, 190.0, 6.3)">3</text><text xml:space="preserve" font-family="FranklinGothic-Book,Franklin Gothic Book" font-size="18.0" fill="#000000" transform="matrix(1.00, 0.00, -0.00, -1.00, 200.5, 6.3)"> </text></g></svg>