<?xml version="1.0" encoding="UTF-8" standalone="no"?><svg xmlns="http://www.w3.org/2000/svg" xmlns:xlink="http://www.w3.org/1999/xlink" clip-rule="evenodd" stroke-miterlimit="10" viewBox="0 0 720 540"><desc>SVG generated by Keynote</desc><defs></defs><g transform="matrix(1.00, 0.00, -0.00, -1.00, 0.0, 540.0)"><path d="M 0.0 540.0 L 720.0 540.0 L 720.0 0.0 L 0.0 0.0 Z M 0.0 540.0 " fill="#FFFFFF"></path><path d="M 0.0 0.0 L 0.0 99.0 L 160.9 99.0 L 281.2 0.0 L 0.0 0.0 Z M 0.0 -0.0 " fill="#EEE0A1"></path><path d="M -0.2 0.0 L 160.5 99.0 L 720.0 99.0 L 720.0 0.0 L -0.2 0.0 Z M -0.2 -0.0 " fill="#FA8716" fill-opacity="0.80"></path><image xlink:href="../../DD75801A-9AE8-4380-888F-C98CA0921D2F/assets/7B211CF58AC3ACA5C2A2CE6C2C57308C.png" width="307.00" height="33.00" transform="matrix(1.00, 0.00, -0.00, -1.00, 32.0, 505.0)"></image><text xml:space="preserve" font-family="Arial-BoldMT,Arial" font-weight="bold" font-size="32.0" fill="#FAC01E" transform="matrix(1.00, 0.00, -0.00, -1.00, 34.6, 478.7)">W</text><text xml:space="preserve" font-family="Arial-BoldMT,Arial" font-weight="bold" font-size="32.0" fill="#FAC01E" transform="matrix(1.00, 0.00, -0.00, -1.00, 64.8, 478.7)">H</text><text xml:space="preserve" font-family="Arial-BoldMT,Arial" font-weight="bold" font-size="32.0" fill="#FAC01E" transform="matrix(1.00, 0.00, -0.00, -1.00, 87.9, 478.7)">A</text><text xml:space="preserve" font-family="Arial-BoldMT,Arial" font-weight="bold" font-size="32.0" fill="#FAC01E" transform="matrix(1.00, 0.00, -0.00, -1.00, 108.7, 478.7)">T</text><text xml:space="preserve" font-family="Arial-BoldMT,Arial" font-weight="bold" font-size="32.0" fill="#FAC01E" transform="matrix(1.00, 0.00, -0.00, -1.00, 128.2, 478.7)"> </text><text xml:space="preserve" font-family="Arial-BoldMT,Arial" font-weight="bold" font-size="32.0" fill="#FAC01E" transform="matrix(1.00, 0.00, -0.00, -1.00, 137.1, 478.7)">I</text><text xml:space="preserve" font-family="Arial-BoldMT,Arial" font-weight="bold" font-size="32.0" fill="#FAC01E" transform="matrix(1.00, 0.00, -0.00, -1.00, 146.0, 478.7)">S</text><text xml:space="preserve" font-family="Arial-BoldMT,Arial" font-weight="bold" font-size="32.0" fill="#FAC01E" transform="matrix(1.00, 0.00, -0.00, -1.00, 167.3, 478.7)"> </text><text xml:space="preserve" font-family="Arial-BoldMT,Arial" font-weight="bold" font-size="32.0" fill="#FAC01E" transform="matrix(1.00, 0.00, -0.00, -1.00, 175.0, 478.7)">A</text><text xml:space="preserve" font-family="Arial-BoldMT,Arial" font-weight="bold" font-size="32.0" fill="#FAC01E" transform="matrix(1.00, 0.00, -0.00, -1.00, 196.9, 478.7)"> </text><text xml:space="preserve" font-family="Arial-BoldMT,Arial" font-weight="bold" font-size="32.0" fill="#FAC01E" transform="matrix(1.00, 0.00, -0.00, -1.00, 205.8, 478.7)">S</text><text xml:space="preserve" font-family="Arial-BoldMT,Arial" font-weight="bold" font-size="32.0" fill="#FAC01E" transform="matrix(1.00, 0.00, -0.00, -1.00, 227.2, 478.7)">T</text><text xml:space="preserve" font-family="Arial-BoldMT,Arial" font-weight="bold" font-size="32.0" fill="#FAC01E" transform="matrix(1.00, 0.00, -0.00, -1.00, 246.1, 478.7)">O</text><text xml:space="preserve" font-family="Arial-BoldMT,Arial" font-weight="bold" font-size="32.0" fill="#FAC01E" transform="matrix(1.00, 0.00, -0.00, -1.00, 271.0, 478.7)">R</text><text xml:space="preserve" font-family="Arial-BoldMT,Arial" font-weight="bold" font-size="32.0" fill="#FAC01E" transform="matrix(1.00, 0.00, -0.00, -1.00, 292.9, 478.7)">Y</text><text xml:space="preserve" font-family="Arial-BoldMT,Arial" font-weight="bold" font-size="32.0" fill="#FAC01E" transform="matrix(1.00, 0.00, -0.00, -1.00, 314.3, 478.7)">?</text><image xlink:href="0C6A6EB3AEF655959E0274444B9F98A2.jpeg" width="1498.00" height="571.00" transform="matrix(0.48, 0.00, -0.00, -0.48, 1.4, 415.6)"></image></g></svg>