<?xml version="1.0" encoding="UTF-8" standalone="no"?><svg xmlns="http://www.w3.org/2000/svg" xmlns:xlink="http://www.w3.org/1999/xlink" clip-rule="evenodd" stroke-miterlimit="10" viewBox="0 0 203 16"><desc>SVG generated by Keynote</desc><defs></defs><g transform="matrix(1.00, 0.00, -0.00, -1.00, 0.0, 16.0)"><text xml:space="preserve" font-family="Arial-ItalicMT,Arial" font-style="italic" font-size="12.0" fill="#7F7F7F" transform="matrix(1.00, 0.00, -0.00, -1.00, 0.4, 4.6)">O</text><text xml:space="preserve" font-family="Arial-ItalicMT,Arial" font-style="italic" font-size="12.0" fill="#7F7F7F" transform="matrix(1.00, 0.00, -0.00, -1.00, 9.7, 4.6)">n</text><text xml:space="preserve" font-family="Arial-ItalicMT,Arial" font-style="italic" font-size="12.0" fill="#7F7F7F" transform="matrix(1.00, 0.00, -0.00, -1.00, 16.4, 4.6)">s</text><text xml:space="preserve" font-family="Arial-ItalicMT,Arial" font-style="italic" font-size="12.0" fill="#7F7F7F" transform="matrix(1.00, 0.00, -0.00, -1.00, 22.4, 4.6)">l</text><text xml:space="preserve" font-family="Arial-ItalicMT,Arial" font-style="italic" font-size="12.0" fill="#7F7F7F" transform="matrix(1.00, 0.00, -0.00, -1.00, 25.1, 4.6)">a</text><text xml:space="preserve" font-family="Arial-ItalicMT,Arial" font-style="italic" font-size="12.0" fill="#7F7F7F" transform="matrix(1.00, 0.00, -0.00, -1.00, 31.8, 4.6)">u</text><text xml:space="preserve" font-family="Arial-ItalicMT,Arial" font-style="italic" font-size="12.0" fill="#7F7F7F" transform="matrix(1.00, 0.00, -0.00, -1.00, 38.4, 4.6)">g</text><text xml:space="preserve" font-family="Arial-ItalicMT,Arial" font-style="italic" font-size="12.0" fill="#7F7F7F" transform="matrix(1.00, 0.00, -0.00, -1.00, 45.1, 4.6)">h</text><text xml:space="preserve" font-family="Arial-ItalicMT,Arial" font-style="italic" font-size="12.0" fill="#7F7F7F" transform="matrix(1.00, 0.00, -0.00, -1.00, 51.8, 4.6)">t</text><text xml:space="preserve" font-family="Arial-ItalicMT,Arial" font-style="italic" font-size="12.0" fill="#7F7F7F" transform="matrix(1.00, 0.00, -0.00, -1.00, 55.1, 4.6)">.</text><text xml:space="preserve" font-family="ArialMT,Arial" font-size="12.0" fill="#7F7F7F" transform="matrix(1.00, 0.00, -0.00, -1.00, 58.5, 4.6)"> </text><text xml:space="preserve" font-family="ArialMT,Arial" font-size="12.0" fill="#7F7F7F" transform="matrix(1.00, 0.00, -0.00, -1.00, 61.8, 4.6)">D</text><text xml:space="preserve" font-family="ArialMT,Arial" font-size="12.0" fill="#7F7F7F" transform="matrix(1.00, 0.00, -0.00, -1.00, 70.5, 4.6)">i</text><text xml:space="preserve" font-family="ArialMT,Arial" font-size="12.0" fill="#7F7F7F" transform="matrix(1.00, 0.00, -0.00, -1.00, 73.1, 4.6)">r</text><text xml:space="preserve" font-family="ArialMT,Arial" font-size="12.0" fill="#7F7F7F" transform="matrix(1.00, 0.00, -0.00, -1.00, 76.5, 4.6)">.</text><text xml:space="preserve" font-family="ArialMT,Arial" font-size="12.0" fill="#7F7F7F" transform="matrix(1.00, 0.00, -0.00, -1.00, 79.8, 4.6)"> </text><text xml:space="preserve" font-family="ArialMT,Arial" font-size="12.0" fill="#7F7F7F" transform="matrix(1.00, 0.00, -0.00, -1.00, 82.9, 4.6)">T</text><text xml:space="preserve" font-family="ArialMT,Arial" font-size="12.0" fill="#7F7F7F" transform="matrix(1.00, 0.00, -0.00, -1.00, 89.8, 4.6)">i</text><text xml:space="preserve" font-family="ArialMT,Arial" font-size="12.0" fill="#7F7F7F" transform="matrix(1.00, 0.00, -0.00, -1.00, 92.5, 4.6)">m</text><text xml:space="preserve" font-family="ArialMT,Arial" font-size="12.0" fill="#7F7F7F" transform="matrix(1.00, 0.00, -0.00, -1.00, 102.4, 4.6)"> </text><text xml:space="preserve" font-family="ArialMT,Arial" font-size="12.0" fill="#7F7F7F" transform="matrix(1.00, 0.00, -0.00, -1.00, 105.8, 4.6)">P</text><text xml:space="preserve" font-family="ArialMT,Arial" font-size="12.0" fill="#7F7F7F" transform="matrix(1.00, 0.00, -0.00, -1.00, 113.8, 4.6)">i</text><text xml:space="preserve" font-family="ArialMT,Arial" font-size="12.0" fill="#7F7F7F" transform="matrix(1.00, 0.00, -0.00, -1.00, 116.5, 4.6)">p</text><text xml:space="preserve" font-family="ArialMT,Arial" font-size="12.0" fill="#7F7F7F" transform="matrix(1.00, 0.00, -0.00, -1.00, 123.1, 4.6)">e</text><text xml:space="preserve" font-family="ArialMT,Arial" font-size="12.0" fill="#7F7F7F" transform="matrix(1.00, 0.00, -0.00, -1.00, 129.8, 4.6)">r</text><text xml:space="preserve" font-family="ArialMT,Arial" font-size="12.0" fill="#7F7F7F" transform="matrix(1.00, 0.00, -0.00, -1.00, 133.1, 4.6)">.</text><text xml:space="preserve" font-family="ArialMT,Arial" font-size="12.0" fill="#7F7F7F" transform="matrix(1.00, 0.00, -0.00, -1.00, 136.5, 4.6)"> </text><text xml:space="preserve" font-family="ArialMT,Arial" font-size="12.0" fill="#7F7F7F" transform="matrix(1.00, 0.00, -0.00, -1.00, 139.8, 4.6)">D</text><text xml:space="preserve" font-family="ArialMT,Arial" font-size="12.0" fill="#7F7F7F" transform="matrix(1.00, 0.00, -0.00, -1.00, 148.5, 4.6)">o</text><text xml:space="preserve" font-family="ArialMT,Arial" font-size="12.0" fill="#7F7F7F" transform="matrix(1.00, 0.00, -0.00, -1.00, 155.1, 4.6)">v</text><text xml:space="preserve" font-family="ArialMT,Arial" font-size="12.0" fill="#7F7F7F" transform="matrix(1.00, 0.00, -0.00, -1.00, 161.1, 4.6)">e</text><text xml:space="preserve" font-family="ArialMT,Arial" font-size="12.0" fill="#7F7F7F" transform="matrix(1.00, 0.00, -0.00, -1.00, 167.8, 4.6)">,</text><text xml:space="preserve" font-family="ArialMT,Arial" font-size="12.0" fill="#7F7F7F" transform="matrix(1.00, 0.00, -0.00, -1.00, 171.2, 4.6)"> </text><text xml:space="preserve" font-family="ArialMT,Arial" font-size="12.0" fill="#7F7F7F" transform="matrix(1.00, 0.00, -0.00, -1.00, 174.5, 4.6)">2</text><text xml:space="preserve" font-family="ArialMT,Arial" font-size="12.0" fill="#7F7F7F" transform="matrix(1.00, 0.00, -0.00, -1.00, 181.2, 4.6)">0</text><text xml:space="preserve" font-family="ArialMT,Arial" font-size="12.0" fill="#7F7F7F" transform="matrix(1.00, 0.00, -0.00, -1.00, 187.8, 4.6)">0</text><text xml:space="preserve" font-family="ArialMT,Arial" font-size="12.0" fill="#7F7F7F" transform="matrix(1.00, 0.00, -0.00, -1.00, 194.5, 4.6)">7</text></g></svg>