<?xml version="1.0" encoding="UTF-8" standalone="no"?><svg xmlns="http://www.w3.org/2000/svg" xmlns:xlink="http://www.w3.org/1999/xlink" clip-rule="evenodd" stroke-miterlimit="10" viewBox="0 0 720 540"><desc>SVG generated by Keynote</desc><defs></defs><g transform="matrix(1.00, 0.00, -0.00, -1.00, 0.0, 540.0)"><path d="M 0.0 540.0 L 720.0 540.0 L 720.0 0.0 L 0.0 0.0 Z M 0.0 540.0 " fill="#FFFFFF"></path><path d="M 0.0 0.0 L 0.0 99.0 L 160.9 99.0 L 281.2 0.0 L 0.0 0.0 Z M 0.0 -0.0 " fill="#EEE0A1"></path><path d="M -0.2 0.0 L 160.5 99.0 L 720.0 99.0 L 720.0 0.0 L -0.2 0.0 Z M -0.2 -0.0 " fill="#FA8716" fill-opacity="0.80"></path><text xml:space="preserve" font-family="Arial-ItalicMT,Arial" font-style="italic" font-size="12.0" fill="#7F7F7F" transform="matrix(1.00, 0.00, -0.00, -1.00, 387.3, 117.4)">O</text><text xml:space="preserve" font-family="Arial-ItalicMT,Arial" font-style="italic" font-size="12.0" fill="#7F7F7F" transform="matrix(1.00, 0.00, -0.00, -1.00, 396.6, 117.4)">n</text><text xml:space="preserve" font-family="Arial-ItalicMT,Arial" font-style="italic" font-size="12.0" fill="#7F7F7F" transform="matrix(1.00, 0.00, -0.00, -1.00, 403.3, 117.4)">s</text><text xml:space="preserve" font-family="Arial-ItalicMT,Arial" font-style="italic" font-size="12.0" fill="#7F7F7F" transform="matrix(1.00, 0.00, -0.00, -1.00, 409.3, 117.4)">l</text><text xml:space="preserve" font-family="Arial-ItalicMT,Arial" font-style="italic" font-size="12.0" fill="#7F7F7F" transform="matrix(1.00, 0.00, -0.00, -1.00, 412.0, 117.4)">a</text><text xml:space="preserve" font-family="Arial-ItalicMT,Arial" font-style="italic" font-size="12.0" fill="#7F7F7F" transform="matrix(1.00, 0.00, -0.00, -1.00, 418.6, 117.4)">u</text><text xml:space="preserve" font-family="Arial-ItalicMT,Arial" font-style="italic" font-size="12.0" fill="#7F7F7F" transform="matrix(1.00, 0.00, -0.00, -1.00, 425.3, 117.4)">g</text><text xml:space="preserve" font-family="Arial-ItalicMT,Arial" font-style="italic" font-size="12.0" fill="#7F7F7F" transform="matrix(1.00, 0.00, -0.00, -1.00, 432.0, 117.4)">h</text><text xml:space="preserve" font-family="Arial-ItalicMT,Arial" font-style="italic" font-size="12.0" fill="#7F7F7F" transform="matrix(1.00, 0.00, -0.00, -1.00, 438.7, 117.4)">t</text><text xml:space="preserve" font-family="Arial-ItalicMT,Arial" font-style="italic" font-size="12.0" fill="#7F7F7F" transform="matrix(1.00, 0.00, -0.00, -1.00, 442.0, 117.4)">(</text><text xml:space="preserve" font-family="Arial-ItalicMT,Arial" font-style="italic" font-size="12.0" fill="#7F7F7F" transform="matrix(1.00, 0.00, -0.00, -1.00, 446.0, 117.4)">e</text><text xml:space="preserve" font-family="Arial-ItalicMT,Arial" font-style="italic" font-size="12.0" fill="#7F7F7F" transform="matrix(1.00, 0.00, -0.00, -1.00, 452.7, 117.4)">r</text><text xml:space="preserve" font-family="Arial-ItalicMT,Arial" font-style="italic" font-size="12.0" fill="#7F7F7F" transform="matrix(1.00, 0.00, -0.00, -1.00, 456.7, 117.4)">)</text><text xml:space="preserve" font-family="ArialMT,Arial" font-size="12.0" fill="#7F7F7F" transform="matrix(1.00, 0.00, -0.00, -1.00, 460.6, 117.4)">.</text><text xml:space="preserve" font-family="ArialMT,Arial" font-size="12.0" fill="#7F7F7F" transform="matrix(1.00, 0.00, -0.00, -1.00, 464.0, 117.4)"> </text><text xml:space="preserve" font-family="ArialMT,Arial" font-size="12.0" fill="#7F7F7F" transform="matrix(1.00, 0.00, -0.00, -1.00, 467.3, 117.4)">G</text><text xml:space="preserve" font-family="ArialMT,Arial" font-size="12.0" fill="#7F7F7F" transform="matrix(1.00, 0.00, -0.00, -1.00, 476.6, 117.4)">r</text><text xml:space="preserve" font-family="ArialMT,Arial" font-size="12.0" fill="#7F7F7F" transform="matrix(1.00, 0.00, -0.00, -1.00, 480.6, 117.4)">e</text><text xml:space="preserve" font-family="ArialMT,Arial" font-size="12.0" fill="#7F7F7F" transform="matrix(1.00, 0.00, -0.00, -1.00, 487.3, 117.4)">e</text><text xml:space="preserve" font-family="ArialMT,Arial" font-size="12.0" fill="#7F7F7F" transform="matrix(1.00, 0.00, -0.00, -1.00, 494.0, 117.4)">n</text><text xml:space="preserve" font-family="ArialMT,Arial" font-size="12.0" fill="#7F7F7F" transform="matrix(1.00, 0.00, -0.00, -1.00, 500.7, 117.4)">p</text><text xml:space="preserve" font-family="ArialMT,Arial" font-size="12.0" fill="#7F7F7F" transform="matrix(1.00, 0.00, -0.00, -1.00, 507.3, 117.4)">e</text><text xml:space="preserve" font-family="ArialMT,Arial" font-size="12.0" fill="#7F7F7F" transform="matrix(1.00, 0.00, -0.00, -1.00, 514.0, 117.4)">a</text><text xml:space="preserve" font-family="ArialMT,Arial" font-size="12.0" fill="#7F7F7F" transform="matrix(1.00, 0.00, -0.00, -1.00, 520.7, 117.4)">c</text><text xml:space="preserve" font-family="ArialMT,Arial" font-size="12.0" fill="#7F7F7F" transform="matrix(1.00, 0.00, -0.00, -1.00, 526.7, 117.4)">e</text><text xml:space="preserve" font-family="ArialMT,Arial" font-size="12.0" fill="#7F7F7F" transform="matrix(1.00, 0.00, -0.00, -1.00, 533.4, 117.4)">,</text><text xml:space="preserve" font-family="ArialMT,Arial" font-size="12.0" fill="#7F7F7F" transform="matrix(1.00, 0.00, -0.00, -1.00, 536.7, 117.4)"> </text><text xml:space="preserve" font-family="ArialMT,Arial" font-size="12.0" fill="#7F7F7F" transform="matrix(1.00, 0.00, -0.00, -1.00, 540.0, 117.4)">2</text><text xml:space="preserve" font-family="ArialMT,Arial" font-size="12.0" fill="#7F7F7F" transform="matrix(1.00, 0.00, -0.00, -1.00, 546.7, 117.4)">0</text><text xml:space="preserve" font-family="ArialMT,Arial" font-size="12.0" fill="#7F7F7F" transform="matrix(1.00, 0.00, -0.00, -1.00, 553.4, 117.4)">0</text><text xml:space="preserve" font-family="ArialMT,Arial" font-size="12.0" fill="#7F7F7F" transform="matrix(1.00, 0.00, -0.00, -1.00, 560.1, 117.4)">8</text><text xml:space="preserve" font-family="ArialMT,Arial" font-size="12.0" fill="#7F7F7F" transform="matrix(1.00, 0.00, -0.00, -1.00, 566.7, 117.4)"> </text><text xml:space="preserve" font-family="ArialMT,Arial" font-size="12.0" fill="#7F7F7F" transform="matrix(1.00, 0.00, -0.00, -1.00, 570.1, 117.4)"> </text><image xlink:href="../../990E975F-0D2C-4B8A-B9E9-F96F9910772F/assets/C451AF4D1D24B53563A35D054C003F34.png" width="480.00" height="360.00" transform="matrix(0.88, 0.00, -0.00, -0.88, 153.4, 449.5)"></image><image xlink:href="../../2BEAD607-090B-448C-BA87-90F1B70F2931/assets/3E0AE1F21C253CA7EE4ED81F1AA0DCF8.png" width="397.00" height="33.00" transform="matrix(1.00, 0.00, -0.00, -1.00, 34.0, 505.0)"></image><text xml:space="preserve" font-family="Arial-BoldMT,Arial" font-weight="bold" font-size="32.0" fill="#FAC01E" transform="matrix(1.00, 0.00, -0.00, -1.00, 34.6, 478.7)">C</text><text xml:space="preserve" font-family="Arial-BoldMT,Arial" font-weight="bold" font-size="32.0" fill="#FAC01E" transform="matrix(1.00, 0.00, -0.00, -1.00, 57.7, 478.7)">O</text><text xml:space="preserve" font-family="Arial-BoldMT,Arial" font-weight="bold" font-size="32.0" fill="#FAC01E" transform="matrix(1.00, 0.00, -0.00, -1.00, 82.6, 478.7)">P</text><text xml:space="preserve" font-family="Arial-BoldMT,Arial" font-weight="bold" font-size="32.0" fill="#FAC01E" transform="matrix(1.00, 0.00, -0.00, -1.00, 103.9, 478.7)">Y</text><text xml:space="preserve" font-family="Arial-BoldMT,Arial" font-weight="bold" font-size="32.0" fill="#FAC01E" transform="matrix(1.00, 0.00, -0.00, -1.00, 125.3, 478.7)">R</text><text xml:space="preserve" font-family="Arial-BoldMT,Arial" font-weight="bold" font-size="32.0" fill="#FAC01E" transform="matrix(1.00, 0.00, -0.00, -1.00, 148.4, 478.7)">I</text><text xml:space="preserve" font-family="Arial-BoldMT,Arial" font-weight="bold" font-size="32.0" fill="#FAC01E" transform="matrix(1.00, 0.00, -0.00, -1.00, 157.3, 478.7)">G</text><text xml:space="preserve" font-family="Arial-BoldMT,Arial" font-weight="bold" font-size="32.0" fill="#FAC01E" transform="matrix(1.00, 0.00, -0.00, -1.00, 182.2, 478.7)">H</text><text xml:space="preserve" font-family="Arial-BoldMT,Arial" font-weight="bold" font-size="32.0" fill="#FAC01E" transform="matrix(1.00, 0.00, -0.00, -1.00, 205.3, 478.7)">T</text><text xml:space="preserve" font-family="Arial-BoldMT,Arial" font-weight="bold" font-size="32.0" fill="#FAC01E" transform="matrix(1.00, 0.00, -0.00, -1.00, 224.8, 478.7)"> </text><text xml:space="preserve" font-family="Arial-BoldMT,Arial" font-weight="bold" font-size="32.0" fill="#FAC01E" transform="matrix(1.00, 0.00, -0.00, -1.00, 233.7, 478.7)">C</text><text xml:space="preserve" font-family="Arial-BoldMT,Arial" font-weight="bold" font-size="32.0" fill="#FAC01E" transform="matrix(1.00, 0.00, -0.00, -1.00, 256.8, 478.7)">O</text><text xml:space="preserve" font-family="Arial-BoldMT,Arial" font-weight="bold" font-size="32.0" fill="#FAC01E" transform="matrix(1.00, 0.00, -0.00, -1.00, 281.7, 478.7)">N</text><text xml:space="preserve" font-family="Arial-BoldMT,Arial" font-weight="bold" font-size="32.0" fill="#FAC01E" transform="matrix(1.00, 0.00, -0.00, -1.00, 304.8, 478.7)">C</text><text xml:space="preserve" font-family="Arial-BoldMT,Arial" font-weight="bold" font-size="32.0" fill="#FAC01E" transform="matrix(1.00, 0.00, -0.00, -1.00, 327.9, 478.7)">E</text><text xml:space="preserve" font-family="Arial-BoldMT,Arial" font-weight="bold" font-size="32.0" fill="#FAC01E" transform="matrix(1.00, 0.00, -0.00, -1.00, 349.3, 478.7)">R</text><text xml:space="preserve" font-family="Arial-BoldMT,Arial" font-weight="bold" font-size="32.0" fill="#FAC01E" transform="matrix(1.00, 0.00, -0.00, -1.00, 372.4, 478.7)">N</text><text xml:space="preserve" font-family="Arial-BoldMT,Arial" font-weight="bold" font-size="32.0" fill="#FAC01E" transform="matrix(1.00, 0.00, -0.00, -1.00, 395.5, 478.7)">S</text><text xml:space="preserve" font-family="Arial-BoldMT,Arial" font-weight="bold" font-size="32.0" fill="#FAC01E" transform="matrix(1.00, 0.00, -0.00, -1.00, 416.9, 478.7)">:</text><text xml:space="preserve" font-family="Arial-BoldMT,Arial" font-weight="bold" font-size="32.0" fill="#FAC01E" transform="matrix(1.00, 0.00, -0.00, -1.00, 427.5, 478.7)"> </text><image xlink:href="../../990E975F-0D2C-4B8A-B9E9-F96F9910772F/assets/7B11457411EECCF243D7F729931F249C.png" width="141.00" height="33.00" transform="matrix(1.00, 0.00, -0.00, -1.00, 436.0, 505.0)"></image><text xml:space="preserve" font-family="Arial-BoldMT,Arial" font-weight="bold" font-size="32.0" fill="#000000" transform="matrix(1.00, 0.00, -0.00, -1.00, 436.4, 478.7)">P</text><text xml:space="preserve" font-family="Arial-BoldMT,Arial" font-weight="bold" font-size="32.0" fill="#000000" transform="matrix(1.00, 0.00, -0.00, -1.00, 455.4, 478.7)">A</text><text xml:space="preserve" font-family="Arial-BoldMT,Arial" font-weight="bold" font-size="32.0" fill="#000000" transform="matrix(1.00, 0.00, -0.00, -1.00, 478.5, 478.7)">R</text><text xml:space="preserve" font-family="Arial-BoldMT,Arial" font-weight="bold" font-size="32.0" fill="#000000" transform="matrix(1.00, 0.00, -0.00, -1.00, 501.6, 478.7)">O</text><text xml:space="preserve" font-family="Arial-BoldMT,Arial" font-weight="bold" font-size="32.0" fill="#000000" transform="matrix(1.00, 0.00, -0.00, -1.00, 526.5, 478.7)">D</text><text xml:space="preserve" font-family="Arial-BoldMT,Arial" font-weight="bold" font-size="32.0" fill="#000000" transform="matrix(1.00, 0.00, -0.00, -1.00, 549.6, 478.7)">Y</text></g></svg>