<?xml version="1.0" encoding="UTF-8" standalone="no"?><svg xmlns="http://www.w3.org/2000/svg" xmlns:xlink="http://www.w3.org/1999/xlink" clip-rule="evenodd" stroke-miterlimit="10" viewBox="0 0 720 540"><desc>SVG generated by Keynote</desc><defs></defs><g transform="matrix(1.00, 0.00, -0.00, -1.00, 0.0, 540.0)"><path d="M 0.0 540.0 L 720.0 540.0 L 720.0 0.0 L 0.0 0.0 Z M 0.0 540.0 " fill="#FFFFFF"></path><path d="M 0.0 0.0 L 0.0 99.0 L 160.9 99.0 L 281.2 0.0 L 0.0 0.0 Z M 0.0 -0.0 " fill="#EEE0A1"></path><path d="M -0.2 0.0 L 160.5 99.0 L 720.0 99.0 L 720.0 0.0 L -0.2 0.0 Z M -0.2 -0.0 " fill="#FA8716" fill-opacity="0.80"></path><image xlink:href="../../3B7C9EE0-72CF-452F-A9D8-D11E76A0BF33/assets/E1B29D1B3CC09F85E3A0E7D1488F0D6F.png" width="171.00" height="33.00" transform="matrix(1.00, 0.00, -0.00, -1.00, 34.0, 505.0)"></image><text xml:space="preserve" font-family="Arial-BoldMT,Arial" font-weight="bold" font-size="32.0" fill="#FAC01E" transform="matrix(1.00, 0.00, -0.00, -1.00, 34.6, 478.7)">P</text><text xml:space="preserve" font-family="Arial-BoldMT,Arial" font-weight="bold" font-size="32.0" fill="#FAC01E" transform="matrix(1.00, 0.00, -0.00, -1.00, 55.9, 478.7)">R</text><text xml:space="preserve" font-family="Arial-BoldMT,Arial" font-weight="bold" font-size="32.0" fill="#FAC01E" transform="matrix(1.00, 0.00, -0.00, -1.00, 79.1, 478.7)">O</text><text xml:space="preserve" font-family="Arial-BoldMT,Arial" font-weight="bold" font-size="32.0" fill="#FAC01E" transform="matrix(1.00, 0.00, -0.00, -1.00, 103.9, 478.7)">C</text><text xml:space="preserve" font-family="Arial-BoldMT,Arial" font-weight="bold" font-size="32.0" fill="#FAC01E" transform="matrix(1.00, 0.00, -0.00, -1.00, 127.1, 478.7)">E</text><text xml:space="preserve" font-family="Arial-BoldMT,Arial" font-weight="bold" font-size="32.0" fill="#FAC01E" transform="matrix(1.00, 0.00, -0.00, -1.00, 148.4, 478.7)">S</text><text xml:space="preserve" font-family="Arial-BoldMT,Arial" font-weight="bold" font-size="32.0" fill="#FAC01E" transform="matrix(1.00, 0.00, -0.00, -1.00, 169.7, 478.7)">S</text><text xml:space="preserve" font-family="Arial-BoldMT,Arial" font-weight="bold" font-size="32.0" fill="#FAC01E" transform="matrix(1.00, 0.00, -0.00, -1.00, 191.1, 478.7)">:</text><text xml:space="preserve" font-family="Arial-BoldMT,Arial" font-weight="bold" font-size="32.0" fill="#FAC01E" transform="matrix(1.00, 0.00, -0.00, -1.00, 201.7, 478.7)"> </text><image xlink:href="../../ED2EDCAA-6516-4EA4-ACEC-D2245985FE17/assets/B2EE1AF5460A8610D6F2F1BAE9F6F9D2.png" width="321.00" height="33.00" transform="matrix(1.00, 0.00, -0.00, -1.00, 210.0, 505.0)"></image><text xml:space="preserve" font-family="Arial-BoldMT,Arial" font-weight="bold" font-size="32.0" fill="#000000" transform="matrix(1.00, 0.00, -0.00, -1.00, 210.6, 478.7)">C</text><text xml:space="preserve" font-family="Arial-BoldMT,Arial" font-weight="bold" font-size="32.0" fill="#000000" transform="matrix(1.00, 0.00, -0.00, -1.00, 233.7, 478.7)">O</text><text xml:space="preserve" font-family="Arial-BoldMT,Arial" font-weight="bold" font-size="32.0" fill="#000000" transform="matrix(1.00, 0.00, -0.00, -1.00, 258.6, 478.7)">L</text><text xml:space="preserve" font-family="Arial-BoldMT,Arial" font-weight="bold" font-size="32.0" fill="#000000" transform="matrix(1.00, 0.00, -0.00, -1.00, 278.2, 478.7)">L</text><text xml:space="preserve" font-family="Arial-BoldMT,Arial" font-weight="bold" font-size="32.0" fill="#000000" transform="matrix(1.00, 0.00, -0.00, -1.00, 297.7, 478.7)">E</text><text xml:space="preserve" font-family="Arial-BoldMT,Arial" font-weight="bold" font-size="32.0" fill="#000000" transform="matrix(1.00, 0.00, -0.00, -1.00, 319.1, 478.7)">C</text><text xml:space="preserve" font-family="Arial-BoldMT,Arial" font-weight="bold" font-size="32.0" fill="#000000" transform="matrix(1.00, 0.00, -0.00, -1.00, 342.2, 478.7)">T</text><text xml:space="preserve" font-family="Arial-BoldMT,Arial" font-weight="bold" font-size="32.0" fill="#000000" transform="matrix(1.00, 0.00, -0.00, -1.00, 361.7, 478.7)"> </text><text xml:space="preserve" font-family="Arial-BoldMT,Arial" font-weight="bold" font-size="32.0" fill="#000000" transform="matrix(1.00, 0.00, -0.00, -1.00, 370.6, 478.7)">C</text><text xml:space="preserve" font-family="Arial-BoldMT,Arial" font-weight="bold" font-size="32.0" fill="#000000" transform="matrix(1.00, 0.00, -0.00, -1.00, 393.7, 478.7)">O</text><text xml:space="preserve" font-family="Arial-BoldMT,Arial" font-weight="bold" font-size="32.0" fill="#000000" transform="matrix(1.00, 0.00, -0.00, -1.00, 418.6, 478.7)">N</text><text xml:space="preserve" font-family="Arial-BoldMT,Arial" font-weight="bold" font-size="32.0" fill="#000000" transform="matrix(1.00, 0.00, -0.00, -1.00, 441.7, 478.7)">T</text><text xml:space="preserve" font-family="Arial-BoldMT,Arial" font-weight="bold" font-size="32.0" fill="#000000" transform="matrix(1.00, 0.00, -0.00, -1.00, 461.3, 478.7)">E</text><text xml:space="preserve" font-family="Arial-BoldMT,Arial" font-weight="bold" font-size="32.0" fill="#000000" transform="matrix(1.00, 0.00, -0.00, -1.00, 482.6, 478.7)">N</text><text xml:space="preserve" font-family="Arial-BoldMT,Arial" font-weight="bold" font-size="32.0" fill="#000000" transform="matrix(1.00, 0.00, -0.00, -1.00, 505.7, 478.7)">T</text><text xml:space="preserve" font-family="ArialMT,Arial" font-size="24.0" fill="#FA8716" transform="matrix(1.00, 0.00, -0.00, -1.00, 196.7, 123.7)">I</text><text xml:space="preserve" font-family="ArialMT,Arial" font-size="24.0" fill="#FA8716" transform="matrix(1.00, 0.00, -0.00, -1.00, 203.3, 123.7)">n</text><text xml:space="preserve" font-family="ArialMT,Arial" font-size="24.0" fill="#FA8716" transform="matrix(1.00, 0.00, -0.00, -1.00, 216.7, 123.7)">t</text><text xml:space="preserve" font-family="ArialMT,Arial" font-size="24.0" fill="#FA8716" transform="matrix(1.00, 0.00, -0.00, -1.00, 223.3, 123.7)">e</text><text xml:space="preserve" font-family="ArialMT,Arial" font-size="24.0" fill="#FA8716" transform="matrix(1.00, 0.00, -0.00, -1.00, 236.7, 123.7)">r</text><text xml:space="preserve" font-family="ArialMT,Arial" font-size="24.0" fill="#FA8716" transform="matrix(1.00, 0.00, -0.00, -1.00, 244.7, 123.7)">v</text><text xml:space="preserve" font-family="ArialMT,Arial" font-size="24.0" fill="#FA8716" transform="matrix(1.00, 0.00, -0.00, -1.00, 256.7, 123.7)">i</text><text xml:space="preserve" font-family="ArialMT,Arial" font-size="24.0" fill="#FA8716" transform="matrix(1.00, 0.00, -0.00, -1.00, 262.0, 123.7)">e</text><text xml:space="preserve" font-family="ArialMT,Arial" font-size="24.0" fill="#FA8716" transform="matrix(1.00, 0.00, -0.00, -1.00, 275.4, 123.7)">w</text><text xml:space="preserve" font-family="ArialMT,Arial" font-size="24.0" fill="#FA8716" transform="matrix(1.00, 0.00, -0.00, -1.00, 292.7, 123.7)">s</text><text xml:space="preserve" font-family="ArialMT,Arial" font-size="24.0" fill="#FA8716" transform="matrix(1.00, 0.00, -0.00, -1.00, 304.7, 123.7)"> </text><text xml:space="preserve" font-family="ArialMT,Arial" font-size="24.0" fill="#FA8716" transform="matrix(1.00, 0.00, -0.00, -1.00, 311.4, 123.7)">•</text><text xml:space="preserve" font-family="ArialMT,Arial" font-size="24.0" fill="#FA8716" transform="matrix(1.00, 0.00, -0.00, -1.00, 319.8, 123.7)"> </text><text xml:space="preserve" font-family="ArialMT,Arial" font-size="24.0" fill="#FA8716" transform="matrix(1.00, 0.00, -0.00, -1.00, 326.4, 123.7)">N</text><text xml:space="preserve" font-family="ArialMT,Arial" font-size="24.0" fill="#FA8716" transform="matrix(1.00, 0.00, -0.00, -1.00, 343.8, 123.7)">a</text><text xml:space="preserve" font-family="ArialMT,Arial" font-size="24.0" fill="#FA8716" transform="matrix(1.00, 0.00, -0.00, -1.00, 357.1, 123.7)">r</text><text xml:space="preserve" font-family="ArialMT,Arial" font-size="24.0" fill="#FA8716" transform="matrix(1.00, 0.00, -0.00, -1.00, 365.1, 123.7)">r</text><text xml:space="preserve" font-family="ArialMT,Arial" font-size="24.0" fill="#FA8716" transform="matrix(1.00, 0.00, -0.00, -1.00, 373.1, 123.7)">a</text><text xml:space="preserve" font-family="ArialMT,Arial" font-size="24.0" fill="#FA8716" transform="matrix(1.00, 0.00, -0.00, -1.00, 386.5, 123.7)">t</text><text xml:space="preserve" font-family="ArialMT,Arial" font-size="24.0" fill="#FA8716" transform="matrix(1.00, 0.00, -0.00, -1.00, 393.1, 123.7)">i</text><text xml:space="preserve" font-family="ArialMT,Arial" font-size="24.0" fill="#FA8716" transform="matrix(1.00, 0.00, -0.00, -1.00, 398.5, 123.7)">o</text><text xml:space="preserve" font-family="ArialMT,Arial" font-size="24.0" fill="#FA8716" transform="matrix(1.00, 0.00, -0.00, -1.00, 411.8, 123.7)">n</text><text xml:space="preserve" font-family="ArialMT,Arial" font-size="24.0" fill="#FA8716" transform="matrix(1.00, 0.00, -0.00, -1.00, 425.2, 123.7)">s</text><text xml:space="preserve" font-family="ArialMT,Arial" font-size="24.0" fill="#FA8716" transform="matrix(1.00, 0.00, -0.00, -1.00, 437.2, 123.7)"> </text><text xml:space="preserve" font-family="ArialMT,Arial" font-size="24.0" fill="#FA8716" transform="matrix(1.00, 0.00, -0.00, -1.00, 443.8, 123.7)">•</text><text xml:space="preserve" font-family="ArialMT,Arial" font-size="24.0" fill="#FA8716" transform="matrix(1.00, 0.00, -0.00, -1.00, 452.2, 123.7)"> </text><text xml:space="preserve" font-family="ArialMT,Arial" font-size="24.0" fill="#FA8716" transform="matrix(1.00, 0.00, -0.00, -1.00, 458.9, 123.7)">M</text><text xml:space="preserve" font-family="ArialMT,Arial" font-size="24.0" fill="#FA8716" transform="matrix(1.00, 0.00, -0.00, -1.00, 478.9, 123.7)">u</text><text xml:space="preserve" font-family="ArialMT,Arial" font-size="24.0" fill="#FA8716" transform="matrix(1.00, 0.00, -0.00, -1.00, 492.2, 123.7)">s</text><text xml:space="preserve" font-family="ArialMT,Arial" font-size="24.0" fill="#FA8716" transform="matrix(1.00, 0.00, -0.00, -1.00, 504.2, 123.7)">i</text><text xml:space="preserve" font-family="ArialMT,Arial" font-size="24.0" fill="#FA8716" transform="matrix(1.00, 0.00, -0.00, -1.00, 509.6, 123.7)">c</text><g><clipPath id="clip0x7f994fe3c1c0"><path d="M 340.6 453.1 L 652.4 435.2 L 635.8 146.6 L 324.0 164.5 Z M 340.6 453.1 "></path></clipPath><g clip-path="url(#clip0x7f994fe3c1c0)"><image xlink:href="../../ED2EDCAA-6516-4EA4-ACEC-D2245985FE17/assets/8708048F9BF990F5C076861AAC42B63E.png" width="1099.00" height="976.00" transform="matrix(0.30, -0.02, -0.02, -0.30, 334.8, 453.5)"></image></g></g><g><clipPath id="clip0x7f994f8744c0"><path d="M 14.9 349.7 L 342.2 426.1 L 393.2 207.9 L 65.9 131.5 Z M 14.9 349.7 "></path></clipPath><g clip-path="url(#clip0x7f994f8744c0)"><image xlink:href="../../ED2EDCAA-6516-4EA4-ACEC-D2245985FE17/assets/72A65579D63E77A7B9BC25D2E20933A0.jpeg" width="540.00" height="360.00" transform="matrix(0.61, 0.14, 0.14, -0.61, 14.9, 357.2)"></image></g></g></g></svg>