<?xml version="1.0" encoding="UTF-8" standalone="no"?><svg xmlns="http://www.w3.org/2000/svg" xmlns:xlink="http://www.w3.org/1999/xlink" clip-rule="evenodd" stroke-miterlimit="10" viewBox="0 0 421 40"><desc>SVG generated by Keynote</desc><defs></defs><g transform="matrix(1.00, 0.00, -0.00, -1.00, 0.0, 40.0)"><text xml:space="preserve" font-family="FranklinGothic-Book,Franklin Gothic Book" font-size="18.0" fill="#000000" transform="matrix(1.00, 0.00, -0.00, -1.00, 2.3, 26.3)">A</text><text xml:space="preserve" font-family="FranklinGothic-Book,Franklin Gothic Book" font-size="18.0" fill="#000000" transform="matrix(1.00, 0.00, -0.00, -1.00, 12.0, 26.3)"> </text><text xml:space="preserve" font-family="FranklinGothic-Book,Franklin Gothic Book" font-size="18.0" fill="#000000" transform="matrix(1.00, 0.00, -0.00, -1.00, 16.5, 26.3)">P</text><text xml:space="preserve" font-family="FranklinGothic-Book,Franklin Gothic Book" font-size="18.0" fill="#000000" transform="matrix(1.00, 0.00, -0.00, -1.00, 26.5, 26.3)">r</text><text xml:space="preserve" font-family="FranklinGothic-Book,Franklin Gothic Book" font-size="18.0" fill="#000000" transform="matrix(1.00, 0.00, -0.00, -1.00, 32.5, 26.3)">a</text><text xml:space="preserve" font-family="FranklinGothic-Book,Franklin Gothic Book" font-size="18.0" fill="#000000" transform="matrix(1.00, 0.00, -0.00, -1.00, 42.0, 26.3)">i</text><text xml:space="preserve" font-family="FranklinGothic-Book,Franklin Gothic Book" font-size="18.0" fill="#000000" transform="matrix(1.00, 0.00, -0.00, -1.00, 46.1, 26.3)">r</text><text xml:space="preserve" font-family="FranklinGothic-Book,Franklin Gothic Book" font-size="18.0" fill="#000000" transform="matrix(1.00, 0.00, -0.00, -1.00, 52.0, 26.3)">i</text><text xml:space="preserve" font-family="FranklinGothic-Book,Franklin Gothic Book" font-size="18.0" fill="#000000" transform="matrix(1.00, 0.00, -0.00, -1.00, 56.2, 26.3)">e</text><text xml:space="preserve" font-family="FranklinGothic-Book,Franklin Gothic Book" font-size="18.0" fill="#000000" transform="matrix(1.00, 0.00, -0.00, -1.00, 65.5, 26.3)"> </text><text xml:space="preserve" font-family="FranklinGothic-Book,Franklin Gothic Book" font-size="18.0" fill="#000000" transform="matrix(1.00, 0.00, -0.00, -1.00, 70.0, 26.3)">H</text><text xml:space="preserve" font-family="FranklinGothic-Book,Franklin Gothic Book" font-size="18.0" fill="#000000" transform="matrix(1.00, 0.00, -0.00, -1.00, 81.6, 26.3)">o</text><text xml:space="preserve" font-family="FranklinGothic-Book,Franklin Gothic Book" font-size="18.0" fill="#000000" transform="matrix(1.00, 0.00, -0.00, -1.00, 90.9, 26.3)">m</text><text xml:space="preserve" font-family="FranklinGothic-Book,Franklin Gothic Book" font-size="18.0" fill="#000000" transform="matrix(1.00, 0.00, -0.00, -1.00, 105.6, 26.3)">e</text><text xml:space="preserve" font-family="FranklinGothic-Book,Franklin Gothic Book" font-size="18.0" fill="#000000" transform="matrix(1.00, 0.00, -0.00, -1.00, 115.0, 26.3)"> </text><text xml:space="preserve" font-family="FranklinGothic-Book,Franklin Gothic Book" font-size="18.0" fill="#000000" transform="matrix(1.00, 0.00, -0.00, -1.00, 119.5, 26.3)">C</text><text xml:space="preserve" font-family="FranklinGothic-Book,Franklin Gothic Book" font-size="18.0" fill="#000000" transform="matrix(1.00, 0.00, -0.00, -1.00, 129.9, 26.3)">o</text><text xml:space="preserve" font-family="FranklinGothic-Book,Franklin Gothic Book" font-size="18.0" fill="#000000" transform="matrix(1.00, 0.00, -0.00, -1.00, 139.2, 26.3)">m</text><text xml:space="preserve" font-family="FranklinGothic-Book,Franklin Gothic Book" font-size="18.0" fill="#000000" transform="matrix(1.00, 0.00, -0.00, -1.00, 153.7, 26.3)">p</text><text xml:space="preserve" font-family="FranklinGothic-Book,Franklin Gothic Book" font-size="18.0" fill="#000000" transform="matrix(1.00, 0.00, -0.00, -1.00, 163.3, 26.3)">a</text><text xml:space="preserve" font-family="FranklinGothic-Book,Franklin Gothic Book" font-size="18.0" fill="#000000" transform="matrix(1.00, 0.00, -0.00, -1.00, 172.9, 26.3)">n</text><text xml:space="preserve" font-family="FranklinGothic-Book,Franklin Gothic Book" font-size="18.0" fill="#000000" transform="matrix(1.00, 0.00, -0.00, -1.00, 182.6, 26.3)">i</text><text xml:space="preserve" font-family="FranklinGothic-Book,Franklin Gothic Book" font-size="18.0" fill="#000000" transform="matrix(1.00, 0.00, -0.00, -1.00, 186.8, 26.3)">o</text><text xml:space="preserve" font-family="FranklinGothic-Book,Franklin Gothic Book" font-size="18.0" fill="#000000" transform="matrix(1.00, 0.00, -0.00, -1.00, 196.1, 26.3)">n</text><text xml:space="preserve" font-family="FranklinGothic-Book,Franklin Gothic Book" font-size="18.0" fill="#000000" transform="matrix(1.00, 0.00, -0.00, -1.00, 205.8, 26.3)">,</text><text xml:space="preserve" font-family="FranklinGothic-Book,Franklin Gothic Book" font-size="18.0" fill="#000000" transform="matrix(1.00, 0.00, -0.00, -1.00, 210.3, 26.3)"> </text><text xml:space="preserve" font-family="FranklinGothic-Book,Franklin Gothic Book" font-size="18.0" fill="#000000" transform="matrix(1.00, 0.00, -0.00, -1.00, 214.8, 26.3)">“</text><text xml:space="preserve" font-family="FranklinGothic-Book,Franklin Gothic Book" font-size="18.0" fill="#000000" transform="matrix(1.00, 0.00, -0.00, -1.00, 222.1, 26.3)">T</text><text xml:space="preserve" font-family="FranklinGothic-Book,Franklin Gothic Book" font-size="18.0" fill="#000000" transform="matrix(1.00, 0.00, -0.00, -1.00, 230.8, 26.3)">h</text><text xml:space="preserve" font-family="FranklinGothic-Book,Franklin Gothic Book" font-size="18.0" fill="#000000" transform="matrix(1.00, 0.00, -0.00, -1.00, 240.5, 26.3)">e</text><text xml:space="preserve" font-family="FranklinGothic-Book,Franklin Gothic Book" font-size="18.0" fill="#000000" transform="matrix(1.00, 0.00, -0.00, -1.00, 249.9, 26.3)"> </text><text xml:space="preserve" font-family="FranklinGothic-Book,Franklin Gothic Book" font-size="18.0" fill="#000000" transform="matrix(1.00, 0.00, -0.00, -1.00, 254.4, 26.3)">L</text><text xml:space="preserve" font-family="FranklinGothic-Book,Franklin Gothic Book" font-size="18.0" fill="#000000" transform="matrix(1.00, 0.00, -0.00, -1.00, 263.2, 26.3)">i</text><text xml:space="preserve" font-family="FranklinGothic-Book,Franklin Gothic Book" font-size="18.0" fill="#000000" transform="matrix(1.00, 0.00, -0.00, -1.00, 267.3, 26.3)">v</text><text xml:space="preserve" font-family="FranklinGothic-Book,Franklin Gothic Book" font-size="18.0" fill="#000000" transform="matrix(1.00, 0.00, -0.00, -1.00, 275.2, 26.3)">e</text><text xml:space="preserve" font-family="FranklinGothic-Book,Franklin Gothic Book" font-size="18.0" fill="#000000" transform="matrix(1.00, 0.00, -0.00, -1.00, 284.5, 26.3)">s</text><text xml:space="preserve" font-family="FranklinGothic-Book,Franklin Gothic Book" font-size="18.0" fill="#000000" transform="matrix(1.00, 0.00, -0.00, -1.00, 292.9, 26.3)"> </text><text xml:space="preserve" font-family="FranklinGothic-Book,Franklin Gothic Book" font-size="18.0" fill="#000000" transform="matrix(1.00, 0.00, -0.00, -1.00, 297.4, 26.3)">o</text><text xml:space="preserve" font-family="FranklinGothic-Book,Franklin Gothic Book" font-size="18.0" fill="#000000" transform="matrix(1.00, 0.00, -0.00, -1.00, 306.7, 26.3)">f</text><text xml:space="preserve" font-family="FranklinGothic-Book,Franklin Gothic Book" font-size="18.0" fill="#000000" transform="matrix(1.00, 0.00, -0.00, -1.00, 312.1, 26.3)"> </text><text xml:space="preserve" font-family="FranklinGothic-Book,Franklin Gothic Book" font-size="18.0" fill="#000000" transform="matrix(1.00, 0.00, -0.00, -1.00, 316.6, 26.3)">t</text><text xml:space="preserve" font-family="FranklinGothic-Book,Franklin Gothic Book" font-size="18.0" fill="#000000" transform="matrix(1.00, 0.00, -0.00, -1.00, 322.1, 26.3)">h</text><text xml:space="preserve" font-family="FranklinGothic-Book,Franklin Gothic Book" font-size="18.0" fill="#000000" transform="matrix(1.00, 0.00, -0.00, -1.00, 331.9, 26.3)">e</text><text xml:space="preserve" font-family="FranklinGothic-Book,Franklin Gothic Book" font-size="18.0" fill="#000000" transform="matrix(1.00, 0.00, -0.00, -1.00, 341.2, 26.3)"> </text><text xml:space="preserve" font-family="FranklinGothic-Book,Franklin Gothic Book" font-size="18.0" fill="#000000" transform="matrix(1.00, 0.00, -0.00, -1.00, 345.7, 26.3)">C</text><text xml:space="preserve" font-family="FranklinGothic-Book,Franklin Gothic Book" font-size="18.0" fill="#000000" transform="matrix(1.00, 0.00, -0.00, -1.00, 356.2, 26.3)">o</text><text xml:space="preserve" font-family="FranklinGothic-Book,Franklin Gothic Book" font-size="18.0" fill="#000000" transform="matrix(1.00, 0.00, -0.00, -1.00, 365.3, 26.3)">w</text><text xml:space="preserve" font-family="FranklinGothic-Book,Franklin Gothic Book" font-size="18.0" fill="#000000" transform="matrix(1.00, 0.00, -0.00, -1.00, 377.2, 26.3)">b</text><text xml:space="preserve" font-family="FranklinGothic-Book,Franklin Gothic Book" font-size="18.0" fill="#000000" transform="matrix(1.00, 0.00, -0.00, -1.00, 386.9, 26.3)">o</text><text xml:space="preserve" font-family="FranklinGothic-Book,Franklin Gothic Book" font-size="18.0" fill="#000000" transform="matrix(1.00, 0.00, -0.00, -1.00, 395.9, 26.3)">y</text><text xml:space="preserve" font-family="FranklinGothic-Book,Franklin Gothic Book" font-size="18.0" fill="#000000" transform="matrix(1.00, 0.00, -0.00, -1.00, 403.4, 26.3)">s</text><text xml:space="preserve" font-family="FranklinGothic-Book,Franklin Gothic Book" font-size="18.0" fill="#000000" transform="matrix(1.00, 0.00, -0.00, -1.00, 411.8, 26.3)">”</text><text xml:space="preserve" font-family="FranklinGothic-Book,Franklin Gothic Book" font-size="18.0" fill="#000000" transform="matrix(1.00, 0.00, -0.00, -1.00, 419.0, 26.3)"> </text><text xml:space="preserve" font-family="FranklinGothic-Book,Franklin Gothic Book" font-size="18.0" fill="#000000" transform="matrix(1.00, 0.00, -0.00, -1.00, 2.3, 6.3)">O</text><text xml:space="preserve" font-family="FranklinGothic-Book,Franklin Gothic Book" font-size="18.0" fill="#000000" transform="matrix(1.00, 0.00, -0.00, -1.00, 13.7, 6.3)">r</text><text xml:space="preserve" font-family="FranklinGothic-Book,Franklin Gothic Book" font-size="18.0" fill="#000000" transform="matrix(1.00, 0.00, -0.00, -1.00, 19.6, 6.3)">i</text><text xml:space="preserve" font-family="FranklinGothic-Book,Franklin Gothic Book" font-size="18.0" fill="#000000" transform="matrix(1.00, 0.00, -0.00, -1.00, 23.8, 6.3)">g</text><text xml:space="preserve" font-family="FranklinGothic-Book,Franklin Gothic Book" font-size="18.0" fill="#000000" transform="matrix(1.00, 0.00, -0.00, -1.00, 32.6, 6.3)">i</text><text xml:space="preserve" font-family="FranklinGothic-Book,Franklin Gothic Book" font-size="18.0" fill="#000000" transform="matrix(1.00, 0.00, -0.00, -1.00, 36.7, 6.3)">n</text><text xml:space="preserve" font-family="FranklinGothic-Book,Franklin Gothic Book" font-size="18.0" fill="#000000" transform="matrix(1.00, 0.00, -0.00, -1.00, 46.5, 6.3)">a</text><text xml:space="preserve" font-family="FranklinGothic-Book,Franklin Gothic Book" font-size="18.0" fill="#000000" transform="matrix(1.00, 0.00, -0.00, -1.00, 56.0, 6.3)">l</text><text xml:space="preserve" font-family="FranklinGothic-Book,Franklin Gothic Book" font-size="18.0" fill="#000000" transform="matrix(1.00, 0.00, -0.00, -1.00, 60.2, 6.3)">l</text><text xml:space="preserve" font-family="FranklinGothic-Book,Franklin Gothic Book" font-size="18.0" fill="#000000" transform="matrix(1.00, 0.00, -0.00, -1.00, 64.3, 6.3)">y</text><text xml:space="preserve" font-family="FranklinGothic-Book,Franklin Gothic Book" font-size="18.0" fill="#000000" transform="matrix(1.00, 0.00, -0.00, -1.00, 71.8, 6.3)"> </text><text xml:space="preserve" font-family="FranklinGothic-Book,Franklin Gothic Book" font-size="18.0" fill="#000000" transform="matrix(1.00, 0.00, -0.00, -1.00, 76.3, 6.3)">a</text><text xml:space="preserve" font-family="FranklinGothic-Book,Franklin Gothic Book" font-size="18.0" fill="#000000" transform="matrix(1.00, 0.00, -0.00, -1.00, 85.8, 6.3)">i</text><text xml:space="preserve" font-family="FranklinGothic-Book,Franklin Gothic Book" font-size="18.0" fill="#000000" transform="matrix(1.00, 0.00, -0.00, -1.00, 89.9, 6.3)">r</text><text xml:space="preserve" font-family="FranklinGothic-Book,Franklin Gothic Book" font-size="18.0" fill="#000000" transform="matrix(1.00, 0.00, -0.00, -1.00, 95.8, 6.3)">e</text><text xml:space="preserve" font-family="FranklinGothic-Book,Franklin Gothic Book" font-size="18.0" fill="#000000" transform="matrix(1.00, 0.00, -0.00, -1.00, 105.2, 6.3)">d</text><text xml:space="preserve" font-family="FranklinGothic-Book,Franklin Gothic Book" font-size="18.0" fill="#000000" transform="matrix(1.00, 0.00, -0.00, -1.00, 114.9, 6.3)"> </text><text xml:space="preserve" font-family="FranklinGothic-Book,Franklin Gothic Book" font-size="18.0" fill="#000000" transform="matrix(1.00, 0.00, -0.00, -1.00, 119.4, 6.3)">1</text><text xml:space="preserve" font-family="FranklinGothic-Book,Franklin Gothic Book" font-size="18.0" fill="#000000" transform="matrix(1.00, 0.00, -0.00, -1.00, 129.8, 6.3)">.</text><text xml:space="preserve" font-family="FranklinGothic-Book,Franklin Gothic Book" font-size="18.0" fill="#000000" transform="matrix(1.00, 0.00, -0.00, -1.00, 134.3, 6.3)">3</text><text xml:space="preserve" font-family="FranklinGothic-Book,Franklin Gothic Book" font-size="18.0" fill="#000000" transform="matrix(1.00, 0.00, -0.00, -1.00, 144.0, 6.3)">1</text><text xml:space="preserve" font-family="FranklinGothic-Book,Franklin Gothic Book" font-size="18.0" fill="#000000" transform="matrix(1.00, 0.00, -0.00, -1.00, 154.5, 6.3)">.</text><text xml:space="preserve" font-family="FranklinGothic-Book,Franklin Gothic Book" font-size="18.0" fill="#000000" transform="matrix(1.00, 0.00, -0.00, -1.00, 159.0, 6.3)">2</text><text xml:space="preserve" font-family="FranklinGothic-Book,Franklin Gothic Book" font-size="18.0" fill="#000000" transform="matrix(1.00, 0.00, -0.00, -1.00, 169.5, 6.3)">0</text><text xml:space="preserve" font-family="FranklinGothic-Book,Franklin Gothic Book" font-size="18.0" fill="#000000" transform="matrix(1.00, 0.00, -0.00, -1.00, 180.1, 6.3)">0</text><text xml:space="preserve" font-family="FranklinGothic-Book,Franklin Gothic Book" font-size="18.0" fill="#000000" transform="matrix(1.00, 0.00, -0.00, -1.00, 190.7, 6.3)">9</text></g></svg>