<?xml version="1.0" encoding="UTF-8" standalone="no"?><svg xmlns="http://www.w3.org/2000/svg" xmlns:xlink="http://www.w3.org/1999/xlink" clip-rule="evenodd" stroke-miterlimit="10" viewBox="0 0 1024 768"><desc>SVG generated by Keynote</desc><defs></defs><g transform="matrix(1.00, 0.00, -0.00, -1.00, 0.0, 768.0)"><g><clipPath id="clip0x7fca77320cb0"><path d="M 0.0 768.0 L 1024.0 768.0 L 1024.0 0.0 L 0.0 0.0 Z M 0.0 768.0 "></path></clipPath><g clip-path="url(#clip0x7fca77320cb0)"><image xlink:href="../../169033B7-5977-4544-89C7-93875F22A789/assets/E532EB3C3E7D08F7018DF18678F5E36F.jpeg" width="2048.00" height="1536.00" transform="matrix(0.50, 0.00, -0.00, -0.50, 0.0, 768.0)"></image></g></g><g><clipPath id="clip0x7fca77329690"><path d="M 60.5 663.5 L 964.5 663.5 L 964.5 103.6 L 60.5 103.6 Z M 60.5 663.5 "></path></clipPath><g clip-path="url(#clip0x7fca77329690)"><path d="M 61.0 663.0 L 512.5 663.0 L 512.5 589.3 L 61.0 589.3 Z M 61.0 663.0 " fill="#7F8685"></path><path d="M 512.5 663.0 L 964.0 663.0 L 964.0 589.3 L 512.5 589.3 Z M 512.5 663.0 " fill="#7F8685"></path></g></g><g><clipPath id="clip0x7fca77325c70"><path d="M 60.5 663.5 L 964.5 663.5 L 964.5 103.6 L 60.5 103.6 Z M 60.5 663.5 "></path></clipPath><g clip-path="url(#clip0x7fca77325c70)"><g><clipPath id="clip0x7fca7732a690"><path d="M 61.5 589.8 L 512.0 589.8 L 512.0 662.5 L 61.5 662.5 Z M 61.5 589.8 "></path></clipPath><g clip-path="url(#clip0x7fca7732a690)"><text xml:space="preserve" font-family="GillSans-Light,Gill Sans" font-size="30.0" fill="#FEFFFF" transform="matrix(1.00, 0.00, -0.00, -1.00, 236.1, 615.6)">A</text><text xml:space="preserve" font-family="GillSans-Light,Gill Sans" font-size="30.0" fill="#FEFFFF" transform="matrix(1.00, 0.00, -0.00, -1.00, 256.1, 615.6)">c</text><text xml:space="preserve" font-family="GillSans-Light,Gill Sans" font-size="30.0" fill="#FEFFFF" transform="matrix(1.00, 0.00, -0.00, -1.00, 268.6, 615.6)">o</text><text xml:space="preserve" font-family="GillSans-Light,Gill Sans" font-size="30.0" fill="#FEFFFF" transform="matrix(1.00, 0.00, -0.00, -1.00, 284.9, 615.6)">u</text><text xml:space="preserve" font-family="GillSans-Light,Gill Sans" font-size="30.0" fill="#FEFFFF" transform="matrix(1.00, 0.00, -0.00, -1.00, 299.6, 615.6)">s</text><text xml:space="preserve" font-family="GillSans-Light,Gill Sans" font-size="30.0" fill="#FEFFFF" transform="matrix(1.00, 0.00, -0.00, -1.00, 310.2, 615.6)">t</text><text xml:space="preserve" font-family="GillSans-Light,Gill Sans" font-size="30.0" fill="#FEFFFF" transform="matrix(1.00, 0.00, -0.00, -1.00, 319.3, 615.6)">i</text><text xml:space="preserve" font-family="GillSans-Light,Gill Sans" font-size="30.0" fill="#FEFFFF" transform="matrix(1.00, 0.00, -0.00, -1.00, 324.9, 615.6)">c</text></g></g></g></g><g><clipPath id="clip0x7fca7732f050"><path d="M 60.5 663.5 L 964.5 663.5 L 964.5 103.6 L 60.5 103.6 Z M 60.5 663.5 "></path></clipPath><g clip-path="url(#clip0x7fca7732f050)"><g><clipPath id="clip0x7fca7732f7c0"><path d="M 513.0 589.8 L 963.5 589.8 L 963.5 662.5 L 513.0 662.5 Z M 513.0 589.8 "></path></clipPath><g clip-path="url(#clip0x7fca7732f7c0)"><text xml:space="preserve" font-family="GillSans-Light,Gill Sans" font-size="30.0" fill="#FEFFFF" transform="matrix(1.00, 0.00, -0.00, -1.00, 695.6, 615.6)">M</text><text xml:space="preserve" font-family="GillSans-Light,Gill Sans" font-size="30.0" fill="#FEFFFF" transform="matrix(1.00, 0.00, -0.00, -1.00, 719.0, 615.6)">u</text><text xml:space="preserve" font-family="GillSans-Light,Gill Sans" font-size="30.0" fill="#FEFFFF" transform="matrix(1.00, 0.00, -0.00, -1.00, 733.7, 615.6)">s</text><text xml:space="preserve" font-family="GillSans-Light,Gill Sans" font-size="30.0" fill="#FEFFFF" transform="matrix(1.00, 0.00, -0.00, -1.00, 744.3, 615.6)">i</text><text xml:space="preserve" font-family="GillSans-Light,Gill Sans" font-size="30.0" fill="#FEFFFF" transform="matrix(1.00, 0.00, -0.00, -1.00, 750.0, 615.6)">c</text><text xml:space="preserve" font-family="GillSans-Light,Gill Sans" font-size="30.0" fill="#FEFFFF" transform="matrix(1.00, 0.00, -0.00, -1.00, 762.5, 615.6)">a</text><text xml:space="preserve" font-family="GillSans-Light,Gill Sans" font-size="30.0" fill="#FEFFFF" transform="matrix(1.00, 0.00, -0.00, -1.00, 775.3, 615.6)">l</text></g></g></g></g><g><clipPath id="clip0x7fca77332e80"><path d="M 60.5 663.5 L 964.5 663.5 L 964.5 103.6 L 60.5 103.6 Z M 60.5 663.5 "></path></clipPath><g clip-path="url(#clip0x7fca77332e80)"><g><clipPath id="clip0x7fca77333580"><path d="M 61.5 428.1 L 512.0 428.1 L 512.0 588.8 L 61.5 588.8 Z M 61.5 428.1 "></path></clipPath><g clip-path="url(#clip0x7fca77333580)"><text xml:space="preserve" font-family="GillSans-Light,Gill Sans" font-size="30.0" fill="#595E5D" transform="matrix(1.00, 0.00, -0.00, -1.00, 91.6, 498.0)">F</text><text xml:space="preserve" font-family="GillSans-Light,Gill Sans" font-size="30.0" fill="#595E5D" transform="matrix(1.00, 0.00, -0.00, -1.00, 104.8, 498.0)">r</text><text xml:space="preserve" font-family="GillSans-Light,Gill Sans" font-size="30.0" fill="#595E5D" transform="matrix(1.00, 0.00, -0.00, -1.00, 114.8, 498.0)">e</text><text xml:space="preserve" font-family="GillSans-Light,Gill Sans" font-size="30.0" fill="#595E5D" transform="matrix(1.00, 0.00, -0.00, -1.00, 129.1, 498.0)">q</text><text xml:space="preserve" font-family="GillSans-Light,Gill Sans" font-size="30.0" fill="#595E5D" transform="matrix(1.00, 0.00, -0.00, -1.00, 144.4, 498.0)">u</text><text xml:space="preserve" font-family="GillSans-Light,Gill Sans" font-size="30.0" fill="#595E5D" transform="matrix(1.00, 0.00, -0.00, -1.00, 159.1, 498.0)">e</text><text xml:space="preserve" font-family="GillSans-Light,Gill Sans" font-size="30.0" fill="#595E5D" transform="matrix(1.00, 0.00, -0.00, -1.00, 173.5, 498.0)">n</text><text xml:space="preserve" font-family="GillSans-Light,Gill Sans" font-size="30.0" fill="#595E5D" transform="matrix(1.00, 0.00, -0.00, -1.00, 188.2, 498.0)">c</text><text xml:space="preserve" font-family="GillSans-Light,Gill Sans" font-size="30.0" fill="#595E5D" transform="matrix(1.00, 0.00, -0.00, -1.00, 200.7, 498.0)">y</text><text xml:space="preserve" font-family="GillSans-Light,Gill Sans" font-size="30.0" fill="#595E5D" transform="matrix(1.00, 0.00, -0.00, -1.00, 213.2, 498.0)"> </text><text xml:space="preserve" font-family="GillSans-Light,Gill Sans" font-size="30.0" fill="#595E5D" transform="matrix(1.00, 0.00, -0.00, -1.00, 221.6, 498.0)">/</text><text xml:space="preserve" font-family="GillSans-Light,Gill Sans" font-size="30.0" fill="#595E5D" transform="matrix(1.00, 0.00, -0.00, -1.00, 230.0, 498.0)"> </text><text xml:space="preserve" font-family="GillSans-Light,Gill Sans" font-size="30.0" fill="#595E5D" transform="matrix(1.00, 0.00, -0.00, -1.00, 235.3, 498.0)">W</text><text xml:space="preserve" font-family="GillSans-Light,Gill Sans" font-size="30.0" fill="#595E5D" transform="matrix(1.00, 0.00, -0.00, -1.00, 265.0, 498.0)">a</text><text xml:space="preserve" font-family="GillSans-Light,Gill Sans" font-size="30.0" fill="#595E5D" transform="matrix(1.00, 0.00, -0.00, -1.00, 277.1, 498.0)">v</text><text xml:space="preserve" font-family="GillSans-Light,Gill Sans" font-size="30.0" fill="#595E5D" transform="matrix(1.00, 0.00, -0.00, -1.00, 289.4, 498.0)">e</text><text xml:space="preserve" font-family="GillSans-Light,Gill Sans" font-size="30.0" fill="#595E5D" transform="matrix(1.00, 0.00, -0.00, -1.00, 303.8, 498.0)">l</text><text xml:space="preserve" font-family="GillSans-Light,Gill Sans" font-size="30.0" fill="#595E5D" transform="matrix(1.00, 0.00, -0.00, -1.00, 309.4, 498.0)">e</text><text xml:space="preserve" font-family="GillSans-Light,Gill Sans" font-size="30.0" fill="#595E5D" transform="matrix(1.00, 0.00, -0.00, -1.00, 323.8, 498.0)">n</text><text xml:space="preserve" font-family="GillSans-Light,Gill Sans" font-size="30.0" fill="#595E5D" transform="matrix(1.00, 0.00, -0.00, -1.00, 338.5, 498.0)">g</text><text xml:space="preserve" font-family="GillSans-Light,Gill Sans" font-size="30.0" fill="#595E5D" transform="matrix(1.00, 0.00, -0.00, -1.00, 351.3, 498.0)">t</text><text xml:space="preserve" font-family="GillSans-Light,Gill Sans" font-size="30.0" fill="#595E5D" transform="matrix(1.00, 0.00, -0.00, -1.00, 360.3, 498.0)">h</text><text xml:space="preserve" font-family="GillSans-Light,Gill Sans" font-size="30.0" fill="#595E5D" transform="matrix(1.00, 0.00, -0.00, -1.00, 375.1, 498.0)"> </text><text xml:space="preserve" font-family="GillSans-Light,Gill Sans" font-size="30.0" fill="#595E5D" transform="matrix(1.00, 0.00, -0.00, -1.00, 383.4, 498.0)">(</text><text xml:space="preserve" font-family="GillSans-Light,Gill Sans" font-size="30.0" fill="#595E5D" transform="matrix(1.00, 0.00, -0.00, -1.00, 393.4, 498.0)">4</text><text xml:space="preserve" font-family="GillSans-Light,Gill Sans" font-size="30.0" fill="#595E5D" transform="matrix(1.00, 0.00, -0.00, -1.00, 408.4, 498.0)">4</text><text xml:space="preserve" font-family="GillSans-Light,Gill Sans" font-size="30.0" fill="#595E5D" transform="matrix(1.00, 0.00, -0.00, -1.00, 423.4, 498.0)">0</text><text xml:space="preserve" font-family="GillSans-Light,Gill Sans" font-size="30.0" fill="#595E5D" transform="matrix(1.00, 0.00, -0.00, -1.00, 438.4, 498.0)">H</text><text xml:space="preserve" font-family="GillSans-Light,Gill Sans" font-size="30.0" fill="#595E5D" transform="matrix(1.00, 0.00, -0.00, -1.00, 460.0, 498.0)">z</text><text xml:space="preserve" font-family="GillSans-Light,Gill Sans" font-size="30.0" fill="#595E5D" transform="matrix(1.00, 0.00, -0.00, -1.00, 471.8, 498.0)">)</text></g></g></g></g><g><clipPath id="clip0x7fca77333f00"><path d="M 60.5 663.5 L 964.5 663.5 L 964.5 103.6 L 60.5 103.6 Z M 60.5 663.5 "></path></clipPath><g clip-path="url(#clip0x7fca77333f00)"><g><clipPath id="clip0x7fca7733fde0"><path d="M 513.0 428.1 L 963.5 428.1 L 963.5 588.8 L 513.0 588.8 Z M 513.0 428.1 "></path></clipPath><g clip-path="url(#clip0x7fca7733fde0)"><text xml:space="preserve" font-family="GillSans-Light,Gill Sans" font-size="30.0" fill="#595E5D" transform="matrix(1.00, 0.00, -0.00, -1.00, 678.0, 498.0)">P</text><text xml:space="preserve" font-family="GillSans-Light,Gill Sans" font-size="30.0" fill="#595E5D" transform="matrix(1.00, 0.00, -0.00, -1.00, 693.3, 498.0)">i</text><text xml:space="preserve" font-family="GillSans-Light,Gill Sans" font-size="30.0" fill="#595E5D" transform="matrix(1.00, 0.00, -0.00, -1.00, 698.9, 498.0)">t</text><text xml:space="preserve" font-family="GillSans-Light,Gill Sans" font-size="30.0" fill="#595E5D" transform="matrix(1.00, 0.00, -0.00, -1.00, 708.0, 498.0)">c</text><text xml:space="preserve" font-family="GillSans-Light,Gill Sans" font-size="30.0" fill="#595E5D" transform="matrix(1.00, 0.00, -0.00, -1.00, 720.5, 498.0)">h</text><text xml:space="preserve" font-family="GillSans-Light,Gill Sans" font-size="30.0" fill="#595E5D" transform="matrix(1.00, 0.00, -0.00, -1.00, 735.2, 498.0)"> </text><text xml:space="preserve" font-family="GillSans-Light,Gill Sans" font-size="30.0" fill="#595E5D" transform="matrix(1.00, 0.00, -0.00, -1.00, 743.5, 498.0)">(</text><text xml:space="preserve" font-family="GillSans-Light,Gill Sans" font-size="30.0" fill="#595E5D" transform="matrix(1.00, 0.00, -0.00, -1.00, 753.5, 498.0)">A</text><text xml:space="preserve" font-family="GillSans-Light,Gill Sans" font-size="30.0" fill="#595E5D" transform="matrix(1.00, 0.00, -0.00, -1.00, 773.5, 498.0)">4</text><text xml:space="preserve" font-family="GillSans-Light,Gill Sans" font-size="30.0" fill="#595E5D" transform="matrix(1.00, 0.00, -0.00, -1.00, 788.5, 498.0)">)</text></g></g></g></g><g><clipPath id="clip0x7fca77344650"><path d="M 60.5 663.5 L 964.5 663.5 L 964.5 103.6 L 60.5 103.6 Z M 60.5 663.5 "></path></clipPath><g clip-path="url(#clip0x7fca77344650)"><g><clipPath id="clip0x7fca77344dd0"><path d="M 61.5 266.3 L 512.0 266.3 L 512.0 427.1 L 61.5 427.1 Z M 61.5 266.3 "></path></clipPath><g clip-path="url(#clip0x7fca77344dd0)"><text xml:space="preserve" font-family="GillSans-Light,Gill Sans" font-size="30.0" fill="#595E5D" transform="matrix(1.00, 0.00, -0.00, -1.00, 225.2, 336.2)">A</text><text xml:space="preserve" font-family="GillSans-Light,Gill Sans" font-size="30.0" fill="#595E5D" transform="matrix(1.00, 0.00, -0.00, -1.00, 245.2, 336.2)">m</text><text xml:space="preserve" font-family="GillSans-Light,Gill Sans" font-size="30.0" fill="#595E5D" transform="matrix(1.00, 0.00, -0.00, -1.00, 268.3, 336.2)">p</text><text xml:space="preserve" font-family="GillSans-Light,Gill Sans" font-size="30.0" fill="#595E5D" transform="matrix(1.00, 0.00, -0.00, -1.00, 283.6, 336.2)">l</text><text xml:space="preserve" font-family="GillSans-Light,Gill Sans" font-size="30.0" fill="#595E5D" transform="matrix(1.00, 0.00, -0.00, -1.00, 289.2, 336.2)">i</text><text xml:space="preserve" font-family="GillSans-Light,Gill Sans" font-size="30.0" fill="#595E5D" transform="matrix(1.00, 0.00, -0.00, -1.00, 294.9, 336.2)">t</text><text xml:space="preserve" font-family="GillSans-Light,Gill Sans" font-size="30.0" fill="#595E5D" transform="matrix(1.00, 0.00, -0.00, -1.00, 303.9, 336.2)">u</text><text xml:space="preserve" font-family="GillSans-Light,Gill Sans" font-size="30.0" fill="#595E5D" transform="matrix(1.00, 0.00, -0.00, -1.00, 318.6, 336.2)">d</text><text xml:space="preserve" font-family="GillSans-Light,Gill Sans" font-size="30.0" fill="#595E5D" transform="matrix(1.00, 0.00, -0.00, -1.00, 333.9, 336.2)">e</text></g></g></g></g><g><clipPath id="clip0x7fca77349040"><path d="M 60.5 663.5 L 964.5 663.5 L 964.5 103.6 L 60.5 103.6 Z M 60.5 663.5 "></path></clipPath><g clip-path="url(#clip0x7fca77349040)"><g><clipPath id="clip0x7fca77349790"><path d="M 513.0 266.3 L 963.5 266.3 L 963.5 427.1 L 513.0 427.1 Z M 513.0 266.3 "></path></clipPath><g clip-path="url(#clip0x7fca77349790)"><text xml:space="preserve" font-family="GillSans-Light,Gill Sans" font-size="30.0" fill="#595E5D" transform="matrix(1.00, 0.00, -0.00, -1.00, 616.5, 336.2)">V</text><text xml:space="preserve" font-family="GillSans-Light,Gill Sans" font-size="30.0" fill="#595E5D" transform="matrix(1.00, 0.00, -0.00, -1.00, 632.3, 336.2)">o</text><text xml:space="preserve" font-family="GillSans-Light,Gill Sans" font-size="30.0" fill="#595E5D" transform="matrix(1.00, 0.00, -0.00, -1.00, 648.5, 336.2)">l</text><text xml:space="preserve" font-family="GillSans-Light,Gill Sans" font-size="30.0" fill="#595E5D" transform="matrix(1.00, 0.00, -0.00, -1.00, 654.2, 336.2)">u</text><text xml:space="preserve" font-family="GillSans-Light,Gill Sans" font-size="30.0" fill="#595E5D" transform="matrix(1.00, 0.00, -0.00, -1.00, 668.9, 336.2)">m</text><text xml:space="preserve" font-family="GillSans-Light,Gill Sans" font-size="30.0" fill="#595E5D" transform="matrix(1.00, 0.00, -0.00, -1.00, 692.0, 336.2)">e</text><text xml:space="preserve" font-family="GillSans-Light,Gill Sans" font-size="30.0" fill="#595E5D" transform="matrix(1.00, 0.00, -0.00, -1.00, 706.4, 336.2)"> </text><text xml:space="preserve" font-family="GillSans-Light,Gill Sans" font-size="30.0" fill="#595E5D" transform="matrix(1.00, 0.00, -0.00, -1.00, 714.7, 336.2)">o</text><text xml:space="preserve" font-family="GillSans-Light,Gill Sans" font-size="30.0" fill="#595E5D" transform="matrix(1.00, 0.00, -0.00, -1.00, 731.0, 336.2)">r</text><text xml:space="preserve" font-family="GillSans-Light,Gill Sans" font-size="30.0" fill="#595E5D" transform="matrix(1.00, 0.00, -0.00, -1.00, 741.0, 336.2)"> </text><text xml:space="preserve" font-family="GillSans-Light,Gill Sans" font-size="30.0" fill="#595E5D" transform="matrix(1.00, 0.00, -0.00, -1.00, 749.3, 336.2)">L</text><text xml:space="preserve" font-family="GillSans-Light,Gill Sans" font-size="30.0" fill="#595E5D" transform="matrix(1.00, 0.00, -0.00, -1.00, 763.4, 336.2)">o</text><text xml:space="preserve" font-family="GillSans-Light,Gill Sans" font-size="30.0" fill="#595E5D" transform="matrix(1.00, 0.00, -0.00, -1.00, 779.6, 336.2)">u</text><text xml:space="preserve" font-family="GillSans-Light,Gill Sans" font-size="30.0" fill="#595E5D" transform="matrix(1.00, 0.00, -0.00, -1.00, 794.4, 336.2)">d</text><text xml:space="preserve" font-family="GillSans-Light,Gill Sans" font-size="30.0" fill="#595E5D" transform="matrix(1.00, 0.00, -0.00, -1.00, 809.6, 336.2)">n</text><text xml:space="preserve" font-family="GillSans-Light,Gill Sans" font-size="30.0" fill="#595E5D" transform="matrix(1.00, 0.00, -0.00, -1.00, 824.4, 336.2)">e</text><text xml:space="preserve" font-family="GillSans-Light,Gill Sans" font-size="30.0" fill="#595E5D" transform="matrix(1.00, 0.00, -0.00, -1.00, 838.7, 336.2)">s</text><text xml:space="preserve" font-family="GillSans-Light,Gill Sans" font-size="30.0" fill="#595E5D" transform="matrix(1.00, 0.00, -0.00, -1.00, 849.3, 336.2)">s</text></g></g></g></g><g><clipPath id="clip0x7fca7734a110"><path d="M 60.5 663.5 L 964.5 663.5 L 964.5 103.6 L 60.5 103.6 Z M 60.5 663.5 "></path></clipPath><g clip-path="url(#clip0x7fca7734a110)"><g><clipPath id="clip0x7fca77351800"><path d="M 61.5 104.6 L 512.0 104.6 L 512.0 265.3 L 61.5 265.3 Z M 61.5 104.6 "></path></clipPath><g clip-path="url(#clip0x7fca77351800)"><text xml:space="preserve" font-family="GillSans-Light,Gill Sans" font-size="30.0" fill="#595E5D" transform="matrix(1.00, 0.00, -0.00, -1.00, 218.6, 191.5)">W</text><text xml:space="preserve" font-family="GillSans-Light,Gill Sans" font-size="30.0" fill="#595E5D" transform="matrix(1.00, 0.00, -0.00, -1.00, 248.3, 191.5)">a</text><text xml:space="preserve" font-family="GillSans-Light,Gill Sans" font-size="30.0" fill="#595E5D" transform="matrix(1.00, 0.00, -0.00, -1.00, 260.4, 191.5)">v</text><text xml:space="preserve" font-family="GillSans-Light,Gill Sans" font-size="30.0" fill="#595E5D" transform="matrix(1.00, 0.00, -0.00, -1.00, 272.7, 191.5)">e</text><text xml:space="preserve" font-family="GillSans-Light,Gill Sans" font-size="30.0" fill="#595E5D" transform="matrix(1.00, 0.00, -0.00, -1.00, 287.1, 191.5)">s</text><text xml:space="preserve" font-family="GillSans-Light,Gill Sans" font-size="30.0" fill="#595E5D" transform="matrix(1.00, 0.00, -0.00, -1.00, 297.7, 191.5)">h</text><text xml:space="preserve" font-family="GillSans-Light,Gill Sans" font-size="30.0" fill="#595E5D" transform="matrix(1.00, 0.00, -0.00, -1.00, 312.4, 191.5)">a</text><text xml:space="preserve" font-family="GillSans-Light,Gill Sans" font-size="30.0" fill="#595E5D" transform="matrix(1.00, 0.00, -0.00, -1.00, 325.2, 191.5)">p</text><text xml:space="preserve" font-family="GillSans-Light,Gill Sans" font-size="30.0" fill="#595E5D" transform="matrix(1.00, 0.00, -0.00, -1.00, 340.5, 191.5)">e</text><text xml:space="preserve" font-family="GillSans-Light,Gill Sans" font-size="30.0" fill="#595E5D" transform="matrix(1.00, 0.00, -0.00, -1.00, 102.2, 157.5)">(</text><text xml:space="preserve" font-family="GillSans-Light,Gill Sans" font-size="30.0" fill="#595E5D" transform="matrix(1.00, 0.00, -0.00, -1.00, 112.2, 157.5)">A</text><text xml:space="preserve" font-family="GillSans-Light,Gill Sans" font-size="30.0" fill="#595E5D" transform="matrix(1.00, 0.00, -0.00, -1.00, 132.2, 157.5)">t</text><text xml:space="preserve" font-family="GillSans-Light,Gill Sans" font-size="30.0" fill="#595E5D" transform="matrix(1.00, 0.00, -0.00, -1.00, 141.3, 157.5)">t</text><text xml:space="preserve" font-family="GillSans-Light,Gill Sans" font-size="30.0" fill="#595E5D" transform="matrix(1.00, 0.00, -0.00, -1.00, 150.3, 157.5)">a</text><text xml:space="preserve" font-family="GillSans-Light,Gill Sans" font-size="30.0" fill="#595E5D" transform="matrix(1.00, 0.00, -0.00, -1.00, 163.1, 157.5)">c</text><text xml:space="preserve" font-family="GillSans-Light,Gill Sans" font-size="30.0" fill="#595E5D" transform="matrix(1.00, 0.00, -0.00, -1.00, 175.6, 157.5)">k</text><text xml:space="preserve" font-family="GillSans-Light,Gill Sans" font-size="30.0" fill="#595E5D" transform="matrix(1.00, 0.00, -0.00, -1.00, 188.4, 157.5)">,</text><text xml:space="preserve" font-family="GillSans-Light,Gill Sans" font-size="30.0" fill="#595E5D" transform="matrix(1.00, 0.00, -0.00, -1.00, 191.3, 157.5)"> </text><text xml:space="preserve" font-family="GillSans-Light,Gill Sans" font-size="30.0" fill="#595E5D" transform="matrix(1.00, 0.00, -0.00, -1.00, 199.7, 157.5)">D</text><text xml:space="preserve" font-family="GillSans-Light,Gill Sans" font-size="30.0" fill="#595E5D" transform="matrix(1.00, 0.00, -0.00, -1.00, 221.9, 157.5)">e</text><text xml:space="preserve" font-family="GillSans-Light,Gill Sans" font-size="30.0" fill="#595E5D" transform="matrix(1.00, 0.00, -0.00, -1.00, 236.2, 157.5)">c</text><text xml:space="preserve" font-family="GillSans-Light,Gill Sans" font-size="30.0" fill="#595E5D" transform="matrix(1.00, 0.00, -0.00, -1.00, 248.7, 157.5)">a</text><text xml:space="preserve" font-family="GillSans-Light,Gill Sans" font-size="30.0" fill="#595E5D" transform="matrix(1.00, 0.00, -0.00, -1.00, 261.1, 157.5)">y</text><text xml:space="preserve" font-family="GillSans-Light,Gill Sans" font-size="30.0" fill="#595E5D" transform="matrix(1.00, 0.00, -0.00, -1.00, 273.6, 157.5)"> </text><text xml:space="preserve" font-family="GillSans-Light,Gill Sans" font-size="30.0" fill="#595E5D" transform="matrix(1.00, 0.00, -0.00, -1.00, 281.9, 157.5)">S</text><text xml:space="preserve" font-family="GillSans-Light,Gill Sans" font-size="30.0" fill="#595E5D" transform="matrix(1.00, 0.00, -0.00, -1.00, 296.0, 157.5)">u</text><text xml:space="preserve" font-family="GillSans-Light,Gill Sans" font-size="30.0" fill="#595E5D" transform="matrix(1.00, 0.00, -0.00, -1.00, 310.7, 157.5)">s</text><text xml:space="preserve" font-family="GillSans-Light,Gill Sans" font-size="30.0" fill="#595E5D" transform="matrix(1.00, 0.00, -0.00, -1.00, 321.3, 157.5)">t</text><text xml:space="preserve" font-family="GillSans-Light,Gill Sans" font-size="30.0" fill="#595E5D" transform="matrix(1.00, 0.00, -0.00, -1.00, 330.4, 157.5)">a</text><text xml:space="preserve" font-family="GillSans-Light,Gill Sans" font-size="30.0" fill="#595E5D" transform="matrix(1.00, 0.00, -0.00, -1.00, 343.2, 157.5)">i</text><text xml:space="preserve" font-family="GillSans-Light,Gill Sans" font-size="30.0" fill="#595E5D" transform="matrix(1.00, 0.00, -0.00, -1.00, 348.8, 157.5)">n</text><text xml:space="preserve" font-family="GillSans-Light,Gill Sans" font-size="30.0" fill="#595E5D" transform="matrix(1.00, 0.00, -0.00, -1.00, 363.5, 157.5)"> </text><text xml:space="preserve" font-family="GillSans-Light,Gill Sans" font-size="30.0" fill="#595E5D" transform="matrix(1.00, 0.00, -0.00, -1.00, 371.9, 157.5)">R</text><text xml:space="preserve" font-family="GillSans-Light,Gill Sans" font-size="30.0" fill="#595E5D" transform="matrix(1.00, 0.00, -0.00, -1.00, 389.1, 157.5)">e</text><text xml:space="preserve" font-family="GillSans-Light,Gill Sans" font-size="30.0" fill="#595E5D" transform="matrix(1.00, 0.00, -0.00, -1.00, 403.4, 157.5)">l</text><text xml:space="preserve" font-family="GillSans-Light,Gill Sans" font-size="30.0" fill="#595E5D" transform="matrix(1.00, 0.00, -0.00, -1.00, 409.1, 157.5)">e</text><text xml:space="preserve" font-family="GillSans-Light,Gill Sans" font-size="30.0" fill="#595E5D" transform="matrix(1.00, 0.00, -0.00, -1.00, 423.4, 157.5)">a</text><text xml:space="preserve" font-family="GillSans-Light,Gill Sans" font-size="30.0" fill="#595E5D" transform="matrix(1.00, 0.00, -0.00, -1.00, 436.2, 157.5)">s</text><text xml:space="preserve" font-family="GillSans-Light,Gill Sans" font-size="30.0" fill="#595E5D" transform="matrix(1.00, 0.00, -0.00, -1.00, 446.9, 157.5)">e</text><text xml:space="preserve" font-family="GillSans-Light,Gill Sans" font-size="30.0" fill="#595E5D" transform="matrix(1.00, 0.00, -0.00, -1.00, 461.2, 157.5)">)</text></g></g></g></g><g><clipPath id="clip0x7fca77355c70"><path d="M 60.5 663.5 L 964.5 663.5 L 964.5 103.6 L 60.5 103.6 Z M 60.5 663.5 "></path></clipPath><g clip-path="url(#clip0x7fca77355c70)"><g><clipPath id="clip0x7fca77362020"><path d="M 513.0 104.6 L 963.5 104.6 L 963.5 265.3 L 513.0 265.3 Z M 513.0 104.6 "></path></clipPath><g clip-path="url(#clip0x7fca77362020)"><text xml:space="preserve" font-family="GillSans-Light,Gill Sans" font-size="30.0" fill="#595E5D" transform="matrix(1.00, 0.00, -0.00, -1.00, 695.4, 174.5)">T</text><text xml:space="preserve" font-family="GillSans-Light,Gill Sans" font-size="30.0" fill="#595E5D" transform="matrix(1.00, 0.00, -0.00, -1.00, 712.6, 174.5)">i</text><text xml:space="preserve" font-family="GillSans-Light,Gill Sans" font-size="30.0" fill="#595E5D" transform="matrix(1.00, 0.00, -0.00, -1.00, 718.3, 174.5)">m</text><text xml:space="preserve" font-family="GillSans-Light,Gill Sans" font-size="30.0" fill="#595E5D" transform="matrix(1.00, 0.00, -0.00, -1.00, 741.4, 174.5)">b</text><text xml:space="preserve" font-family="GillSans-Light,Gill Sans" font-size="30.0" fill="#595E5D" transform="matrix(1.00, 0.00, -0.00, -1.00, 756.7, 174.5)">r</text><text xml:space="preserve" font-family="GillSans-Light,Gill Sans" font-size="30.0" fill="#595E5D" transform="matrix(1.00, 0.00, -0.00, -1.00, 766.7, 174.5)">e</text></g></g></g></g><g><clipPath id="clip0x7fca77364ff0"><path d="M 60.5 663.5 L 964.5 663.5 L 964.5 103.6 L 60.5 103.6 Z M 60.5 663.5 "></path></clipPath><g clip-path="url(#clip0x7fca77364ff0)"><path d="M 453.5 1.5 L 453.5 75.7 " fill="none" stroke="#B4B4B4" stroke-width="1.00" transform="matrix(1.00, 0.00, 0.00, -1.00, 59.0, 665.0)"></path><path d="M 453.5 75.7 L 453.5 561.4 " fill="none" stroke="#B4B4B4" stroke-width="1.00" transform="matrix(1.00, 0.00, 0.00, -1.00, 59.0, 665.0)"></path><path d="M 1.5 237.4 L 905.5 237.4 " fill="none" stroke="#B4B4B4" stroke-width="1.00" transform="matrix(1.00, 0.00, 0.00, -1.00, 59.0, 665.0)"></path><path d="M 1.5 399.2 L 905.5 399.2 " fill="none" stroke="#B4B4B4" stroke-width="1.00" transform="matrix(1.00, 0.00, 0.00, -1.00, 59.0, 665.0)"></path><path d="M 1.5 75.7 L 905.5 75.7 " fill="none" stroke="#B4B4B4" stroke-width="1.00" transform="matrix(1.00, 0.00, 0.00, -1.00, 59.0, 665.0)"></path><path d="M 2.0 1.5 L 2.0 75.7 " fill="none" stroke="#B4B4B4" stroke-width="1.00" transform="matrix(1.00, 0.00, 0.00, -1.00, 59.0, 665.0)"></path><path d="M 2.0 75.7 L 2.0 561.4 " fill="none" stroke="#B4B4B4" stroke-width="1.00" transform="matrix(1.00, 0.00, 0.00, -1.00, 59.0, 665.0)"></path><path d="M 905.0 1.5 L 905.0 75.7 " fill="none" stroke="#B4B4B4" stroke-width="1.00" transform="matrix(1.00, 0.00, 0.00, -1.00, 59.0, 665.0)"></path><path d="M 905.0 75.7 L 905.0 561.4 " fill="none" stroke="#B4B4B4" stroke-width="1.00" transform="matrix(1.00, 0.00, 0.00, -1.00, 59.0, 665.0)"></path><path d="M 1.5 2.0 L 905.5 2.0 " fill="none" stroke="#B4B4B4" stroke-width="1.00" transform="matrix(1.00, 0.00, 0.00, -1.00, 59.0, 665.0)"></path><path d="M 1.5 560.9 L 905.5 560.9 " fill="none" stroke="#B4B4B4" stroke-width="1.00" transform="matrix(1.00, 0.00, 0.00, -1.00, 59.0, 665.0)"></path></g></g><text xml:space="preserve" font-family="GillSans-Light,Gill Sans" font-size="36.0" fill="#525252" transform="matrix(1.00, 0.00, -0.00, -1.00, 368.9, 704.1)">P</text><text xml:space="preserve" font-family="GillSans-Light,Gill Sans" font-size="36.0" fill="#525252" transform="matrix(1.00, 0.00, -0.00, -1.00, 387.3, 704.1)">r</text><text xml:space="preserve" font-family="GillSans-Light,Gill Sans" font-size="36.0" fill="#525252" transform="matrix(1.00, 0.00, -0.00, -1.00, 399.3, 704.1)">o</text><text xml:space="preserve" font-family="GillSans-Light,Gill Sans" font-size="36.0" fill="#525252" transform="matrix(1.00, 0.00, -0.00, -1.00, 418.8, 704.1)">p</text><text xml:space="preserve" font-family="GillSans-Light,Gill Sans" font-size="36.0" fill="#525252" transform="matrix(1.00, 0.00, -0.00, -1.00, 437.1, 704.1)">e</text><text xml:space="preserve" font-family="GillSans-Light,Gill Sans" font-size="36.0" fill="#525252" transform="matrix(1.00, 0.00, -0.00, -1.00, 454.4, 704.1)">r</text><text xml:space="preserve" font-family="GillSans-Light,Gill Sans" font-size="36.0" fill="#525252" transform="matrix(1.00, 0.00, -0.00, -1.00, 469.2, 704.1)">t</text><text xml:space="preserve" font-family="GillSans-Light,Gill Sans" font-size="36.0" fill="#525252" transform="matrix(1.00, 0.00, -0.00, -1.00, 480.1, 704.1)">i</text><text xml:space="preserve" font-family="GillSans-Light,Gill Sans" font-size="36.0" fill="#525252" transform="matrix(1.00, 0.00, -0.00, -1.00, 486.9, 704.1)">e</text><text xml:space="preserve" font-family="GillSans-Light,Gill Sans" font-size="36.0" fill="#525252" transform="matrix(1.00, 0.00, -0.00, -1.00, 504.1, 704.1)">s</text><text xml:space="preserve" font-family="GillSans-Light,Gill Sans" font-size="36.0" fill="#525252" transform="matrix(1.00, 0.00, -0.00, -1.00, 516.8, 704.1)"> </text><text xml:space="preserve" font-family="GillSans-Light,Gill Sans" font-size="36.0" fill="#525252" transform="matrix(1.00, 0.00, -0.00, -1.00, 526.8, 704.1)">o</text><text xml:space="preserve" font-family="GillSans-Light,Gill Sans" font-size="36.0" fill="#525252" transform="matrix(1.00, 0.00, -0.00, -1.00, 546.3, 704.1)">f</text><text xml:space="preserve" font-family="GillSans-Light,Gill Sans" font-size="36.0" fill="#525252" transform="matrix(1.00, 0.00, -0.00, -1.00, 555.0, 704.1)"> </text><text xml:space="preserve" font-family="GillSans-Light,Gill Sans" font-size="36.0" fill="#525252" transform="matrix(1.00, 0.00, -0.00, -1.00, 565.0, 704.1)">S</text><text xml:space="preserve" font-family="GillSans-Light,Gill Sans" font-size="36.0" fill="#525252" transform="matrix(1.00, 0.00, -0.00, -1.00, 581.9, 704.1)">o</text><text xml:space="preserve" font-family="GillSans-Light,Gill Sans" font-size="36.0" fill="#525252" transform="matrix(1.00, 0.00, -0.00, -1.00, 601.4, 704.1)">u</text><text xml:space="preserve" font-family="GillSans-Light,Gill Sans" font-size="36.0" fill="#525252" transform="matrix(1.00, 0.00, -0.00, -1.00, 619.1, 704.1)">n</text><text xml:space="preserve" font-family="GillSans-Light,Gill Sans" font-size="36.0" fill="#525252" transform="matrix(1.00, 0.00, -0.00, -1.00, 636.7, 704.1)">d</text></g></svg>