<?xml version="1.0" encoding="UTF-8" standalone="no"?><svg xmlns="http://www.w3.org/2000/svg" xmlns:xlink="http://www.w3.org/1999/xlink" clip-rule="evenodd" stroke-miterlimit="10" viewBox="0 0 720 540"><desc>SVG generated by Keynote</desc><defs></defs><g transform="matrix(1.00, 0.00, -0.00, -1.00, 0.0, 540.0)"><path d="M 0.0 540.0 L 720.0 540.0 L 720.0 0.0 L 0.0 0.0 Z M 0.0 540.0 " fill="#FFFFFF"></path><path d="M 0.0 0.0 L 0.0 99.0 L 160.9 99.0 L 281.2 0.0 L 0.0 0.0 Z M 0.0 -0.0 " fill="#EEE0A1"></path><path d="M -0.2 0.0 L 160.5 99.0 L 720.0 99.0 L 720.0 0.0 L -0.2 0.0 Z M -0.2 -0.0 " fill="#FA8716" fill-opacity="0.80"></path><image xlink:href="../../86C525E5-2697-4FBC-935A-C903ABCA37BE/assets/9B993D999C1B1C10152D60B4C1EF1D7D.png" width="321.00" height="33.00" transform="matrix(1.00, 0.00, -0.00, -1.00, 33.0, 505.0)"></image><text xml:space="preserve" font-family="Arial-BoldMT,Arial" font-weight="bold" font-size="32.0" fill="#FAC01E" transform="matrix(1.00, 0.00, -0.00, -1.00, 34.6, 478.7)">S</text><text xml:space="preserve" font-family="Arial-BoldMT,Arial" font-weight="bold" font-size="32.0" fill="#FAC01E" transform="matrix(1.00, 0.00, -0.00, -1.00, 55.9, 478.7)">T</text><text xml:space="preserve" font-family="Arial-BoldMT,Arial" font-weight="bold" font-size="32.0" fill="#FAC01E" transform="matrix(1.00, 0.00, -0.00, -1.00, 74.9, 478.7)">O</text><text xml:space="preserve" font-family="Arial-BoldMT,Arial" font-weight="bold" font-size="32.0" fill="#FAC01E" transform="matrix(1.00, 0.00, -0.00, -1.00, 99.8, 478.7)">R</text><text xml:space="preserve" font-family="Arial-BoldMT,Arial" font-weight="bold" font-size="32.0" fill="#FAC01E" transform="matrix(1.00, 0.00, -0.00, -1.00, 121.7, 478.7)">Y</text><text xml:space="preserve" font-family="Arial-BoldMT,Arial" font-weight="bold" font-size="32.0" fill="#FAC01E" transform="matrix(1.00, 0.00, -0.00, -1.00, 142.5, 478.7)"> </text><text xml:space="preserve" font-family="Arial-BoldMT,Arial" font-weight="bold" font-size="32.0" fill="#FAC01E" transform="matrix(1.00, 0.00, -0.00, -1.00, 151.4, 478.7)">S</text><text xml:space="preserve" font-family="Arial-BoldMT,Arial" font-weight="bold" font-size="32.0" fill="#FAC01E" transform="matrix(1.00, 0.00, -0.00, -1.00, 172.7, 478.7)">T</text><text xml:space="preserve" font-family="Arial-BoldMT,Arial" font-weight="bold" font-size="32.0" fill="#FAC01E" transform="matrix(1.00, 0.00, -0.00, -1.00, 192.3, 478.7)">R</text><text xml:space="preserve" font-family="Arial-BoldMT,Arial" font-weight="bold" font-size="32.0" fill="#FAC01E" transform="matrix(1.00, 0.00, -0.00, -1.00, 215.4, 478.7)">U</text><text xml:space="preserve" font-family="Arial-BoldMT,Arial" font-weight="bold" font-size="32.0" fill="#FAC01E" transform="matrix(1.00, 0.00, -0.00, -1.00, 238.5, 478.7)">C</text><text xml:space="preserve" font-family="Arial-BoldMT,Arial" font-weight="bold" font-size="32.0" fill="#FAC01E" transform="matrix(1.00, 0.00, -0.00, -1.00, 261.6, 478.7)">T</text><text xml:space="preserve" font-family="Arial-BoldMT,Arial" font-weight="bold" font-size="32.0" fill="#FAC01E" transform="matrix(1.00, 0.00, -0.00, -1.00, 281.1, 478.7)">U</text><text xml:space="preserve" font-family="Arial-BoldMT,Arial" font-weight="bold" font-size="32.0" fill="#FAC01E" transform="matrix(1.00, 0.00, -0.00, -1.00, 304.3, 478.7)">R</text><text xml:space="preserve" font-family="Arial-BoldMT,Arial" font-weight="bold" font-size="32.0" fill="#FAC01E" transform="matrix(1.00, 0.00, -0.00, -1.00, 327.4, 478.7)">E</text><text xml:space="preserve" font-family="Arial-BoldMT,Arial" font-weight="bold" font-size="24.0" fill="#3F3F3F" transform="matrix(1.00, 0.00, -0.00, -1.00, 34.6, 427.6)">I</text><text xml:space="preserve" font-family="Arial-BoldMT,Arial" font-weight="bold" font-size="24.0" fill="#3F3F3F" transform="matrix(1.00, 0.00, -0.00, -1.00, 41.3, 427.6)">n</text><text xml:space="preserve" font-family="Arial-BoldMT,Arial" font-weight="bold" font-size="24.0" fill="#3F3F3F" transform="matrix(1.00, 0.00, -0.00, -1.00, 55.9, 427.6)">t</text><text xml:space="preserve" font-family="Arial-BoldMT,Arial" font-weight="bold" font-size="24.0" fill="#3F3F3F" transform="matrix(1.00, 0.00, -0.00, -1.00, 63.9, 427.6)">r</text><text xml:space="preserve" font-family="Arial-BoldMT,Arial" font-weight="bold" font-size="24.0" fill="#3F3F3F" transform="matrix(1.00, 0.00, -0.00, -1.00, 73.3, 427.6)">o</text><text xml:space="preserve" font-family="Arial-BoldMT,Arial" font-weight="bold" font-size="24.0" fill="#3F3F3F" transform="matrix(1.00, 0.00, -0.00, -1.00, 87.9, 427.6)">d</text><text xml:space="preserve" font-family="Arial-BoldMT,Arial" font-weight="bold" font-size="24.0" fill="#3F3F3F" transform="matrix(1.00, 0.00, -0.00, -1.00, 102.6, 427.6)">u</text><text xml:space="preserve" font-family="Arial-BoldMT,Arial" font-weight="bold" font-size="24.0" fill="#3F3F3F" transform="matrix(1.00, 0.00, -0.00, -1.00, 117.2, 427.6)">c</text><text xml:space="preserve" font-family="Arial-BoldMT,Arial" font-weight="bold" font-size="24.0" fill="#3F3F3F" transform="matrix(1.00, 0.00, -0.00, -1.00, 130.6, 427.6)">t</text><text xml:space="preserve" font-family="Arial-BoldMT,Arial" font-weight="bold" font-size="24.0" fill="#3F3F3F" transform="matrix(1.00, 0.00, -0.00, -1.00, 138.6, 427.6)">i</text><text xml:space="preserve" font-family="Arial-BoldMT,Arial" font-weight="bold" font-size="24.0" fill="#3F3F3F" transform="matrix(1.00, 0.00, -0.00, -1.00, 145.2, 427.6)">o</text><text xml:space="preserve" font-family="Arial-BoldMT,Arial" font-weight="bold" font-size="24.0" fill="#3F3F3F" transform="matrix(1.00, 0.00, -0.00, -1.00, 159.9, 427.6)">n</text><text xml:space="preserve" font-family="Arial-BoldMT,Arial" font-weight="bold" font-size="24.0" fill="#3F3F3F" transform="matrix(1.00, 0.00, -0.00, -1.00, 174.5, 427.6)"> </text><text xml:space="preserve" font-family="ArialMT,Arial" font-size="24.0" fill="#3F3F3F" transform="matrix(1.00, 0.00, -0.00, -1.00, 181.2, 427.6)">–</text><text xml:space="preserve" font-family="ArialMT,Arial" font-size="24.0" fill="#3F3F3F" transform="matrix(1.00, 0.00, -0.00, -1.00, 194.6, 427.6)"> </text><text xml:space="preserve" font-family="ArialMT,Arial" font-size="24.0" fill="#3F3F3F" transform="matrix(1.00, 0.00, -0.00, -1.00, 201.3, 427.6)">a</text><text xml:space="preserve" font-family="ArialMT,Arial" font-size="24.0" fill="#3F3F3F" transform="matrix(1.00, 0.00, -0.00, -1.00, 214.6, 427.6)">s</text><text xml:space="preserve" font-family="ArialMT,Arial" font-size="24.0" fill="#3F3F3F" transform="matrix(1.00, 0.00, -0.00, -1.00, 226.6, 427.6)">k</text><text xml:space="preserve" font-family="ArialMT,Arial" font-size="24.0" fill="#3F3F3F" transform="matrix(1.00, 0.00, -0.00, -1.00, 238.6, 427.6)"> </text><text xml:space="preserve" font-family="ArialMT,Arial" font-size="24.0" fill="#3F3F3F" transform="matrix(1.00, 0.00, -0.00, -1.00, 245.3, 427.6)">a</text><text xml:space="preserve" font-family="ArialMT,Arial" font-size="24.0" fill="#3F3F3F" transform="matrix(1.00, 0.00, -0.00, -1.00, 258.6, 427.6)"> </text><text xml:space="preserve" font-family="ArialMT,Arial" font-size="24.0" fill="#3F3F3F" transform="matrix(1.00, 0.00, -0.00, -1.00, 265.3, 427.6)">q</text><text xml:space="preserve" font-family="ArialMT,Arial" font-size="24.0" fill="#3F3F3F" transform="matrix(1.00, 0.00, -0.00, -1.00, 278.6, 427.6)">u</text><text xml:space="preserve" font-family="ArialMT,Arial" font-size="24.0" fill="#3F3F3F" transform="matrix(1.00, 0.00, -0.00, -1.00, 292.0, 427.6)">e</text><text xml:space="preserve" font-family="ArialMT,Arial" font-size="24.0" fill="#3F3F3F" transform="matrix(1.00, 0.00, -0.00, -1.00, 305.3, 427.6)">s</text><text xml:space="preserve" font-family="ArialMT,Arial" font-size="24.0" fill="#3F3F3F" transform="matrix(1.00, 0.00, -0.00, -1.00, 317.3, 427.6)">t</text><text xml:space="preserve" font-family="ArialMT,Arial" font-size="24.0" fill="#3F3F3F" transform="matrix(1.00, 0.00, -0.00, -1.00, 324.0, 427.6)">i</text><text xml:space="preserve" font-family="ArialMT,Arial" font-size="24.0" fill="#3F3F3F" transform="matrix(1.00, 0.00, -0.00, -1.00, 329.3, 427.6)">o</text><text xml:space="preserve" font-family="ArialMT,Arial" font-size="24.0" fill="#3F3F3F" transform="matrix(1.00, 0.00, -0.00, -1.00, 342.7, 427.6)">n</text><text xml:space="preserve" font-family="ArialMT,Arial" font-size="24.0" fill="#3F3F3F" transform="matrix(1.00, 0.00, -0.00, -1.00, 356.0, 427.6)">/</text><text xml:space="preserve" font-family="ArialMT,Arial" font-size="24.0" fill="#3F3F3F" transform="matrix(1.00, 0.00, -0.00, -1.00, 362.7, 427.6)">s</text><text xml:space="preserve" font-family="ArialMT,Arial" font-size="24.0" fill="#3F3F3F" transform="matrix(1.00, 0.00, -0.00, -1.00, 374.7, 427.6)">t</text><text xml:space="preserve" font-family="ArialMT,Arial" font-size="24.0" fill="#3F3F3F" transform="matrix(1.00, 0.00, -0.00, -1.00, 381.4, 427.6)">a</text><text xml:space="preserve" font-family="ArialMT,Arial" font-size="24.0" fill="#3F3F3F" transform="matrix(1.00, 0.00, -0.00, -1.00, 394.7, 427.6)">t</text><text xml:space="preserve" font-family="ArialMT,Arial" font-size="24.0" fill="#3F3F3F" transform="matrix(1.00, 0.00, -0.00, -1.00, 401.4, 427.6)">e</text><text xml:space="preserve" font-family="ArialMT,Arial" font-size="24.0" fill="#3F3F3F" transform="matrix(1.00, 0.00, -0.00, -1.00, 414.7, 427.6)"> </text><text xml:space="preserve" font-family="ArialMT,Arial" font-size="24.0" fill="#3F3F3F" transform="matrix(1.00, 0.00, -0.00, -1.00, 421.4, 427.6)">a</text><text xml:space="preserve" font-family="ArialMT,Arial" font-size="24.0" fill="#3F3F3F" transform="matrix(1.00, 0.00, -0.00, -1.00, 434.8, 427.6)"> </text><text xml:space="preserve" font-family="ArialMT,Arial" font-size="24.0" fill="#3F3F3F" transform="matrix(1.00, 0.00, -0.00, -1.00, 441.4, 427.6)">t</text><text xml:space="preserve" font-family="ArialMT,Arial" font-size="24.0" fill="#3F3F3F" transform="matrix(1.00, 0.00, -0.00, -1.00, 448.1, 427.6)">h</text><text xml:space="preserve" font-family="ArialMT,Arial" font-size="24.0" fill="#3F3F3F" transform="matrix(1.00, 0.00, -0.00, -1.00, 461.4, 427.6)">e</text><text xml:space="preserve" font-family="ArialMT,Arial" font-size="24.0" fill="#3F3F3F" transform="matrix(1.00, 0.00, -0.00, -1.00, 474.8, 427.6)">s</text><text xml:space="preserve" font-family="ArialMT,Arial" font-size="24.0" fill="#3F3F3F" transform="matrix(1.00, 0.00, -0.00, -1.00, 486.8, 427.6)">i</text><text xml:space="preserve" font-family="ArialMT,Arial" font-size="24.0" fill="#3F3F3F" transform="matrix(1.00, 0.00, -0.00, -1.00, 492.1, 427.6)">s</text><image xlink:href="../../86C525E5-2697-4FBC-935A-C903ABCA37BE/assets/83D734E4A483A0A090AA2948FA0C79F1.png" width="960.00" height="540.00" transform="matrix(0.52, 0.00, -0.00, -0.52, 117.5, 409.6)"></image><path d="M 217.5 93.5 L 504.5 93.5 L 504.5 63.5 L 217.5 63.5 Z M 217.8 94.0 " fill="#FFFFFF"></path><path d="M -0.3 0.5 L 286.7 0.5 L 286.7 30.5 L -0.3 30.5 Z M 0.0 0.0 " fill="none" stroke="#FA8716" stroke-width="0.75" stroke-linejoin="round" transform="matrix(1.00, 0.00, 0.00, -1.00, 217.8, 94.0)"></path><g><clipPath id="clip0x7f994f9104b0"><path d="M 216.2 61.4 L 505.8 61.4 L 505.8 95.6 L 216.2 95.6 Z M 216.2 61.4 "></path></clipPath><g clip-path="url(#clip0x7f994f9104b0)"><text xml:space="preserve" font-family="Arial-ItalicMT,Arial" font-style="italic" font-size="20.0" fill="#FA8716" transform="matrix(1.00, 0.00, -0.00, -1.00, 227.9, 71.9)">W</text><text xml:space="preserve" font-family="Arial-ItalicMT,Arial" font-style="italic" font-size="20.0" fill="#FA8716" transform="matrix(1.00, 0.00, -0.00, -1.00, 246.8, 71.9)">h</text><text xml:space="preserve" font-family="Arial-ItalicMT,Arial" font-style="italic" font-size="20.0" fill="#FA8716" transform="matrix(1.00, 0.00, -0.00, -1.00, 257.9, 71.9)">a</text><text xml:space="preserve" font-family="Arial-ItalicMT,Arial" font-style="italic" font-size="20.0" fill="#FA8716" transform="matrix(1.00, 0.00, -0.00, -1.00, 269.0, 71.9)">t</text><text xml:space="preserve" font-family="Arial-ItalicMT,Arial" font-style="italic" font-size="20.0" fill="#FA8716" transform="matrix(1.00, 0.00, -0.00, -1.00, 274.6, 71.9)"> </text><text xml:space="preserve" font-family="Arial-ItalicMT,Arial" font-style="italic" font-size="20.0" fill="#FA8716" transform="matrix(1.00, 0.00, -0.00, -1.00, 280.1, 71.9)">i</text><text xml:space="preserve" font-family="Arial-ItalicMT,Arial" font-style="italic" font-size="20.0" fill="#FA8716" transform="matrix(1.00, 0.00, -0.00, -1.00, 284.6, 71.9)">s</text><text xml:space="preserve" font-family="Arial-ItalicMT,Arial" font-style="italic" font-size="20.0" fill="#FA8716" transform="matrix(1.00, 0.00, -0.00, -1.00, 294.6, 71.9)"> </text><text xml:space="preserve" font-family="Arial-ItalicMT,Arial" font-style="italic" font-size="20.0" fill="#FA8716" transform="matrix(1.00, 0.00, -0.00, -1.00, 300.1, 71.9)">y</text><text xml:space="preserve" font-family="Arial-ItalicMT,Arial" font-style="italic" font-size="20.0" fill="#FA8716" transform="matrix(1.00, 0.00, -0.00, -1.00, 310.1, 71.9)">o</text><text xml:space="preserve" font-family="Arial-ItalicMT,Arial" font-style="italic" font-size="20.0" fill="#FA8716" transform="matrix(1.00, 0.00, -0.00, -1.00, 321.2, 71.9)">u</text><text xml:space="preserve" font-family="Arial-ItalicMT,Arial" font-style="italic" font-size="20.0" fill="#FA8716" transform="matrix(1.00, 0.00, -0.00, -1.00, 332.4, 71.9)">r</text><text xml:space="preserve" font-family="Arial-ItalicMT,Arial" font-style="italic" font-size="20.0" fill="#FA8716" transform="matrix(1.00, 0.00, -0.00, -1.00, 339.0, 71.9)"> </text><text xml:space="preserve" font-family="Arial-ItalicMT,Arial" font-style="italic" font-size="20.0" fill="#FA8716" transform="matrix(1.00, 0.00, -0.00, -1.00, 344.6, 71.9)">n</text><text xml:space="preserve" font-family="Arial-ItalicMT,Arial" font-style="italic" font-size="20.0" fill="#FA8716" transform="matrix(1.00, 0.00, -0.00, -1.00, 355.7, 71.9)">a</text><text xml:space="preserve" font-family="Arial-ItalicMT,Arial" font-style="italic" font-size="20.0" fill="#FA8716" transform="matrix(1.00, 0.00, -0.00, -1.00, 366.8, 71.9)">m</text><text xml:space="preserve" font-family="Arial-ItalicMT,Arial" font-style="italic" font-size="20.0" fill="#FA8716" transform="matrix(1.00, 0.00, -0.00, -1.00, 383.5, 71.9)">e</text><text xml:space="preserve" font-family="Arial-ItalicMT,Arial" font-style="italic" font-size="20.0" fill="#FA8716" transform="matrix(1.00, 0.00, -0.00, -1.00, 394.6, 71.9)"> </text><text xml:space="preserve" font-family="Arial-ItalicMT,Arial" font-style="italic" font-size="20.0" fill="#FA8716" transform="matrix(1.00, 0.00, -0.00, -1.00, 400.2, 71.9)">a</text><text xml:space="preserve" font-family="Arial-ItalicMT,Arial" font-style="italic" font-size="20.0" fill="#FA8716" transform="matrix(1.00, 0.00, -0.00, -1.00, 411.3, 71.9)">n</text><text xml:space="preserve" font-family="Arial-ItalicMT,Arial" font-style="italic" font-size="20.0" fill="#FA8716" transform="matrix(1.00, 0.00, -0.00, -1.00, 422.4, 71.9)">d</text><text xml:space="preserve" font-family="Arial-ItalicMT,Arial" font-style="italic" font-size="20.0" fill="#FA8716" transform="matrix(1.00, 0.00, -0.00, -1.00, 433.6, 71.9)"> </text><text xml:space="preserve" font-family="Arial-ItalicMT,Arial" font-style="italic" font-size="20.0" fill="#FA8716" transform="matrix(1.00, 0.00, -0.00, -1.00, 439.1, 71.9)">m</text><text xml:space="preserve" font-family="Arial-ItalicMT,Arial" font-style="italic" font-size="20.0" fill="#FA8716" transform="matrix(1.00, 0.00, -0.00, -1.00, 455.8, 71.9)">a</text><text xml:space="preserve" font-family="Arial-ItalicMT,Arial" font-style="italic" font-size="20.0" fill="#FA8716" transform="matrix(1.00, 0.00, -0.00, -1.00, 466.9, 71.9)">j</text><text xml:space="preserve" font-family="Arial-ItalicMT,Arial" font-style="italic" font-size="20.0" fill="#FA8716" transform="matrix(1.00, 0.00, -0.00, -1.00, 471.3, 71.9)">o</text><text xml:space="preserve" font-family="Arial-ItalicMT,Arial" font-style="italic" font-size="20.0" fill="#FA8716" transform="matrix(1.00, 0.00, -0.00, -1.00, 482.5, 71.9)">r</text><text xml:space="preserve" font-family="Arial-ItalicMT,Arial" font-style="italic" font-size="20.0" fill="#FA8716" transform="matrix(1.00, 0.00, -0.00, -1.00, 489.1, 71.9)">?</text></g></g></g></svg>