<?xml version="1.0" encoding="UTF-8" standalone="no"?><svg xmlns="http://www.w3.org/2000/svg" xmlns:xlink="http://www.w3.org/1999/xlink" clip-rule="evenodd" stroke-miterlimit="10" viewBox="0 0 471 26"><desc>SVG generated by Keynote</desc><defs></defs><g transform="matrix(1.00, 0.00, -0.00, -1.00, 0.0, 26.0)"><text xml:space="preserve" font-family="Arial-BoldMT,Arial" font-weight="bold" font-size="24.0" fill="#3F3F3F" transform="matrix(1.00, 0.00, -0.00, -1.00, 0.6, 6.6)">I</text><text xml:space="preserve" font-family="Arial-BoldMT,Arial" font-weight="bold" font-size="24.0" fill="#3F3F3F" transform="matrix(1.00, 0.00, -0.00, -1.00, 7.3, 6.6)">n</text><text xml:space="preserve" font-family="Arial-BoldMT,Arial" font-weight="bold" font-size="24.0" fill="#3F3F3F" transform="matrix(1.00, 0.00, -0.00, -1.00, 21.9, 6.6)">t</text><text xml:space="preserve" font-family="Arial-BoldMT,Arial" font-weight="bold" font-size="24.0" fill="#3F3F3F" transform="matrix(1.00, 0.00, -0.00, -1.00, 29.9, 6.6)">r</text><text xml:space="preserve" font-family="Arial-BoldMT,Arial" font-weight="bold" font-size="24.0" fill="#3F3F3F" transform="matrix(1.00, 0.00, -0.00, -1.00, 39.3, 6.6)">o</text><text xml:space="preserve" font-family="Arial-BoldMT,Arial" font-weight="bold" font-size="24.0" fill="#3F3F3F" transform="matrix(1.00, 0.00, -0.00, -1.00, 53.9, 6.6)">d</text><text xml:space="preserve" font-family="Arial-BoldMT,Arial" font-weight="bold" font-size="24.0" fill="#3F3F3F" transform="matrix(1.00, 0.00, -0.00, -1.00, 68.6, 6.6)">u</text><text xml:space="preserve" font-family="Arial-BoldMT,Arial" font-weight="bold" font-size="24.0" fill="#3F3F3F" transform="matrix(1.00, 0.00, -0.00, -1.00, 83.2, 6.6)">c</text><text xml:space="preserve" font-family="Arial-BoldMT,Arial" font-weight="bold" font-size="24.0" fill="#3F3F3F" transform="matrix(1.00, 0.00, -0.00, -1.00, 96.6, 6.6)">t</text><text xml:space="preserve" font-family="Arial-BoldMT,Arial" font-weight="bold" font-size="24.0" fill="#3F3F3F" transform="matrix(1.00, 0.00, -0.00, -1.00, 104.6, 6.6)">i</text><text xml:space="preserve" font-family="Arial-BoldMT,Arial" font-weight="bold" font-size="24.0" fill="#3F3F3F" transform="matrix(1.00, 0.00, -0.00, -1.00, 111.2, 6.6)">o</text><text xml:space="preserve" font-family="Arial-BoldMT,Arial" font-weight="bold" font-size="24.0" fill="#3F3F3F" transform="matrix(1.00, 0.00, -0.00, -1.00, 125.9, 6.6)">n</text><text xml:space="preserve" font-family="Arial-BoldMT,Arial" font-weight="bold" font-size="24.0" fill="#3F3F3F" transform="matrix(1.00, 0.00, -0.00, -1.00, 140.5, 6.6)"> </text><text xml:space="preserve" font-family="ArialMT,Arial" font-size="24.0" fill="#3F3F3F" transform="matrix(1.00, 0.00, -0.00, -1.00, 147.2, 6.6)">–</text><text xml:space="preserve" font-family="ArialMT,Arial" font-size="24.0" fill="#3F3F3F" transform="matrix(1.00, 0.00, -0.00, -1.00, 160.6, 6.6)"> </text><text xml:space="preserve" font-family="ArialMT,Arial" font-size="24.0" fill="#3F3F3F" transform="matrix(1.00, 0.00, -0.00, -1.00, 167.3, 6.6)">a</text><text xml:space="preserve" font-family="ArialMT,Arial" font-size="24.0" fill="#3F3F3F" transform="matrix(1.00, 0.00, -0.00, -1.00, 180.6, 6.6)">s</text><text xml:space="preserve" font-family="ArialMT,Arial" font-size="24.0" fill="#3F3F3F" transform="matrix(1.00, 0.00, -0.00, -1.00, 192.6, 6.6)">k</text><text xml:space="preserve" font-family="ArialMT,Arial" font-size="24.0" fill="#3F3F3F" transform="matrix(1.00, 0.00, -0.00, -1.00, 204.6, 6.6)"> </text><text xml:space="preserve" font-family="ArialMT,Arial" font-size="24.0" fill="#3F3F3F" transform="matrix(1.00, 0.00, -0.00, -1.00, 211.3, 6.6)">a</text><text xml:space="preserve" font-family="ArialMT,Arial" font-size="24.0" fill="#3F3F3F" transform="matrix(1.00, 0.00, -0.00, -1.00, 224.6, 6.6)"> </text><text xml:space="preserve" font-family="ArialMT,Arial" font-size="24.0" fill="#3F3F3F" transform="matrix(1.00, 0.00, -0.00, -1.00, 231.3, 6.6)">q</text><text xml:space="preserve" font-family="ArialMT,Arial" font-size="24.0" fill="#3F3F3F" transform="matrix(1.00, 0.00, -0.00, -1.00, 244.6, 6.6)">u</text><text xml:space="preserve" font-family="ArialMT,Arial" font-size="24.0" fill="#3F3F3F" transform="matrix(1.00, 0.00, -0.00, -1.00, 258.0, 6.6)">e</text><text xml:space="preserve" font-family="ArialMT,Arial" font-size="24.0" fill="#3F3F3F" transform="matrix(1.00, 0.00, -0.00, -1.00, 271.3, 6.6)">s</text><text xml:space="preserve" font-family="ArialMT,Arial" font-size="24.0" fill="#3F3F3F" transform="matrix(1.00, 0.00, -0.00, -1.00, 283.3, 6.6)">t</text><text xml:space="preserve" font-family="ArialMT,Arial" font-size="24.0" fill="#3F3F3F" transform="matrix(1.00, 0.00, -0.00, -1.00, 290.0, 6.6)">i</text><text xml:space="preserve" font-family="ArialMT,Arial" font-size="24.0" fill="#3F3F3F" transform="matrix(1.00, 0.00, -0.00, -1.00, 295.3, 6.6)">o</text><text xml:space="preserve" font-family="ArialMT,Arial" font-size="24.0" fill="#3F3F3F" transform="matrix(1.00, 0.00, -0.00, -1.00, 308.7, 6.6)">n</text><text xml:space="preserve" font-family="ArialMT,Arial" font-size="24.0" fill="#3F3F3F" transform="matrix(1.00, 0.00, -0.00, -1.00, 322.0, 6.6)">/</text><text xml:space="preserve" font-family="ArialMT,Arial" font-size="24.0" fill="#3F3F3F" transform="matrix(1.00, 0.00, -0.00, -1.00, 328.7, 6.6)">s</text><text xml:space="preserve" font-family="ArialMT,Arial" font-size="24.0" fill="#3F3F3F" transform="matrix(1.00, 0.00, -0.00, -1.00, 340.7, 6.6)">t</text><text xml:space="preserve" font-family="ArialMT,Arial" font-size="24.0" fill="#3F3F3F" transform="matrix(1.00, 0.00, -0.00, -1.00, 347.4, 6.6)">a</text><text xml:space="preserve" font-family="ArialMT,Arial" font-size="24.0" fill="#3F3F3F" transform="matrix(1.00, 0.00, -0.00, -1.00, 360.7, 6.6)">t</text><text xml:space="preserve" font-family="ArialMT,Arial" font-size="24.0" fill="#3F3F3F" transform="matrix(1.00, 0.00, -0.00, -1.00, 367.4, 6.6)">e</text><text xml:space="preserve" font-family="ArialMT,Arial" font-size="24.0" fill="#3F3F3F" transform="matrix(1.00, 0.00, -0.00, -1.00, 380.7, 6.6)"> </text><text xml:space="preserve" font-family="ArialMT,Arial" font-size="24.0" fill="#3F3F3F" transform="matrix(1.00, 0.00, -0.00, -1.00, 387.4, 6.6)">a</text><text xml:space="preserve" font-family="ArialMT,Arial" font-size="24.0" fill="#3F3F3F" transform="matrix(1.00, 0.00, -0.00, -1.00, 400.8, 6.6)"> </text><text xml:space="preserve" font-family="ArialMT,Arial" font-size="24.0" fill="#3F3F3F" transform="matrix(1.00, 0.00, -0.00, -1.00, 407.4, 6.6)">t</text><text xml:space="preserve" font-family="ArialMT,Arial" font-size="24.0" fill="#3F3F3F" transform="matrix(1.00, 0.00, -0.00, -1.00, 414.1, 6.6)">h</text><text xml:space="preserve" font-family="ArialMT,Arial" font-size="24.0" fill="#3F3F3F" transform="matrix(1.00, 0.00, -0.00, -1.00, 427.4, 6.6)">e</text><text xml:space="preserve" font-family="ArialMT,Arial" font-size="24.0" fill="#3F3F3F" transform="matrix(1.00, 0.00, -0.00, -1.00, 440.8, 6.6)">s</text><text xml:space="preserve" font-family="ArialMT,Arial" font-size="24.0" fill="#3F3F3F" transform="matrix(1.00, 0.00, -0.00, -1.00, 452.8, 6.6)">i</text><text xml:space="preserve" font-family="ArialMT,Arial" font-size="24.0" fill="#3F3F3F" transform="matrix(1.00, 0.00, -0.00, -1.00, 458.1, 6.6)">s</text></g></svg>