<?xml version="1.0" encoding="UTF-8" standalone="no"?><svg xmlns="http://www.w3.org/2000/svg" xmlns:xlink="http://www.w3.org/1999/xlink" clip-rule="evenodd" stroke-miterlimit="10" viewBox="0 0 1024 768"><desc>SVG generated by Keynote</desc><defs></defs><g transform="matrix(1.00, 0.00, -0.00, -1.00, 0.0, 768.0)"><g><clipPath id="clip0x7fca76212d60"><path d="M 0.0 768.0 L 1024.0 768.0 L 1024.0 0.0 L 0.0 0.0 Z M 0.0 768.0 "></path></clipPath><g clip-path="url(#clip0x7fca76212d60)"><image xlink:href="../../C5C39D88-6DF7-4364-885A-B0C73D57ADEF/assets/E532EB3C3E7D08F7018DF18678F5E36F.jpeg" width="2048.00" height="1536.00" transform="matrix(0.50, 0.00, -0.00, -0.50, 0.0, 768.0)"></image></g></g><text xml:space="preserve" font-family="GillSans-Light,Gill Sans" font-size="72.0" fill="#525252" transform="matrix(1.00, 0.00, -0.00, -1.00, 131.0, 360.2)">W</text><text xml:space="preserve" font-family="GillSans-Light,Gill Sans" font-size="72.0" fill="#525252" transform="matrix(1.00, 0.00, -0.00, -1.00, 205.2, 360.2)">H</text><text xml:space="preserve" font-family="GillSans-Light,Gill Sans" font-size="72.0" fill="#525252" transform="matrix(1.00, 0.00, -0.00, -1.00, 257.0, 360.2)">I</text><text xml:space="preserve" font-family="GillSans-Light,Gill Sans" font-size="72.0" fill="#525252" transform="matrix(1.00, 0.00, -0.00, -1.00, 272.0, 360.2)">S</text><text xml:space="preserve" font-family="GillSans-Light,Gill Sans" font-size="72.0" fill="#525252" transform="matrix(1.00, 0.00, -0.00, -1.00, 305.8, 360.2)">T</text><text xml:space="preserve" font-family="GillSans-Light,Gill Sans" font-size="72.0" fill="#525252" transform="matrix(1.00, 0.00, -0.00, -1.00, 347.1, 360.2)">L</text><text xml:space="preserve" font-family="GillSans-Light,Gill Sans" font-size="72.0" fill="#525252" transform="matrix(1.00, 0.00, -0.00, -1.00, 380.9, 360.2)">I</text><text xml:space="preserve" font-family="GillSans-Light,Gill Sans" font-size="72.0" fill="#525252" transform="matrix(1.00, 0.00, -0.00, -1.00, 395.9, 360.2)">N</text><text xml:space="preserve" font-family="GillSans-Light,Gill Sans" font-size="72.0" fill="#525252" transform="matrix(1.00, 0.00, -0.00, -1.00, 451.4, 360.2)">G</text><text xml:space="preserve" font-family="GillSans-Light,Gill Sans" font-size="72.0" fill="#525252" transform="matrix(1.00, 0.00, -0.00, -1.00, 503.2, 360.2)"> </text><text xml:space="preserve" font-family="GillSans-Light,Gill Sans" font-size="72.0" fill="#525252" transform="matrix(1.00, 0.00, -0.00, -1.00, 518.9, 360.2)">A</text><text xml:space="preserve" font-family="GillSans-Light,Gill Sans" font-size="72.0" fill="#525252" transform="matrix(1.00, 0.00, -0.00, -1.00, 566.9, 360.2)">S</text><text xml:space="preserve" font-family="GillSans-Light,Gill Sans" font-size="72.0" fill="#525252" transform="matrix(1.00, 0.00, -0.00, -1.00, 600.7, 360.2)"> </text><text xml:space="preserve" font-family="GillSans-Light,Gill Sans" font-size="72.0" fill="#525252" transform="matrix(1.00, 0.00, -0.00, -1.00, 620.7, 360.2)">S</text><text xml:space="preserve" font-family="GillSans-Light,Gill Sans" font-size="72.0" fill="#525252" transform="matrix(1.00, 0.00, -0.00, -1.00, 654.5, 360.2)">C</text><text xml:space="preserve" font-family="GillSans-Light,Gill Sans" font-size="72.0" fill="#525252" transform="matrix(1.00, 0.00, -0.00, -1.00, 703.2, 360.2)">I</text><text xml:space="preserve" font-family="GillSans-Light,Gill Sans" font-size="72.0" fill="#525252" transform="matrix(1.00, 0.00, -0.00, -1.00, 718.2, 360.2)">E</text><text xml:space="preserve" font-family="GillSans-Light,Gill Sans" font-size="72.0" fill="#525252" transform="matrix(1.00, 0.00, -0.00, -1.00, 753.5, 360.2)">N</text><text xml:space="preserve" font-family="GillSans-Light,Gill Sans" font-size="72.0" fill="#525252" transform="matrix(1.00, 0.00, -0.00, -1.00, 809.0, 360.2)">C</text><text xml:space="preserve" font-family="GillSans-Light,Gill Sans" font-size="72.0" fill="#525252" transform="matrix(1.00, 0.00, -0.00, -1.00, 857.7, 360.2)">E</text></g></svg>