<?xml version="1.0" encoding="UTF-8" standalone="no"?><svg xmlns="http://www.w3.org/2000/svg" xmlns:xlink="http://www.w3.org/1999/xlink" clip-rule="evenodd" stroke-miterlimit="10" viewBox="0 0 356 78"><desc>SVG generated by Keynote</desc><defs></defs><g transform="matrix(1.00, 0.00, -0.00, -1.00, 0.0, 78.0)"><text xml:space="preserve" font-family="Arial-BoldMT,Arial" font-weight="bold" font-size="24.0" fill="#3F3F3F" transform="matrix(1.00, 0.00, -0.00, -1.00, 0.6, 58.6)">P</text><text xml:space="preserve" font-family="Arial-BoldMT,Arial" font-weight="bold" font-size="24.0" fill="#3F3F3F" transform="matrix(1.00, 0.00, -0.00, -1.00, 16.6, 58.6)">o</text><text xml:space="preserve" font-family="Arial-BoldMT,Arial" font-weight="bold" font-size="24.0" fill="#3F3F3F" transform="matrix(1.00, 0.00, -0.00, -1.00, 31.3, 58.6)">i</text><text xml:space="preserve" font-family="Arial-BoldMT,Arial" font-weight="bold" font-size="24.0" fill="#3F3F3F" transform="matrix(1.00, 0.00, -0.00, -1.00, 37.9, 58.6)">n</text><text xml:space="preserve" font-family="Arial-BoldMT,Arial" font-weight="bold" font-size="24.0" fill="#3F3F3F" transform="matrix(1.00, 0.00, -0.00, -1.00, 52.6, 58.6)">t</text><text xml:space="preserve" font-family="Arial-BoldMT,Arial" font-weight="bold" font-size="24.0" fill="#3F3F3F" transform="matrix(1.00, 0.00, -0.00, -1.00, 60.6, 58.6)"> </text><text xml:space="preserve" font-family="Arial-BoldMT,Arial" font-weight="bold" font-size="24.0" fill="#3F3F3F" transform="matrix(1.00, 0.00, -0.00, -1.00, 67.2, 58.6)">o</text><text xml:space="preserve" font-family="Arial-BoldMT,Arial" font-weight="bold" font-size="24.0" fill="#3F3F3F" transform="matrix(1.00, 0.00, -0.00, -1.00, 81.9, 58.6)">f</text><text xml:space="preserve" font-family="Arial-BoldMT,Arial" font-weight="bold" font-size="24.0" fill="#3F3F3F" transform="matrix(1.00, 0.00, -0.00, -1.00, 89.9, 58.6)"> </text><text xml:space="preserve" font-family="Arial-BoldMT,Arial" font-weight="bold" font-size="24.0" fill="#3F3F3F" transform="matrix(1.00, 0.00, -0.00, -1.00, 96.5, 58.6)">V</text><text xml:space="preserve" font-family="Arial-BoldMT,Arial" font-weight="bold" font-size="24.0" fill="#3F3F3F" transform="matrix(1.00, 0.00, -0.00, -1.00, 112.1, 58.6)">i</text><text xml:space="preserve" font-family="Arial-BoldMT,Arial" font-weight="bold" font-size="24.0" fill="#3F3F3F" transform="matrix(1.00, 0.00, -0.00, -1.00, 118.8, 58.6)">e</text><text xml:space="preserve" font-family="Arial-BoldMT,Arial" font-weight="bold" font-size="24.0" fill="#3F3F3F" transform="matrix(1.00, 0.00, -0.00, -1.00, 132.1, 58.6)">w</text><text xml:space="preserve" font-family="Arial-BoldMT,Arial" font-weight="bold" font-size="24.0" fill="#3F3F3F" transform="matrix(1.00, 0.00, -0.00, -1.00, 150.8, 58.6)"> </text><text xml:space="preserve" font-family="ArialMT,Arial" font-size="24.0" fill="#3F3F3F" transform="matrix(1.00, 0.00, -0.00, -1.00, 157.5, 58.6)">–</text><text xml:space="preserve" font-family="ArialMT,Arial" font-size="24.0" fill="#3F3F3F" transform="matrix(1.00, 0.00, -0.00, -1.00, 170.9, 58.6)"> </text><text xml:space="preserve" font-family="ArialMT,Arial" font-size="24.0" fill="#3F3F3F" transform="matrix(1.00, 0.00, -0.00, -1.00, 177.5, 58.6)">n</text><text xml:space="preserve" font-family="ArialMT,Arial" font-size="24.0" fill="#3F3F3F" transform="matrix(1.00, 0.00, -0.00, -1.00, 190.9, 58.6)">a</text><text xml:space="preserve" font-family="ArialMT,Arial" font-size="24.0" fill="#3F3F3F" transform="matrix(1.00, 0.00, -0.00, -1.00, 204.2, 58.6)">r</text><text xml:space="preserve" font-family="ArialMT,Arial" font-size="24.0" fill="#3F3F3F" transform="matrix(1.00, 0.00, -0.00, -1.00, 212.2, 58.6)">r</text><text xml:space="preserve" font-family="ArialMT,Arial" font-size="24.0" fill="#3F3F3F" transform="matrix(1.00, 0.00, -0.00, -1.00, 220.2, 58.6)">a</text><text xml:space="preserve" font-family="ArialMT,Arial" font-size="24.0" fill="#3F3F3F" transform="matrix(1.00, 0.00, -0.00, -1.00, 233.6, 58.6)">t</text><text xml:space="preserve" font-family="ArialMT,Arial" font-size="24.0" fill="#3F3F3F" transform="matrix(1.00, 0.00, -0.00, -1.00, 240.2, 58.6)">i</text><text xml:space="preserve" font-family="ArialMT,Arial" font-size="24.0" fill="#3F3F3F" transform="matrix(1.00, 0.00, -0.00, -1.00, 245.6, 58.6)">o</text><text xml:space="preserve" font-family="ArialMT,Arial" font-size="24.0" fill="#3F3F3F" transform="matrix(1.00, 0.00, -0.00, -1.00, 258.9, 58.6)">n</text><text xml:space="preserve" font-family="FranklinGothic-Book,Franklin Gothic Book" font-size="16.0" fill="#000000" transform="matrix(1.00, 0.00, -0.00, -1.00, 272.2, 58.6)"> </text><text xml:space="preserve" font-family="LucidaGrande,Lucida Grande" font-size="20.0" fill="#EEE0A1" transform="matrix(1.00, 0.00, -0.00, -1.00, 0.6, 31.3)">▪</text><text xml:space="preserve" font-family="ArialMT,Arial" font-size="20.0" fill="#3F3F3F" transform="matrix(1.00, 0.00, -0.00, -1.00, 14.3, 31.6)">1</text><text xml:space="preserve" font-family="ArialMT,Arial" font-size="13.3" fill="#3F3F3F" transform="matrix(1.00, 0.00, -0.00, -1.00, 25.4, 37.3)">s</text><text xml:space="preserve" font-family="ArialMT,Arial" font-size="13.3" fill="#3F3F3F" transform="matrix(1.00, 0.00, -0.00, -1.00, 32.1, 37.3)">t</text><text xml:space="preserve" font-family="ArialMT,Arial" font-size="20.0" fill="#3F3F3F" transform="matrix(1.00, 0.00, -0.00, -1.00, 35.8, 31.6)"> </text><text xml:space="preserve" font-family="ArialMT,Arial" font-size="20.0" fill="#3F3F3F" transform="matrix(1.00, 0.00, -0.00, -1.00, 41.3, 31.6)">p</text><text xml:space="preserve" font-family="ArialMT,Arial" font-size="20.0" fill="#3F3F3F" transform="matrix(1.00, 0.00, -0.00, -1.00, 52.5, 31.6)">e</text><text xml:space="preserve" font-family="ArialMT,Arial" font-size="20.0" fill="#3F3F3F" transform="matrix(1.00, 0.00, -0.00, -1.00, 63.6, 31.6)">r</text><text xml:space="preserve" font-family="ArialMT,Arial" font-size="20.0" fill="#3F3F3F" transform="matrix(1.00, 0.00, -0.00, -1.00, 70.2, 31.6)">s</text><text xml:space="preserve" font-family="ArialMT,Arial" font-size="20.0" fill="#3F3F3F" transform="matrix(1.00, 0.00, -0.00, -1.00, 80.2, 31.6)">o</text><text xml:space="preserve" font-family="ArialMT,Arial" font-size="20.0" fill="#3F3F3F" transform="matrix(1.00, 0.00, -0.00, -1.00, 91.4, 31.6)">n</text><text xml:space="preserve" font-family="ArialMT,Arial" font-size="20.0" fill="#3F3F3F" transform="matrix(1.00, 0.00, -0.00, -1.00, 102.5, 31.6)"> </text><text xml:space="preserve" font-family="ArialMT,Arial" font-size="20.0" fill="#3F3F3F" transform="matrix(1.00, 0.00, -0.00, -1.00, 108.0, 31.6)">–</text><text xml:space="preserve" font-family="ArialMT,Arial" font-size="20.0" fill="#3F3F3F" transform="matrix(1.00, 0.00, -0.00, -1.00, 119.2, 31.6)"> </text><text xml:space="preserve" font-family="ArialMT,Arial" font-size="20.0" fill="#3F3F3F" transform="matrix(1.00, 0.00, -0.00, -1.00, 124.7, 31.6)">t</text><text xml:space="preserve" font-family="ArialMT,Arial" font-size="20.0" fill="#3F3F3F" transform="matrix(1.00, 0.00, -0.00, -1.00, 130.3, 31.6)">e</text><text xml:space="preserve" font-family="ArialMT,Arial" font-size="20.0" fill="#3F3F3F" transform="matrix(1.00, 0.00, -0.00, -1.00, 141.4, 31.6)">l</text><text xml:space="preserve" font-family="ArialMT,Arial" font-size="20.0" fill="#3F3F3F" transform="matrix(1.00, 0.00, -0.00, -1.00, 145.9, 31.6)">l</text><text xml:space="preserve" font-family="ArialMT,Arial" font-size="20.0" fill="#3F3F3F" transform="matrix(1.00, 0.00, -0.00, -1.00, 150.3, 31.6)">s</text><text xml:space="preserve" font-family="ArialMT,Arial" font-size="20.0" fill="#3F3F3F" transform="matrix(1.00, 0.00, -0.00, -1.00, 160.3, 31.6)"> </text><text xml:space="preserve" font-family="ArialMT,Arial" font-size="20.0" fill="#3F3F3F" transform="matrix(1.00, 0.00, -0.00, -1.00, 165.9, 31.6)">t</text><text xml:space="preserve" font-family="ArialMT,Arial" font-size="20.0" fill="#3F3F3F" transform="matrix(1.00, 0.00, -0.00, -1.00, 171.4, 31.6)">h</text><text xml:space="preserve" font-family="ArialMT,Arial" font-size="20.0" fill="#3F3F3F" transform="matrix(1.00, 0.00, -0.00, -1.00, 182.5, 31.6)">e</text><text xml:space="preserve" font-family="ArialMT,Arial" font-size="20.0" fill="#3F3F3F" transform="matrix(1.00, 0.00, -0.00, -1.00, 193.7, 31.6)">i</text><text xml:space="preserve" font-family="ArialMT,Arial" font-size="20.0" fill="#3F3F3F" transform="matrix(1.00, 0.00, -0.00, -1.00, 198.1, 31.6)">r</text><text xml:space="preserve" font-family="ArialMT,Arial" font-size="20.0" fill="#3F3F3F" transform="matrix(1.00, 0.00, -0.00, -1.00, 204.8, 31.6)"> </text><text xml:space="preserve" font-family="ArialMT,Arial" font-size="20.0" fill="#3F3F3F" transform="matrix(1.00, 0.00, -0.00, -1.00, 210.3, 31.6)">s</text><text xml:space="preserve" font-family="ArialMT,Arial" font-size="20.0" fill="#3F3F3F" transform="matrix(1.00, 0.00, -0.00, -1.00, 220.3, 31.6)">t</text><text xml:space="preserve" font-family="ArialMT,Arial" font-size="20.0" fill="#3F3F3F" transform="matrix(1.00, 0.00, -0.00, -1.00, 225.9, 31.6)">o</text><text xml:space="preserve" font-family="ArialMT,Arial" font-size="20.0" fill="#3F3F3F" transform="matrix(1.00, 0.00, -0.00, -1.00, 237.0, 31.6)">r</text><text xml:space="preserve" font-family="ArialMT,Arial" font-size="20.0" fill="#3F3F3F" transform="matrix(1.00, 0.00, -0.00, -1.00, 243.7, 31.6)">y</text><text xml:space="preserve" font-family="FranklinGothic-Book,Franklin Gothic Book" font-size="16.0" fill="#000000" transform="matrix(1.00, 0.00, -0.00, -1.00, 253.6, 31.6)"> </text><text xml:space="preserve" font-family="LucidaGrande,Lucida Grande" font-size="20.0" fill="#EEE0A1" transform="matrix(1.00, 0.00, -0.00, -1.00, 0.6, 5.3)">▪</text><text xml:space="preserve" font-family="ArialMT,Arial" font-size="20.0" fill="#3F3F3F" transform="matrix(1.00, 0.00, -0.00, -1.00, 14.3, 5.6)">3</text><text xml:space="preserve" font-family="ArialMT,Arial" font-size="13.3" fill="#3F3F3F" transform="matrix(1.00, 0.00, -0.00, -1.00, 25.4, 11.3)">r</text><text xml:space="preserve" font-family="ArialMT,Arial" font-size="13.3" fill="#3F3F3F" transform="matrix(1.00, 0.00, -0.00, -1.00, 29.8, 11.3)">d</text><text xml:space="preserve" font-family="ArialMT,Arial" font-size="20.0" fill="#3F3F3F" transform="matrix(1.00, 0.00, -0.00, -1.00, 37.3, 5.6)"> </text><text xml:space="preserve" font-family="ArialMT,Arial" font-size="20.0" fill="#3F3F3F" transform="matrix(1.00, 0.00, -0.00, -1.00, 42.8, 5.6)">p</text><text xml:space="preserve" font-family="ArialMT,Arial" font-size="20.0" fill="#3F3F3F" transform="matrix(1.00, 0.00, -0.00, -1.00, 53.9, 5.6)">e</text><text xml:space="preserve" font-family="ArialMT,Arial" font-size="20.0" fill="#3F3F3F" transform="matrix(1.00, 0.00, -0.00, -1.00, 65.1, 5.6)">r</text><text xml:space="preserve" font-family="ArialMT,Arial" font-size="20.0" fill="#3F3F3F" transform="matrix(1.00, 0.00, -0.00, -1.00, 71.7, 5.6)">s</text><text xml:space="preserve" font-family="ArialMT,Arial" font-size="20.0" fill="#3F3F3F" transform="matrix(1.00, 0.00, -0.00, -1.00, 81.7, 5.6)">o</text><text xml:space="preserve" font-family="ArialMT,Arial" font-size="20.0" fill="#3F3F3F" transform="matrix(1.00, 0.00, -0.00, -1.00, 92.9, 5.6)">n</text><text xml:space="preserve" font-family="ArialMT,Arial" font-size="20.0" fill="#3F3F3F" transform="matrix(1.00, 0.00, -0.00, -1.00, 104.0, 5.6)"> </text><text xml:space="preserve" font-family="ArialMT,Arial" font-size="20.0" fill="#3F3F3F" transform="matrix(1.00, 0.00, -0.00, -1.00, 109.5, 5.6)">–</text><text xml:space="preserve" font-family="ArialMT,Arial" font-size="20.0" fill="#3F3F3F" transform="matrix(1.00, 0.00, -0.00, -1.00, 120.7, 5.6)"> </text><text xml:space="preserve" font-family="ArialMT,Arial" font-size="20.0" fill="#3F3F3F" transform="matrix(1.00, 0.00, -0.00, -1.00, 126.2, 5.6)">t</text><text xml:space="preserve" font-family="ArialMT,Arial" font-size="20.0" fill="#3F3F3F" transform="matrix(1.00, 0.00, -0.00, -1.00, 131.8, 5.6)">e</text><text xml:space="preserve" font-family="ArialMT,Arial" font-size="20.0" fill="#3F3F3F" transform="matrix(1.00, 0.00, -0.00, -1.00, 142.9, 5.6)">l</text><text xml:space="preserve" font-family="ArialMT,Arial" font-size="20.0" fill="#3F3F3F" transform="matrix(1.00, 0.00, -0.00, -1.00, 147.3, 5.6)">l</text><text xml:space="preserve" font-family="ArialMT,Arial" font-size="20.0" fill="#3F3F3F" transform="matrix(1.00, 0.00, -0.00, -1.00, 151.8, 5.6)">s</text><text xml:space="preserve" font-family="ArialMT,Arial" font-size="20.0" fill="#3F3F3F" transform="matrix(1.00, 0.00, -0.00, -1.00, 161.8, 5.6)"> </text><text xml:space="preserve" font-family="ArialMT,Arial" font-size="20.0" fill="#3F3F3F" transform="matrix(1.00, 0.00, -0.00, -1.00, 167.3, 5.6)">s</text><text xml:space="preserve" font-family="ArialMT,Arial" font-size="20.0" fill="#3F3F3F" transform="matrix(1.00, 0.00, -0.00, -1.00, 177.3, 5.6)">o</text><text xml:space="preserve" font-family="ArialMT,Arial" font-size="20.0" fill="#3F3F3F" transform="matrix(1.00, 0.00, -0.00, -1.00, 188.5, 5.6)">m</text><text xml:space="preserve" font-family="ArialMT,Arial" font-size="20.0" fill="#3F3F3F" transform="matrix(1.00, 0.00, -0.00, -1.00, 205.1, 5.6)">e</text><text xml:space="preserve" font-family="ArialMT,Arial" font-size="20.0" fill="#3F3F3F" transform="matrix(1.00, 0.00, -0.00, -1.00, 216.3, 5.6)">o</text><text xml:space="preserve" font-family="ArialMT,Arial" font-size="20.0" fill="#3F3F3F" transform="matrix(1.00, 0.00, -0.00, -1.00, 227.4, 5.6)">n</text><text xml:space="preserve" font-family="ArialMT,Arial" font-size="20.0" fill="#3F3F3F" transform="matrix(1.00, 0.00, -0.00, -1.00, 238.5, 5.6)">e</text><text xml:space="preserve" font-family="ArialMT,Arial" font-size="20.0" fill="#3F3F3F" transform="matrix(1.00, 0.00, -0.00, -1.00, 249.6, 5.6)"> </text><text xml:space="preserve" font-family="ArialMT,Arial" font-size="20.0" fill="#3F3F3F" transform="matrix(1.00, 0.00, -0.00, -1.00, 255.2, 5.6)">e</text><text xml:space="preserve" font-family="ArialMT,Arial" font-size="20.0" fill="#3F3F3F" transform="matrix(1.00, 0.00, -0.00, -1.00, 266.3, 5.6)">l</text><text xml:space="preserve" font-family="ArialMT,Arial" font-size="20.0" fill="#3F3F3F" transform="matrix(1.00, 0.00, -0.00, -1.00, 270.8, 5.6)">s</text><text xml:space="preserve" font-family="ArialMT,Arial" font-size="20.0" fill="#3F3F3F" transform="matrix(1.00, 0.00, -0.00, -1.00, 280.8, 5.6)">e</text><text xml:space="preserve" font-family="ArialMT,Arial" font-size="20.0" fill="#3F3F3F" transform="matrix(1.00, 0.00, -0.00, -1.00, 291.9, 5.6)">’</text><text xml:space="preserve" font-family="ArialMT,Arial" font-size="20.0" fill="#3F3F3F" transform="matrix(1.00, 0.00, -0.00, -1.00, 296.0, 5.6)">s</text><text xml:space="preserve" font-family="ArialMT,Arial" font-size="20.0" fill="#3F3F3F" transform="matrix(1.00, 0.00, -0.00, -1.00, 306.0, 5.6)"> </text><text xml:space="preserve" font-family="ArialMT,Arial" font-size="20.0" fill="#3F3F3F" transform="matrix(1.00, 0.00, -0.00, -1.00, 311.5, 5.6)">s</text><text xml:space="preserve" font-family="ArialMT,Arial" font-size="20.0" fill="#3F3F3F" transform="matrix(1.00, 0.00, -0.00, -1.00, 321.5, 5.6)">t</text><text xml:space="preserve" font-family="ArialMT,Arial" font-size="20.0" fill="#3F3F3F" transform="matrix(1.00, 0.00, -0.00, -1.00, 327.1, 5.6)">o</text><text xml:space="preserve" font-family="ArialMT,Arial" font-size="20.0" fill="#3F3F3F" transform="matrix(1.00, 0.00, -0.00, -1.00, 338.2, 5.6)">r</text><text xml:space="preserve" font-family="ArialMT,Arial" font-size="20.0" fill="#3F3F3F" transform="matrix(1.00, 0.00, -0.00, -1.00, 344.9, 5.6)">y</text></g></svg>