<?xml version="1.0" encoding="UTF-8" standalone="no"?><svg xmlns="http://www.w3.org/2000/svg" xmlns:xlink="http://www.w3.org/1999/xlink" clip-rule="evenodd" stroke-miterlimit="10" viewBox="0 0 720 540"><desc>SVG generated by Keynote</desc><defs></defs><g transform="matrix(1.00, 0.00, -0.00, -1.00, 0.0, 540.0)"><path d="M 0.0 540.0 L 720.0 540.0 L 720.0 0.0 L 0.0 0.0 Z M 0.0 540.0 " fill="#FFFFFF"></path><path d="M 0.0 0.0 L 0.0 99.0 L 160.9 99.0 L 281.2 0.0 L 0.0 0.0 Z M 0.0 -0.0 " fill="#EEE0A1"></path><path d="M -0.2 0.0 L 160.5 99.0 L 720.0 99.0 L 720.0 0.0 L -0.2 0.0 Z M -0.2 -0.0 " fill="#FA8716" fill-opacity="0.80"></path><image xlink:href="../../09646821-89C8-4F4F-AB0E-00FBC78388C2/assets/1840936151EB6BDB9CD96EA4FA000CE2.png" width="471.00" height="35.00" transform="matrix(1.00, 0.00, -0.00, -1.00, 33.0, 505.0)"></image><text xml:space="preserve" font-family="Arial-BoldMT,Arial" font-weight="bold" font-size="32.0" fill="#FAC01E" transform="matrix(1.00, 0.00, -0.00, -1.00, 34.6, 478.7)">S</text><text xml:space="preserve" font-family="Arial-BoldMT,Arial" font-weight="bold" font-size="32.0" fill="#FAC01E" transform="matrix(1.00, 0.00, -0.00, -1.00, 55.9, 478.7)">T</text><text xml:space="preserve" font-family="Arial-BoldMT,Arial" font-weight="bold" font-size="32.0" fill="#FAC01E" transform="matrix(1.00, 0.00, -0.00, -1.00, 74.9, 478.7)">O</text><text xml:space="preserve" font-family="Arial-BoldMT,Arial" font-weight="bold" font-size="32.0" fill="#FAC01E" transform="matrix(1.00, 0.00, -0.00, -1.00, 99.8, 478.7)">R</text><text xml:space="preserve" font-family="Arial-BoldMT,Arial" font-weight="bold" font-size="32.0" fill="#FAC01E" transform="matrix(1.00, 0.00, -0.00, -1.00, 121.7, 478.7)">Y</text><text xml:space="preserve" font-family="Arial-BoldMT,Arial" font-weight="bold" font-size="32.0" fill="#FAC01E" transform="matrix(1.00, 0.00, -0.00, -1.00, 143.1, 478.7)">T</text><text xml:space="preserve" font-family="Arial-BoldMT,Arial" font-weight="bold" font-size="32.0" fill="#FAC01E" transform="matrix(1.00, 0.00, -0.00, -1.00, 162.6, 478.7)">E</text><text xml:space="preserve" font-family="Arial-BoldMT,Arial" font-weight="bold" font-size="32.0" fill="#FAC01E" transform="matrix(1.00, 0.00, -0.00, -1.00, 183.9, 478.7)">L</text><text xml:space="preserve" font-family="Arial-BoldMT,Arial" font-weight="bold" font-size="32.0" fill="#FAC01E" transform="matrix(1.00, 0.00, -0.00, -1.00, 203.5, 478.7)">L</text><text xml:space="preserve" font-family="Arial-BoldMT,Arial" font-weight="bold" font-size="32.0" fill="#FAC01E" transform="matrix(1.00, 0.00, -0.00, -1.00, 223.0, 478.7)">I</text><text xml:space="preserve" font-family="Arial-BoldMT,Arial" font-weight="bold" font-size="32.0" fill="#FAC01E" transform="matrix(1.00, 0.00, -0.00, -1.00, 231.9, 478.7)">N</text><text xml:space="preserve" font-family="Arial-BoldMT,Arial" font-weight="bold" font-size="32.0" fill="#FAC01E" transform="matrix(1.00, 0.00, -0.00, -1.00, 255.0, 478.7)">G</text><text xml:space="preserve" font-family="Arial-BoldMT,Arial" font-weight="bold" font-size="32.0" fill="#FAC01E" transform="matrix(1.00, 0.00, -0.00, -1.00, 279.9, 478.7)"> </text><text xml:space="preserve" font-family="Arial-BoldMT,Arial" font-weight="bold" font-size="32.0" fill="#FAC01E" transform="matrix(1.00, 0.00, -0.00, -1.00, 288.8, 478.7)">T</text><text xml:space="preserve" font-family="Arial-BoldMT,Arial" font-weight="bold" font-size="32.0" fill="#FAC01E" transform="matrix(1.00, 0.00, -0.00, -1.00, 308.3, 478.7)">E</text><text xml:space="preserve" font-family="Arial-BoldMT,Arial" font-weight="bold" font-size="32.0" fill="#FAC01E" transform="matrix(1.00, 0.00, -0.00, -1.00, 329.7, 478.7)">C</text><text xml:space="preserve" font-family="Arial-BoldMT,Arial" font-weight="bold" font-size="32.0" fill="#FAC01E" transform="matrix(1.00, 0.00, -0.00, -1.00, 352.8, 478.7)">H</text><text xml:space="preserve" font-family="Arial-BoldMT,Arial" font-weight="bold" font-size="32.0" fill="#FAC01E" transform="matrix(1.00, 0.00, -0.00, -1.00, 375.9, 478.7)">N</text><text xml:space="preserve" font-family="Arial-BoldMT,Arial" font-weight="bold" font-size="32.0" fill="#FAC01E" transform="matrix(1.00, 0.00, -0.00, -1.00, 399.0, 478.7)">I</text><text xml:space="preserve" font-family="Arial-BoldMT,Arial" font-weight="bold" font-size="32.0" fill="#FAC01E" transform="matrix(1.00, 0.00, -0.00, -1.00, 407.9, 478.7)">Q</text><text xml:space="preserve" font-family="Arial-BoldMT,Arial" font-weight="bold" font-size="32.0" fill="#FAC01E" transform="matrix(1.00, 0.00, -0.00, -1.00, 432.8, 478.7)">U</text><text xml:space="preserve" font-family="Arial-BoldMT,Arial" font-weight="bold" font-size="32.0" fill="#FAC01E" transform="matrix(1.00, 0.00, -0.00, -1.00, 455.9, 478.7)">E</text><text xml:space="preserve" font-family="Arial-BoldMT,Arial" font-weight="bold" font-size="32.0" fill="#FAC01E" transform="matrix(1.00, 0.00, -0.00, -1.00, 477.3, 478.7)">S</text><text xml:space="preserve" font-family="Arial-BoldMT,Arial" font-weight="bold" font-size="24.0" fill="#3F3F3F" transform="matrix(1.00, 0.00, -0.00, -1.00, 34.6, 427.6)">P</text><text xml:space="preserve" font-family="Arial-BoldMT,Arial" font-weight="bold" font-size="24.0" fill="#3F3F3F" transform="matrix(1.00, 0.00, -0.00, -1.00, 50.6, 427.6)">o</text><text xml:space="preserve" font-family="Arial-BoldMT,Arial" font-weight="bold" font-size="24.0" fill="#3F3F3F" transform="matrix(1.00, 0.00, -0.00, -1.00, 65.3, 427.6)">i</text><text xml:space="preserve" font-family="Arial-BoldMT,Arial" font-weight="bold" font-size="24.0" fill="#3F3F3F" transform="matrix(1.00, 0.00, -0.00, -1.00, 71.9, 427.6)">n</text><text xml:space="preserve" font-family="Arial-BoldMT,Arial" font-weight="bold" font-size="24.0" fill="#3F3F3F" transform="matrix(1.00, 0.00, -0.00, -1.00, 86.6, 427.6)">t</text><text xml:space="preserve" font-family="Arial-BoldMT,Arial" font-weight="bold" font-size="24.0" fill="#3F3F3F" transform="matrix(1.00, 0.00, -0.00, -1.00, 94.6, 427.6)"> </text><text xml:space="preserve" font-family="Arial-BoldMT,Arial" font-weight="bold" font-size="24.0" fill="#3F3F3F" transform="matrix(1.00, 0.00, -0.00, -1.00, 101.2, 427.6)">o</text><text xml:space="preserve" font-family="Arial-BoldMT,Arial" font-weight="bold" font-size="24.0" fill="#3F3F3F" transform="matrix(1.00, 0.00, -0.00, -1.00, 115.9, 427.6)">f</text><text xml:space="preserve" font-family="Arial-BoldMT,Arial" font-weight="bold" font-size="24.0" fill="#3F3F3F" transform="matrix(1.00, 0.00, -0.00, -1.00, 123.9, 427.6)"> </text><text xml:space="preserve" font-family="Arial-BoldMT,Arial" font-weight="bold" font-size="24.0" fill="#3F3F3F" transform="matrix(1.00, 0.00, -0.00, -1.00, 130.5, 427.6)">V</text><text xml:space="preserve" font-family="Arial-BoldMT,Arial" font-weight="bold" font-size="24.0" fill="#3F3F3F" transform="matrix(1.00, 0.00, -0.00, -1.00, 146.1, 427.6)">i</text><text xml:space="preserve" font-family="Arial-BoldMT,Arial" font-weight="bold" font-size="24.0" fill="#3F3F3F" transform="matrix(1.00, 0.00, -0.00, -1.00, 152.8, 427.6)">e</text><text xml:space="preserve" font-family="Arial-BoldMT,Arial" font-weight="bold" font-size="24.0" fill="#3F3F3F" transform="matrix(1.00, 0.00, -0.00, -1.00, 166.1, 427.6)">w</text><text xml:space="preserve" font-family="Arial-BoldMT,Arial" font-weight="bold" font-size="24.0" fill="#3F3F3F" transform="matrix(1.00, 0.00, -0.00, -1.00, 184.8, 427.6)"> </text><text xml:space="preserve" font-family="ArialMT,Arial" font-size="24.0" fill="#3F3F3F" transform="matrix(1.00, 0.00, -0.00, -1.00, 191.5, 427.6)">–</text><text xml:space="preserve" font-family="ArialMT,Arial" font-size="24.0" fill="#3F3F3F" transform="matrix(1.00, 0.00, -0.00, -1.00, 204.9, 427.6)"> </text><text xml:space="preserve" font-family="ArialMT,Arial" font-size="24.0" fill="#3F3F3F" transform="matrix(1.00, 0.00, -0.00, -1.00, 211.5, 427.6)">n</text><text xml:space="preserve" font-family="ArialMT,Arial" font-size="24.0" fill="#3F3F3F" transform="matrix(1.00, 0.00, -0.00, -1.00, 224.9, 427.6)">a</text><text xml:space="preserve" font-family="ArialMT,Arial" font-size="24.0" fill="#3F3F3F" transform="matrix(1.00, 0.00, -0.00, -1.00, 238.2, 427.6)">r</text><text xml:space="preserve" font-family="ArialMT,Arial" font-size="24.0" fill="#3F3F3F" transform="matrix(1.00, 0.00, -0.00, -1.00, 246.2, 427.6)">r</text><text xml:space="preserve" font-family="ArialMT,Arial" font-size="24.0" fill="#3F3F3F" transform="matrix(1.00, 0.00, -0.00, -1.00, 254.2, 427.6)">a</text><text xml:space="preserve" font-family="ArialMT,Arial" font-size="24.0" fill="#3F3F3F" transform="matrix(1.00, 0.00, -0.00, -1.00, 267.6, 427.6)">t</text><text xml:space="preserve" font-family="ArialMT,Arial" font-size="24.0" fill="#3F3F3F" transform="matrix(1.00, 0.00, -0.00, -1.00, 274.2, 427.6)">i</text><text xml:space="preserve" font-family="ArialMT,Arial" font-size="24.0" fill="#3F3F3F" transform="matrix(1.00, 0.00, -0.00, -1.00, 279.6, 427.6)">o</text><text xml:space="preserve" font-family="ArialMT,Arial" font-size="24.0" fill="#3F3F3F" transform="matrix(1.00, 0.00, -0.00, -1.00, 292.9, 427.6)">n</text><text xml:space="preserve" font-family="FranklinGothic-Book,Franklin Gothic Book" font-size="16.0" fill="#000000" transform="matrix(1.00, 0.00, -0.00, -1.00, 306.2, 427.6)"> </text><text xml:space="preserve" font-family="LucidaGrande,Lucida Grande" font-size="20.0" fill="#EEE0A1" transform="matrix(1.00, 0.00, -0.00, -1.00, 34.6, 400.3)">▪</text><text xml:space="preserve" font-family="ArialMT,Arial" font-size="20.0" fill="#3F3F3F" transform="matrix(1.00, 0.00, -0.00, -1.00, 48.3, 400.6)">1</text><text xml:space="preserve" font-family="ArialMT,Arial" font-size="13.3" fill="#3F3F3F" transform="matrix(1.00, 0.00, -0.00, -1.00, 59.4, 406.3)">s</text><text xml:space="preserve" font-family="ArialMT,Arial" font-size="13.3" fill="#3F3F3F" transform="matrix(1.00, 0.00, -0.00, -1.00, 66.1, 406.3)">t</text><text xml:space="preserve" font-family="ArialMT,Arial" font-size="20.0" fill="#3F3F3F" transform="matrix(1.00, 0.00, -0.00, -1.00, 69.8, 400.6)"> </text><text xml:space="preserve" font-family="ArialMT,Arial" font-size="20.0" fill="#3F3F3F" transform="matrix(1.00, 0.00, -0.00, -1.00, 75.3, 400.6)">p</text><text xml:space="preserve" font-family="ArialMT,Arial" font-size="20.0" fill="#3F3F3F" transform="matrix(1.00, 0.00, -0.00, -1.00, 86.5, 400.6)">e</text><text xml:space="preserve" font-family="ArialMT,Arial" font-size="20.0" fill="#3F3F3F" transform="matrix(1.00, 0.00, -0.00, -1.00, 97.6, 400.6)">r</text><text xml:space="preserve" font-family="ArialMT,Arial" font-size="20.0" fill="#3F3F3F" transform="matrix(1.00, 0.00, -0.00, -1.00, 104.2, 400.6)">s</text><text xml:space="preserve" font-family="ArialMT,Arial" font-size="20.0" fill="#3F3F3F" transform="matrix(1.00, 0.00, -0.00, -1.00, 114.2, 400.6)">o</text><text xml:space="preserve" font-family="ArialMT,Arial" font-size="20.0" fill="#3F3F3F" transform="matrix(1.00, 0.00, -0.00, -1.00, 125.4, 400.6)">n</text><text xml:space="preserve" font-family="ArialMT,Arial" font-size="20.0" fill="#3F3F3F" transform="matrix(1.00, 0.00, -0.00, -1.00, 136.5, 400.6)"> </text><text xml:space="preserve" font-family="ArialMT,Arial" font-size="20.0" fill="#3F3F3F" transform="matrix(1.00, 0.00, -0.00, -1.00, 142.0, 400.6)">–</text><text xml:space="preserve" font-family="ArialMT,Arial" font-size="20.0" fill="#3F3F3F" transform="matrix(1.00, 0.00, -0.00, -1.00, 153.2, 400.6)"> </text><text xml:space="preserve" font-family="ArialMT,Arial" font-size="20.0" fill="#3F3F3F" transform="matrix(1.00, 0.00, -0.00, -1.00, 158.7, 400.6)">t</text><text xml:space="preserve" font-family="ArialMT,Arial" font-size="20.0" fill="#3F3F3F" transform="matrix(1.00, 0.00, -0.00, -1.00, 164.3, 400.6)">e</text><text xml:space="preserve" font-family="ArialMT,Arial" font-size="20.0" fill="#3F3F3F" transform="matrix(1.00, 0.00, -0.00, -1.00, 175.4, 400.6)">l</text><text xml:space="preserve" font-family="ArialMT,Arial" font-size="20.0" fill="#3F3F3F" transform="matrix(1.00, 0.00, -0.00, -1.00, 179.9, 400.6)">l</text><text xml:space="preserve" font-family="ArialMT,Arial" font-size="20.0" fill="#3F3F3F" transform="matrix(1.00, 0.00, -0.00, -1.00, 184.3, 400.6)">s</text><text xml:space="preserve" font-family="ArialMT,Arial" font-size="20.0" fill="#3F3F3F" transform="matrix(1.00, 0.00, -0.00, -1.00, 194.3, 400.6)"> </text><text xml:space="preserve" font-family="ArialMT,Arial" font-size="20.0" fill="#3F3F3F" transform="matrix(1.00, 0.00, -0.00, -1.00, 199.9, 400.6)">t</text><text xml:space="preserve" font-family="ArialMT,Arial" font-size="20.0" fill="#3F3F3F" transform="matrix(1.00, 0.00, -0.00, -1.00, 205.4, 400.6)">h</text><text xml:space="preserve" font-family="ArialMT,Arial" font-size="20.0" fill="#3F3F3F" transform="matrix(1.00, 0.00, -0.00, -1.00, 216.5, 400.6)">e</text><text xml:space="preserve" font-family="ArialMT,Arial" font-size="20.0" fill="#3F3F3F" transform="matrix(1.00, 0.00, -0.00, -1.00, 227.7, 400.6)">i</text><text xml:space="preserve" font-family="ArialMT,Arial" font-size="20.0" fill="#3F3F3F" transform="matrix(1.00, 0.00, -0.00, -1.00, 232.1, 400.6)">r</text><text xml:space="preserve" font-family="ArialMT,Arial" font-size="20.0" fill="#3F3F3F" transform="matrix(1.00, 0.00, -0.00, -1.00, 238.8, 400.6)"> </text><text xml:space="preserve" font-family="ArialMT,Arial" font-size="20.0" fill="#3F3F3F" transform="matrix(1.00, 0.00, -0.00, -1.00, 244.3, 400.6)">s</text><text xml:space="preserve" font-family="ArialMT,Arial" font-size="20.0" fill="#3F3F3F" transform="matrix(1.00, 0.00, -0.00, -1.00, 254.3, 400.6)">t</text><text xml:space="preserve" font-family="ArialMT,Arial" font-size="20.0" fill="#3F3F3F" transform="matrix(1.00, 0.00, -0.00, -1.00, 259.9, 400.6)">o</text><text xml:space="preserve" font-family="ArialMT,Arial" font-size="20.0" fill="#3F3F3F" transform="matrix(1.00, 0.00, -0.00, -1.00, 271.0, 400.6)">r</text><text xml:space="preserve" font-family="ArialMT,Arial" font-size="20.0" fill="#3F3F3F" transform="matrix(1.00, 0.00, -0.00, -1.00, 277.7, 400.6)">y</text><text xml:space="preserve" font-family="FranklinGothic-Book,Franklin Gothic Book" font-size="16.0" fill="#000000" transform="matrix(1.00, 0.00, -0.00, -1.00, 287.6, 400.6)"> </text><text xml:space="preserve" font-family="LucidaGrande,Lucida Grande" font-size="20.0" fill="#EEE0A1" transform="matrix(1.00, 0.00, -0.00, -1.00, 34.6, 374.3)">▪</text><text xml:space="preserve" font-family="ArialMT,Arial" font-size="20.0" fill="#3F3F3F" transform="matrix(1.00, 0.00, -0.00, -1.00, 48.3, 374.6)">3</text><text xml:space="preserve" font-family="ArialMT,Arial" font-size="13.3" fill="#3F3F3F" transform="matrix(1.00, 0.00, -0.00, -1.00, 59.4, 380.3)">r</text><text xml:space="preserve" font-family="ArialMT,Arial" font-size="13.3" fill="#3F3F3F" transform="matrix(1.00, 0.00, -0.00, -1.00, 63.8, 380.3)">d</text><text xml:space="preserve" font-family="ArialMT,Arial" font-size="20.0" fill="#3F3F3F" transform="matrix(1.00, 0.00, -0.00, -1.00, 71.3, 374.6)"> </text><text xml:space="preserve" font-family="ArialMT,Arial" font-size="20.0" fill="#3F3F3F" transform="matrix(1.00, 0.00, -0.00, -1.00, 76.8, 374.6)">p</text><text xml:space="preserve" font-family="ArialMT,Arial" font-size="20.0" fill="#3F3F3F" transform="matrix(1.00, 0.00, -0.00, -1.00, 87.9, 374.6)">e</text><text xml:space="preserve" font-family="ArialMT,Arial" font-size="20.0" fill="#3F3F3F" transform="matrix(1.00, 0.00, -0.00, -1.00, 99.1, 374.6)">r</text><text xml:space="preserve" font-family="ArialMT,Arial" font-size="20.0" fill="#3F3F3F" transform="matrix(1.00, 0.00, -0.00, -1.00, 105.7, 374.6)">s</text><text xml:space="preserve" font-family="ArialMT,Arial" font-size="20.0" fill="#3F3F3F" transform="matrix(1.00, 0.00, -0.00, -1.00, 115.7, 374.6)">o</text><text xml:space="preserve" font-family="ArialMT,Arial" font-size="20.0" fill="#3F3F3F" transform="matrix(1.00, 0.00, -0.00, -1.00, 126.9, 374.6)">n</text><text xml:space="preserve" font-family="ArialMT,Arial" font-size="20.0" fill="#3F3F3F" transform="matrix(1.00, 0.00, -0.00, -1.00, 138.0, 374.6)"> </text><text xml:space="preserve" font-family="ArialMT,Arial" font-size="20.0" fill="#3F3F3F" transform="matrix(1.00, 0.00, -0.00, -1.00, 143.5, 374.6)">–</text><text xml:space="preserve" font-family="ArialMT,Arial" font-size="20.0" fill="#3F3F3F" transform="matrix(1.00, 0.00, -0.00, -1.00, 154.7, 374.6)"> </text><text xml:space="preserve" font-family="ArialMT,Arial" font-size="20.0" fill="#3F3F3F" transform="matrix(1.00, 0.00, -0.00, -1.00, 160.2, 374.6)">t</text><text xml:space="preserve" font-family="ArialMT,Arial" font-size="20.0" fill="#3F3F3F" transform="matrix(1.00, 0.00, -0.00, -1.00, 165.8, 374.6)">e</text><text xml:space="preserve" font-family="ArialMT,Arial" font-size="20.0" fill="#3F3F3F" transform="matrix(1.00, 0.00, -0.00, -1.00, 176.9, 374.6)">l</text><text xml:space="preserve" font-family="ArialMT,Arial" font-size="20.0" fill="#3F3F3F" transform="matrix(1.00, 0.00, -0.00, -1.00, 181.3, 374.6)">l</text><text xml:space="preserve" font-family="ArialMT,Arial" font-size="20.0" fill="#3F3F3F" transform="matrix(1.00, 0.00, -0.00, -1.00, 185.8, 374.6)">s</text><text xml:space="preserve" font-family="ArialMT,Arial" font-size="20.0" fill="#3F3F3F" transform="matrix(1.00, 0.00, -0.00, -1.00, 195.8, 374.6)"> </text><text xml:space="preserve" font-family="ArialMT,Arial" font-size="20.0" fill="#3F3F3F" transform="matrix(1.00, 0.00, -0.00, -1.00, 201.3, 374.6)">s</text><text xml:space="preserve" font-family="ArialMT,Arial" font-size="20.0" fill="#3F3F3F" transform="matrix(1.00, 0.00, -0.00, -1.00, 211.3, 374.6)">o</text><text xml:space="preserve" font-family="ArialMT,Arial" font-size="20.0" fill="#3F3F3F" transform="matrix(1.00, 0.00, -0.00, -1.00, 222.5, 374.6)">m</text><text xml:space="preserve" font-family="ArialMT,Arial" font-size="20.0" fill="#3F3F3F" transform="matrix(1.00, 0.00, -0.00, -1.00, 239.1, 374.6)">e</text><text xml:space="preserve" font-family="ArialMT,Arial" font-size="20.0" fill="#3F3F3F" transform="matrix(1.00, 0.00, -0.00, -1.00, 250.3, 374.6)">o</text><text xml:space="preserve" font-family="ArialMT,Arial" font-size="20.0" fill="#3F3F3F" transform="matrix(1.00, 0.00, -0.00, -1.00, 261.4, 374.6)">n</text><text xml:space="preserve" font-family="ArialMT,Arial" font-size="20.0" fill="#3F3F3F" transform="matrix(1.00, 0.00, -0.00, -1.00, 272.5, 374.6)">e</text><text xml:space="preserve" font-family="ArialMT,Arial" font-size="20.0" fill="#3F3F3F" transform="matrix(1.00, 0.00, -0.00, -1.00, 283.6, 374.6)"> </text><text xml:space="preserve" font-family="ArialMT,Arial" font-size="20.0" fill="#3F3F3F" transform="matrix(1.00, 0.00, -0.00, -1.00, 289.2, 374.6)">e</text><text xml:space="preserve" font-family="ArialMT,Arial" font-size="20.0" fill="#3F3F3F" transform="matrix(1.00, 0.00, -0.00, -1.00, 300.3, 374.6)">l</text><text xml:space="preserve" font-family="ArialMT,Arial" font-size="20.0" fill="#3F3F3F" transform="matrix(1.00, 0.00, -0.00, -1.00, 304.8, 374.6)">s</text><text xml:space="preserve" font-family="ArialMT,Arial" font-size="20.0" fill="#3F3F3F" transform="matrix(1.00, 0.00, -0.00, -1.00, 314.8, 374.6)">e</text><text xml:space="preserve" font-family="ArialMT,Arial" font-size="20.0" fill="#3F3F3F" transform="matrix(1.00, 0.00, -0.00, -1.00, 325.9, 374.6)">’</text><text xml:space="preserve" font-family="ArialMT,Arial" font-size="20.0" fill="#3F3F3F" transform="matrix(1.00, 0.00, -0.00, -1.00, 330.0, 374.6)">s</text><text xml:space="preserve" font-family="ArialMT,Arial" font-size="20.0" fill="#3F3F3F" transform="matrix(1.00, 0.00, -0.00, -1.00, 340.0, 374.6)"> </text><text xml:space="preserve" font-family="ArialMT,Arial" font-size="20.0" fill="#3F3F3F" transform="matrix(1.00, 0.00, -0.00, -1.00, 345.5, 374.6)">s</text><text xml:space="preserve" font-family="ArialMT,Arial" font-size="20.0" fill="#3F3F3F" transform="matrix(1.00, 0.00, -0.00, -1.00, 355.5, 374.6)">t</text><text xml:space="preserve" font-family="ArialMT,Arial" font-size="20.0" fill="#3F3F3F" transform="matrix(1.00, 0.00, -0.00, -1.00, 361.1, 374.6)">o</text><text xml:space="preserve" font-family="ArialMT,Arial" font-size="20.0" fill="#3F3F3F" transform="matrix(1.00, 0.00, -0.00, -1.00, 372.2, 374.6)">r</text><text xml:space="preserve" font-family="ArialMT,Arial" font-size="20.0" fill="#3F3F3F" transform="matrix(1.00, 0.00, -0.00, -1.00, 378.9, 374.6)">y</text><image xlink:href="../../09646821-89C8-4F4F-AB0E-00FBC78388C2/assets/0275353C917F07D0DB163794D79EE912.png" width="1920.00" height="1080.00" transform="matrix(0.22, 0.00, -0.00, -0.22, 140.5, 349.0)"></image></g></svg>