<?xml version="1.0" encoding="UTF-8" standalone="no"?><svg xmlns="http://www.w3.org/2000/svg" xmlns:xlink="http://www.w3.org/1999/xlink" clip-rule="evenodd" stroke-miterlimit="10" viewBox="0 0 875 40"><desc>SVG generated by Keynote</desc><defs></defs><g transform="matrix(1.00, 0.00, -0.00, -1.00, 0.0, 40.0)"><text xml:space="preserve" font-family="GillSans-Light,Gill Sans" font-size="40.0" fill="#525252" transform="matrix(1.00, 0.00, -0.00, -1.00, -0.1, 10.8)">-</text><text xml:space="preserve" font-family="GillSans-Light,Gill Sans" font-size="40.0" fill="#525252" transform="matrix(1.00, 0.00, -0.00, -1.00, 12.4, 10.8)">C</text><text xml:space="preserve" font-family="GillSans-Light,Gill Sans" font-size="40.0" fill="#525252" transform="matrix(1.00, 0.00, -0.00, -1.00, 39.5, 10.8)">h</text><text xml:space="preserve" font-family="GillSans-Light,Gill Sans" font-size="40.0" fill="#525252" transform="matrix(1.00, 0.00, -0.00, -1.00, 59.1, 10.8)">a</text><text xml:space="preserve" font-family="GillSans-Light,Gill Sans" font-size="40.0" fill="#525252" transform="matrix(1.00, 0.00, -0.00, -1.00, 76.2, 10.8)">r</text><text xml:space="preserve" font-family="GillSans-Light,Gill Sans" font-size="40.0" fill="#525252" transform="matrix(1.00, 0.00, -0.00, -1.00, 91.1, 10.8)">l</text><text xml:space="preserve" font-family="GillSans-Light,Gill Sans" font-size="40.0" fill="#525252" transform="matrix(1.00, 0.00, -0.00, -1.00, 98.6, 10.8)">e</text><text xml:space="preserve" font-family="GillSans-Light,Gill Sans" font-size="40.0" fill="#525252" transform="matrix(1.00, 0.00, -0.00, -1.00, 117.8, 10.8)">s</text><text xml:space="preserve" font-family="GillSans-Light,Gill Sans" font-size="40.0" fill="#525252" transform="matrix(1.00, 0.00, -0.00, -1.00, 131.9, 10.8)"> </text><text xml:space="preserve" font-family="GillSans-Light,Gill Sans" font-size="40.0" fill="#525252" transform="matrix(1.00, 0.00, -0.00, -1.00, 143.0, 10.8)">C</text><text xml:space="preserve" font-family="GillSans-Light,Gill Sans" font-size="40.0" fill="#525252" transform="matrix(1.00, 0.00, -0.00, -1.00, 170.1, 10.8)">r</text><text xml:space="preserve" font-family="GillSans-Light,Gill Sans" font-size="40.0" fill="#525252" transform="matrix(1.00, 0.00, -0.00, -1.00, 184.4, 10.8)">a</text><text xml:space="preserve" font-family="GillSans-Light,Gill Sans" font-size="40.0" fill="#525252" transform="matrix(1.00, 0.00, -0.00, -1.00, 200.9, 10.8)">w</text><text xml:space="preserve" font-family="GillSans-Light,Gill Sans" font-size="40.0" fill="#525252" transform="matrix(1.00, 0.00, -0.00, -1.00, 229.2, 10.8)">f</text><text xml:space="preserve" font-family="GillSans-Light,Gill Sans" font-size="40.0" fill="#525252" transform="matrix(1.00, 0.00, -0.00, -1.00, 238.4, 10.8)">o</text><text xml:space="preserve" font-family="GillSans-Light,Gill Sans" font-size="40.0" fill="#525252" transform="matrix(1.00, 0.00, -0.00, -1.00, 260.1, 10.8)">r</text><text xml:space="preserve" font-family="GillSans-Light,Gill Sans" font-size="40.0" fill="#525252" transform="matrix(1.00, 0.00, -0.00, -1.00, 273.4, 10.8)">d</text><text xml:space="preserve" font-family="GillSans-Light,Gill Sans" font-size="40.0" fill="#525252" transform="matrix(1.00, 0.00, -0.00, -1.00, 293.8, 10.8)"> </text><text xml:space="preserve" font-family="GillSans-Light,Gill Sans" font-size="40.0" fill="#525252" transform="matrix(1.00, 0.00, -0.00, -1.00, 304.9, 10.8)">G</text><text xml:space="preserve" font-family="GillSans-Light,Gill Sans" font-size="40.0" fill="#525252" transform="matrix(1.00, 0.00, -0.00, -1.00, 333.7, 10.8)">o</text><text xml:space="preserve" font-family="GillSans-Light,Gill Sans" font-size="40.0" fill="#525252" transform="matrix(1.00, 0.00, -0.00, -1.00, 355.4, 10.8)">r</text><text xml:space="preserve" font-family="GillSans-Light,Gill Sans" font-size="40.0" fill="#525252" transform="matrix(1.00, 0.00, -0.00, -1.00, 370.3, 10.8)">s</text><text xml:space="preserve" font-family="GillSans-Light,Gill Sans" font-size="40.0" fill="#525252" transform="matrix(1.00, 0.00, -0.00, -1.00, 384.4, 10.8)">t</text><text xml:space="preserve" font-family="GillSans-Light,Gill Sans" font-size="40.0" fill="#525252" transform="matrix(1.00, 0.00, -0.00, -1.00, 396.5, 10.8)">,</text><text xml:space="preserve" font-family="GillSans-Light,Gill Sans" font-size="40.0" fill="#525252" transform="matrix(1.00, 0.00, -0.00, -1.00, 400.4, 10.8)"> </text><text xml:space="preserve" font-family="GillSans-Light,Gill Sans" font-size="40.0" fill="#525252" transform="matrix(1.00, 0.00, -0.00, -1.00, 411.5, 10.8)">f</text><text xml:space="preserve" font-family="GillSans-Light,Gill Sans" font-size="40.0" fill="#525252" transform="matrix(1.00, 0.00, -0.00, -1.00, 421.1, 10.8)">r</text><text xml:space="preserve" font-family="GillSans-Light,Gill Sans" font-size="40.0" fill="#525252" transform="matrix(1.00, 0.00, -0.00, -1.00, 434.4, 10.8)">o</text><text xml:space="preserve" font-family="GillSans-Light,Gill Sans" font-size="40.0" fill="#525252" transform="matrix(1.00, 0.00, -0.00, -1.00, 456.1, 10.8)">m</text><text xml:space="preserve" font-family="GillSans-Light,Gill Sans" font-size="40.0" fill="#525252" transform="matrix(1.00, 0.00, -0.00, -1.00, 486.9, 10.8)"> </text><text xml:space="preserve" font-family="GillSans-Light,Gill Sans" font-size="40.0" fill="#525252" transform="matrix(1.00, 0.00, -0.00, -1.00, 494.0, 10.8)">“</text><text xml:space="preserve" font-family="GillSans-Light,Gill Sans" font-size="40.0" fill="#525252" transform="matrix(1.00, 0.00, -0.00, -1.00, 509.9, 10.8)">B</text><text xml:space="preserve" font-family="GillSans-Light,Gill Sans" font-size="40.0" fill="#525252" transform="matrix(1.00, 0.00, -0.00, -1.00, 531.1, 10.8)">i</text><text xml:space="preserve" font-family="GillSans-Light,Gill Sans" font-size="40.0" fill="#525252" transform="matrix(1.00, 0.00, -0.00, -1.00, 538.6, 10.8)">r</text><text xml:space="preserve" font-family="GillSans-Light,Gill Sans" font-size="40.0" fill="#525252" transform="matrix(1.00, 0.00, -0.00, -1.00, 551.9, 10.8)">d</text><text xml:space="preserve" font-family="GillSans-Light,Gill Sans" font-size="40.0" fill="#525252" transform="matrix(1.00, 0.00, -0.00, -1.00, 572.3, 10.8)"> </text><text xml:space="preserve" font-family="GillSans-Light,Gill Sans" font-size="40.0" fill="#525252" transform="matrix(1.00, 0.00, -0.00, -1.00, 583.4, 10.8)">I</text><text xml:space="preserve" font-family="GillSans-Light,Gill Sans" font-size="40.0" fill="#525252" transform="matrix(1.00, 0.00, -0.00, -1.00, 591.7, 10.8)">m</text><text xml:space="preserve" font-family="GillSans-Light,Gill Sans" font-size="40.0" fill="#525252" transform="matrix(1.00, 0.00, -0.00, -1.00, 622.6, 10.8)">i</text><text xml:space="preserve" font-family="GillSans-Light,Gill Sans" font-size="40.0" fill="#525252" transform="matrix(1.00, 0.00, -0.00, -1.00, 630.1, 10.8)">t</text><text xml:space="preserve" font-family="GillSans-Light,Gill Sans" font-size="40.0" fill="#525252" transform="matrix(1.00, 0.00, -0.00, -1.00, 642.2, 10.8)">a</text><text xml:space="preserve" font-family="GillSans-Light,Gill Sans" font-size="40.0" fill="#525252" transform="matrix(1.00, 0.00, -0.00, -1.00, 659.2, 10.8)">t</text><text xml:space="preserve" font-family="GillSans-Light,Gill Sans" font-size="40.0" fill="#525252" transform="matrix(1.00, 0.00, -0.00, -1.00, 671.3, 10.8)">i</text><text xml:space="preserve" font-family="GillSans-Light,Gill Sans" font-size="40.0" fill="#525252" transform="matrix(1.00, 0.00, -0.00, -1.00, 678.8, 10.8)">o</text><text xml:space="preserve" font-family="GillSans-Light,Gill Sans" font-size="40.0" fill="#525252" transform="matrix(1.00, 0.00, -0.00, -1.00, 700.5, 10.8)">n</text><text xml:space="preserve" font-family="GillSans-Light,Gill Sans" font-size="40.0" fill="#525252" transform="matrix(1.00, 0.00, -0.00, -1.00, 720.1, 10.8)">s</text><text xml:space="preserve" font-family="GillSans-Light,Gill Sans" font-size="40.0" fill="#525252" transform="matrix(1.00, 0.00, -0.00, -1.00, 734.3, 10.8)">”</text><text xml:space="preserve" font-family="GillSans-Light,Gill Sans" font-size="40.0" fill="#525252" transform="matrix(1.00, 0.00, -0.00, -1.00, 746.9, 10.8)"> </text><text xml:space="preserve" font-family="GillSans-Light,Gill Sans" font-size="40.0" fill="#525252" transform="matrix(1.00, 0.00, -0.00, -1.00, 758.0, 10.8)"> </text><text xml:space="preserve" font-family="GillSans-Light,Gill Sans" font-size="40.0" fill="#525252" transform="matrix(1.00, 0.00, -0.00, -1.00, 769.1, 10.8)">(</text><text xml:space="preserve" font-family="GillSans-Light,Gill Sans" font-size="40.0" fill="#525252" transform="matrix(1.00, 0.00, -0.00, -1.00, 782.4, 10.8)">1</text><text xml:space="preserve" font-family="GillSans-Light,Gill Sans" font-size="40.0" fill="#525252" transform="matrix(1.00, 0.00, -0.00, -1.00, 802.4, 10.8)">9</text><text xml:space="preserve" font-family="GillSans-Light,Gill Sans" font-size="40.0" fill="#525252" transform="matrix(1.00, 0.00, -0.00, -1.00, 822.4, 10.8)">1</text><text xml:space="preserve" font-family="GillSans-Light,Gill Sans" font-size="40.0" fill="#525252" transform="matrix(1.00, 0.00, -0.00, -1.00, 842.4, 10.8)">5</text><text xml:space="preserve" font-family="GillSans-Light,Gill Sans" font-size="40.0" fill="#525252" transform="matrix(1.00, 0.00, -0.00, -1.00, 862.4, 10.8)">)</text></g></svg>