<?xml version="1.0" encoding="UTF-8" standalone="no"?><svg xmlns="http://www.w3.org/2000/svg" xmlns:xlink="http://www.w3.org/1999/xlink" clip-rule="evenodd" stroke-miterlimit="10" viewBox="0 0 1024 768"><desc>SVG generated by Keynote</desc><defs></defs><g transform="matrix(1.00, 0.00, -0.00, -1.00, 0.0, 768.0)"><g><clipPath id="clip0x7fca760e49d0"><path d="M 0.0 768.0 L 1024.0 768.0 L 1024.0 0.0 L 0.0 0.0 Z M 0.0 768.0 "></path></clipPath><g clip-path="url(#clip0x7fca760e49d0)"><image xlink:href="../../C5C39D88-6DF7-4364-885A-B0C73D57ADEF/assets/E532EB3C3E7D08F7018DF18678F5E36F.jpeg" width="2048.00" height="1536.00" transform="matrix(0.50, 0.00, -0.00, -0.50, 0.0, 768.0)"></image></g></g><text xml:space="preserve" font-family="GillSans-Light,Gill Sans" font-size="72.0" fill="#525252" transform="matrix(1.00, 0.00, -0.00, -1.00, 404.7, 401.2)">P</text><text xml:space="preserve" font-family="GillSans-Light,Gill Sans" font-size="72.0" fill="#525252" transform="matrix(1.00, 0.00, -0.00, -1.00, 434.9, 401.2)">A</text><text xml:space="preserve" font-family="GillSans-Light,Gill Sans" font-size="72.0" fill="#525252" transform="matrix(1.00, 0.00, -0.00, -1.00, 482.9, 401.2)">R</text><text xml:space="preserve" font-family="GillSans-Light,Gill Sans" font-size="72.0" fill="#525252" transform="matrix(1.00, 0.00, -0.00, -1.00, 522.1, 401.2)">T</text><text xml:space="preserve" font-family="GillSans-Light,Gill Sans" font-size="72.0" fill="#525252" transform="matrix(1.00, 0.00, -0.00, -1.00, 563.3, 401.2)"> </text><text xml:space="preserve" font-family="GillSans-Light,Gill Sans" font-size="72.0" fill="#525252" transform="matrix(1.00, 0.00, -0.00, -1.00, 583.3, 401.2)">2</text><text xml:space="preserve" font-family="GillSans-Light,Gill Sans" font-size="72.0" fill="#525252" transform="matrix(1.00, 0.00, -0.00, -1.00, 221.8, 319.2)">M</text><text xml:space="preserve" font-family="GillSans-Light,Gill Sans" font-size="72.0" fill="#525252" transform="matrix(1.00, 0.00, -0.00, -1.00, 278.0, 319.2)">U</text><text xml:space="preserve" font-family="GillSans-Light,Gill Sans" font-size="72.0" fill="#525252" transform="matrix(1.00, 0.00, -0.00, -1.00, 328.2, 319.2)">S</text><text xml:space="preserve" font-family="GillSans-Light,Gill Sans" font-size="72.0" fill="#525252" transform="matrix(1.00, 0.00, -0.00, -1.00, 362.0, 319.2)">I</text><text xml:space="preserve" font-family="GillSans-Light,Gill Sans" font-size="72.0" fill="#525252" transform="matrix(1.00, 0.00, -0.00, -1.00, 377.0, 319.2)">C</text><text xml:space="preserve" font-family="GillSans-Light,Gill Sans" font-size="72.0" fill="#525252" transform="matrix(1.00, 0.00, -0.00, -1.00, 429.0, 319.2)">A</text><text xml:space="preserve" font-family="GillSans-Light,Gill Sans" font-size="72.0" fill="#525252" transform="matrix(1.00, 0.00, -0.00, -1.00, 477.0, 319.2)">L</text><text xml:space="preserve" font-family="GillSans-Light,Gill Sans" font-size="72.0" fill="#525252" transform="matrix(1.00, 0.00, -0.00, -1.00, 510.8, 319.2)"> </text><text xml:space="preserve" font-family="GillSans-Light,Gill Sans" font-size="72.0" fill="#525252" transform="matrix(1.00, 0.00, -0.00, -1.00, 530.8, 319.2)">M</text><text xml:space="preserve" font-family="GillSans-Light,Gill Sans" font-size="72.0" fill="#525252" transform="matrix(1.00, 0.00, -0.00, -1.00, 587.0, 319.2)">I</text><text xml:space="preserve" font-family="GillSans-Light,Gill Sans" font-size="72.0" fill="#525252" transform="matrix(1.00, 0.00, -0.00, -1.00, 601.9, 319.2)">M</text><text xml:space="preserve" font-family="GillSans-Light,Gill Sans" font-size="72.0" fill="#525252" transform="matrix(1.00, 0.00, -0.00, -1.00, 658.1, 319.2)">I</text><text xml:space="preserve" font-family="GillSans-Light,Gill Sans" font-size="72.0" fill="#525252" transform="matrix(1.00, 0.00, -0.00, -1.00, 673.1, 319.2)">C</text><text xml:space="preserve" font-family="GillSans-Light,Gill Sans" font-size="72.0" fill="#525252" transform="matrix(1.00, 0.00, -0.00, -1.00, 721.8, 319.2)">R</text><text xml:space="preserve" font-family="GillSans-Light,Gill Sans" font-size="72.0" fill="#525252" transform="matrix(1.00, 0.00, -0.00, -1.00, 760.2, 319.2)">Y</text></g></svg>