<?xml version="1.0" encoding="UTF-8" standalone="no"?><svg xmlns="http://www.w3.org/2000/svg" xmlns:xlink="http://www.w3.org/1999/xlink" clip-rule="evenodd" stroke-miterlimit="10" viewBox="0 0 579 36"><desc>SVG generated by Keynote</desc><defs></defs><g transform="matrix(1.00, 0.00, -0.00, -1.00, 0.0, 36.0)"><image xlink:href="../../C6B06C07-462C-4216-BAE4-3373D23A0854/assets/DF4E34F21E454EA2967F16C4344F405A.png" width="373.00" height="33.00" transform="matrix(1.00, 0.00, -0.00, -1.00, 1.0, 35.0)"></image><text xml:space="preserve" font-family="Arial-BoldMT,Arial" font-weight="bold" font-size="32.0" fill="#FAC01E" transform="matrix(1.00, 0.00, -0.00, -1.00, 1.6, 8.7)">P</text><text xml:space="preserve" font-family="Arial-BoldMT,Arial" font-weight="bold" font-size="32.0" fill="#FAC01E" transform="matrix(1.00, 0.00, -0.00, -1.00, 22.9, 8.7)">R</text><text xml:space="preserve" font-family="Arial-BoldMT,Arial" font-weight="bold" font-size="32.0" fill="#FAC01E" transform="matrix(1.00, 0.00, -0.00, -1.00, 46.1, 8.7)">E</text><text xml:space="preserve" font-family="Arial-BoldMT,Arial" font-weight="bold" font-size="32.0" fill="#FAC01E" transform="matrix(1.00, 0.00, -0.00, -1.00, 67.4, 8.7)">S</text><text xml:space="preserve" font-family="Arial-BoldMT,Arial" font-weight="bold" font-size="32.0" fill="#FAC01E" transform="matrix(1.00, 0.00, -0.00, -1.00, 88.7, 8.7)">E</text><text xml:space="preserve" font-family="Arial-BoldMT,Arial" font-weight="bold" font-size="32.0" fill="#FAC01E" transform="matrix(1.00, 0.00, -0.00, -1.00, 110.1, 8.7)">N</text><text xml:space="preserve" font-family="Arial-BoldMT,Arial" font-weight="bold" font-size="32.0" fill="#FAC01E" transform="matrix(1.00, 0.00, -0.00, -1.00, 133.2, 8.7)">T</text><text xml:space="preserve" font-family="Arial-BoldMT,Arial" font-weight="bold" font-size="32.0" fill="#FAC01E" transform="matrix(1.00, 0.00, -0.00, -1.00, 150.4, 8.7)">A</text><text xml:space="preserve" font-family="Arial-BoldMT,Arial" font-weight="bold" font-size="32.0" fill="#FAC01E" transform="matrix(1.00, 0.00, -0.00, -1.00, 171.1, 8.7)">T</text><text xml:space="preserve" font-family="Arial-BoldMT,Arial" font-weight="bold" font-size="32.0" fill="#FAC01E" transform="matrix(1.00, 0.00, -0.00, -1.00, 190.7, 8.7)">I</text><text xml:space="preserve" font-family="Arial-BoldMT,Arial" font-weight="bold" font-size="32.0" fill="#FAC01E" transform="matrix(1.00, 0.00, -0.00, -1.00, 199.5, 8.7)">O</text><text xml:space="preserve" font-family="Arial-BoldMT,Arial" font-weight="bold" font-size="32.0" fill="#FAC01E" transform="matrix(1.00, 0.00, -0.00, -1.00, 224.4, 8.7)">N</text><text xml:space="preserve" font-family="Arial-BoldMT,Arial" font-weight="bold" font-size="32.0" fill="#FAC01E" transform="matrix(1.00, 0.00, -0.00, -1.00, 247.5, 8.7)"> </text><text xml:space="preserve" font-family="Arial-BoldMT,Arial" font-weight="bold" font-size="32.0" fill="#FAC01E" transform="matrix(1.00, 0.00, -0.00, -1.00, 256.4, 8.7)">S</text><text xml:space="preserve" font-family="Arial-BoldMT,Arial" font-weight="bold" font-size="32.0" fill="#FAC01E" transform="matrix(1.00, 0.00, -0.00, -1.00, 277.8, 8.7)">T</text><text xml:space="preserve" font-family="Arial-BoldMT,Arial" font-weight="bold" font-size="32.0" fill="#FAC01E" transform="matrix(1.00, 0.00, -0.00, -1.00, 297.3, 8.7)">Y</text><text xml:space="preserve" font-family="Arial-BoldMT,Arial" font-weight="bold" font-size="32.0" fill="#FAC01E" transform="matrix(1.00, 0.00, -0.00, -1.00, 318.6, 8.7)">L</text><text xml:space="preserve" font-family="Arial-BoldMT,Arial" font-weight="bold" font-size="32.0" fill="#FAC01E" transform="matrix(1.00, 0.00, -0.00, -1.00, 338.2, 8.7)">E</text><text xml:space="preserve" font-family="Arial-BoldMT,Arial" font-weight="bold" font-size="32.0" fill="#FAC01E" transform="matrix(1.00, 0.00, -0.00, -1.00, 359.5, 8.7)">:</text><text xml:space="preserve" font-family="Arial-BoldMT,Arial" font-weight="bold" font-size="32.0" fill="#FAC01E" transform="matrix(1.00, 0.00, -0.00, -1.00, 370.2, 8.7)"> </text><image xlink:href="../../4179F5D1-4741-4B3C-AFCE-2425C81783F2/assets/9DF9487D77282BEE89DBCFBE9366DA86.png" width="200.00" height="33.00" transform="matrix(1.00, 0.00, -0.00, -1.00, 377.0, 35.0)"></image><text xml:space="preserve" font-family="Arial-BoldMT,Arial" font-weight="bold" font-size="32.0" fill="#000000" transform="matrix(1.00, 0.00, -0.00, -1.00, 379.1, 8.7)">T</text><text xml:space="preserve" font-family="Arial-BoldMT,Arial" font-weight="bold" font-size="32.0" fill="#000000" transform="matrix(1.00, 0.00, -0.00, -1.00, 396.3, 8.7)">A</text><text xml:space="preserve" font-family="Arial-BoldMT,Arial" font-weight="bold" font-size="32.0" fill="#000000" transform="matrix(1.00, 0.00, -0.00, -1.00, 419.4, 8.7)">L</text><text xml:space="preserve" font-family="Arial-BoldMT,Arial" font-weight="bold" font-size="32.0" fill="#000000" transform="matrix(1.00, 0.00, -0.00, -1.00, 438.9, 8.7)">K</text><text xml:space="preserve" font-family="Arial-BoldMT,Arial" font-weight="bold" font-size="32.0" fill="#000000" transform="matrix(1.00, 0.00, -0.00, -1.00, 462.0, 8.7)"> </text><text xml:space="preserve" font-family="Arial-BoldMT,Arial" font-weight="bold" font-size="32.0" fill="#000000" transform="matrix(1.00, 0.00, -0.00, -1.00, 470.9, 8.7)">S</text><text xml:space="preserve" font-family="Arial-BoldMT,Arial" font-weight="bold" font-size="32.0" fill="#000000" transform="matrix(1.00, 0.00, -0.00, -1.00, 492.3, 8.7)">H</text><text xml:space="preserve" font-family="Arial-BoldMT,Arial" font-weight="bold" font-size="32.0" fill="#000000" transform="matrix(1.00, 0.00, -0.00, -1.00, 515.4, 8.7)">O</text><text xml:space="preserve" font-family="Arial-BoldMT,Arial" font-weight="bold" font-size="32.0" fill="#000000" transform="matrix(1.00, 0.00, -0.00, -1.00, 540.3, 8.7)">W</text></g></svg>