<?xml version="1.0" encoding="UTF-8" standalone="no"?><svg xmlns="http://www.w3.org/2000/svg" xmlns:xlink="http://www.w3.org/1999/xlink" clip-rule="evenodd" stroke-miterlimit="10" viewBox="0 0 413 18"><desc>SVG generated by Keynote</desc><defs></defs><g transform="matrix(1.00, 0.00, -0.00, -1.00, 0.0, 18.0)"><text xml:space="preserve" font-family="FranklinGothic-Book,Franklin Gothic Book" font-size="18.0" fill="#000000" transform="matrix(1.00, 0.00, -0.00, -1.00, 1.1, 4.3)">C</text><text xml:space="preserve" font-family="FranklinGothic-Book,Franklin Gothic Book" font-size="18.0" fill="#000000" transform="matrix(1.00, 0.00, -0.00, -1.00, 11.5, 4.3)">a</text><text xml:space="preserve" font-family="FranklinGothic-Book,Franklin Gothic Book" font-size="18.0" fill="#000000" transform="matrix(1.00, 0.00, -0.00, -1.00, 21.1, 4.3)">r</text><text xml:space="preserve" font-family="FranklinGothic-Book,Franklin Gothic Book" font-size="18.0" fill="#000000" transform="matrix(1.00, 0.00, -0.00, -1.00, 27.0, 4.3)"> </text><text xml:space="preserve" font-family="FranklinGothic-Book,Franklin Gothic Book" font-size="18.0" fill="#000000" transform="matrix(1.00, 0.00, -0.00, -1.00, 31.5, 4.3)">T</text><text xml:space="preserve" font-family="FranklinGothic-Book,Franklin Gothic Book" font-size="18.0" fill="#000000" transform="matrix(1.00, 0.00, -0.00, -1.00, 39.0, 4.3)">a</text><text xml:space="preserve" font-family="FranklinGothic-Book,Franklin Gothic Book" font-size="18.0" fill="#000000" transform="matrix(1.00, 0.00, -0.00, -1.00, 48.6, 4.3)">l</text><text xml:space="preserve" font-family="FranklinGothic-Book,Franklin Gothic Book" font-size="18.0" fill="#000000" transform="matrix(1.00, 0.00, -0.00, -1.00, 52.7, 4.3)">k</text><text xml:space="preserve" font-family="FranklinGothic-Book,Franklin Gothic Book" font-size="18.0" fill="#000000" transform="matrix(1.00, 0.00, -0.00, -1.00, 61.7, 4.3)"> </text><text xml:space="preserve" font-family="FranklinGothic-Book,Franklin Gothic Book" font-size="18.0" fill="#000000" transform="matrix(1.00, 0.00, -0.00, -1.00, 66.2, 4.3)">–</text><text xml:space="preserve" font-family="FranklinGothic-Book,Franklin Gothic Book" font-size="18.0" fill="#000000" transform="matrix(1.00, 0.00, -0.00, -1.00, 76.8, 4.3)"> </text><text xml:space="preserve" font-family="FranklinGothic-Book,Franklin Gothic Book" font-size="18.0" fill="#000000" transform="matrix(1.00, 0.00, -0.00, -1.00, 81.3, 4.3)">C</text><text xml:space="preserve" font-family="FranklinGothic-Book,Franklin Gothic Book" font-size="18.0" fill="#000000" transform="matrix(1.00, 0.00, -0.00, -1.00, 91.7, 4.3)">a</text><text xml:space="preserve" font-family="FranklinGothic-Book,Franklin Gothic Book" font-size="18.0" fill="#000000" transform="matrix(1.00, 0.00, -0.00, -1.00, 101.2, 4.3)">l</text><text xml:space="preserve" font-family="FranklinGothic-Book,Franklin Gothic Book" font-size="18.0" fill="#000000" transform="matrix(1.00, 0.00, -0.00, -1.00, 105.4, 4.3)">l</text><text xml:space="preserve" font-family="FranklinGothic-Book,Franklin Gothic Book" font-size="18.0" fill="#000000" transform="matrix(1.00, 0.00, -0.00, -1.00, 109.5, 4.3)"> </text><text xml:space="preserve" font-family="FranklinGothic-Book,Franklin Gothic Book" font-size="18.0" fill="#000000" transform="matrix(1.00, 0.00, -0.00, -1.00, 114.0, 4.3)">o</text><text xml:space="preserve" font-family="FranklinGothic-Book,Franklin Gothic Book" font-size="18.0" fill="#000000" transform="matrix(1.00, 0.00, -0.00, -1.00, 123.3, 4.3)">f</text><text xml:space="preserve" font-family="FranklinGothic-Book,Franklin Gothic Book" font-size="18.0" fill="#000000" transform="matrix(1.00, 0.00, -0.00, -1.00, 128.7, 4.3)"> </text><text xml:space="preserve" font-family="FranklinGothic-Book,Franklin Gothic Book" font-size="18.0" fill="#000000" transform="matrix(1.00, 0.00, -0.00, -1.00, 133.2, 4.3)">t</text><text xml:space="preserve" font-family="FranklinGothic-Book,Franklin Gothic Book" font-size="18.0" fill="#000000" transform="matrix(1.00, 0.00, -0.00, -1.00, 138.8, 4.3)">h</text><text xml:space="preserve" font-family="FranklinGothic-Book,Franklin Gothic Book" font-size="18.0" fill="#000000" transform="matrix(1.00, 0.00, -0.00, -1.00, 148.5, 4.3)">e</text><text xml:space="preserve" font-family="FranklinGothic-Book,Franklin Gothic Book" font-size="18.0" fill="#000000" transform="matrix(1.00, 0.00, -0.00, -1.00, 157.8, 4.3)"> </text><text xml:space="preserve" font-family="FranklinGothic-Book,Franklin Gothic Book" font-size="18.0" fill="#000000" transform="matrix(1.00, 0.00, -0.00, -1.00, 162.3, 4.3)">W</text><text xml:space="preserve" font-family="FranklinGothic-Book,Franklin Gothic Book" font-size="18.0" fill="#000000" transform="matrix(1.00, 0.00, -0.00, -1.00, 176.6, 4.3)">e</text><text xml:space="preserve" font-family="FranklinGothic-Book,Franklin Gothic Book" font-size="18.0" fill="#000000" transform="matrix(1.00, 0.00, -0.00, -1.00, 186.0, 4.3)">e</text><text xml:space="preserve" font-family="FranklinGothic-Book,Franklin Gothic Book" font-size="18.0" fill="#000000" transform="matrix(1.00, 0.00, -0.00, -1.00, 195.3, 4.3)">k</text><text xml:space="preserve" font-family="FranklinGothic-Book,Franklin Gothic Book" font-size="18.0" fill="#000000" transform="matrix(1.00, 0.00, -0.00, -1.00, 204.4, 4.3)"> </text><text xml:space="preserve" font-family="FranklinGothic-Book,Franklin Gothic Book" font-size="18.0" fill="#000000" transform="matrix(1.00, 0.00, -0.00, -1.00, 208.9, 4.3)">f</text><text xml:space="preserve" font-family="FranklinGothic-Book,Franklin Gothic Book" font-size="18.0" fill="#000000" transform="matrix(1.00, 0.00, -0.00, -1.00, 213.8, 4.3)">o</text><text xml:space="preserve" font-family="FranklinGothic-Book,Franklin Gothic Book" font-size="18.0" fill="#000000" transform="matrix(1.00, 0.00, -0.00, -1.00, 223.2, 4.3)">r</text><text xml:space="preserve" font-family="FranklinGothic-Book,Franklin Gothic Book" font-size="18.0" fill="#000000" transform="matrix(1.00, 0.00, -0.00, -1.00, 229.1, 4.3)"> </text><text xml:space="preserve" font-family="FranklinGothic-Book,Franklin Gothic Book" font-size="18.0" fill="#000000" transform="matrix(1.00, 0.00, -0.00, -1.00, 233.6, 4.3)">J</text><text xml:space="preserve" font-family="FranklinGothic-Book,Franklin Gothic Book" font-size="18.0" fill="#000000" transform="matrix(1.00, 0.00, -0.00, -1.00, 240.3, 4.3)">u</text><text xml:space="preserve" font-family="FranklinGothic-Book,Franklin Gothic Book" font-size="18.0" fill="#000000" transform="matrix(1.00, 0.00, -0.00, -1.00, 250.1, 4.3)">n</text><text xml:space="preserve" font-family="FranklinGothic-Book,Franklin Gothic Book" font-size="18.0" fill="#000000" transform="matrix(1.00, 0.00, -0.00, -1.00, 259.8, 4.3)">e</text><text xml:space="preserve" font-family="FranklinGothic-Book,Franklin Gothic Book" font-size="18.0" fill="#000000" transform="matrix(1.00, 0.00, -0.00, -1.00, 269.2, 4.3)"> </text><text xml:space="preserve" font-family="FranklinGothic-Book,Franklin Gothic Book" font-size="18.0" fill="#000000" transform="matrix(1.00, 0.00, -0.00, -1.00, 273.7, 4.3)">2</text><text xml:space="preserve" font-family="FranklinGothic-Book,Franklin Gothic Book" font-size="18.0" fill="#000000" transform="matrix(1.00, 0.00, -0.00, -1.00, 283.6, 4.3)">1</text><text xml:space="preserve" font-family="FranklinGothic-Book,Franklin Gothic Book" font-size="18.0" fill="#000000" transform="matrix(1.00, 0.00, -0.00, -1.00, 294.2, 4.3)">-</text><text xml:space="preserve" font-family="FranklinGothic-Book,Franklin Gothic Book" font-size="18.0" fill="#000000" transform="matrix(1.00, 0.00, -0.00, -1.00, 298.7, 4.3)">J</text><text xml:space="preserve" font-family="FranklinGothic-Book,Franklin Gothic Book" font-size="18.0" fill="#000000" transform="matrix(1.00, 0.00, -0.00, -1.00, 305.4, 4.3)">u</text><text xml:space="preserve" font-family="FranklinGothic-Book,Franklin Gothic Book" font-size="18.0" fill="#000000" transform="matrix(1.00, 0.00, -0.00, -1.00, 315.1, 4.3)">n</text><text xml:space="preserve" font-family="FranklinGothic-Book,Franklin Gothic Book" font-size="18.0" fill="#000000" transform="matrix(1.00, 0.00, -0.00, -1.00, 324.9, 4.3)">e</text><text xml:space="preserve" font-family="FranklinGothic-Book,Franklin Gothic Book" font-size="18.0" fill="#000000" transform="matrix(1.00, 0.00, -0.00, -1.00, 334.2, 4.3)"> </text><text xml:space="preserve" font-family="FranklinGothic-Book,Franklin Gothic Book" font-size="18.0" fill="#000000" transform="matrix(1.00, 0.00, -0.00, -1.00, 338.7, 4.3)">2</text><text xml:space="preserve" font-family="FranklinGothic-Book,Franklin Gothic Book" font-size="18.0" fill="#000000" transform="matrix(1.00, 0.00, -0.00, -1.00, 349.3, 4.3)">8</text><text xml:space="preserve" font-family="FranklinGothic-Book,Franklin Gothic Book" font-size="18.0" fill="#000000" transform="matrix(1.00, 0.00, -0.00, -1.00, 359.9, 4.3)">,</text><text xml:space="preserve" font-family="FranklinGothic-Book,Franklin Gothic Book" font-size="18.0" fill="#000000" transform="matrix(1.00, 0.00, -0.00, -1.00, 364.4, 4.3)"> </text><text xml:space="preserve" font-family="FranklinGothic-Book,Franklin Gothic Book" font-size="18.0" fill="#000000" transform="matrix(1.00, 0.00, -0.00, -1.00, 368.9, 4.3)">2</text><text xml:space="preserve" font-family="FranklinGothic-Book,Franklin Gothic Book" font-size="18.0" fill="#000000" transform="matrix(1.00, 0.00, -0.00, -1.00, 379.4, 4.3)">0</text><text xml:space="preserve" font-family="FranklinGothic-Book,Franklin Gothic Book" font-size="18.0" fill="#000000" transform="matrix(1.00, 0.00, -0.00, -1.00, 390.0, 4.3)">0</text><text xml:space="preserve" font-family="FranklinGothic-Book,Franklin Gothic Book" font-size="18.0" fill="#000000" transform="matrix(1.00, 0.00, -0.00, -1.00, 400.6, 4.3)">8</text><text xml:space="preserve" font-family="FranklinGothic-Book,Franklin Gothic Book" font-size="18.0" fill="#000000" transform="matrix(1.00, 0.00, -0.00, -1.00, 411.1, 4.3)"> </text></g></svg>