<?xml version="1.0" encoding="UTF-8" standalone="no"?><svg xmlns="http://www.w3.org/2000/svg" xmlns:xlink="http://www.w3.org/1999/xlink" clip-rule="evenodd" stroke-miterlimit="10" viewBox="0 0 1024 768"><desc>SVG generated by Keynote</desc><defs></defs><g transform="matrix(1.00, 0.00, -0.00, -1.00, 0.0, 768.0)"><g><clipPath id="clip0x7fca77226500"><path d="M 0.0 768.0 L 1024.0 768.0 L 1024.0 0.0 L 0.0 0.0 Z M 0.0 768.0 "></path></clipPath><g clip-path="url(#clip0x7fca77226500)"><image xlink:href="../../C5C39D88-6DF7-4364-885A-B0C73D57ADEF/assets/E532EB3C3E7D08F7018DF18678F5E36F.jpeg" width="2048.00" height="1536.00" transform="matrix(0.50, 0.00, -0.00, -0.50, 0.0, 768.0)"></image></g></g><text xml:space="preserve" font-family="GillSans-Light,Gill Sans" font-size="72.0" fill="#525252" transform="matrix(1.00, 0.00, -0.00, -1.00, 404.7, 442.2)">P</text><text xml:space="preserve" font-family="GillSans-Light,Gill Sans" font-size="72.0" fill="#525252" transform="matrix(1.00, 0.00, -0.00, -1.00, 434.9, 442.2)">A</text><text xml:space="preserve" font-family="GillSans-Light,Gill Sans" font-size="72.0" fill="#525252" transform="matrix(1.00, 0.00, -0.00, -1.00, 482.9, 442.2)">R</text><text xml:space="preserve" font-family="GillSans-Light,Gill Sans" font-size="72.0" fill="#525252" transform="matrix(1.00, 0.00, -0.00, -1.00, 522.1, 442.2)">T</text><text xml:space="preserve" font-family="GillSans-Light,Gill Sans" font-size="72.0" fill="#525252" transform="matrix(1.00, 0.00, -0.00, -1.00, 563.3, 442.2)"> </text><text xml:space="preserve" font-family="GillSans-Light,Gill Sans" font-size="72.0" fill="#525252" transform="matrix(1.00, 0.00, -0.00, -1.00, 583.3, 442.2)">1</text><text xml:space="preserve" font-family="GillSans-Light,Gill Sans" font-size="72.0" fill="#525252" transform="matrix(1.00, 0.00, -0.00, -1.00, 125.7, 360.2)">N</text><text xml:space="preserve" font-family="GillSans-Light,Gill Sans" font-size="72.0" fill="#525252" transform="matrix(1.00, 0.00, -0.00, -1.00, 181.2, 360.2)">E</text><text xml:space="preserve" font-family="GillSans-Light,Gill Sans" font-size="72.0" fill="#525252" transform="matrix(1.00, 0.00, -0.00, -1.00, 216.5, 360.2)">U</text><text xml:space="preserve" font-family="GillSans-Light,Gill Sans" font-size="72.0" fill="#525252" transform="matrix(1.00, 0.00, -0.00, -1.00, 266.8, 360.2)">R</text><text xml:space="preserve" font-family="GillSans-Light,Gill Sans" font-size="72.0" fill="#525252" transform="matrix(1.00, 0.00, -0.00, -1.00, 307.0, 360.2)">O</text><text xml:space="preserve" font-family="GillSans-Light,Gill Sans" font-size="72.0" fill="#525252" transform="matrix(1.00, 0.00, -0.00, -1.00, 366.3, 360.2)">P</text><text xml:space="preserve" font-family="GillSans-Light,Gill Sans" font-size="72.0" fill="#525252" transform="matrix(1.00, 0.00, -0.00, -1.00, 403.0, 360.2)">H</text><text xml:space="preserve" font-family="GillSans-Light,Gill Sans" font-size="72.0" fill="#525252" transform="matrix(1.00, 0.00, -0.00, -1.00, 454.8, 360.2)">Y</text><text xml:space="preserve" font-family="GillSans-Light,Gill Sans" font-size="72.0" fill="#525252" transform="matrix(1.00, 0.00, -0.00, -1.00, 496.7, 360.2)">S</text><text xml:space="preserve" font-family="GillSans-Light,Gill Sans" font-size="72.0" fill="#525252" transform="matrix(1.00, 0.00, -0.00, -1.00, 530.5, 360.2)">I</text><text xml:space="preserve" font-family="GillSans-Light,Gill Sans" font-size="72.0" fill="#525252" transform="matrix(1.00, 0.00, -0.00, -1.00, 545.5, 360.2)">O</text><text xml:space="preserve" font-family="GillSans-Light,Gill Sans" font-size="72.0" fill="#525252" transform="matrix(1.00, 0.00, -0.00, -1.00, 604.8, 360.2)">L</text><text xml:space="preserve" font-family="GillSans-Light,Gill Sans" font-size="72.0" fill="#525252" transform="matrix(1.00, 0.00, -0.00, -1.00, 638.6, 360.2)">O</text><text xml:space="preserve" font-family="GillSans-Light,Gill Sans" font-size="72.0" fill="#525252" transform="matrix(1.00, 0.00, -0.00, -1.00, 697.9, 360.2)">G</text><text xml:space="preserve" font-family="GillSans-Light,Gill Sans" font-size="72.0" fill="#525252" transform="matrix(1.00, 0.00, -0.00, -1.00, 749.7, 360.2)">I</text><text xml:space="preserve" font-family="GillSans-Light,Gill Sans" font-size="72.0" fill="#525252" transform="matrix(1.00, 0.00, -0.00, -1.00, 764.7, 360.2)">C</text><text xml:space="preserve" font-family="GillSans-Light,Gill Sans" font-size="72.0" fill="#525252" transform="matrix(1.00, 0.00, -0.00, -1.00, 816.6, 360.2)">A</text><text xml:space="preserve" font-family="GillSans-Light,Gill Sans" font-size="72.0" fill="#525252" transform="matrix(1.00, 0.00, -0.00, -1.00, 864.6, 360.2)">L</text><text xml:space="preserve" font-family="GillSans-Light,Gill Sans" font-size="72.0" fill="#525252" transform="matrix(1.00, 0.00, -0.00, -1.00, 898.3, 360.2)"> </text><text xml:space="preserve" font-family="GillSans-Light,Gill Sans" font-size="72.0" fill="#525252" transform="matrix(1.00, 0.00, -0.00, -1.00, 376.3, 278.2)">M</text><text xml:space="preserve" font-family="GillSans-Light,Gill Sans" font-size="72.0" fill="#525252" transform="matrix(1.00, 0.00, -0.00, -1.00, 432.5, 278.2)">I</text><text xml:space="preserve" font-family="GillSans-Light,Gill Sans" font-size="72.0" fill="#525252" transform="matrix(1.00, 0.00, -0.00, -1.00, 447.4, 278.2)">M</text><text xml:space="preserve" font-family="GillSans-Light,Gill Sans" font-size="72.0" fill="#525252" transform="matrix(1.00, 0.00, -0.00, -1.00, 503.6, 278.2)">I</text><text xml:space="preserve" font-family="GillSans-Light,Gill Sans" font-size="72.0" fill="#525252" transform="matrix(1.00, 0.00, -0.00, -1.00, 518.6, 278.2)">C</text><text xml:space="preserve" font-family="GillSans-Light,Gill Sans" font-size="72.0" fill="#525252" transform="matrix(1.00, 0.00, -0.00, -1.00, 567.3, 278.2)">R</text><text xml:space="preserve" font-family="GillSans-Light,Gill Sans" font-size="72.0" fill="#525252" transform="matrix(1.00, 0.00, -0.00, -1.00, 605.7, 278.2)">Y</text><text xml:space="preserve" font-family="GillSans-Light,Gill Sans" font-size="36.0" fill="#525252" transform="matrix(1.00, 0.00, -0.00, -1.00, 469.1, 174.7)">w</text><text xml:space="preserve" font-family="GillSans-Light,Gill Sans" font-size="36.0" fill="#525252" transform="matrix(1.00, 0.00, -0.00, -1.00, 494.6, 174.7)">h</text><text xml:space="preserve" font-family="GillSans-Light,Gill Sans" font-size="36.0" fill="#525252" transform="matrix(1.00, 0.00, -0.00, -1.00, 512.2, 174.7)">a</text><text xml:space="preserve" font-family="GillSans-Light,Gill Sans" font-size="36.0" fill="#525252" transform="matrix(1.00, 0.00, -0.00, -1.00, 527.6, 174.7)">t</text><text xml:space="preserve" font-family="GillSans-Light,Gill Sans" font-size="36.0" fill="#525252" transform="matrix(1.00, 0.00, -0.00, -1.00, 538.4, 174.7)">?</text><text xml:space="preserve" font-family="GillSans-Light,Gill Sans" font-size="36.0" fill="#525252" transform="matrix(1.00, 0.00, -0.00, -1.00, 548.5, 174.7)">!</text></g></svg>