<?xml version="1.0" encoding="UTF-8" standalone="no"?><svg xmlns="http://www.w3.org/2000/svg" xmlns:xlink="http://www.w3.org/1999/xlink" clip-rule="evenodd" stroke-miterlimit="10" viewBox="0 0 366 26"><desc>SVG generated by Keynote</desc><defs></defs><g transform="matrix(1.00, 0.00, -0.00, -1.00, 0.0, 26.0)"><text xml:space="preserve" font-family="Arial-BoldMT,Arial" font-weight="bold" font-size="24.0" fill="#3F3F3F" transform="matrix(1.00, 0.00, -0.00, -1.00, 1.6, 6.6)">C</text><text xml:space="preserve" font-family="Arial-BoldMT,Arial" font-weight="bold" font-size="24.0" fill="#3F3F3F" transform="matrix(1.00, 0.00, -0.00, -1.00, 18.9, 6.6)">o</text><text xml:space="preserve" font-family="Arial-BoldMT,Arial" font-weight="bold" font-size="24.0" fill="#3F3F3F" transform="matrix(1.00, 0.00, -0.00, -1.00, 33.6, 6.6)">n</text><text xml:space="preserve" font-family="Arial-BoldMT,Arial" font-weight="bold" font-size="24.0" fill="#3F3F3F" transform="matrix(1.00, 0.00, -0.00, -1.00, 48.3, 6.6)">c</text><text xml:space="preserve" font-family="Arial-BoldMT,Arial" font-weight="bold" font-size="24.0" fill="#3F3F3F" transform="matrix(1.00, 0.00, -0.00, -1.00, 61.6, 6.6)">l</text><text xml:space="preserve" font-family="Arial-BoldMT,Arial" font-weight="bold" font-size="24.0" fill="#3F3F3F" transform="matrix(1.00, 0.00, -0.00, -1.00, 68.3, 6.6)">u</text><text xml:space="preserve" font-family="Arial-BoldMT,Arial" font-weight="bold" font-size="24.0" fill="#3F3F3F" transform="matrix(1.00, 0.00, -0.00, -1.00, 83.0, 6.6)">s</text><text xml:space="preserve" font-family="Arial-BoldMT,Arial" font-weight="bold" font-size="24.0" fill="#3F3F3F" transform="matrix(1.00, 0.00, -0.00, -1.00, 96.3, 6.6)">i</text><text xml:space="preserve" font-family="Arial-BoldMT,Arial" font-weight="bold" font-size="24.0" fill="#3F3F3F" transform="matrix(1.00, 0.00, -0.00, -1.00, 103.0, 6.6)">o</text><text xml:space="preserve" font-family="Arial-BoldMT,Arial" font-weight="bold" font-size="24.0" fill="#3F3F3F" transform="matrix(1.00, 0.00, -0.00, -1.00, 117.6, 6.6)">n</text><text xml:space="preserve" font-family="Arial-BoldMT,Arial" font-weight="bold" font-size="24.0" fill="#3F3F3F" transform="matrix(1.00, 0.00, -0.00, -1.00, 132.3, 6.6)"> </text><text xml:space="preserve" font-family="ArialMT,Arial" font-size="24.0" fill="#3F3F3F" transform="matrix(1.00, 0.00, -0.00, -1.00, 138.9, 6.6)">–</text><text xml:space="preserve" font-family="ArialMT,Arial" font-size="24.0" fill="#3F3F3F" transform="matrix(1.00, 0.00, -0.00, -1.00, 152.3, 6.6)"> </text><text xml:space="preserve" font-family="ArialMT,Arial" font-size="24.0" fill="#3F3F3F" transform="matrix(1.00, 0.00, -0.00, -1.00, 158.9, 6.6)">s</text><text xml:space="preserve" font-family="ArialMT,Arial" font-size="24.0" fill="#3F3F3F" transform="matrix(1.00, 0.00, -0.00, -1.00, 170.9, 6.6)">u</text><text xml:space="preserve" font-family="ArialMT,Arial" font-size="24.0" fill="#3F3F3F" transform="matrix(1.00, 0.00, -0.00, -1.00, 184.3, 6.6)">m</text><text xml:space="preserve" font-family="ArialMT,Arial" font-size="24.0" fill="#3F3F3F" transform="matrix(1.00, 0.00, -0.00, -1.00, 204.3, 6.6)">m</text><text xml:space="preserve" font-family="ArialMT,Arial" font-size="24.0" fill="#3F3F3F" transform="matrix(1.00, 0.00, -0.00, -1.00, 224.3, 6.6)">a</text><text xml:space="preserve" font-family="ArialMT,Arial" font-size="24.0" fill="#3F3F3F" transform="matrix(1.00, 0.00, -0.00, -1.00, 237.6, 6.6)">r</text><text xml:space="preserve" font-family="ArialMT,Arial" font-size="24.0" fill="#3F3F3F" transform="matrix(1.00, 0.00, -0.00, -1.00, 245.6, 6.6)">i</text><text xml:space="preserve" font-family="ArialMT,Arial" font-size="24.0" fill="#3F3F3F" transform="matrix(1.00, 0.00, -0.00, -1.00, 251.0, 6.6)">z</text><text xml:space="preserve" font-family="ArialMT,Arial" font-size="24.0" fill="#3F3F3F" transform="matrix(1.00, 0.00, -0.00, -1.00, 263.0, 6.6)">e</text><text xml:space="preserve" font-family="ArialMT,Arial" font-size="24.0" fill="#3F3F3F" transform="matrix(1.00, 0.00, -0.00, -1.00, 276.3, 6.6)"> </text><text xml:space="preserve" font-family="ArialMT,Arial" font-size="24.0" fill="#3F3F3F" transform="matrix(1.00, 0.00, -0.00, -1.00, 283.0, 6.6)">f</text><text xml:space="preserve" font-family="ArialMT,Arial" font-size="24.0" fill="#3F3F3F" transform="matrix(1.00, 0.00, -0.00, -1.00, 289.6, 6.6)">i</text><text xml:space="preserve" font-family="ArialMT,Arial" font-size="24.0" fill="#3F3F3F" transform="matrix(1.00, 0.00, -0.00, -1.00, 295.0, 6.6)">n</text><text xml:space="preserve" font-family="ArialMT,Arial" font-size="24.0" fill="#3F3F3F" transform="matrix(1.00, 0.00, -0.00, -1.00, 308.3, 6.6)">d</text><text xml:space="preserve" font-family="ArialMT,Arial" font-size="24.0" fill="#3F3F3F" transform="matrix(1.00, 0.00, -0.00, -1.00, 321.7, 6.6)">i</text><text xml:space="preserve" font-family="ArialMT,Arial" font-size="24.0" fill="#3F3F3F" transform="matrix(1.00, 0.00, -0.00, -1.00, 327.0, 6.6)">n</text><text xml:space="preserve" font-family="ArialMT,Arial" font-size="24.0" fill="#3F3F3F" transform="matrix(1.00, 0.00, -0.00, -1.00, 340.4, 6.6)">g</text><text xml:space="preserve" font-family="ArialMT,Arial" font-size="24.0" fill="#3F3F3F" transform="matrix(1.00, 0.00, -0.00, -1.00, 353.7, 6.6)">s</text><text xml:space="preserve" font-family="FranklinGothic-Book,Franklin Gothic Book" font-size="16.0" fill="#000000" transform="matrix(1.00, 0.00, -0.00, -1.00, 365.7, 6.6)"> </text></g></svg>