<?xml version="1.0" encoding="UTF-8" standalone="no"?><svg xmlns="http://www.w3.org/2000/svg" xmlns:xlink="http://www.w3.org/1999/xlink" clip-rule="evenodd" stroke-miterlimit="10" viewBox="0 0 253 53"><desc>SVG generated by Keynote</desc><defs></defs><g transform="matrix(1.00, 0.00, -0.00, -1.00, 0.0, 53.0)"><path d="M 1.5 51.5 L 250.5 51.5 L 250.5 2.5 L 1.5 2.5 Z M 1.7 51.5 " fill="#FFFFFF"></path><path d="M -0.2 -0.0 L 248.8 -0.0 L 248.8 49.0 L -0.2 49.0 Z M 0.0 0.0 " fill="none" stroke="#FA8716" stroke-width="0.75" stroke-linejoin="round" transform="matrix(1.00, 0.00, 0.00, -1.00, 1.7, 51.5)"></path><g><clipPath id="clip0x7f994f96d9d0"><path d="M 0.7 0.5 L 257.6 0.5 L 257.6 52.5 L 0.7 52.5 Z M 0.7 0.5 "></path></clipPath><g clip-path="url(#clip0x7f994f96d9d0)"><text xml:space="preserve" font-family="Arial-ItalicMT,Arial" font-style="italic" font-size="18.0" fill="#FA8716" transform="matrix(1.00, 0.00, -0.00, -1.00, 12.2, 30.9)">W</text><text xml:space="preserve" font-family="Arial-ItalicMT,Arial" font-style="italic" font-size="18.0" fill="#FA8716" transform="matrix(1.00, 0.00, -0.00, -1.00, 29.2, 30.9)">h</text><text xml:space="preserve" font-family="Arial-ItalicMT,Arial" font-style="italic" font-size="18.0" fill="#FA8716" transform="matrix(1.00, 0.00, -0.00, -1.00, 39.2, 30.9)">a</text><text xml:space="preserve" font-family="Arial-ItalicMT,Arial" font-style="italic" font-size="18.0" fill="#FA8716" transform="matrix(1.00, 0.00, -0.00, -1.00, 49.3, 30.9)">t</text><text xml:space="preserve" font-family="Arial-ItalicMT,Arial" font-style="italic" font-size="18.0" fill="#FA8716" transform="matrix(1.00, 0.00, -0.00, -1.00, 54.2, 30.9)"> </text><text xml:space="preserve" font-family="Arial-ItalicMT,Arial" font-style="italic" font-size="18.0" fill="#FA8716" transform="matrix(1.00, 0.00, -0.00, -1.00, 59.2, 30.9)">d</text><text xml:space="preserve" font-family="Arial-ItalicMT,Arial" font-style="italic" font-size="18.0" fill="#FA8716" transform="matrix(1.00, 0.00, -0.00, -1.00, 69.3, 30.9)">o</text><text xml:space="preserve" font-family="Arial-ItalicMT,Arial" font-style="italic" font-size="18.0" fill="#FA8716" transform="matrix(1.00, 0.00, -0.00, -1.00, 79.3, 30.9)"> </text><text xml:space="preserve" font-family="Arial-ItalicMT,Arial" font-style="italic" font-size="18.0" fill="#FA8716" transform="matrix(1.00, 0.00, -0.00, -1.00, 84.3, 30.9)">y</text><text xml:space="preserve" font-family="Arial-ItalicMT,Arial" font-style="italic" font-size="18.0" fill="#FA8716" transform="matrix(1.00, 0.00, -0.00, -1.00, 93.3, 30.9)">o</text><text xml:space="preserve" font-family="Arial-ItalicMT,Arial" font-style="italic" font-size="18.0" fill="#FA8716" transform="matrix(1.00, 0.00, -0.00, -1.00, 103.3, 30.9)">u</text><text xml:space="preserve" font-family="Arial-ItalicMT,Arial" font-style="italic" font-size="18.0" fill="#FA8716" transform="matrix(1.00, 0.00, -0.00, -1.00, 113.3, 30.9)"> </text><text xml:space="preserve" font-family="Arial-ItalicMT,Arial" font-style="italic" font-size="18.0" fill="#FA8716" transform="matrix(1.00, 0.00, -0.00, -1.00, 118.3, 30.9)">h</text><text xml:space="preserve" font-family="Arial-ItalicMT,Arial" font-style="italic" font-size="18.0" fill="#FA8716" transform="matrix(1.00, 0.00, -0.00, -1.00, 128.3, 30.9)">o</text><text xml:space="preserve" font-family="Arial-ItalicMT,Arial" font-style="italic" font-size="18.0" fill="#FA8716" transform="matrix(1.00, 0.00, -0.00, -1.00, 138.3, 30.9)">p</text><text xml:space="preserve" font-family="Arial-ItalicMT,Arial" font-style="italic" font-size="18.0" fill="#FA8716" transform="matrix(1.00, 0.00, -0.00, -1.00, 148.3, 30.9)">e</text><text xml:space="preserve" font-family="Arial-ItalicMT,Arial" font-style="italic" font-size="18.0" fill="#FA8716" transform="matrix(1.00, 0.00, -0.00, -1.00, 158.4, 30.9)"> </text><text xml:space="preserve" font-family="Arial-ItalicMT,Arial" font-style="italic" font-size="18.0" fill="#FA8716" transform="matrix(1.00, 0.00, -0.00, -1.00, 163.4, 30.9)">t</text><text xml:space="preserve" font-family="Arial-ItalicMT,Arial" font-style="italic" font-size="18.0" fill="#FA8716" transform="matrix(1.00, 0.00, -0.00, -1.00, 168.4, 30.9)">o</text><text xml:space="preserve" font-family="Arial-ItalicMT,Arial" font-style="italic" font-size="18.0" fill="#FA8716" transform="matrix(1.00, 0.00, -0.00, -1.00, 178.4, 30.9)"> </text><text xml:space="preserve" font-family="Arial-ItalicMT,Arial" font-style="italic" font-size="18.0" fill="#FA8716" transform="matrix(1.00, 0.00, -0.00, -1.00, 183.4, 30.9)">d</text><text xml:space="preserve" font-family="Arial-ItalicMT,Arial" font-style="italic" font-size="18.0" fill="#FA8716" transform="matrix(1.00, 0.00, -0.00, -1.00, 193.4, 30.9)">o</text><text xml:space="preserve" font-family="Arial-ItalicMT,Arial" font-style="italic" font-size="18.0" fill="#FA8716" transform="matrix(1.00, 0.00, -0.00, -1.00, 203.4, 30.9)"> </text><text xml:space="preserve" font-family="Arial-ItalicMT,Arial" font-style="italic" font-size="18.0" fill="#FA8716" transform="matrix(1.00, 0.00, -0.00, -1.00, 208.4, 30.9)">w</text><text xml:space="preserve" font-family="Arial-ItalicMT,Arial" font-style="italic" font-size="18.0" fill="#FA8716" transform="matrix(1.00, 0.00, -0.00, -1.00, 221.4, 30.9)">i</text><text xml:space="preserve" font-family="Arial-ItalicMT,Arial" font-style="italic" font-size="18.0" fill="#FA8716" transform="matrix(1.00, 0.00, -0.00, -1.00, 225.4, 30.9)">t</text><text xml:space="preserve" font-family="Arial-ItalicMT,Arial" font-style="italic" font-size="18.0" fill="#FA8716" transform="matrix(1.00, 0.00, -0.00, -1.00, 230.4, 30.9)">h</text><text xml:space="preserve" font-family="Arial-ItalicMT,Arial" font-style="italic" font-size="18.0" fill="#FA8716" transform="matrix(1.00, 0.00, -0.00, -1.00, 240.4, 30.9)"> </text><text xml:space="preserve" font-family="Arial-ItalicMT,Arial" font-style="italic" font-size="18.0" fill="#FA8716" transform="matrix(1.00, 0.00, -0.00, -1.00, 245.4, 30.9)"> </text><text xml:space="preserve" font-family="Arial-ItalicMT,Arial" font-style="italic" font-size="18.0" fill="#FA8716" transform="matrix(1.00, 0.00, -0.00, -1.00, 13.2, 9.9)">y</text><text xml:space="preserve" font-family="Arial-ItalicMT,Arial" font-style="italic" font-size="18.0" fill="#FA8716" transform="matrix(1.00, 0.00, -0.00, -1.00, 22.2, 9.9)">o</text><text xml:space="preserve" font-family="Arial-ItalicMT,Arial" font-style="italic" font-size="18.0" fill="#FA8716" transform="matrix(1.00, 0.00, -0.00, -1.00, 32.3, 9.9)">u</text><text xml:space="preserve" font-family="Arial-ItalicMT,Arial" font-style="italic" font-size="18.0" fill="#FA8716" transform="matrix(1.00, 0.00, -0.00, -1.00, 42.3, 9.9)">r</text><text xml:space="preserve" font-family="Arial-ItalicMT,Arial" font-style="italic" font-size="18.0" fill="#FA8716" transform="matrix(1.00, 0.00, -0.00, -1.00, 48.3, 9.9)"> </text><text xml:space="preserve" font-family="Arial-ItalicMT,Arial" font-style="italic" font-size="18.0" fill="#FA8716" transform="matrix(1.00, 0.00, -0.00, -1.00, 53.3, 9.9)">m</text><text xml:space="preserve" font-family="Arial-ItalicMT,Arial" font-style="italic" font-size="18.0" fill="#FA8716" transform="matrix(1.00, 0.00, -0.00, -1.00, 68.3, 9.9)">a</text><text xml:space="preserve" font-family="Arial-ItalicMT,Arial" font-style="italic" font-size="18.0" fill="#FA8716" transform="matrix(1.00, 0.00, -0.00, -1.00, 78.3, 9.9)">j</text><text xml:space="preserve" font-family="Arial-ItalicMT,Arial" font-style="italic" font-size="18.0" fill="#FA8716" transform="matrix(1.00, 0.00, -0.00, -1.00, 82.3, 9.9)">o</text><text xml:space="preserve" font-family="Arial-ItalicMT,Arial" font-style="italic" font-size="18.0" fill="#FA8716" transform="matrix(1.00, 0.00, -0.00, -1.00, 92.3, 9.9)">r</text><text xml:space="preserve" font-family="Arial-ItalicMT,Arial" font-style="italic" font-size="18.0" fill="#FA8716" transform="matrix(1.00, 0.00, -0.00, -1.00, 98.3, 9.9)"> </text><text xml:space="preserve" font-family="Arial-ItalicMT,Arial" font-style="italic" font-size="18.0" fill="#FA8716" transform="matrix(1.00, 0.00, -0.00, -1.00, 103.3, 9.9)">a</text><text xml:space="preserve" font-family="Arial-ItalicMT,Arial" font-style="italic" font-size="18.0" fill="#FA8716" transform="matrix(1.00, 0.00, -0.00, -1.00, 113.3, 9.9)">f</text><text xml:space="preserve" font-family="Arial-ItalicMT,Arial" font-style="italic" font-size="18.0" fill="#FA8716" transform="matrix(1.00, 0.00, -0.00, -1.00, 118.3, 9.9)">t</text><text xml:space="preserve" font-family="Arial-ItalicMT,Arial" font-style="italic" font-size="18.0" fill="#FA8716" transform="matrix(1.00, 0.00, -0.00, -1.00, 123.3, 9.9)">e</text><text xml:space="preserve" font-family="Arial-ItalicMT,Arial" font-style="italic" font-size="18.0" fill="#FA8716" transform="matrix(1.00, 0.00, -0.00, -1.00, 133.3, 9.9)">r</text><text xml:space="preserve" font-family="Arial-ItalicMT,Arial" font-style="italic" font-size="18.0" fill="#FA8716" transform="matrix(1.00, 0.00, -0.00, -1.00, 139.3, 9.9)"> </text><text xml:space="preserve" font-family="Arial-ItalicMT,Arial" font-style="italic" font-size="18.0" fill="#FA8716" transform="matrix(1.00, 0.00, -0.00, -1.00, 144.3, 9.9)">g</text><text xml:space="preserve" font-family="Arial-ItalicMT,Arial" font-style="italic" font-size="18.0" fill="#FA8716" transform="matrix(1.00, 0.00, -0.00, -1.00, 154.3, 9.9)">r</text><text xml:space="preserve" font-family="Arial-ItalicMT,Arial" font-style="italic" font-size="18.0" fill="#FA8716" transform="matrix(1.00, 0.00, -0.00, -1.00, 160.3, 9.9)">a</text><text xml:space="preserve" font-family="Arial-ItalicMT,Arial" font-style="italic" font-size="18.0" fill="#FA8716" transform="matrix(1.00, 0.00, -0.00, -1.00, 170.3, 9.9)">d</text><text xml:space="preserve" font-family="Arial-ItalicMT,Arial" font-style="italic" font-size="18.0" fill="#FA8716" transform="matrix(1.00, 0.00, -0.00, -1.00, 180.3, 9.9)">u</text><text xml:space="preserve" font-family="Arial-ItalicMT,Arial" font-style="italic" font-size="18.0" fill="#FA8716" transform="matrix(1.00, 0.00, -0.00, -1.00, 190.4, 9.9)">a</text><text xml:space="preserve" font-family="Arial-ItalicMT,Arial" font-style="italic" font-size="18.0" fill="#FA8716" transform="matrix(1.00, 0.00, -0.00, -1.00, 200.4, 9.9)">t</text><text xml:space="preserve" font-family="Arial-ItalicMT,Arial" font-style="italic" font-size="18.0" fill="#FA8716" transform="matrix(1.00, 0.00, -0.00, -1.00, 205.4, 9.9)">i</text><text xml:space="preserve" font-family="Arial-ItalicMT,Arial" font-style="italic" font-size="18.0" fill="#FA8716" transform="matrix(1.00, 0.00, -0.00, -1.00, 209.4, 9.9)">o</text><text xml:space="preserve" font-family="Arial-ItalicMT,Arial" font-style="italic" font-size="18.0" fill="#FA8716" transform="matrix(1.00, 0.00, -0.00, -1.00, 219.4, 9.9)">n</text><text xml:space="preserve" font-family="Arial-ItalicMT,Arial" font-style="italic" font-size="18.0" fill="#FA8716" transform="matrix(1.00, 0.00, -0.00, -1.00, 229.4, 9.9)">?</text></g></g></g></svg>