<?xml version="1.0" encoding="UTF-8" standalone="no"?><svg xmlns="http://www.w3.org/2000/svg" xmlns:xlink="http://www.w3.org/1999/xlink" clip-rule="evenodd" stroke-miterlimit="10" viewBox="0 0 720 540"><desc>SVG generated by Keynote</desc><defs></defs><g transform="matrix(1.00, 0.00, -0.00, -1.00, 0.0, 540.0)"><path d="M 0.0 540.0 L 720.0 540.0 L 720.0 0.0 L 0.0 0.0 Z M 0.0 540.0 " fill="#FFFFFF"></path><path d="M 0.0 0.0 L 0.0 99.0 L 160.9 99.0 L 281.2 0.0 L 0.0 0.0 Z M 0.0 -0.0 " fill="#EEE0A1"></path><path d="M -0.2 0.0 L 160.5 99.0 L 720.0 99.0 L 720.0 0.0 L -0.2 0.0 Z M -0.2 -0.0 " fill="#FA8716" fill-opacity="0.80"></path><image xlink:href="../../C6B06C07-462C-4216-BAE4-3373D23A0854/assets/DF4E34F21E454EA2967F16C4344F405A.png" width="373.00" height="33.00" transform="matrix(1.00, 0.00, -0.00, -1.00, 34.0, 505.0)"></image><text xml:space="preserve" font-family="Arial-BoldMT,Arial" font-weight="bold" font-size="32.0" fill="#FAC01E" transform="matrix(1.00, 0.00, -0.00, -1.00, 34.6, 478.7)">P</text><text xml:space="preserve" font-family="Arial-BoldMT,Arial" font-weight="bold" font-size="32.0" fill="#FAC01E" transform="matrix(1.00, 0.00, -0.00, -1.00, 55.9, 478.7)">R</text><text xml:space="preserve" font-family="Arial-BoldMT,Arial" font-weight="bold" font-size="32.0" fill="#FAC01E" transform="matrix(1.00, 0.00, -0.00, -1.00, 79.1, 478.7)">E</text><text xml:space="preserve" font-family="Arial-BoldMT,Arial" font-weight="bold" font-size="32.0" fill="#FAC01E" transform="matrix(1.00, 0.00, -0.00, -1.00, 100.4, 478.7)">S</text><text xml:space="preserve" font-family="Arial-BoldMT,Arial" font-weight="bold" font-size="32.0" fill="#FAC01E" transform="matrix(1.00, 0.00, -0.00, -1.00, 121.7, 478.7)">E</text><text xml:space="preserve" font-family="Arial-BoldMT,Arial" font-weight="bold" font-size="32.0" fill="#FAC01E" transform="matrix(1.00, 0.00, -0.00, -1.00, 143.1, 478.7)">N</text><text xml:space="preserve" font-family="Arial-BoldMT,Arial" font-weight="bold" font-size="32.0" fill="#FAC01E" transform="matrix(1.00, 0.00, -0.00, -1.00, 166.2, 478.7)">T</text><text xml:space="preserve" font-family="Arial-BoldMT,Arial" font-weight="bold" font-size="32.0" fill="#FAC01E" transform="matrix(1.00, 0.00, -0.00, -1.00, 183.4, 478.7)">A</text><text xml:space="preserve" font-family="Arial-BoldMT,Arial" font-weight="bold" font-size="32.0" fill="#FAC01E" transform="matrix(1.00, 0.00, -0.00, -1.00, 204.1, 478.7)">T</text><text xml:space="preserve" font-family="Arial-BoldMT,Arial" font-weight="bold" font-size="32.0" fill="#FAC01E" transform="matrix(1.00, 0.00, -0.00, -1.00, 223.7, 478.7)">I</text><text xml:space="preserve" font-family="Arial-BoldMT,Arial" font-weight="bold" font-size="32.0" fill="#FAC01E" transform="matrix(1.00, 0.00, -0.00, -1.00, 232.5, 478.7)">O</text><text xml:space="preserve" font-family="Arial-BoldMT,Arial" font-weight="bold" font-size="32.0" fill="#FAC01E" transform="matrix(1.00, 0.00, -0.00, -1.00, 257.4, 478.7)">N</text><text xml:space="preserve" font-family="Arial-BoldMT,Arial" font-weight="bold" font-size="32.0" fill="#FAC01E" transform="matrix(1.00, 0.00, -0.00, -1.00, 280.5, 478.7)"> </text><text xml:space="preserve" font-family="Arial-BoldMT,Arial" font-weight="bold" font-size="32.0" fill="#FAC01E" transform="matrix(1.00, 0.00, -0.00, -1.00, 289.4, 478.7)">S</text><text xml:space="preserve" font-family="Arial-BoldMT,Arial" font-weight="bold" font-size="32.0" fill="#FAC01E" transform="matrix(1.00, 0.00, -0.00, -1.00, 310.8, 478.7)">T</text><text xml:space="preserve" font-family="Arial-BoldMT,Arial" font-weight="bold" font-size="32.0" fill="#FAC01E" transform="matrix(1.00, 0.00, -0.00, -1.00, 330.3, 478.7)">Y</text><text xml:space="preserve" font-family="Arial-BoldMT,Arial" font-weight="bold" font-size="32.0" fill="#FAC01E" transform="matrix(1.00, 0.00, -0.00, -1.00, 351.6, 478.7)">L</text><text xml:space="preserve" font-family="Arial-BoldMT,Arial" font-weight="bold" font-size="32.0" fill="#FAC01E" transform="matrix(1.00, 0.00, -0.00, -1.00, 371.2, 478.7)">E</text><text xml:space="preserve" font-family="Arial-BoldMT,Arial" font-weight="bold" font-size="32.0" fill="#FAC01E" transform="matrix(1.00, 0.00, -0.00, -1.00, 392.5, 478.7)">:</text><text xml:space="preserve" font-family="Arial-BoldMT,Arial" font-weight="bold" font-size="32.0" fill="#FAC01E" transform="matrix(1.00, 0.00, -0.00, -1.00, 403.2, 478.7)"> </text><image xlink:href="../../F463902D-8208-4BC2-B27D-4B12026883EA/assets/860ED48375E36B514DFECC26AFE616F5.png" width="189.00" height="33.00" transform="matrix(1.00, 0.00, -0.00, -1.00, 412.0, 505.0)"></image><text xml:space="preserve" font-family="Arial-BoldMT,Arial" font-weight="bold" font-size="32.0" fill="#000000" transform="matrix(1.00, 0.00, -0.00, -1.00, 412.1, 478.7)">N</text><text xml:space="preserve" font-family="Arial-BoldMT,Arial" font-weight="bold" font-size="32.0" fill="#000000" transform="matrix(1.00, 0.00, -0.00, -1.00, 435.2, 478.7)">E</text><text xml:space="preserve" font-family="Arial-BoldMT,Arial" font-weight="bold" font-size="32.0" fill="#000000" transform="matrix(1.00, 0.00, -0.00, -1.00, 456.6, 478.7)">W</text><text xml:space="preserve" font-family="Arial-BoldMT,Arial" font-weight="bold" font-size="32.0" fill="#000000" transform="matrix(1.00, 0.00, -0.00, -1.00, 486.8, 478.7)">S</text><text xml:space="preserve" font-family="Arial-BoldMT,Arial" font-weight="bold" font-size="32.0" fill="#000000" transform="matrix(1.00, 0.00, -0.00, -1.00, 508.1, 478.7)">C</text><text xml:space="preserve" font-family="Arial-BoldMT,Arial" font-weight="bold" font-size="32.0" fill="#000000" transform="matrix(1.00, 0.00, -0.00, -1.00, 531.2, 478.7)">A</text><text xml:space="preserve" font-family="Arial-BoldMT,Arial" font-weight="bold" font-size="32.0" fill="#000000" transform="matrix(1.00, 0.00, -0.00, -1.00, 554.3, 478.7)">S</text><text xml:space="preserve" font-family="Arial-BoldMT,Arial" font-weight="bold" font-size="32.0" fill="#000000" transform="matrix(1.00, 0.00, -0.00, -1.00, 575.7, 478.7)">T</text><text xml:space="preserve" font-family="FranklinGothic-Book,Franklin Gothic Book" font-size="18.0" fill="#000000" transform="matrix(1.00, 0.00, -0.00, -1.00, 165.1, 202.3)">C</text><text xml:space="preserve" font-family="FranklinGothic-Book,Franklin Gothic Book" font-size="18.0" fill="#000000" transform="matrix(1.00, 0.00, -0.00, -1.00, 175.6, 202.3)">N</text><text xml:space="preserve" font-family="FranklinGothic-Book,Franklin Gothic Book" font-size="18.0" fill="#000000" transform="matrix(1.00, 0.00, -0.00, -1.00, 187.4, 202.3)">N</text><text xml:space="preserve" font-family="FranklinGothic-Book,Franklin Gothic Book" font-size="18.0" fill="#000000" transform="matrix(1.00, 0.00, -0.00, -1.00, 199.2, 202.3)"> </text><text xml:space="preserve" font-family="FranklinGothic-Book,Franklin Gothic Book" font-size="18.0" fill="#000000" transform="matrix(1.00, 0.00, -0.00, -1.00, 203.7, 202.3)">R</text><text xml:space="preserve" font-family="FranklinGothic-Book,Franklin Gothic Book" font-size="18.0" fill="#000000" transform="matrix(1.00, 0.00, -0.00, -1.00, 214.7, 202.3)">a</text><text xml:space="preserve" font-family="FranklinGothic-Book,Franklin Gothic Book" font-size="18.0" fill="#000000" transform="matrix(1.00, 0.00, -0.00, -1.00, 224.3, 202.3)">d</text><text xml:space="preserve" font-family="FranklinGothic-Book,Franklin Gothic Book" font-size="18.0" fill="#000000" transform="matrix(1.00, 0.00, -0.00, -1.00, 234.0, 202.3)">i</text><text xml:space="preserve" font-family="FranklinGothic-Book,Franklin Gothic Book" font-size="18.0" fill="#000000" transform="matrix(1.00, 0.00, -0.00, -1.00, 238.1, 202.3)">o</text><text xml:space="preserve" font-family="FranklinGothic-Book,Franklin Gothic Book" font-size="18.0" fill="#000000" transform="matrix(1.00, 0.00, -0.00, -1.00, 247.4, 202.3)"> </text><text xml:space="preserve" font-family="FranklinGothic-Book,Franklin Gothic Book" font-size="18.0" fill="#000000" transform="matrix(1.00, 0.00, -0.00, -1.00, 251.9, 202.3)">N</text><text xml:space="preserve" font-family="FranklinGothic-Book,Franklin Gothic Book" font-size="18.0" fill="#000000" transform="matrix(1.00, 0.00, -0.00, -1.00, 263.8, 202.3)">e</text><text xml:space="preserve" font-family="FranklinGothic-Book,Franklin Gothic Book" font-size="18.0" fill="#000000" transform="matrix(1.00, 0.00, -0.00, -1.00, 272.8, 202.3)">w</text><text xml:space="preserve" font-family="FranklinGothic-Book,Franklin Gothic Book" font-size="18.0" fill="#000000" transform="matrix(1.00, 0.00, -0.00, -1.00, 284.8, 202.3)">s</text><text xml:space="preserve" font-family="FranklinGothic-Book,Franklin Gothic Book" font-size="18.0" fill="#000000" transform="matrix(1.00, 0.00, -0.00, -1.00, 293.1, 202.3)"> </text><text xml:space="preserve" font-family="FranklinGothic-Book,Franklin Gothic Book" font-size="18.0" fill="#000000" transform="matrix(1.00, 0.00, -0.00, -1.00, 297.6, 202.3)">U</text><text xml:space="preserve" font-family="FranklinGothic-Book,Franklin Gothic Book" font-size="18.0" fill="#000000" transform="matrix(1.00, 0.00, -0.00, -1.00, 308.4, 202.3)">p</text><text xml:space="preserve" font-family="FranklinGothic-Book,Franklin Gothic Book" font-size="18.0" fill="#000000" transform="matrix(1.00, 0.00, -0.00, -1.00, 318.1, 202.3)">d</text><text xml:space="preserve" font-family="FranklinGothic-Book,Franklin Gothic Book" font-size="18.0" fill="#000000" transform="matrix(1.00, 0.00, -0.00, -1.00, 327.7, 202.3)">a</text><text xml:space="preserve" font-family="FranklinGothic-Book,Franklin Gothic Book" font-size="18.0" fill="#000000" transform="matrix(1.00, 0.00, -0.00, -1.00, 337.3, 202.3)">t</text><text xml:space="preserve" font-family="FranklinGothic-Book,Franklin Gothic Book" font-size="18.0" fill="#000000" transform="matrix(1.00, 0.00, -0.00, -1.00, 342.5, 202.3)">e</text><text xml:space="preserve" font-family="FranklinGothic-Book,Franklin Gothic Book" font-size="18.0" fill="#000000" transform="matrix(1.00, 0.00, -0.00, -1.00, 351.8, 202.3)">,</text><text xml:space="preserve" font-family="FranklinGothic-Book,Franklin Gothic Book" font-size="18.0" fill="#000000" transform="matrix(1.00, 0.00, -0.00, -1.00, 356.3, 202.3)"> </text><text xml:space="preserve" font-family="FranklinGothic-Book,Franklin Gothic Book" font-size="18.0" fill="#000000" transform="matrix(1.00, 0.00, -0.00, -1.00, 360.8, 202.3)">O</text><text xml:space="preserve" font-family="FranklinGothic-Book,Franklin Gothic Book" font-size="18.0" fill="#000000" transform="matrix(1.00, 0.00, -0.00, -1.00, 372.2, 202.3)">r</text><text xml:space="preserve" font-family="FranklinGothic-Book,Franklin Gothic Book" font-size="18.0" fill="#000000" transform="matrix(1.00, 0.00, -0.00, -1.00, 378.1, 202.3)">i</text><text xml:space="preserve" font-family="FranklinGothic-Book,Franklin Gothic Book" font-size="18.0" fill="#000000" transform="matrix(1.00, 0.00, -0.00, -1.00, 382.3, 202.3)">g</text><text xml:space="preserve" font-family="FranklinGothic-Book,Franklin Gothic Book" font-size="18.0" fill="#000000" transform="matrix(1.00, 0.00, -0.00, -1.00, 391.1, 202.3)">i</text><text xml:space="preserve" font-family="FranklinGothic-Book,Franklin Gothic Book" font-size="18.0" fill="#000000" transform="matrix(1.00, 0.00, -0.00, -1.00, 395.2, 202.3)">n</text><text xml:space="preserve" font-family="FranklinGothic-Book,Franklin Gothic Book" font-size="18.0" fill="#000000" transform="matrix(1.00, 0.00, -0.00, -1.00, 405.0, 202.3)">a</text><text xml:space="preserve" font-family="FranklinGothic-Book,Franklin Gothic Book" font-size="18.0" fill="#000000" transform="matrix(1.00, 0.00, -0.00, -1.00, 414.5, 202.3)">l</text><text xml:space="preserve" font-family="FranklinGothic-Book,Franklin Gothic Book" font-size="18.0" fill="#000000" transform="matrix(1.00, 0.00, -0.00, -1.00, 418.7, 202.3)">l</text><text xml:space="preserve" font-family="FranklinGothic-Book,Franklin Gothic Book" font-size="18.0" fill="#000000" transform="matrix(1.00, 0.00, -0.00, -1.00, 422.8, 202.3)">y</text><text xml:space="preserve" font-family="FranklinGothic-Book,Franklin Gothic Book" font-size="18.0" fill="#000000" transform="matrix(1.00, 0.00, -0.00, -1.00, 430.3, 202.3)"> </text><text xml:space="preserve" font-family="FranklinGothic-Book,Franklin Gothic Book" font-size="18.0" fill="#000000" transform="matrix(1.00, 0.00, -0.00, -1.00, 434.8, 202.3)">a</text><text xml:space="preserve" font-family="FranklinGothic-Book,Franklin Gothic Book" font-size="18.0" fill="#000000" transform="matrix(1.00, 0.00, -0.00, -1.00, 444.3, 202.3)">i</text><text xml:space="preserve" font-family="FranklinGothic-Book,Franklin Gothic Book" font-size="18.0" fill="#000000" transform="matrix(1.00, 0.00, -0.00, -1.00, 448.4, 202.3)">r</text><text xml:space="preserve" font-family="FranklinGothic-Book,Franklin Gothic Book" font-size="18.0" fill="#000000" transform="matrix(1.00, 0.00, -0.00, -1.00, 454.4, 202.3)">e</text><text xml:space="preserve" font-family="FranklinGothic-Book,Franklin Gothic Book" font-size="18.0" fill="#000000" transform="matrix(1.00, 0.00, -0.00, -1.00, 463.7, 202.3)">d</text><text xml:space="preserve" font-family="FranklinGothic-Book,Franklin Gothic Book" font-size="18.0" fill="#000000" transform="matrix(1.00, 0.00, -0.00, -1.00, 473.4, 202.3)"> </text><text xml:space="preserve" font-family="FranklinGothic-Book,Franklin Gothic Book" font-size="18.0" fill="#000000" transform="matrix(1.00, 0.00, -0.00, -1.00, 477.9, 202.3)">3</text><text xml:space="preserve" font-family="FranklinGothic-Book,Franklin Gothic Book" font-size="18.0" fill="#000000" transform="matrix(1.00, 0.00, -0.00, -1.00, 488.5, 202.3)">.</text><text xml:space="preserve" font-family="FranklinGothic-Book,Franklin Gothic Book" font-size="18.0" fill="#000000" transform="matrix(1.00, 0.00, -0.00, -1.00, 493.0, 202.3)">3</text><text xml:space="preserve" font-family="FranklinGothic-Book,Franklin Gothic Book" font-size="18.0" fill="#000000" transform="matrix(1.00, 0.00, -0.00, -1.00, 502.7, 202.3)">1</text><text xml:space="preserve" font-family="FranklinGothic-Book,Franklin Gothic Book" font-size="18.0" fill="#000000" transform="matrix(1.00, 0.00, -0.00, -1.00, 513.1, 202.3)">.</text><text xml:space="preserve" font-family="FranklinGothic-Book,Franklin Gothic Book" font-size="18.0" fill="#000000" transform="matrix(1.00, 0.00, -0.00, -1.00, 517.6, 202.3)">2</text><text xml:space="preserve" font-family="FranklinGothic-Book,Franklin Gothic Book" font-size="18.0" fill="#000000" transform="matrix(1.00, 0.00, -0.00, -1.00, 528.2, 202.3)">0</text><text xml:space="preserve" font-family="FranklinGothic-Book,Franklin Gothic Book" font-size="18.0" fill="#000000" transform="matrix(1.00, 0.00, -0.00, -1.00, 538.0, 202.3)">1</text><text xml:space="preserve" font-family="FranklinGothic-Book,Franklin Gothic Book" font-size="18.0" fill="#000000" transform="matrix(1.00, 0.00, -0.00, -1.00, 548.6, 202.3)">2</text></g></svg>