<?xml version="1.0" encoding="UTF-8" standalone="no"?><svg xmlns="http://www.w3.org/2000/svg" xmlns:xlink="http://www.w3.org/1999/xlink" clip-rule="evenodd" stroke-miterlimit="10" viewBox="0 0 324 33"><desc>SVG generated by Keynote</desc><defs></defs><g transform="matrix(1.00, 0.00, -0.00, -1.00, 0.0, 33.0)"><path d="M 2.5 30.5 L 322.5 30.5 L 322.5 1.5 L 2.5 1.5 Z M 2.1 31.0 " fill="#FFFFFF"></path><path d="M 0.4 0.5 L 320.4 0.5 L 320.4 29.5 L 0.4 29.5 Z M 0.0 0.0 " fill="none" stroke="#FA8716" stroke-width="0.75" stroke-linejoin="round" transform="matrix(1.00, 0.00, 0.00, -1.00, 2.1, 31.0)"></path><g><clipPath id="clip0x7f994deec260"><path d="M 0.8 -0.3 L 323.8 -0.3 L 323.8 32.3 L 0.8 32.3 Z M 0.8 -0.3 "></path></clipPath><g clip-path="url(#clip0x7f994deec260)"><text xml:space="preserve" font-family="Arial-ItalicMT,Arial" font-style="italic" font-size="19.0" fill="#FA8716" transform="matrix(1.00, 0.00, -0.00, -1.00, 13.3, 9.7)">W</text><text xml:space="preserve" font-family="Arial-ItalicMT,Arial" font-style="italic" font-size="19.0" fill="#FA8716" transform="matrix(1.00, 0.00, -0.00, -1.00, 31.2, 9.7)">h</text><text xml:space="preserve" font-family="Arial-ItalicMT,Arial" font-style="italic" font-size="19.0" fill="#FA8716" transform="matrix(1.00, 0.00, -0.00, -1.00, 41.8, 9.7)">a</text><text xml:space="preserve" font-family="Arial-ItalicMT,Arial" font-style="italic" font-size="19.0" fill="#FA8716" transform="matrix(1.00, 0.00, -0.00, -1.00, 52.3, 9.7)">t</text><text xml:space="preserve" font-family="Arial-ItalicMT,Arial" font-style="italic" font-size="19.0" fill="#FA8716" transform="matrix(1.00, 0.00, -0.00, -1.00, 57.6, 9.7)"> </text><text xml:space="preserve" font-family="Arial-ItalicMT,Arial" font-style="italic" font-size="19.0" fill="#FA8716" transform="matrix(1.00, 0.00, -0.00, -1.00, 62.9, 9.7)">m</text><text xml:space="preserve" font-family="Arial-ItalicMT,Arial" font-style="italic" font-size="19.0" fill="#FA8716" transform="matrix(1.00, 0.00, -0.00, -1.00, 78.7, 9.7)">a</text><text xml:space="preserve" font-family="Arial-ItalicMT,Arial" font-style="italic" font-size="19.0" fill="#FA8716" transform="matrix(1.00, 0.00, -0.00, -1.00, 89.3, 9.7)">d</text><text xml:space="preserve" font-family="Arial-ItalicMT,Arial" font-style="italic" font-size="19.0" fill="#FA8716" transform="matrix(1.00, 0.00, -0.00, -1.00, 99.9, 9.7)">e</text><text xml:space="preserve" font-family="Arial-ItalicMT,Arial" font-style="italic" font-size="19.0" fill="#FA8716" transform="matrix(1.00, 0.00, -0.00, -1.00, 110.4, 9.7)"> </text><text xml:space="preserve" font-family="Arial-ItalicMT,Arial" font-style="italic" font-size="19.0" fill="#FA8716" transform="matrix(1.00, 0.00, -0.00, -1.00, 115.7, 9.7)">y</text><text xml:space="preserve" font-family="Arial-ItalicMT,Arial" font-style="italic" font-size="19.0" fill="#FA8716" transform="matrix(1.00, 0.00, -0.00, -1.00, 125.2, 9.7)">o</text><text xml:space="preserve" font-family="Arial-ItalicMT,Arial" font-style="italic" font-size="19.0" fill="#FA8716" transform="matrix(1.00, 0.00, -0.00, -1.00, 135.8, 9.7)">u</text><text xml:space="preserve" font-family="Arial-ItalicMT,Arial" font-style="italic" font-size="19.0" fill="#FA8716" transform="matrix(1.00, 0.00, -0.00, -1.00, 146.4, 9.7)"> </text><text xml:space="preserve" font-family="Arial-ItalicMT,Arial" font-style="italic" font-size="19.0" fill="#FA8716" transform="matrix(1.00, 0.00, -0.00, -1.00, 151.6, 9.7)">c</text><text xml:space="preserve" font-family="Arial-ItalicMT,Arial" font-style="italic" font-size="19.0" fill="#FA8716" transform="matrix(1.00, 0.00, -0.00, -1.00, 161.1, 9.7)">h</text><text xml:space="preserve" font-family="Arial-ItalicMT,Arial" font-style="italic" font-size="19.0" fill="#FA8716" transform="matrix(1.00, 0.00, -0.00, -1.00, 171.7, 9.7)">o</text><text xml:space="preserve" font-family="Arial-ItalicMT,Arial" font-style="italic" font-size="19.0" fill="#FA8716" transform="matrix(1.00, 0.00, -0.00, -1.00, 182.3, 9.7)">o</text><text xml:space="preserve" font-family="Arial-ItalicMT,Arial" font-style="italic" font-size="19.0" fill="#FA8716" transform="matrix(1.00, 0.00, -0.00, -1.00, 192.8, 9.7)">s</text><text xml:space="preserve" font-family="Arial-ItalicMT,Arial" font-style="italic" font-size="19.0" fill="#FA8716" transform="matrix(1.00, 0.00, -0.00, -1.00, 202.3, 9.7)">e</text><text xml:space="preserve" font-family="Arial-ItalicMT,Arial" font-style="italic" font-size="19.0" fill="#FA8716" transform="matrix(1.00, 0.00, -0.00, -1.00, 212.9, 9.7)"> </text><text xml:space="preserve" font-family="Arial-ItalicMT,Arial" font-style="italic" font-size="19.0" fill="#FA8716" transform="matrix(1.00, 0.00, -0.00, -1.00, 218.2, 9.7)">y</text><text xml:space="preserve" font-family="Arial-ItalicMT,Arial" font-style="italic" font-size="19.0" fill="#FA8716" transform="matrix(1.00, 0.00, -0.00, -1.00, 227.7, 9.7)">o</text><text xml:space="preserve" font-family="Arial-ItalicMT,Arial" font-style="italic" font-size="19.0" fill="#FA8716" transform="matrix(1.00, 0.00, -0.00, -1.00, 238.3, 9.7)">u</text><text xml:space="preserve" font-family="Arial-ItalicMT,Arial" font-style="italic" font-size="19.0" fill="#FA8716" transform="matrix(1.00, 0.00, -0.00, -1.00, 248.8, 9.7)">r</text><text xml:space="preserve" font-family="Arial-ItalicMT,Arial" font-style="italic" font-size="19.0" fill="#FA8716" transform="matrix(1.00, 0.00, -0.00, -1.00, 255.2, 9.7)"> </text><text xml:space="preserve" font-family="Arial-ItalicMT,Arial" font-style="italic" font-size="19.0" fill="#FA8716" transform="matrix(1.00, 0.00, -0.00, -1.00, 260.4, 9.7)">m</text><text xml:space="preserve" font-family="Arial-ItalicMT,Arial" font-style="italic" font-size="19.0" fill="#FA8716" transform="matrix(1.00, 0.00, -0.00, -1.00, 276.3, 9.7)">a</text><text xml:space="preserve" font-family="Arial-ItalicMT,Arial" font-style="italic" font-size="19.0" fill="#FA8716" transform="matrix(1.00, 0.00, -0.00, -1.00, 286.8, 9.7)">j</text><text xml:space="preserve" font-family="Arial-ItalicMT,Arial" font-style="italic" font-size="19.0" fill="#FA8716" transform="matrix(1.00, 0.00, -0.00, -1.00, 291.1, 9.7)">o</text><text xml:space="preserve" font-family="Arial-ItalicMT,Arial" font-style="italic" font-size="19.0" fill="#FA8716" transform="matrix(1.00, 0.00, -0.00, -1.00, 301.6, 9.7)">r</text><text xml:space="preserve" font-family="Arial-ItalicMT,Arial" font-style="italic" font-size="19.0" fill="#FA8716" transform="matrix(1.00, 0.00, -0.00, -1.00, 308.0, 9.7)">?</text></g></g></g></svg>