<?xml version="1.0" encoding="UTF-8" standalone="no"?><svg xmlns="http://www.w3.org/2000/svg" xmlns:xlink="http://www.w3.org/1999/xlink" clip-rule="evenodd" stroke-miterlimit="10" viewBox="0 0 258 16"><desc>SVG generated by Keynote</desc><defs></defs><g transform="matrix(1.00, 0.00, -0.00, -1.00, 0.0, 16.0)"><text xml:space="preserve" font-family="FranklinGothic-Book,Franklin Gothic Book" font-size="18.0" fill="#000000" transform="matrix(1.00, 0.00, -0.00, -1.00, 1.0, 2.3)">M</text><text xml:space="preserve" font-family="FranklinGothic-Book,Franklin Gothic Book" font-size="18.0" fill="#000000" transform="matrix(1.00, 0.00, -0.00, -1.00, 15.6, 2.3)">c</text><text xml:space="preserve" font-family="FranklinGothic-Book,Franklin Gothic Book" font-size="18.0" fill="#000000" transform="matrix(1.00, 0.00, -0.00, -1.00, 24.0, 2.3)">G</text><text xml:space="preserve" font-family="FranklinGothic-Book,Franklin Gothic Book" font-size="18.0" fill="#000000" transform="matrix(1.00, 0.00, -0.00, -1.00, 35.6, 2.3)">r</text><text xml:space="preserve" font-family="FranklinGothic-Book,Franklin Gothic Book" font-size="18.0" fill="#000000" transform="matrix(1.00, 0.00, -0.00, -1.00, 41.5, 2.3)">a</text><text xml:space="preserve" font-family="FranklinGothic-Book,Franklin Gothic Book" font-size="18.0" fill="#000000" transform="matrix(1.00, 0.00, -0.00, -1.00, 51.0, 2.3)">t</text><text xml:space="preserve" font-family="FranklinGothic-Book,Franklin Gothic Book" font-size="18.0" fill="#000000" transform="matrix(1.00, 0.00, -0.00, -1.00, 56.6, 2.3)">h</text><text xml:space="preserve" font-family="FranklinGothic-Book,Franklin Gothic Book" font-size="18.0" fill="#000000" transform="matrix(1.00, 0.00, -0.00, -1.00, 66.3, 2.3)"> </text><text xml:space="preserve" font-family="FranklinGothic-Book,Franklin Gothic Book" font-size="18.0" fill="#000000" transform="matrix(1.00, 0.00, -0.00, -1.00, 70.8, 2.3)">P</text><text xml:space="preserve" font-family="FranklinGothic-Book,Franklin Gothic Book" font-size="18.0" fill="#000000" transform="matrix(1.00, 0.00, -0.00, -1.00, 80.6, 2.3)">e</text><text xml:space="preserve" font-family="FranklinGothic-Book,Franklin Gothic Book" font-size="18.0" fill="#000000" transform="matrix(1.00, 0.00, -0.00, -1.00, 89.9, 2.3)">s</text><text xml:space="preserve" font-family="FranklinGothic-Book,Franklin Gothic Book" font-size="18.0" fill="#000000" transform="matrix(1.00, 0.00, -0.00, -1.00, 98.3, 2.3)">t</text><text xml:space="preserve" font-family="FranklinGothic-Book,Franklin Gothic Book" font-size="18.0" fill="#000000" transform="matrix(1.00, 0.00, -0.00, -1.00, 103.8, 2.3)"> </text><text xml:space="preserve" font-family="FranklinGothic-Book,Franklin Gothic Book" font-size="18.0" fill="#000000" transform="matrix(1.00, 0.00, -0.00, -1.00, 108.3, 2.3)">C</text><text xml:space="preserve" font-family="FranklinGothic-Book,Franklin Gothic Book" font-size="18.0" fill="#000000" transform="matrix(1.00, 0.00, -0.00, -1.00, 118.7, 2.3)">o</text><text xml:space="preserve" font-family="FranklinGothic-Book,Franklin Gothic Book" font-size="18.0" fill="#000000" transform="matrix(1.00, 0.00, -0.00, -1.00, 128.1, 2.3)">n</text><text xml:space="preserve" font-family="FranklinGothic-Book,Franklin Gothic Book" font-size="18.0" fill="#000000" transform="matrix(1.00, 0.00, -0.00, -1.00, 137.8, 2.3)">t</text><text xml:space="preserve" font-family="FranklinGothic-Book,Franklin Gothic Book" font-size="18.0" fill="#000000" transform="matrix(1.00, 0.00, -0.00, -1.00, 143.4, 2.3)">r</text><text xml:space="preserve" font-family="FranklinGothic-Book,Franklin Gothic Book" font-size="18.0" fill="#000000" transform="matrix(1.00, 0.00, -0.00, -1.00, 149.0, 2.3)">o</text><text xml:space="preserve" font-family="FranklinGothic-Book,Franklin Gothic Book" font-size="18.0" fill="#000000" transform="matrix(1.00, 0.00, -0.00, -1.00, 158.3, 2.3)">l</text><text xml:space="preserve" font-family="FranklinGothic-Book,Franklin Gothic Book" font-size="18.0" fill="#000000" transform="matrix(1.00, 0.00, -0.00, -1.00, 162.5, 2.3)"> </text><text xml:space="preserve" font-family="FranklinGothic-Book,Franklin Gothic Book" font-size="18.0" fill="#000000" transform="matrix(1.00, 0.00, -0.00, -1.00, 167.0, 2.3)">C</text><text xml:space="preserve" font-family="FranklinGothic-Book,Franklin Gothic Book" font-size="18.0" fill="#000000" transform="matrix(1.00, 0.00, -0.00, -1.00, 177.4, 2.3)">o</text><text xml:space="preserve" font-family="FranklinGothic-Book,Franklin Gothic Book" font-size="18.0" fill="#000000" transform="matrix(1.00, 0.00, -0.00, -1.00, 186.7, 2.3)">m</text><text xml:space="preserve" font-family="FranklinGothic-Book,Franklin Gothic Book" font-size="18.0" fill="#000000" transform="matrix(1.00, 0.00, -0.00, -1.00, 201.4, 2.3)">m</text><text xml:space="preserve" font-family="FranklinGothic-Book,Franklin Gothic Book" font-size="18.0" fill="#000000" transform="matrix(1.00, 0.00, -0.00, -1.00, 216.0, 2.3)">e</text><text xml:space="preserve" font-family="FranklinGothic-Book,Franklin Gothic Book" font-size="18.0" fill="#000000" transform="matrix(1.00, 0.00, -0.00, -1.00, 225.4, 2.3)">r</text><text xml:space="preserve" font-family="FranklinGothic-Book,Franklin Gothic Book" font-size="18.0" fill="#000000" transform="matrix(1.00, 0.00, -0.00, -1.00, 231.0, 2.3)">c</text><text xml:space="preserve" font-family="FranklinGothic-Book,Franklin Gothic Book" font-size="18.0" fill="#000000" transform="matrix(1.00, 0.00, -0.00, -1.00, 239.4, 2.3)">i</text><text xml:space="preserve" font-family="FranklinGothic-Book,Franklin Gothic Book" font-size="18.0" fill="#000000" transform="matrix(1.00, 0.00, -0.00, -1.00, 243.6, 2.3)">a</text><text xml:space="preserve" font-family="FranklinGothic-Book,Franklin Gothic Book" font-size="18.0" fill="#000000" transform="matrix(1.00, 0.00, -0.00, -1.00, 253.1, 2.3)">l</text></g></svg>