<?xml version="1.0" encoding="UTF-8" standalone="no"?><svg xmlns="http://www.w3.org/2000/svg" xmlns:xlink="http://www.w3.org/1999/xlink" clip-rule="evenodd" stroke-miterlimit="10" viewBox="0 0 779 55"><desc>SVG generated by Keynote</desc><defs></defs><g transform="matrix(1.00, 0.00, -0.00, -1.00, 0.0, 55.0)"><text xml:space="preserve" font-family="GillSans-Light,Gill Sans" font-size="56.0" fill="#525252" transform="matrix(1.00, 0.00, -0.00, -1.00, -0.2, 14.7)">O</text><text xml:space="preserve" font-family="GillSans-Light,Gill Sans" font-size="56.0" fill="#525252" transform="matrix(1.00, 0.00, -0.00, -1.00, 45.9, 14.7)">p</text><text xml:space="preserve" font-family="GillSans-Light,Gill Sans" font-size="56.0" fill="#525252" transform="matrix(1.00, 0.00, -0.00, -1.00, 74.4, 14.7)">e</text><text xml:space="preserve" font-family="GillSans-Light,Gill Sans" font-size="56.0" fill="#525252" transform="matrix(1.00, 0.00, -0.00, -1.00, 101.2, 14.7)">n</text><text xml:space="preserve" font-family="GillSans-Light,Gill Sans" font-size="56.0" fill="#525252" transform="matrix(1.00, 0.00, -0.00, -1.00, 128.7, 14.7)">i</text><text xml:space="preserve" font-family="GillSans-Light,Gill Sans" font-size="56.0" fill="#525252" transform="matrix(1.00, 0.00, -0.00, -1.00, 139.2, 14.7)">n</text><text xml:space="preserve" font-family="GillSans-Light,Gill Sans" font-size="56.0" fill="#525252" transform="matrix(1.00, 0.00, -0.00, -1.00, 166.7, 14.7)">g</text><text xml:space="preserve" font-family="GillSans-Light,Gill Sans" font-size="56.0" fill="#525252" transform="matrix(1.00, 0.00, -0.00, -1.00, 190.6, 14.7)"> </text><text xml:space="preserve" font-family="GillSans-Light,Gill Sans" font-size="56.0" fill="#525252" transform="matrix(1.00, 0.00, -0.00, -1.00, 206.1, 14.7)">t</text><text xml:space="preserve" font-family="GillSans-Light,Gill Sans" font-size="56.0" fill="#525252" transform="matrix(1.00, 0.00, -0.00, -1.00, 223.0, 14.7)">o</text><text xml:space="preserve" font-family="GillSans-Light,Gill Sans" font-size="56.0" fill="#525252" transform="matrix(1.00, 0.00, -0.00, -1.00, 253.4, 14.7)"> </text><text xml:space="preserve" font-family="GillSans-Light,Gill Sans" font-size="56.0" fill="#525252" transform="matrix(1.00, 0.00, -0.00, -1.00, 263.3, 14.7)">“</text><text xml:space="preserve" font-family="GillSans-Light,Gill Sans" font-size="56.0" fill="#525252" transform="matrix(1.00, 0.00, -0.00, -1.00, 285.5, 14.7)">B</text><text xml:space="preserve" font-family="GillSans-Light,Gill Sans" font-size="56.0" fill="#525252" transform="matrix(1.00, 0.00, -0.00, -1.00, 315.2, 14.7)">i</text><text xml:space="preserve" font-family="GillSans-Light,Gill Sans" font-size="56.0" fill="#525252" transform="matrix(1.00, 0.00, -0.00, -1.00, 325.7, 14.7)">r</text><text xml:space="preserve" font-family="GillSans-Light,Gill Sans" font-size="56.0" fill="#525252" transform="matrix(1.00, 0.00, -0.00, -1.00, 344.4, 14.7)">d</text><text xml:space="preserve" font-family="GillSans-Light,Gill Sans" font-size="56.0" fill="#525252" transform="matrix(1.00, 0.00, -0.00, -1.00, 372.9, 14.7)"> </text><text xml:space="preserve" font-family="GillSans-Light,Gill Sans" font-size="56.0" fill="#525252" transform="matrix(1.00, 0.00, -0.00, -1.00, 388.4, 14.7)">I</text><text xml:space="preserve" font-family="GillSans-Light,Gill Sans" font-size="56.0" fill="#525252" transform="matrix(1.00, 0.00, -0.00, -1.00, 400.1, 14.7)">m</text><text xml:space="preserve" font-family="GillSans-Light,Gill Sans" font-size="56.0" fill="#525252" transform="matrix(1.00, 0.00, -0.00, -1.00, 443.3, 14.7)">i</text><text xml:space="preserve" font-family="GillSans-Light,Gill Sans" font-size="56.0" fill="#525252" transform="matrix(1.00, 0.00, -0.00, -1.00, 453.8, 14.7)">t</text><text xml:space="preserve" font-family="GillSans-Light,Gill Sans" font-size="56.0" fill="#525252" transform="matrix(1.00, 0.00, -0.00, -1.00, 470.7, 14.7)">a</text><text xml:space="preserve" font-family="GillSans-Light,Gill Sans" font-size="56.0" fill="#525252" transform="matrix(1.00, 0.00, -0.00, -1.00, 494.6, 14.7)">t</text><text xml:space="preserve" font-family="GillSans-Light,Gill Sans" font-size="56.0" fill="#525252" transform="matrix(1.00, 0.00, -0.00, -1.00, 511.5, 14.7)">i</text><text xml:space="preserve" font-family="GillSans-Light,Gill Sans" font-size="56.0" fill="#525252" transform="matrix(1.00, 0.00, -0.00, -1.00, 522.0, 14.7)">o</text><text xml:space="preserve" font-family="GillSans-Light,Gill Sans" font-size="56.0" fill="#525252" transform="matrix(1.00, 0.00, -0.00, -1.00, 552.3, 14.7)">n</text><text xml:space="preserve" font-family="GillSans-Light,Gill Sans" font-size="56.0" fill="#525252" transform="matrix(1.00, 0.00, -0.00, -1.00, 579.8, 14.7)">s</text><text xml:space="preserve" font-family="GillSans-Light,Gill Sans" font-size="56.0" fill="#525252" transform="matrix(1.00, 0.00, -0.00, -1.00, 599.6, 14.7)">”</text><text xml:space="preserve" font-family="GillSans-Light,Gill Sans" font-size="56.0" fill="#525252" transform="matrix(1.00, 0.00, -0.00, -1.00, 617.3, 14.7)"> </text><text xml:space="preserve" font-family="GillSans-Light,Gill Sans" font-size="56.0" fill="#525252" transform="matrix(1.00, 0.00, -0.00, -1.00, 632.9, 14.7)">(</text><text xml:space="preserve" font-family="GillSans-Light,Gill Sans" font-size="56.0" fill="#525252" transform="matrix(1.00, 0.00, -0.00, -1.00, 651.5, 14.7)">1</text><text xml:space="preserve" font-family="GillSans-Light,Gill Sans" font-size="56.0" fill="#525252" transform="matrix(1.00, 0.00, -0.00, -1.00, 679.5, 14.7)">9</text><text xml:space="preserve" font-family="GillSans-Light,Gill Sans" font-size="56.0" fill="#525252" transform="matrix(1.00, 0.00, -0.00, -1.00, 707.5, 14.7)">0</text><text xml:space="preserve" font-family="GillSans-Light,Gill Sans" font-size="56.0" fill="#525252" transform="matrix(1.00, 0.00, -0.00, -1.00, 735.5, 14.7)">2</text><text xml:space="preserve" font-family="GillSans-Light,Gill Sans" font-size="56.0" fill="#525252" transform="matrix(1.00, 0.00, -0.00, -1.00, 763.5, 14.7)">)</text></g></svg>