<?xml version="1.0" encoding="UTF-8" standalone="no"?><svg xmlns="http://www.w3.org/2000/svg" xmlns:xlink="http://www.w3.org/1999/xlink" clip-rule="evenodd" stroke-miterlimit="10" viewBox="0 0 1024 768"><desc>SVG generated by Keynote</desc><defs></defs><g transform="matrix(1.00, 0.00, -0.00, -1.00, 0.0, 768.0)"><g><clipPath id="clip0x7fca77666ea0"><path d="M 0.0 768.0 L 1024.0 768.0 L 1024.0 0.0 L 0.0 0.0 Z M 0.0 768.0 "></path></clipPath><g clip-path="url(#clip0x7fca77666ea0)"><image xlink:href="../../C5C39D88-6DF7-4364-885A-B0C73D57ADEF/assets/E532EB3C3E7D08F7018DF18678F5E36F.jpeg" width="2048.00" height="1536.00" transform="matrix(0.50, 0.00, -0.00, -0.50, 0.0, 768.0)"></image></g></g><text xml:space="preserve" font-family="GillSans-Light,Gill Sans" font-size="56.0" fill="#525252" transform="matrix(1.00, 0.00, -0.00, -1.00, 81.3, 332.1)">O</text><text xml:space="preserve" font-family="GillSans-Light,Gill Sans" font-size="56.0" fill="#525252" transform="matrix(1.00, 0.00, -0.00, -1.00, 127.4, 332.1)">p</text><text xml:space="preserve" font-family="GillSans-Light,Gill Sans" font-size="56.0" fill="#525252" transform="matrix(1.00, 0.00, -0.00, -1.00, 155.9, 332.1)">e</text><text xml:space="preserve" font-family="GillSans-Light,Gill Sans" font-size="56.0" fill="#525252" transform="matrix(1.00, 0.00, -0.00, -1.00, 182.8, 332.1)">n</text><text xml:space="preserve" font-family="GillSans-Light,Gill Sans" font-size="56.0" fill="#525252" transform="matrix(1.00, 0.00, -0.00, -1.00, 210.2, 332.1)">i</text><text xml:space="preserve" font-family="GillSans-Light,Gill Sans" font-size="56.0" fill="#525252" transform="matrix(1.00, 0.00, -0.00, -1.00, 220.7, 332.1)">n</text><text xml:space="preserve" font-family="GillSans-Light,Gill Sans" font-size="56.0" fill="#525252" transform="matrix(1.00, 0.00, -0.00, -1.00, 248.2, 332.1)">g</text><text xml:space="preserve" font-family="GillSans-Light,Gill Sans" font-size="56.0" fill="#525252" transform="matrix(1.00, 0.00, -0.00, -1.00, 272.1, 332.1)"> </text><text xml:space="preserve" font-family="GillSans-Light,Gill Sans" font-size="56.0" fill="#525252" transform="matrix(1.00, 0.00, -0.00, -1.00, 287.6, 332.1)">t</text><text xml:space="preserve" font-family="GillSans-Light,Gill Sans" font-size="56.0" fill="#525252" transform="matrix(1.00, 0.00, -0.00, -1.00, 304.5, 332.1)">o</text><text xml:space="preserve" font-family="GillSans-Light,Gill Sans" font-size="56.0" fill="#525252" transform="matrix(1.00, 0.00, -0.00, -1.00, 334.9, 332.1)"> </text><text xml:space="preserve" font-family="GillSans-LightItalic,Gill Sans" font-style="italic" font-size="56.0" fill="#525252" transform="matrix(1.00, 0.00, -0.00, -1.00, 350.5, 332.1)">A</text><text xml:space="preserve" font-family="GillSans-LightItalic,Gill Sans" font-style="italic" font-size="56.0" fill="#525252" transform="matrix(1.00, 0.00, -0.00, -1.00, 380.8, 332.1)">m</text><text xml:space="preserve" font-family="GillSans-LightItalic,Gill Sans" font-style="italic" font-size="56.0" fill="#525252" transform="matrix(1.00, 0.00, -0.00, -1.00, 422.3, 332.1)">e</text><text xml:space="preserve" font-family="GillSans-LightItalic,Gill Sans" font-style="italic" font-size="56.0" fill="#525252" transform="matrix(1.00, 0.00, -0.00, -1.00, 447.4, 332.1)">r</text><text xml:space="preserve" font-family="GillSans-LightItalic,Gill Sans" font-style="italic" font-size="56.0" fill="#525252" transform="matrix(1.00, 0.00, -0.00, -1.00, 464.0, 332.1)">i</text><text xml:space="preserve" font-family="GillSans-LightItalic,Gill Sans" font-style="italic" font-size="56.0" fill="#525252" transform="matrix(1.00, 0.00, -0.00, -1.00, 473.8, 332.1)">c</text><text xml:space="preserve" font-family="GillSans-LightItalic,Gill Sans" font-style="italic" font-size="56.0" fill="#525252" transform="matrix(1.00, 0.00, -0.00, -1.00, 495.4, 332.1)">a</text><text xml:space="preserve" font-family="GillSans-LightItalic,Gill Sans" font-style="italic" font-size="56.0" fill="#525252" transform="matrix(1.00, 0.00, -0.00, -1.00, 522.2, 332.1)">n</text><text xml:space="preserve" font-family="GillSans-LightItalic,Gill Sans" font-style="italic" font-size="56.0" fill="#525252" transform="matrix(1.00, 0.00, -0.00, -1.00, 547.8, 332.1)"> </text><text xml:space="preserve" font-family="GillSans-LightItalic,Gill Sans" font-style="italic" font-size="56.0" fill="#525252" transform="matrix(1.00, 0.00, -0.00, -1.00, 563.4, 332.1)">B</text><text xml:space="preserve" font-family="GillSans-LightItalic,Gill Sans" font-style="italic" font-size="56.0" fill="#525252" transform="matrix(1.00, 0.00, -0.00, -1.00, 593.1, 332.1)">i</text><text xml:space="preserve" font-family="GillSans-LightItalic,Gill Sans" font-style="italic" font-size="56.0" fill="#525252" transform="matrix(1.00, 0.00, -0.00, -1.00, 603.0, 332.1)">r</text><text xml:space="preserve" font-family="GillSans-LightItalic,Gill Sans" font-style="italic" font-size="56.0" fill="#525252" transform="matrix(1.00, 0.00, -0.00, -1.00, 618.2, 332.1)">d</text><text xml:space="preserve" font-family="GillSans-LightItalic,Gill Sans" font-style="italic" font-size="56.0" fill="#525252" transform="matrix(1.00, 0.00, -0.00, -1.00, 644.5, 332.1)"> </text><text xml:space="preserve" font-family="GillSans-LightItalic,Gill Sans" font-style="italic" font-size="56.0" fill="#525252" transform="matrix(1.00, 0.00, -0.00, -1.00, 660.0, 332.1)">S</text><text xml:space="preserve" font-family="GillSans-LightItalic,Gill Sans" font-style="italic" font-size="56.0" fill="#525252" transform="matrix(1.00, 0.00, -0.00, -1.00, 683.4, 332.1)">o</text><text xml:space="preserve" font-family="GillSans-LightItalic,Gill Sans" font-style="italic" font-size="56.0" fill="#525252" transform="matrix(1.00, 0.00, -0.00, -1.00, 708.5, 332.1)">n</text><text xml:space="preserve" font-family="GillSans-LightItalic,Gill Sans" font-style="italic" font-size="56.0" fill="#525252" transform="matrix(1.00, 0.00, -0.00, -1.00, 734.1, 332.1)">g</text><text xml:space="preserve" font-family="GillSans-LightItalic,Gill Sans" font-style="italic" font-size="56.0" fill="#525252" transform="matrix(1.00, 0.00, -0.00, -1.00, 758.0, 332.1)">s</text><text xml:space="preserve" font-family="GillSans-Light,Gill Sans" font-size="56.0" fill="#525252" transform="matrix(1.00, 0.00, -0.00, -1.00, 777.9, 332.1)"> </text><text xml:space="preserve" font-family="GillSans-Light,Gill Sans" font-size="56.0" fill="#525252" transform="matrix(1.00, 0.00, -0.00, -1.00, 793.4, 332.1)">(</text><text xml:space="preserve" font-family="GillSans-Light,Gill Sans" font-size="56.0" fill="#525252" transform="matrix(1.00, 0.00, -0.00, -1.00, 812.1, 332.1)">1</text><text xml:space="preserve" font-family="GillSans-Light,Gill Sans" font-size="56.0" fill="#525252" transform="matrix(1.00, 0.00, -0.00, -1.00, 840.1, 332.1)">9</text><text xml:space="preserve" font-family="GillSans-Light,Gill Sans" font-size="56.0" fill="#525252" transform="matrix(1.00, 0.00, -0.00, -1.00, 868.1, 332.1)">4</text><text xml:space="preserve" font-family="GillSans-Light,Gill Sans" font-size="56.0" fill="#525252" transform="matrix(1.00, 0.00, -0.00, -1.00, 896.1, 332.1)">2</text><text xml:space="preserve" font-family="GillSans-Light,Gill Sans" font-size="56.0" fill="#525252" transform="matrix(1.00, 0.00, -0.00, -1.00, 924.1, 332.1)">)</text><text xml:space="preserve" font-family="GillSans-Light,Gill Sans" font-size="56.0" fill="#525252" transform="matrix(1.00, 0.00, -0.00, -1.00, 120.8, 645.7)">O</text><text xml:space="preserve" font-family="GillSans-Light,Gill Sans" font-size="56.0" fill="#525252" transform="matrix(1.00, 0.00, -0.00, -1.00, 166.9, 645.7)">p</text><text xml:space="preserve" font-family="GillSans-Light,Gill Sans" font-size="56.0" fill="#525252" transform="matrix(1.00, 0.00, -0.00, -1.00, 195.4, 645.7)">e</text><text xml:space="preserve" font-family="GillSans-Light,Gill Sans" font-size="56.0" fill="#525252" transform="matrix(1.00, 0.00, -0.00, -1.00, 222.2, 645.7)">n</text><text xml:space="preserve" font-family="GillSans-Light,Gill Sans" font-size="56.0" fill="#525252" transform="matrix(1.00, 0.00, -0.00, -1.00, 249.7, 645.7)">i</text><text xml:space="preserve" font-family="GillSans-Light,Gill Sans" font-size="56.0" fill="#525252" transform="matrix(1.00, 0.00, -0.00, -1.00, 260.2, 645.7)">n</text><text xml:space="preserve" font-family="GillSans-Light,Gill Sans" font-size="56.0" fill="#525252" transform="matrix(1.00, 0.00, -0.00, -1.00, 287.7, 645.7)">g</text><text xml:space="preserve" font-family="GillSans-Light,Gill Sans" font-size="56.0" fill="#525252" transform="matrix(1.00, 0.00, -0.00, -1.00, 311.6, 645.7)"> </text><text xml:space="preserve" font-family="GillSans-Light,Gill Sans" font-size="56.0" fill="#525252" transform="matrix(1.00, 0.00, -0.00, -1.00, 327.1, 645.7)">t</text><text xml:space="preserve" font-family="GillSans-Light,Gill Sans" font-size="56.0" fill="#525252" transform="matrix(1.00, 0.00, -0.00, -1.00, 344.0, 645.7)">o</text><text xml:space="preserve" font-family="GillSans-Light,Gill Sans" font-size="56.0" fill="#525252" transform="matrix(1.00, 0.00, -0.00, -1.00, 374.4, 645.7)"> </text><text xml:space="preserve" font-family="GillSans-Light,Gill Sans" font-size="56.0" fill="#525252" transform="matrix(1.00, 0.00, -0.00, -1.00, 384.3, 645.7)">“</text><text xml:space="preserve" font-family="GillSans-Light,Gill Sans" font-size="56.0" fill="#525252" transform="matrix(1.00, 0.00, -0.00, -1.00, 406.5, 645.7)">B</text><text xml:space="preserve" font-family="GillSans-Light,Gill Sans" font-size="56.0" fill="#525252" transform="matrix(1.00, 0.00, -0.00, -1.00, 436.2, 645.7)">i</text><text xml:space="preserve" font-family="GillSans-Light,Gill Sans" font-size="56.0" fill="#525252" transform="matrix(1.00, 0.00, -0.00, -1.00, 446.7, 645.7)">r</text><text xml:space="preserve" font-family="GillSans-Light,Gill Sans" font-size="56.0" fill="#525252" transform="matrix(1.00, 0.00, -0.00, -1.00, 465.4, 645.7)">d</text><text xml:space="preserve" font-family="GillSans-Light,Gill Sans" font-size="56.0" fill="#525252" transform="matrix(1.00, 0.00, -0.00, -1.00, 493.9, 645.7)"> </text><text xml:space="preserve" font-family="GillSans-Light,Gill Sans" font-size="56.0" fill="#525252" transform="matrix(1.00, 0.00, -0.00, -1.00, 509.4, 645.7)">I</text><text xml:space="preserve" font-family="GillSans-Light,Gill Sans" font-size="56.0" fill="#525252" transform="matrix(1.00, 0.00, -0.00, -1.00, 521.1, 645.7)">m</text><text xml:space="preserve" font-family="GillSans-Light,Gill Sans" font-size="56.0" fill="#525252" transform="matrix(1.00, 0.00, -0.00, -1.00, 564.3, 645.7)">i</text><text xml:space="preserve" font-family="GillSans-Light,Gill Sans" font-size="56.0" fill="#525252" transform="matrix(1.00, 0.00, -0.00, -1.00, 574.8, 645.7)">t</text><text xml:space="preserve" font-family="GillSans-Light,Gill Sans" font-size="56.0" fill="#525252" transform="matrix(1.00, 0.00, -0.00, -1.00, 591.7, 645.7)">a</text><text xml:space="preserve" font-family="GillSans-Light,Gill Sans" font-size="56.0" fill="#525252" transform="matrix(1.00, 0.00, -0.00, -1.00, 615.6, 645.7)">t</text><text xml:space="preserve" font-family="GillSans-Light,Gill Sans" font-size="56.0" fill="#525252" transform="matrix(1.00, 0.00, -0.00, -1.00, 632.5, 645.7)">i</text><text xml:space="preserve" font-family="GillSans-Light,Gill Sans" font-size="56.0" fill="#525252" transform="matrix(1.00, 0.00, -0.00, -1.00, 643.0, 645.7)">o</text><text xml:space="preserve" font-family="GillSans-Light,Gill Sans" font-size="56.0" fill="#525252" transform="matrix(1.00, 0.00, -0.00, -1.00, 673.3, 645.7)">n</text><text xml:space="preserve" font-family="GillSans-Light,Gill Sans" font-size="56.0" fill="#525252" transform="matrix(1.00, 0.00, -0.00, -1.00, 700.8, 645.7)">s</text><text xml:space="preserve" font-family="GillSans-Light,Gill Sans" font-size="56.0" fill="#525252" transform="matrix(1.00, 0.00, -0.00, -1.00, 720.6, 645.7)">”</text><text xml:space="preserve" font-family="GillSans-Light,Gill Sans" font-size="56.0" fill="#525252" transform="matrix(1.00, 0.00, -0.00, -1.00, 738.3, 645.7)"> </text><text xml:space="preserve" font-family="GillSans-Light,Gill Sans" font-size="56.0" fill="#525252" transform="matrix(1.00, 0.00, -0.00, -1.00, 753.9, 645.7)">(</text><text xml:space="preserve" font-family="GillSans-Light,Gill Sans" font-size="56.0" fill="#525252" transform="matrix(1.00, 0.00, -0.00, -1.00, 772.5, 645.7)">1</text><text xml:space="preserve" font-family="GillSans-Light,Gill Sans" font-size="56.0" fill="#525252" transform="matrix(1.00, 0.00, -0.00, -1.00, 800.5, 645.7)">9</text><text xml:space="preserve" font-family="GillSans-Light,Gill Sans" font-size="56.0" fill="#525252" transform="matrix(1.00, 0.00, -0.00, -1.00, 828.5, 645.7)">0</text><text xml:space="preserve" font-family="GillSans-Light,Gill Sans" font-size="56.0" fill="#525252" transform="matrix(1.00, 0.00, -0.00, -1.00, 856.5, 645.7)">2</text><text xml:space="preserve" font-family="GillSans-Light,Gill Sans" font-size="56.0" fill="#525252" transform="matrix(1.00, 0.00, -0.00, -1.00, 884.5, 645.7)">)</text><text xml:space="preserve" font-family="GillSans-Light,Gill Sans" font-size="36.0" fill="#525252" transform="matrix(1.00, 0.00, -0.00, -1.00, 72.7, 562.7)">“</text><text xml:space="preserve" font-family="GillSans-Light,Gill Sans" font-size="36.0" fill="#525252" transform="matrix(1.00, 0.00, -0.00, -1.00, 87.0, 562.7)">a</text><text xml:space="preserve" font-family="GillSans-Light,Gill Sans" font-size="36.0" fill="#525252" transform="matrix(1.00, 0.00, -0.00, -1.00, 102.3, 562.7)"> </text><text xml:space="preserve" font-family="GillSans-Light,Gill Sans" font-size="36.0" fill="#525252" transform="matrix(1.00, 0.00, -0.00, -1.00, 112.3, 562.7)">w</text><text xml:space="preserve" font-family="GillSans-Light,Gill Sans" font-size="36.0" fill="#525252" transform="matrix(1.00, 0.00, -0.00, -1.00, 137.8, 562.7)">r</text><text xml:space="preserve" font-family="GillSans-Light,Gill Sans" font-size="36.0" fill="#525252" transform="matrix(1.00, 0.00, -0.00, -1.00, 149.8, 562.7)">e</text><text xml:space="preserve" font-family="GillSans-Light,Gill Sans" font-size="36.0" fill="#525252" transform="matrix(1.00, 0.00, -0.00, -1.00, 167.0, 562.7)">n</text><text xml:space="preserve" font-family="GillSans-Light,Gill Sans" font-size="36.0" fill="#525252" transform="matrix(1.00, 0.00, -0.00, -1.00, 184.7, 562.7)"> </text><text xml:space="preserve" font-family="GillSans-Light,Gill Sans" font-size="36.0" fill="#525252" transform="matrix(1.00, 0.00, -0.00, -1.00, 194.7, 562.7)">i</text><text xml:space="preserve" font-family="GillSans-Light,Gill Sans" font-size="36.0" fill="#525252" transform="matrix(1.00, 0.00, -0.00, -1.00, 201.5, 562.7)">s</text><text xml:space="preserve" font-family="GillSans-Light,Gill Sans" font-size="36.0" fill="#525252" transform="matrix(1.00, 0.00, -0.00, -1.00, 214.2, 562.7)"> </text><text xml:space="preserve" font-family="GillSans-Light,Gill Sans" font-size="36.0" fill="#525252" transform="matrix(1.00, 0.00, -0.00, -1.00, 224.2, 562.7)">a</text><text xml:space="preserve" font-family="GillSans-Light,Gill Sans" font-size="36.0" fill="#525252" transform="matrix(1.00, 0.00, -0.00, -1.00, 239.6, 562.7)"> </text><text xml:space="preserve" font-family="GillSans-Light,Gill Sans" font-size="36.0" fill="#525252" transform="matrix(1.00, 0.00, -0.00, -1.00, 249.5, 562.7)">s</text><text xml:space="preserve" font-family="GillSans-Light,Gill Sans" font-size="36.0" fill="#525252" transform="matrix(1.00, 0.00, -0.00, -1.00, 262.3, 562.7)">m</text><text xml:space="preserve" font-family="GillSans-Light,Gill Sans" font-size="36.0" fill="#525252" transform="matrix(1.00, 0.00, -0.00, -1.00, 290.0, 562.7)">a</text><text xml:space="preserve" font-family="GillSans-Light,Gill Sans" font-size="36.0" fill="#525252" transform="matrix(1.00, 0.00, -0.00, -1.00, 305.4, 562.7)">l</text><text xml:space="preserve" font-family="GillSans-Light,Gill Sans" font-size="36.0" fill="#525252" transform="matrix(1.00, 0.00, -0.00, -1.00, 312.2, 562.7)">l</text><text xml:space="preserve" font-family="GillSans-Light,Gill Sans" font-size="36.0" fill="#525252" transform="matrix(1.00, 0.00, -0.00, -1.00, 318.9, 562.7)"> </text><text xml:space="preserve" font-family="GillSans-Light,Gill Sans" font-size="36.0" fill="#525252" transform="matrix(1.00, 0.00, -0.00, -1.00, 328.9, 562.7)">b</text><text xml:space="preserve" font-family="GillSans-Light,Gill Sans" font-size="36.0" fill="#525252" transform="matrix(1.00, 0.00, -0.00, -1.00, 347.3, 562.7)">i</text><text xml:space="preserve" font-family="GillSans-Light,Gill Sans" font-size="36.0" fill="#525252" transform="matrix(1.00, 0.00, -0.00, -1.00, 354.0, 562.7)">r</text><text xml:space="preserve" font-family="GillSans-Light,Gill Sans" font-size="36.0" fill="#525252" transform="matrix(1.00, 0.00, -0.00, -1.00, 366.0, 562.7)">d</text><text xml:space="preserve" font-family="GillSans-Light,Gill Sans" font-size="36.0" fill="#525252" transform="matrix(1.00, 0.00, -0.00, -1.00, 384.4, 562.7)"> </text><text xml:space="preserve" font-family="GillSans-Light,Gill Sans" font-size="36.0" fill="#525252" transform="matrix(1.00, 0.00, -0.00, -1.00, 394.4, 562.7)">t</text><text xml:space="preserve" font-family="GillSans-Light,Gill Sans" font-size="36.0" fill="#525252" transform="matrix(1.00, 0.00, -0.00, -1.00, 405.2, 562.7)">h</text><text xml:space="preserve" font-family="GillSans-Light,Gill Sans" font-size="36.0" fill="#525252" transform="matrix(1.00, 0.00, -0.00, -1.00, 422.9, 562.7)">a</text><text xml:space="preserve" font-family="GillSans-Light,Gill Sans" font-size="36.0" fill="#525252" transform="matrix(1.00, 0.00, -0.00, -1.00, 438.2, 562.7)">t</text><text xml:space="preserve" font-family="GillSans-Light,Gill Sans" font-size="36.0" fill="#525252" transform="matrix(1.00, 0.00, -0.00, -1.00, 449.1, 562.7)"> </text><text xml:space="preserve" font-family="GillSans-Light,Gill Sans" font-size="36.0" fill="#525252" transform="matrix(1.00, 0.00, -0.00, -1.00, 459.1, 562.7)">w</text><text xml:space="preserve" font-family="GillSans-Light,Gill Sans" font-size="36.0" fill="#525252" transform="matrix(1.00, 0.00, -0.00, -1.00, 484.6, 562.7)">h</text><text xml:space="preserve" font-family="GillSans-Light,Gill Sans" font-size="36.0" fill="#525252" transform="matrix(1.00, 0.00, -0.00, -1.00, 502.2, 562.7)">i</text><text xml:space="preserve" font-family="GillSans-Light,Gill Sans" font-size="36.0" fill="#525252" transform="matrix(1.00, 0.00, -0.00, -1.00, 509.0, 562.7)">s</text><text xml:space="preserve" font-family="GillSans-Light,Gill Sans" font-size="36.0" fill="#525252" transform="matrix(1.00, 0.00, -0.00, -1.00, 521.7, 562.7)">t</text><text xml:space="preserve" font-family="GillSans-Light,Gill Sans" font-size="36.0" fill="#525252" transform="matrix(1.00, 0.00, -0.00, -1.00, 532.6, 562.7)">l</text><text xml:space="preserve" font-family="GillSans-Light,Gill Sans" font-size="36.0" fill="#525252" transform="matrix(1.00, 0.00, -0.00, -1.00, 539.4, 562.7)">e</text><text xml:space="preserve" font-family="GillSans-Light,Gill Sans" font-size="36.0" fill="#525252" transform="matrix(1.00, 0.00, -0.00, -1.00, 556.6, 562.7)">s</text><text xml:space="preserve" font-family="GillSans-Light,Gill Sans" font-size="36.0" fill="#525252" transform="matrix(1.00, 0.00, -0.00, -1.00, 569.4, 562.7)"> </text><text xml:space="preserve" font-family="GillSans-Light,Gill Sans" font-size="36.0" fill="#525252" transform="matrix(1.00, 0.00, -0.00, -1.00, 579.4, 562.7)">i</text><text xml:space="preserve" font-family="GillSans-Light,Gill Sans" font-size="36.0" fill="#525252" transform="matrix(1.00, 0.00, -0.00, -1.00, 586.1, 562.7)">n</text><text xml:space="preserve" font-family="GillSans-Light,Gill Sans" font-size="36.0" fill="#525252" transform="matrix(1.00, 0.00, -0.00, -1.00, 603.8, 562.7)"> </text><text xml:space="preserve" font-family="GillSans-Light,Gill Sans" font-size="36.0" fill="#525252" transform="matrix(1.00, 0.00, -0.00, -1.00, 613.8, 562.7)">t</text><text xml:space="preserve" font-family="GillSans-Light,Gill Sans" font-size="36.0" fill="#525252" transform="matrix(1.00, 0.00, -0.00, -1.00, 624.6, 562.7)">h</text><text xml:space="preserve" font-family="GillSans-Light,Gill Sans" font-size="36.0" fill="#525252" transform="matrix(1.00, 0.00, -0.00, -1.00, 642.3, 562.7)">e</text><text xml:space="preserve" font-family="GillSans-Light,Gill Sans" font-size="36.0" fill="#525252" transform="matrix(1.00, 0.00, -0.00, -1.00, 659.5, 562.7)"> </text><text xml:space="preserve" font-family="GillSans-Light,Gill Sans" font-size="36.0" fill="#525252" transform="matrix(1.00, 0.00, -0.00, -1.00, 669.5, 562.7)">m</text><text xml:space="preserve" font-family="GillSans-Light,Gill Sans" font-size="36.0" fill="#525252" transform="matrix(1.00, 0.00, -0.00, -1.00, 697.3, 562.7)">o</text><text xml:space="preserve" font-family="GillSans-Light,Gill Sans" font-size="36.0" fill="#525252" transform="matrix(1.00, 0.00, -0.00, -1.00, 716.8, 562.7)">r</text><text xml:space="preserve" font-family="GillSans-Light,Gill Sans" font-size="36.0" fill="#525252" transform="matrix(1.00, 0.00, -0.00, -1.00, 729.7, 562.7)">n</text><text xml:space="preserve" font-family="GillSans-Light,Gill Sans" font-size="36.0" fill="#525252" transform="matrix(1.00, 0.00, -0.00, -1.00, 747.3, 562.7)">i</text><text xml:space="preserve" font-family="GillSans-Light,Gill Sans" font-size="36.0" fill="#525252" transform="matrix(1.00, 0.00, -0.00, -1.00, 754.1, 562.7)">n</text><text xml:space="preserve" font-family="GillSans-Light,Gill Sans" font-size="36.0" fill="#525252" transform="matrix(1.00, 0.00, -0.00, -1.00, 771.8, 562.7)">g</text><text xml:space="preserve" font-family="GillSans-Light,Gill Sans" font-size="36.0" fill="#525252" transform="matrix(1.00, 0.00, -0.00, -1.00, 787.1, 562.7)"> </text><text xml:space="preserve" font-family="GillSans-Light,Gill Sans" font-size="36.0" fill="#525252" transform="matrix(1.00, 0.00, -0.00, -1.00, 797.1, 562.7)">l</text><text xml:space="preserve" font-family="GillSans-Light,Gill Sans" font-size="36.0" fill="#525252" transform="matrix(1.00, 0.00, -0.00, -1.00, 803.9, 562.7)">i</text><text xml:space="preserve" font-family="GillSans-Light,Gill Sans" font-size="36.0" fill="#525252" transform="matrix(1.00, 0.00, -0.00, -1.00, 810.6, 562.7)">k</text><text xml:space="preserve" font-family="GillSans-Light,Gill Sans" font-size="36.0" fill="#525252" transform="matrix(1.00, 0.00, -0.00, -1.00, 825.6, 562.7)">e</text><text xml:space="preserve" font-family="GillSans-Light,Gill Sans" font-size="36.0" fill="#525252" transform="matrix(1.00, 0.00, -0.00, -1.00, 842.9, 562.7)"> </text><text xml:space="preserve" font-family="GillSans-Light,Gill Sans" font-size="36.0" fill="#525252" transform="matrix(1.00, 0.00, -0.00, -1.00, 852.9, 562.7)">t</text><text xml:space="preserve" font-family="GillSans-Light,Gill Sans" font-size="36.0" fill="#525252" transform="matrix(1.00, 0.00, -0.00, -1.00, 863.7, 562.7)">h</text><text xml:space="preserve" font-family="GillSans-Light,Gill Sans" font-size="36.0" fill="#525252" transform="matrix(1.00, 0.00, -0.00, -1.00, 881.4, 562.7)">i</text><text xml:space="preserve" font-family="GillSans-Light,Gill Sans" font-size="36.0" fill="#525252" transform="matrix(1.00, 0.00, -0.00, -1.00, 888.2, 562.7)">s</text><text xml:space="preserve" font-family="GillSans-Light,Gill Sans" font-size="36.0" fill="#525252" transform="matrix(1.00, 0.00, -0.00, -1.00, 900.9, 562.7)">…</text><text xml:space="preserve" font-family="GillSans-Light,Gill Sans" font-size="36.0" fill="#525252" transform="matrix(1.00, 0.00, -0.00, -1.00, 936.9, 562.7)">”</text><text xml:space="preserve" font-family="GillSans-Light,Gill Sans" font-size="36.0" fill="#525252" transform="matrix(1.00, 0.00, -0.00, -1.00, 250.3, 245.4)">“</text><text xml:space="preserve" font-family="GillSans-Light,Gill Sans" font-size="36.0" fill="#525252" transform="matrix(1.00, 0.00, -0.00, -1.00, 264.6, 245.4)">ﬁ</text><text xml:space="preserve" font-family="GillSans-Light,Gill Sans" font-size="36.0" fill="#525252" transform="matrix(1.00, 0.00, -0.00, -1.00, 281.8, 245.4)">r</text><text xml:space="preserve" font-family="GillSans-Light,Gill Sans" font-size="36.0" fill="#525252" transform="matrix(1.00, 0.00, -0.00, -1.00, 295.2, 245.4)">s</text><text xml:space="preserve" font-family="GillSans-Light,Gill Sans" font-size="36.0" fill="#525252" transform="matrix(1.00, 0.00, -0.00, -1.00, 308.0, 245.4)">t</text><text xml:space="preserve" font-family="GillSans-Light,Gill Sans" font-size="36.0" fill="#525252" transform="matrix(1.00, 0.00, -0.00, -1.00, 318.8, 245.4)">,</text><text xml:space="preserve" font-family="GillSans-Light,Gill Sans" font-size="36.0" fill="#525252" transform="matrix(1.00, 0.00, -0.00, -1.00, 322.3, 245.4)"> </text><text xml:space="preserve" font-family="GillSans-Light,Gill Sans" font-size="36.0" fill="#525252" transform="matrix(1.00, 0.00, -0.00, -1.00, 332.3, 245.4)">a</text><text xml:space="preserve" font-family="GillSans-Light,Gill Sans" font-size="36.0" fill="#525252" transform="matrix(1.00, 0.00, -0.00, -1.00, 347.7, 245.4)">n</text><text xml:space="preserve" font-family="GillSans-Light,Gill Sans" font-size="36.0" fill="#525252" transform="matrix(1.00, 0.00, -0.00, -1.00, 365.3, 245.4)"> </text><text xml:space="preserve" font-family="GillSans-Light,Gill Sans" font-size="36.0" fill="#525252" transform="matrix(1.00, 0.00, -0.00, -1.00, 375.3, 245.4)">o</text><text xml:space="preserve" font-family="GillSans-Light,Gill Sans" font-size="36.0" fill="#525252" transform="matrix(1.00, 0.00, -0.00, -1.00, 394.8, 245.4)">l</text><text xml:space="preserve" font-family="GillSans-Light,Gill Sans" font-size="36.0" fill="#525252" transform="matrix(1.00, 0.00, -0.00, -1.00, 401.6, 245.4)">i</text><text xml:space="preserve" font-family="GillSans-Light,Gill Sans" font-size="36.0" fill="#525252" transform="matrix(1.00, 0.00, -0.00, -1.00, 408.4, 245.4)">v</text><text xml:space="preserve" font-family="GillSans-Light,Gill Sans" font-size="36.0" fill="#525252" transform="matrix(1.00, 0.00, -0.00, -1.00, 423.2, 245.4)">e</text><text xml:space="preserve" font-family="GillSans-Light,Gill Sans" font-size="36.0" fill="#525252" transform="matrix(1.00, 0.00, -0.00, -1.00, 440.4, 245.4)">-</text><text xml:space="preserve" font-family="GillSans-Light,Gill Sans" font-size="36.0" fill="#525252" transform="matrix(1.00, 0.00, -0.00, -1.00, 451.7, 245.4)">b</text><text xml:space="preserve" font-family="GillSans-Light,Gill Sans" font-size="36.0" fill="#525252" transform="matrix(1.00, 0.00, -0.00, -1.00, 470.0, 245.4)">a</text><text xml:space="preserve" font-family="GillSans-Light,Gill Sans" font-size="36.0" fill="#525252" transform="matrix(1.00, 0.00, -0.00, -1.00, 485.4, 245.4)">c</text><text xml:space="preserve" font-family="GillSans-Light,Gill Sans" font-size="36.0" fill="#525252" transform="matrix(1.00, 0.00, -0.00, -1.00, 500.4, 245.4)">k</text><text xml:space="preserve" font-family="GillSans-Light,Gill Sans" font-size="36.0" fill="#525252" transform="matrix(1.00, 0.00, -0.00, -1.00, 515.4, 245.4)">e</text><text xml:space="preserve" font-family="GillSans-Light,Gill Sans" font-size="36.0" fill="#525252" transform="matrix(1.00, 0.00, -0.00, -1.00, 532.6, 245.4)">d</text><text xml:space="preserve" font-family="GillSans-Light,Gill Sans" font-size="36.0" fill="#525252" transform="matrix(1.00, 0.00, -0.00, -1.00, 551.0, 245.4)"> </text><text xml:space="preserve" font-family="GillSans-Light,Gill Sans" font-size="36.0" fill="#525252" transform="matrix(1.00, 0.00, -0.00, -1.00, 561.0, 245.4)">t</text><text xml:space="preserve" font-family="GillSans-Light,Gill Sans" font-size="36.0" fill="#525252" transform="matrix(1.00, 0.00, -0.00, -1.00, 571.8, 245.4)">h</text><text xml:space="preserve" font-family="GillSans-Light,Gill Sans" font-size="36.0" fill="#525252" transform="matrix(1.00, 0.00, -0.00, -1.00, 589.5, 245.4)">r</text><text xml:space="preserve" font-family="GillSans-Light,Gill Sans" font-size="36.0" fill="#525252" transform="matrix(1.00, 0.00, -0.00, -1.00, 602.9, 245.4)">u</text><text xml:space="preserve" font-family="GillSans-Light,Gill Sans" font-size="36.0" fill="#525252" transform="matrix(1.00, 0.00, -0.00, -1.00, 620.6, 245.4)">s</text><text xml:space="preserve" font-family="GillSans-Light,Gill Sans" font-size="36.0" fill="#525252" transform="matrix(1.00, 0.00, -0.00, -1.00, 633.3, 245.4)">h</text><text xml:space="preserve" font-family="GillSans-Light,Gill Sans" font-size="36.0" fill="#525252" transform="matrix(1.00, 0.00, -0.00, -1.00, 651.0, 245.4)"> </text><text xml:space="preserve" font-family="GillSans-Light,Gill Sans" font-size="36.0" fill="#525252" transform="matrix(1.00, 0.00, -0.00, -1.00, 661.0, 245.4)">s</text><text xml:space="preserve" font-family="GillSans-Light,Gill Sans" font-size="36.0" fill="#525252" transform="matrix(1.00, 0.00, -0.00, -1.00, 673.7, 245.4)">i</text><text xml:space="preserve" font-family="GillSans-Light,Gill Sans" font-size="36.0" fill="#525252" transform="matrix(1.00, 0.00, -0.00, -1.00, 680.5, 245.4)">n</text><text xml:space="preserve" font-family="GillSans-Light,Gill Sans" font-size="36.0" fill="#525252" transform="matrix(1.00, 0.00, -0.00, -1.00, 698.1, 245.4)">g</text><text xml:space="preserve" font-family="GillSans-Light,Gill Sans" font-size="36.0" fill="#525252" transform="matrix(1.00, 0.00, -0.00, -1.00, 713.5, 245.4)">s</text><text xml:space="preserve" font-family="GillSans-Light,Gill Sans" font-size="36.0" fill="#525252" transform="matrix(1.00, 0.00, -0.00, -1.00, 726.2, 245.4)">…</text><text xml:space="preserve" font-family="GillSans-Light,Gill Sans" font-size="36.0" fill="#525252" transform="matrix(1.00, 0.00, -0.00, -1.00, 762.2, 245.4)">”</text><text xml:space="preserve" font-family="GillSans-Light,Gill Sans" font-size="36.0" fill="#525252" transform="matrix(1.00, 0.00, -0.00, -1.00, 773.6, 245.4)"> </text><text xml:space="preserve" font-family="GillSans-Light,Gill Sans" font-size="36.0" fill="#525252" transform="matrix(1.00, 0.00, -0.00, -1.00, 783.6, 245.4)"> </text></g></svg>