<?xml version="1.0" encoding="UTF-8" standalone="no"?><svg xmlns="http://www.w3.org/2000/svg" xmlns:xlink="http://www.w3.org/1999/xlink" clip-rule="evenodd" stroke-miterlimit="10" viewBox="0 0 720 540"><desc>SVG generated by Keynote</desc><defs></defs><g transform="matrix(1.00, 0.00, -0.00, -1.00, 0.0, 540.0)"><path d="M 0.0 540.0 L 720.0 540.0 L 720.0 0.0 L 0.0 0.0 Z M 0.0 540.0 " fill="#FFFFFF"></path><path d="M 0.0 0.0 L 0.0 99.0 L 160.9 99.0 L 281.2 0.0 L 0.0 0.0 Z M 0.0 -0.0 " fill="#EEE0A1"></path><path d="M -0.2 0.0 L 160.5 99.0 L 720.0 99.0 L 720.0 0.0 L -0.2 0.0 Z M -0.2 -0.0 " fill="#FA8716" fill-opacity="0.80"></path><image xlink:href="5A17D80F90AE29B78710416A81E085DE.png" width="172.00" height="33.00" transform="matrix(1.00, 0.00, -0.00, -1.00, 32.0, 505.0)"></image><text xml:space="preserve" font-family="Arial-BoldMT,Arial" font-weight="bold" font-size="32.0" fill="#FAC01E" transform="matrix(1.00, 0.00, -0.00, -1.00, 34.6, 478.7)">W</text><text xml:space="preserve" font-family="Arial-BoldMT,Arial" font-weight="bold" font-size="32.0" fill="#FAC01E" transform="matrix(1.00, 0.00, -0.00, -1.00, 64.8, 478.7)">H</text><text xml:space="preserve" font-family="Arial-BoldMT,Arial" font-weight="bold" font-size="32.0" fill="#FAC01E" transform="matrix(1.00, 0.00, -0.00, -1.00, 87.9, 478.7)">A</text><text xml:space="preserve" font-family="Arial-BoldMT,Arial" font-weight="bold" font-size="32.0" fill="#FAC01E" transform="matrix(1.00, 0.00, -0.00, -1.00, 108.7, 478.7)">T</text><text xml:space="preserve" font-family="Arial-BoldMT,Arial" font-weight="bold" font-size="32.0" fill="#FAC01E" transform="matrix(1.00, 0.00, -0.00, -1.00, 128.2, 478.7)"> </text><text xml:space="preserve" font-family="Arial-BoldMT,Arial" font-weight="bold" font-size="32.0" fill="#FAC01E" transform="matrix(1.00, 0.00, -0.00, -1.00, 137.1, 478.7)">I</text><text xml:space="preserve" font-family="Arial-BoldMT,Arial" font-weight="bold" font-size="32.0" fill="#FAC01E" transform="matrix(1.00, 0.00, -0.00, -1.00, 146.0, 478.7)">S</text><text xml:space="preserve" font-family="Arial-BoldMT,Arial" font-weight="bold" font-size="32.0" fill="#FAC01E" transform="matrix(1.00, 0.00, -0.00, -1.00, 167.3, 478.7)"> </text><text xml:space="preserve" font-family="Arial-BoldMT,Arial" font-weight="bold" font-size="32.0" fill="#FAC01E" transform="matrix(1.00, 0.00, -0.00, -1.00, 175.0, 478.7)">A</text><text xml:space="preserve" font-family="Arial-BoldMT,Arial" font-weight="bold" font-size="32.0" fill="#FAC01E" transform="matrix(1.00, 0.00, -0.00, -1.00, 196.9, 478.7)"> </text><image xlink:href="B419BDC590BBFA6C6F2B169A7A60E7D7.png" width="205.00" height="33.00" transform="matrix(1.00, 0.00, -0.00, -1.00, 204.0, 505.0)"></image><text xml:space="preserve" font-family="Arial-BoldMT,Arial" font-weight="bold" font-size="32.0" fill="#000000" transform="matrix(1.00, 0.00, -0.00, -1.00, 205.8, 478.7)">S</text><text xml:space="preserve" font-family="Arial-BoldMT,Arial" font-weight="bold" font-size="32.0" fill="#000000" transform="matrix(1.00, 0.00, -0.00, -1.00, 227.2, 478.7)">C</text><text xml:space="preserve" font-family="Arial-BoldMT,Arial" font-weight="bold" font-size="32.0" fill="#000000" transform="matrix(1.00, 0.00, -0.00, -1.00, 250.3, 478.7)">H</text><text xml:space="preserve" font-family="Arial-BoldMT,Arial" font-weight="bold" font-size="32.0" fill="#000000" transform="matrix(1.00, 0.00, -0.00, -1.00, 273.4, 478.7)">O</text><text xml:space="preserve" font-family="Arial-BoldMT,Arial" font-weight="bold" font-size="32.0" fill="#000000" transform="matrix(1.00, 0.00, -0.00, -1.00, 298.3, 478.7)">L</text><text xml:space="preserve" font-family="Arial-BoldMT,Arial" font-weight="bold" font-size="32.0" fill="#000000" transform="matrix(1.00, 0.00, -0.00, -1.00, 317.8, 478.7)">A</text><text xml:space="preserve" font-family="Arial-BoldMT,Arial" font-weight="bold" font-size="32.0" fill="#000000" transform="matrix(1.00, 0.00, -0.00, -1.00, 341.0, 478.7)">R</text><text xml:space="preserve" font-family="Arial-BoldMT,Arial" font-weight="bold" font-size="32.0" fill="#000000" transform="matrix(1.00, 0.00, -0.00, -1.00, 364.1, 478.7)">L</text><text xml:space="preserve" font-family="Arial-BoldMT,Arial" font-weight="bold" font-size="32.0" fill="#000000" transform="matrix(1.00, 0.00, -0.00, -1.00, 380.7, 478.7)">Y</text><image xlink:href="71730394040F97A417F10DE4176243DB.png" width="134.00" height="33.00" transform="matrix(1.00, 0.00, -0.00, -1.00, 409.0, 505.0)"></image><text xml:space="preserve" font-family="Arial-BoldMT,Arial" font-weight="bold" font-size="32.0" fill="#FAC01E" transform="matrix(1.00, 0.00, -0.00, -1.00, 401.4, 478.7)"> </text><text xml:space="preserve" font-family="Arial-BoldMT,Arial" font-weight="bold" font-size="32.0" fill="#FAC01E" transform="matrix(1.00, 0.00, -0.00, -1.00, 410.3, 478.7)">S</text><text xml:space="preserve" font-family="Arial-BoldMT,Arial" font-weight="bold" font-size="32.0" fill="#FAC01E" transform="matrix(1.00, 0.00, -0.00, -1.00, 431.7, 478.7)">T</text><text xml:space="preserve" font-family="Arial-BoldMT,Arial" font-weight="bold" font-size="32.0" fill="#FAC01E" transform="matrix(1.00, 0.00, -0.00, -1.00, 450.6, 478.7)">O</text><text xml:space="preserve" font-family="Arial-BoldMT,Arial" font-weight="bold" font-size="32.0" fill="#FAC01E" transform="matrix(1.00, 0.00, -0.00, -1.00, 475.5, 478.7)">R</text><text xml:space="preserve" font-family="Arial-BoldMT,Arial" font-weight="bold" font-size="32.0" fill="#FAC01E" transform="matrix(1.00, 0.00, -0.00, -1.00, 497.4, 478.7)">Y</text><text xml:space="preserve" font-family="Arial-BoldMT,Arial" font-weight="bold" font-size="32.0" fill="#FAC01E" transform="matrix(1.00, 0.00, -0.00, -1.00, 518.8, 478.7)">?</text><text xml:space="preserve" font-family="Arial-BoldMT,Arial" font-weight="bold" font-size="28.0" fill="#3F3F3F" transform="matrix(1.00, 0.00, -0.00, -1.00, 54.7, 333.4)">A</text><text xml:space="preserve" font-family="Arial-BoldMT,Arial" font-weight="bold" font-size="28.0" fill="#3F3F3F" transform="matrix(1.00, 0.00, -0.00, -1.00, 73.9, 333.4)"> </text><text xml:space="preserve" font-family="Arial-BoldMT,Arial" font-weight="bold" font-size="28.0" fill="#000000" transform="matrix(1.00, 0.00, -0.00, -1.00, 81.7, 333.4)">s</text><text xml:space="preserve" font-family="Arial-BoldMT,Arial" font-weight="bold" font-size="28.0" fill="#000000" transform="matrix(1.00, 0.00, -0.00, -1.00, 97.2, 333.4)">h</text><text xml:space="preserve" font-family="Arial-BoldMT,Arial" font-weight="bold" font-size="28.0" fill="#000000" transform="matrix(1.00, 0.00, -0.00, -1.00, 114.3, 333.4)">o</text><text xml:space="preserve" font-family="Arial-BoldMT,Arial" font-weight="bold" font-size="28.0" fill="#000000" transform="matrix(1.00, 0.00, -0.00, -1.00, 131.4, 333.4)">r</text><text xml:space="preserve" font-family="Arial-BoldMT,Arial" font-weight="bold" font-size="28.0" fill="#000000" transform="matrix(1.00, 0.00, -0.00, -1.00, 142.3, 333.4)">t</text><text xml:space="preserve" font-family="Arial-BoldMT,Arial" font-weight="bold" font-size="28.0" fill="#000000" transform="matrix(1.00, 0.00, -0.00, -1.00, 151.7, 333.4)"> </text><text xml:space="preserve" font-family="Arial-BoldMT,Arial" font-weight="bold" font-size="28.0" fill="#000000" transform="matrix(1.00, 0.00, -0.00, -1.00, 159.4, 333.4)">n</text><text xml:space="preserve" font-family="Arial-BoldMT,Arial" font-weight="bold" font-size="28.0" fill="#000000" transform="matrix(1.00, 0.00, -0.00, -1.00, 176.5, 333.4)">a</text><text xml:space="preserve" font-family="Arial-BoldMT,Arial" font-weight="bold" font-size="28.0" fill="#000000" transform="matrix(1.00, 0.00, -0.00, -1.00, 192.1, 333.4)">r</text><text xml:space="preserve" font-family="Arial-BoldMT,Arial" font-weight="bold" font-size="28.0" fill="#000000" transform="matrix(1.00, 0.00, -0.00, -1.00, 203.0, 333.4)">r</text><text xml:space="preserve" font-family="Arial-BoldMT,Arial" font-weight="bold" font-size="28.0" fill="#000000" transform="matrix(1.00, 0.00, -0.00, -1.00, 213.9, 333.4)">a</text><text xml:space="preserve" font-family="Arial-BoldMT,Arial" font-weight="bold" font-size="28.0" fill="#000000" transform="matrix(1.00, 0.00, -0.00, -1.00, 229.5, 333.4)">t</text><text xml:space="preserve" font-family="Arial-BoldMT,Arial" font-weight="bold" font-size="28.0" fill="#000000" transform="matrix(1.00, 0.00, -0.00, -1.00, 238.8, 333.4)">i</text><text xml:space="preserve" font-family="Arial-BoldMT,Arial" font-weight="bold" font-size="28.0" fill="#000000" transform="matrix(1.00, 0.00, -0.00, -1.00, 246.6, 333.4)">v</text><text xml:space="preserve" font-family="Arial-BoldMT,Arial" font-weight="bold" font-size="28.0" fill="#000000" transform="matrix(1.00, 0.00, -0.00, -1.00, 262.2, 333.4)">e</text><text xml:space="preserve" font-family="Arial-BoldMT,Arial" font-weight="bold" font-size="28.0" fill="#000000" transform="matrix(1.00, 0.00, -0.00, -1.00, 277.8, 333.4)"> </text><text xml:space="preserve" font-family="Arial-BoldMT,Arial" font-weight="bold" font-size="28.0" fill="#3F3F3F" transform="matrix(1.00, 0.00, -0.00, -1.00, 285.5, 333.4)">f</text><text xml:space="preserve" font-family="Arial-BoldMT,Arial" font-weight="bold" font-size="28.0" fill="#3F3F3F" transform="matrix(1.00, 0.00, -0.00, -1.00, 294.8, 333.4)">e</text><text xml:space="preserve" font-family="Arial-BoldMT,Arial" font-weight="bold" font-size="28.0" fill="#3F3F3F" transform="matrix(1.00, 0.00, -0.00, -1.00, 310.4, 333.4)">a</text><text xml:space="preserve" font-family="Arial-BoldMT,Arial" font-weight="bold" font-size="28.0" fill="#3F3F3F" transform="matrix(1.00, 0.00, -0.00, -1.00, 326.0, 333.4)">t</text><text xml:space="preserve" font-family="Arial-BoldMT,Arial" font-weight="bold" font-size="28.0" fill="#3F3F3F" transform="matrix(1.00, 0.00, -0.00, -1.00, 335.3, 333.4)">u</text><text xml:space="preserve" font-family="Arial-BoldMT,Arial" font-weight="bold" font-size="28.0" fill="#3F3F3F" transform="matrix(1.00, 0.00, -0.00, -1.00, 352.4, 333.4)">r</text><text xml:space="preserve" font-family="Arial-BoldMT,Arial" font-weight="bold" font-size="28.0" fill="#3F3F3F" transform="matrix(1.00, 0.00, -0.00, -1.00, 363.3, 333.4)">i</text><text xml:space="preserve" font-family="Arial-BoldMT,Arial" font-weight="bold" font-size="28.0" fill="#3F3F3F" transform="matrix(1.00, 0.00, -0.00, -1.00, 371.1, 333.4)">n</text><text xml:space="preserve" font-family="Arial-BoldMT,Arial" font-weight="bold" font-size="28.0" fill="#3F3F3F" transform="matrix(1.00, 0.00, -0.00, -1.00, 388.2, 333.4)">g</text><text xml:space="preserve" font-family="Arial-BoldMT,Arial" font-weight="bold" font-size="28.0" fill="#3F3F3F" transform="matrix(1.00, 0.00, -0.00, -1.00, 405.3, 333.4)"> </text><text xml:space="preserve" font-family="Arial-BoldMT,Arial" font-weight="bold" font-size="28.0" fill="#3F3F3F" transform="matrix(1.00, 0.00, -0.00, -1.00, 413.1, 333.4)">a</text><text xml:space="preserve" font-family="Arial-BoldMT,Arial" font-weight="bold" font-size="28.0" fill="#3F3F3F" transform="matrix(1.00, 0.00, -0.00, -1.00, 428.6, 333.4)">u</text><text xml:space="preserve" font-family="Arial-BoldMT,Arial" font-weight="bold" font-size="28.0" fill="#3F3F3F" transform="matrix(1.00, 0.00, -0.00, -1.00, 445.7, 333.4)">d</text><text xml:space="preserve" font-family="Arial-BoldMT,Arial" font-weight="bold" font-size="28.0" fill="#3F3F3F" transform="matrix(1.00, 0.00, -0.00, -1.00, 462.8, 333.4)">i</text><text xml:space="preserve" font-family="Arial-BoldMT,Arial" font-weight="bold" font-size="28.0" fill="#3F3F3F" transform="matrix(1.00, 0.00, -0.00, -1.00, 470.6, 333.4)">o</text><text xml:space="preserve" font-family="Arial-BoldMT,Arial" font-weight="bold" font-size="28.0" fill="#3F3F3F" transform="matrix(1.00, 0.00, -0.00, -1.00, 487.7, 333.4)"> </text><text xml:space="preserve" font-family="Arial-BoldMT,Arial" font-weight="bold" font-size="28.0" fill="#3F3F3F" transform="matrix(1.00, 0.00, -0.00, -1.00, 495.5, 333.4)">c</text><text xml:space="preserve" font-family="Arial-BoldMT,Arial" font-weight="bold" font-size="28.0" fill="#3F3F3F" transform="matrix(1.00, 0.00, -0.00, -1.00, 511.1, 333.4)">l</text><text xml:space="preserve" font-family="Arial-BoldMT,Arial" font-weight="bold" font-size="28.0" fill="#3F3F3F" transform="matrix(1.00, 0.00, -0.00, -1.00, 518.8, 333.4)">i</text><text xml:space="preserve" font-family="Arial-BoldMT,Arial" font-weight="bold" font-size="28.0" fill="#3F3F3F" transform="matrix(1.00, 0.00, -0.00, -1.00, 526.6, 333.4)">p</text><text xml:space="preserve" font-family="Arial-BoldMT,Arial" font-weight="bold" font-size="28.0" fill="#3F3F3F" transform="matrix(1.00, 0.00, -0.00, -1.00, 543.7, 333.4)">s</text><text xml:space="preserve" font-family="Arial-BoldMT,Arial" font-weight="bold" font-size="28.0" fill="#3F3F3F" transform="matrix(1.00, 0.00, -0.00, -1.00, 559.3, 333.4)">,</text><text xml:space="preserve" font-family="Arial-BoldMT,Arial" font-weight="bold" font-size="28.0" fill="#3F3F3F" transform="matrix(1.00, 0.00, -0.00, -1.00, 567.1, 333.4)"> </text><text xml:space="preserve" font-family="Arial-BoldMT,Arial" font-weight="bold" font-size="28.0" fill="#3F3F3F" transform="matrix(1.00, 0.00, -0.00, -1.00, 54.7, 301.4)">m</text><text xml:space="preserve" font-family="Arial-BoldMT,Arial" font-weight="bold" font-size="28.0" fill="#3F3F3F" transform="matrix(1.00, 0.00, -0.00, -1.00, 79.6, 301.4)">u</text><text xml:space="preserve" font-family="Arial-BoldMT,Arial" font-weight="bold" font-size="28.0" fill="#3F3F3F" transform="matrix(1.00, 0.00, -0.00, -1.00, 96.7, 301.4)">s</text><text xml:space="preserve" font-family="Arial-BoldMT,Arial" font-weight="bold" font-size="28.0" fill="#3F3F3F" transform="matrix(1.00, 0.00, -0.00, -1.00, 112.3, 301.4)">i</text><text xml:space="preserve" font-family="Arial-BoldMT,Arial" font-weight="bold" font-size="28.0" fill="#3F3F3F" transform="matrix(1.00, 0.00, -0.00, -1.00, 120.1, 301.4)">c</text><text xml:space="preserve" font-family="Arial-BoldMT,Arial" font-weight="bold" font-size="28.0" fill="#3F3F3F" transform="matrix(1.00, 0.00, -0.00, -1.00, 135.6, 301.4)"> </text><text xml:space="preserve" font-family="Arial-BoldMT,Arial" font-weight="bold" font-size="28.0" fill="#3F3F3F" transform="matrix(1.00, 0.00, -0.00, -1.00, 143.4, 301.4)">a</text><text xml:space="preserve" font-family="Arial-BoldMT,Arial" font-weight="bold" font-size="28.0" fill="#3F3F3F" transform="matrix(1.00, 0.00, -0.00, -1.00, 159.0, 301.4)">n</text><text xml:space="preserve" font-family="Arial-BoldMT,Arial" font-weight="bold" font-size="28.0" fill="#3F3F3F" transform="matrix(1.00, 0.00, -0.00, -1.00, 176.1, 301.4)">d</text><text xml:space="preserve" font-family="Arial-BoldMT,Arial" font-weight="bold" font-size="28.0" fill="#3F3F3F" transform="matrix(1.00, 0.00, -0.00, -1.00, 193.2, 301.4)">/</text><text xml:space="preserve" font-family="Arial-BoldMT,Arial" font-weight="bold" font-size="28.0" fill="#3F3F3F" transform="matrix(1.00, 0.00, -0.00, -1.00, 201.0, 301.4)">o</text><text xml:space="preserve" font-family="Arial-BoldMT,Arial" font-weight="bold" font-size="28.0" fill="#3F3F3F" transform="matrix(1.00, 0.00, -0.00, -1.00, 218.1, 301.4)">r</text><text xml:space="preserve" font-family="Arial-BoldMT,Arial" font-weight="bold" font-size="28.0" fill="#3F3F3F" transform="matrix(1.00, 0.00, -0.00, -1.00, 229.0, 301.4)"> </text><text xml:space="preserve" font-family="Arial-BoldMT,Arial" font-weight="bold" font-size="28.0" fill="#3F3F3F" transform="matrix(1.00, 0.00, -0.00, -1.00, 236.7, 301.4)">v</text><text xml:space="preserve" font-family="Arial-BoldMT,Arial" font-weight="bold" font-size="28.0" fill="#3F3F3F" transform="matrix(1.00, 0.00, -0.00, -1.00, 252.3, 301.4)">o</text><text xml:space="preserve" font-family="Arial-BoldMT,Arial" font-weight="bold" font-size="28.0" fill="#3F3F3F" transform="matrix(1.00, 0.00, -0.00, -1.00, 269.4, 301.4)">i</text><text xml:space="preserve" font-family="Arial-BoldMT,Arial" font-weight="bold" font-size="28.0" fill="#3F3F3F" transform="matrix(1.00, 0.00, -0.00, -1.00, 277.2, 301.4)">c</text><text xml:space="preserve" font-family="Arial-BoldMT,Arial" font-weight="bold" font-size="28.0" fill="#3F3F3F" transform="matrix(1.00, 0.00, -0.00, -1.00, 292.8, 301.4)">e</text><text xml:space="preserve" font-family="Arial-BoldMT,Arial" font-weight="bold" font-size="28.0" fill="#3F3F3F" transform="matrix(1.00, 0.00, -0.00, -1.00, 308.3, 301.4)"> </text><text xml:space="preserve" font-family="Arial-BoldMT,Arial" font-weight="bold" font-size="28.0" fill="#3F3F3F" transform="matrix(1.00, 0.00, -0.00, -1.00, 316.1, 301.4)">n</text><text xml:space="preserve" font-family="Arial-BoldMT,Arial" font-weight="bold" font-size="28.0" fill="#3F3F3F" transform="matrix(1.00, 0.00, -0.00, -1.00, 333.2, 301.4)">a</text><text xml:space="preserve" font-family="Arial-BoldMT,Arial" font-weight="bold" font-size="28.0" fill="#3F3F3F" transform="matrix(1.00, 0.00, -0.00, -1.00, 348.8, 301.4)">r</text><text xml:space="preserve" font-family="Arial-BoldMT,Arial" font-weight="bold" font-size="28.0" fill="#3F3F3F" transform="matrix(1.00, 0.00, -0.00, -1.00, 359.7, 301.4)">r</text><text xml:space="preserve" font-family="Arial-BoldMT,Arial" font-weight="bold" font-size="28.0" fill="#3F3F3F" transform="matrix(1.00, 0.00, -0.00, -1.00, 370.6, 301.4)">a</text><text xml:space="preserve" font-family="Arial-BoldMT,Arial" font-weight="bold" font-size="28.0" fill="#3F3F3F" transform="matrix(1.00, 0.00, -0.00, -1.00, 386.2, 301.4)">t</text><text xml:space="preserve" font-family="Arial-BoldMT,Arial" font-weight="bold" font-size="28.0" fill="#3F3F3F" transform="matrix(1.00, 0.00, -0.00, -1.00, 395.5, 301.4)">i</text><text xml:space="preserve" font-family="Arial-BoldMT,Arial" font-weight="bold" font-size="28.0" fill="#3F3F3F" transform="matrix(1.00, 0.00, -0.00, -1.00, 403.3, 301.4)">o</text><text xml:space="preserve" font-family="Arial-BoldMT,Arial" font-weight="bold" font-size="28.0" fill="#3F3F3F" transform="matrix(1.00, 0.00, -0.00, -1.00, 420.4, 301.4)">n</text><text xml:space="preserve" font-family="Arial-BoldMT,Arial" font-weight="bold" font-size="28.0" fill="#3F3F3F" transform="matrix(1.00, 0.00, -0.00, -1.00, 437.5, 301.4)">.</text><image xlink:href="8375EC40EDEACC2C8D1D0D7D1C0DB24D.png" width="183.00" height="8.00" transform="matrix(0.97, -0.23, -0.23, -0.97, 97.0, 365.1)" opacity="0.38"></image><path d="M 0.0 0.0 L 177.2 0.0 " fill="none" stroke="#FA8716" stroke-width="2.00" stroke-linejoin="round" transform="matrix(0.97, -0.23, -0.23, -0.97, 99.0, 362.1)"></path><image xlink:href="9272450ADD52BDAAE62D7624DA375206.png" width="180.00" height="8.00" transform="matrix(-0.97, -0.24, -0.24, 0.97, 262.8, 357.1)" opacity="0.38"></image><path d="M 0.0 0.0 L 173.8 0.0 " fill="none" stroke="#FA8716" stroke-width="2.00" stroke-linejoin="round" transform="matrix(-0.97, -0.24, -0.24, 0.97, 258.9, 361.8)"></path><text xml:space="preserve" font-family="Arial-BoldMT,Arial" font-weight="bold" font-size="28.0" fill="#FA8716" transform="matrix(1.00, 0.00, -0.00, -1.00, 42.5, 374.9)">p</text><text xml:space="preserve" font-family="Arial-BoldMT,Arial" font-weight="bold" font-size="28.0" fill="#FA8716" transform="matrix(1.00, 0.00, -0.00, -1.00, 59.6, 374.9)">r</text><text xml:space="preserve" font-family="Arial-BoldMT,Arial" font-weight="bold" font-size="28.0" fill="#FA8716" transform="matrix(1.00, 0.00, -0.00, -1.00, 70.5, 374.9)">e</text><text xml:space="preserve" font-family="Arial-BoldMT,Arial" font-weight="bold" font-size="28.0" fill="#FA8716" transform="matrix(1.00, 0.00, -0.00, -1.00, 86.1, 374.9)">s</text><text xml:space="preserve" font-family="Arial-BoldMT,Arial" font-weight="bold" font-size="28.0" fill="#FA8716" transform="matrix(1.00, 0.00, -0.00, -1.00, 101.6, 374.9)">e</text><text xml:space="preserve" font-family="Arial-BoldMT,Arial" font-weight="bold" font-size="28.0" fill="#FA8716" transform="matrix(1.00, 0.00, -0.00, -1.00, 117.2, 374.9)">n</text><text xml:space="preserve" font-family="Arial-BoldMT,Arial" font-weight="bold" font-size="28.0" fill="#FA8716" transform="matrix(1.00, 0.00, -0.00, -1.00, 134.3, 374.9)">t</text><text xml:space="preserve" font-family="Arial-BoldMT,Arial" font-weight="bold" font-size="28.0" fill="#FA8716" transform="matrix(1.00, 0.00, -0.00, -1.00, 143.6, 374.9)">a</text><text xml:space="preserve" font-family="Arial-BoldMT,Arial" font-weight="bold" font-size="28.0" fill="#FA8716" transform="matrix(1.00, 0.00, -0.00, -1.00, 159.2, 374.9)">t</text><text xml:space="preserve" font-family="Arial-BoldMT,Arial" font-weight="bold" font-size="28.0" fill="#FA8716" transform="matrix(1.00, 0.00, -0.00, -1.00, 168.5, 374.9)">i</text><text xml:space="preserve" font-family="Arial-BoldMT,Arial" font-weight="bold" font-size="28.0" fill="#FA8716" transform="matrix(1.00, 0.00, -0.00, -1.00, 176.3, 374.9)">o</text><text xml:space="preserve" font-family="Arial-BoldMT,Arial" font-weight="bold" font-size="28.0" fill="#FA8716" transform="matrix(1.00, 0.00, -0.00, -1.00, 193.4, 374.9)">n</text><text xml:space="preserve" font-family="Arial-BoldMT,Arial" font-weight="bold" font-size="28.0" fill="#FA8716" transform="matrix(1.00, 0.00, -0.00, -1.00, 210.5, 374.9)"> </text><text xml:space="preserve" font-family="Arial-BoldMT,Arial" font-weight="bold" font-size="28.0" fill="#FA8716" transform="matrix(1.00, 0.00, -0.00, -1.00, 218.3, 374.9)">o</text><text xml:space="preserve" font-family="Arial-BoldMT,Arial" font-weight="bold" font-size="28.0" fill="#FA8716" transform="matrix(1.00, 0.00, -0.00, -1.00, 235.4, 374.9)">f</text><text xml:space="preserve" font-family="Arial-BoldMT,Arial" font-weight="bold" font-size="28.0" fill="#FA8716" transform="matrix(1.00, 0.00, -0.00, -1.00, 244.7, 374.9)"> </text><text xml:space="preserve" font-family="Arial-BoldMT,Arial" font-weight="bold" font-size="28.0" fill="#FA8716" transform="matrix(1.00, 0.00, -0.00, -1.00, 252.5, 374.9)">r</text><text xml:space="preserve" font-family="Arial-BoldMT,Arial" font-weight="bold" font-size="28.0" fill="#FA8716" transform="matrix(1.00, 0.00, -0.00, -1.00, 263.4, 374.9)">e</text><text xml:space="preserve" font-family="Arial-BoldMT,Arial" font-weight="bold" font-size="28.0" fill="#FA8716" transform="matrix(1.00, 0.00, -0.00, -1.00, 279.0, 374.9)">s</text><text xml:space="preserve" font-family="Arial-BoldMT,Arial" font-weight="bold" font-size="28.0" fill="#FA8716" transform="matrix(1.00, 0.00, -0.00, -1.00, 294.5, 374.9)">e</text><text xml:space="preserve" font-family="Arial-BoldMT,Arial" font-weight="bold" font-size="28.0" fill="#FA8716" transform="matrix(1.00, 0.00, -0.00, -1.00, 310.1, 374.9)">a</text><text xml:space="preserve" font-family="Arial-BoldMT,Arial" font-weight="bold" font-size="28.0" fill="#FA8716" transform="matrix(1.00, 0.00, -0.00, -1.00, 325.7, 374.9)">r</text><text xml:space="preserve" font-family="Arial-BoldMT,Arial" font-weight="bold" font-size="28.0" fill="#FA8716" transform="matrix(1.00, 0.00, -0.00, -1.00, 336.6, 374.9)">c</text><text xml:space="preserve" font-family="Arial-BoldMT,Arial" font-weight="bold" font-size="28.0" fill="#FA8716" transform="matrix(1.00, 0.00, -0.00, -1.00, 352.2, 374.9)">h</text></g></svg>